<svg width="53" height="48" viewBox="0 0 53 48" fill="none" xmlns="http://www.w3.org/2000/svg">
<g clip-path="url(#clip0_144_679)">
<path d="M41.762 23.4511C41.7008 28.0043 40.6653 32.4916 38.725 36.6111C36.785 40.9111 34.001 44.6251 30.625 46.3111C30.698 45.9219 30.7261 45.5257 30.709 45.1301C30.7091 44.288 30.5433 43.4541 30.2209 42.676C29.8986 41.898 29.4261 41.1912 28.8304 40.5958C28.2347 40.0005 27.5276 39.5285 26.7494 39.2066C25.9711 38.8848 25.1371 38.7195 24.295 38.7201C23.2346 38.711 22.1894 38.9722 21.258 39.4791C19.8339 39.4359 18.4354 39.0901 17.1553 38.4645C15.8753 37.839 14.7431 36.9481 13.834 35.8511C11.8274 32.2111 10.6209 28.1848 10.295 24.0411C10.2569 19.8937 11.8576 15.899 14.7491 12.9256C17.6406 9.95211 21.589 8.24033 25.7358 8.16245C29.8826 8.08456 33.8925 9.64687 36.8936 12.5097C39.8947 15.3725 41.6443 19.3042 41.762 23.4501V23.4511Z" fill="#CE79CC"/>
<path d="M52.303 28.3423C52.2858 30.3059 51.4981 32.1842 50.1096 33.5728C48.721 34.9614 46.8427 35.7491 44.879 35.7663C44.5104 35.7806 44.1413 35.7524 43.779 35.6823C43.5312 35.6262 43.2983 35.5175 43.0962 35.3636C42.894 35.2096 42.7273 35.0141 42.6073 34.7901C42.4874 34.5661 42.417 34.3189 42.4009 34.0653C42.3848 33.8117 42.4234 33.5577 42.514 33.3203C43.5874 30.1116 44.1279 26.7487 44.114 23.3653C44.0791 20.9999 43.5776 18.6646 42.6385 16.4934C41.6993 14.3221 40.3409 12.3576 38.641 10.7123C36.956 9.05216 34.9492 7.75425 32.744 6.89834C30.5388 6.04244 28.1819 5.64664 25.818 5.73528C23.4515 5.77142 21.1154 6.27446 18.9438 7.21554C16.7721 8.15662 14.8076 9.51722 13.163 11.2193C11.5029 12.9043 10.205 14.9112 9.34911 17.1163C8.49321 19.3215 8.09741 21.6785 8.18605 24.0423C8.36888 27.1681 9.05259 30.2443 10.211 33.1533C10.2967 33.3688 10.3385 33.5993 10.3341 33.8312C10.3296 34.0631 10.279 34.2917 10.1852 34.5038C10.0913 34.716 9.95612 34.9072 9.78749 35.0665C9.61886 35.2257 9.42017 35.3497 9.20305 35.4313C9.57601 36.3041 10.0578 37.1263 10.637 37.8783C12.577 40.5783 16.205 43.6993 22.785 44.0363C22.9538 43.7415 23.2005 43.4989 23.4981 43.3352C23.7958 43.1715 24.1327 43.093 24.472 43.1083C24.7417 43.1023 25.0098 43.1502 25.2607 43.2493C25.5116 43.3483 25.7401 43.4965 25.9329 43.6851C26.1258 43.8737 26.279 44.0989 26.3836 44.3475C26.4882 44.5961 26.542 44.8631 26.542 45.1328C26.542 45.4025 26.4882 45.6695 26.3836 45.9181C26.279 46.1667 26.1258 46.3919 25.9329 46.5805C25.7401 46.7691 25.5116 46.9172 25.2607 47.0163C25.0098 47.1153 24.7417 47.1633 24.472 47.1573C24.1153 47.1473 23.7666 47.0495 23.4568 46.8724C23.147 46.6954 22.8857 46.4446 22.696 46.1423C15.188 45.8893 10.97 42.1773 8.77605 38.9713C7.99746 37.8974 7.34642 36.7366 6.83605 35.5123H5.73605C4.25531 35.1666 2.91656 34.3743 1.90107 33.2426C0.885586 32.1108 0.242415 30.6944 0.0586514 29.185C-0.125112 27.6756 0.159408 26.1462 0.873688 24.8038C1.58797 23.4615 2.6975 22.3711 4.05205 21.6803C4.47405 10.2063 14.682 0.842285 26.492 0.842285C32.1439 0.864695 37.5714 3.05685 41.6534 6.96598C45.7354 10.8751 48.1602 16.2027 48.427 21.8483C49.6117 22.4695 50.6035 23.4033 51.295 24.5483C51.9433 25.7086 52.2899 27.0132 52.303 28.3423Z" fill="#CE79CC"/>
<path d="M38.725 36.6965C40.6268 32.5633 41.6611 28.0841 41.764 23.5355C41.6856 19.3849 39.9616 15.4354 36.9712 12.5558C33.9809 9.67632 29.9691 8.10264 25.8185 8.18102C21.6678 8.25939 17.7183 9.98338 14.8388 12.9737C11.9593 15.9641 10.3856 19.9759 10.464 24.1265C10.5809 28.3074 11.8034 32.3826 14.007 35.9375" fill="#CE79CC"/>
</g>
<defs>
<clipPath id="clip0_144_679">
<rect width="52.307" height="46.315" fill="white" transform="translate(0 0.842285)"/>
</clipPath>
</defs>
</svg>
