<svg width="603" height="399" viewBox="0 0 603 399" fill="none" xmlns="http://www.w3.org/2000/svg">
<path d="M545.961 146.693L492.584 284.135L486.148 300.72L480.241 315.905L469.88 342.64L453.889 383.806C452.151 388.262 449.111 392.091 445.164 394.792C441.218 397.494 436.549 398.943 431.766 398.951H23.7094C19.7393 398.938 15.8356 397.932 12.3542 396.023C8.87275 394.115 5.92428 391.366 3.77754 388.026C1.6308 384.687 0.354061 380.863 0.0637079 376.903C-0.226645 372.944 0.478618 368.974 2.11521 365.357L4.50723 360.164L11.115 345.878L18.0928 330.706L60.2504 238.951L76.902 202.674L117.54 114.024L125.601 96.5663L163.609 13.8369C165.511 9.70858 168.555 6.21137 172.382 3.75921C176.209 1.30705 180.658 0.00260744 185.203 0.000262755H490.76C496.53 -0.0270546 502.106 2.07653 506.421 5.90761C510.075 9.10072 512.659 13.3406 513.822 18.0522C514.986 22.7638 514.671 27.7192 512.923 32.2462L505.747 50.9462L503.024 58.043L502.588 59.1927L493.8 82.0953C491.804 87.2367 491.682 92.9168 493.456 98.1389C494.064 99.9583 494.89 101.698 495.914 103.319C498.05 106.706 501.012 109.494 504.521 111.422C508.03 113.349 511.972 114.354 515.975 114.341H523.825C527.683 114.35 531.481 115.298 534.892 117.102C538.302 118.906 541.222 121.512 543.401 124.696C545.579 127.88 546.951 131.546 547.397 135.378C547.843 139.21 547.35 143.094 545.961 146.693Z" fill="url(#paint0_linear_1185_1046)"/>
<path style="mix-blend-mode:overlay" opacity="0.45" d="M486.135 300.773L480.227 315.958C469.219 326.438 455.369 338.12 455.369 338.12L400.022 366.838L320.517 382.908L201.776 380.384C201.776 380.384 133.967 372.917 98.1791 366.838C72.2502 362.437 27.3041 360.745 4.50726 360.164L11.115 345.878L18.0928 330.706C57.5413 329.609 87.2366 295.196 131.747 280.989C135.09 279.932 138.526 278.981 142.041 278.161C144.218 277.65 146.42 277.21 148.649 276.84C150.632 276.496 152.614 276.192 154.715 275.928C156.988 275.65 159.288 275.426 161.653 275.28C164.389 275.095 167.191 274.99 170.058 274.99C172.054 274.99 174.023 274.99 175.9 275.108C179.864 275.254 183.565 275.571 187.133 276.02C187.185 276.007 187.239 276.007 187.292 276.02C224.295 280.619 241.898 299.663 256.686 311.213C258.008 312.271 259.329 313.249 260.651 314.174C261.523 314.782 262.395 315.35 263.294 315.892C264.42 316.592 265.585 317.227 266.783 317.795C269.925 319.379 273.388 320.224 276.906 320.266C281.179 320.238 285.365 319.061 289.025 316.856C291.789 315.216 294.395 313.322 296.809 311.2C297.403 310.724 297.985 310.222 298.566 309.707C299.703 308.716 300.853 307.672 302.055 306.628C313.222 296.65 326.94 284.293 353.596 281.055V257.109L361.909 248.783V263.479L365.622 259.765V210.868L372.745 203.731V172.503L383.608 183.366V230.942L393.031 240.365V263.492H404.449V222.92H417.546V201.379L423.374 195.524V251.572L435.162 263.347V281.769L441.704 275.241V242.4L455.342 256.025V294.786C460.272 296.108 464.818 297.311 468.941 298.289C475.959 299.993 481.734 300.945 486.135 300.773Z" fill="url(#paint1_linear_1185_1046)"/>
<path d="M503.024 58.0431L502.575 59.1929L493.8 82.0822C491.797 87.2315 491.676 92.9221 493.456 98.1523C446.607 100.439 361.446 103.69 353.226 96.4739C377.384 96.4739 387.111 92.4167 397.842 82.069C408.573 71.7212 418.986 77.655 418.986 77.655C418.986 77.655 419.991 64.5716 432.4 61.5981C444.81 58.6246 452.527 69.7389 452.527 69.7389C452.527 69.7389 455.171 50.127 481.721 50.127C492.478 50.1138 499.033 53.7348 503.024 58.0431Z" fill="url(#paint2_linear_1185_1046)"/>
<path d="M303.879 39.0654C303.879 39.0654 311.372 21.2904 327.442 25.308C343.513 29.3255 339.799 38.735 347.49 39.0654C355.182 39.3958 360.243 31.0171 367.618 37.0566C374.992 43.0961 389.423 50.1136 399.824 50.1136H278.082C278.082 50.1136 294.417 47.7876 303.879 39.0654Z" fill="url(#paint3_linear_1185_1046)"/>
<path style="mix-blend-mode:overlay" opacity="0.45" d="M512.923 32.2462L505.747 50.9462L378.52 178.186L372.838 183.855L354.772 201.934L317.557 164.719L338.239 144.05L378.018 104.271L389.701 92.5091L482.289 0.000262754H490.773C496.543 -0.0270546 502.12 2.07653 506.434 5.90761C510.086 9.10231 512.668 13.3429 513.828 18.0544C514.989 22.766 514.673 27.7205 512.923 32.2462Z" fill="url(#paint4_linear_1185_1046)"/>
<path style="mix-blend-mode:overlay" opacity="0.45" d="M506.421 5.90755L351.799 160.529L338.239 147.036L314.531 123.354L328.896 109.002L346.512 91.3857L360.072 77.8266L365.794 72.1175L437.911 0.000204126H490.773C496.538 -0.0238544 502.11 2.07952 506.421 5.90755Z" fill="url(#paint5_linear_1185_1046)"/>
<path style="mix-blend-mode:overlay" opacity="0.45" d="M340.975 0L197.005 143.97L193.794 147.182L185.018 155.957L169.847 171.128L165.499 175.476L159.208 181.767L153.09 187.885L115.875 150.67L130.174 136.371L132.592 133.953L135.05 131.495L162.79 103.768L166.094 100.465L167.098 99.4602L171.71 94.8348L174.195 92.3635L181.265 85.2932L266.558 0H340.975Z" fill="url(#paint6_linear_1185_1046)"/>
<path style="mix-blend-mode:overlay" opacity="0.45" d="M296.584 0L241.911 54.6727L228.471 68.1262L179.177 117.42L178.622 117.988L151.847 144.763L150.077 146.534L131.694 128.151L126.553 123.01L117.58 114.024L125.601 96.566L222.167 0H296.584Z" fill="url(#paint7_linear_1185_1046)"/>
<path d="M178.754 236.255C171.684 242.466 107.774 240.973 60.1975 238.898L76.8623 202.608C78.1459 204.713 79.0412 207.032 79.5055 209.453C79.5055 209.453 87.2233 198.339 99.6327 201.313C112.042 204.286 113.047 217.37 113.047 217.37C113.047 217.37 123.447 211.423 134.191 221.784C144.936 232.145 154.543 236.255 178.754 236.255Z" fill="url(#paint8_linear_1185_1046)"/>
<path d="M289.791 346.367C289.791 346.367 267.325 305.2 242.295 308.65C217.264 312.099 224.203 334.935 241.488 336.746C258.774 338.556 274.342 343.935 280.17 350.807C285.998 357.679 289.791 346.367 289.791 346.367Z" fill="url(#paint9_linear_1185_1046)"/>
<g style="mix-blend-mode:overlay" opacity="0.25">
<path d="M288.364 349.459C288.364 349.459 262.911 313.328 225.973 322.737" stroke="white" stroke-width="0.38" stroke-miterlimit="10"/>
</g>
<g style="mix-blend-mode:overlay" opacity="0.25">
<path d="M276.946 327.971L277.977 338.187L266.228 342.284" stroke="white" stroke-width="0.38" stroke-miterlimit="10"/>
</g>
<g style="mix-blend-mode:overlay" opacity="0.25">
<path d="M263.188 314.993L265.567 329.041L250.885 338.12" stroke="white" stroke-width="0.38" stroke-miterlimit="10"/>
</g>
<g style="mix-blend-mode:overlay" opacity="0.25">
<path d="M248.995 308.755L251.968 323.133L239.017 336.336" stroke="white" stroke-width="0.38" stroke-miterlimit="10"/>
</g>
<path d="M290.095 359.86C273.867 343.896 270.959 338.438 271.276 335.451C271.593 332.464 274.911 335.266 275.241 332.966C275.571 330.667 265.171 329.081 262.316 322.804C259.462 316.526 260.836 307.104 263.122 306.35C265.409 305.597 267.47 307.883 267.827 305.808C268.184 303.734 258.391 299.888 256.871 292.421C255.352 284.954 259.858 270.113 264.801 263.466C269.03 274.686 278.915 280.58 281.809 287.981C284.703 295.381 277.118 301.579 278.479 303.681C279.84 305.782 282.827 299.121 285.47 301.725C288.113 304.328 290.875 325.328 288.681 329.477C286.487 333.627 303.509 344.834 300.575 351.376C297.641 357.917 290.095 359.86 290.095 359.86Z" fill="url(#paint10_linear_1185_1046)"/>
<g style="mix-blend-mode:overlay" opacity="0.25">
<path d="M264.787 263.466C264.787 263.466 269.651 314.636 294.047 363.441" stroke="white" stroke-width="0.34" stroke-miterlimit="10"/>
</g>
<path d="M287.003 350.925C287.003 350.925 306.126 288.217 341.358 285.852C376.591 283.486 373.551 316.71 350.411 324.084C327.271 331.459 307.474 343.207 301.434 354.282C295.395 365.356 287.003 350.925 287.003 350.925Z" fill="url(#paint11_linear_1185_1046)"/>
<g style="mix-blend-mode:overlay" opacity="0.25">
<path d="M289.844 354.746C289.844 354.746 314.504 298.077 367.684 300.562" stroke="white" stroke-width="0.53" stroke-miterlimit="10"/>
</g>
<g style="mix-blend-mode:overlay" opacity="0.25">
<path d="M299.386 322.103L300.866 336.375L318.099 338.675" stroke="white" stroke-width="0.53" stroke-miterlimit="10"/>
</g>
<g style="mix-blend-mode:overlay" opacity="0.25">
<path d="M314.557 300.443L315.258 320.345L337.936 328.618" stroke="white" stroke-width="0.53" stroke-miterlimit="10"/>
</g>
<g style="mix-blend-mode:overlay" opacity="0.25">
<path d="M332.213 287.888V308.412L353.689 322.817" stroke="white" stroke-width="0.53" stroke-miterlimit="10"/>
</g>
<path d="M338.24 120.869V153.3H281.849V120.869C281.849 116.663 280.178 112.63 277.204 109.656C274.23 106.682 270.196 105.011 265.99 105.011H322.381C325.413 105.015 328.381 105.889 330.931 107.529C333.482 109.169 335.509 111.505 336.773 114.262C337.096 114.953 337.366 115.669 337.579 116.403C338.012 117.852 338.235 119.356 338.24 120.869Z" fill="url(#paint12_linear_1185_1046)"/>
<path style="mix-blend-mode:overlay" opacity="0.45" d="M309.707 131.032L307.434 130.015C307.434 130.015 307.223 110.033 290.254 105.024H297.007C301.236 107.046 308.082 113.033 309.707 131.032Z" fill="url(#paint13_linear_1185_1046)"/>
<path style="mix-blend-mode:overlay" opacity="0.45" d="M336.746 114.235C333.984 115.002 331.856 111.341 327.416 107.746C322.249 103.544 316.751 108.552 311.716 106.649C306.681 104.746 301.778 109.174 296.875 106.914C291.972 104.654 289.699 106.914 284.162 107.667C280.699 108.143 276.444 106.345 273.748 105.024H322.381C325.404 105.03 328.363 105.901 330.908 107.533C333.453 109.165 335.479 111.49 336.746 114.235Z" fill="url(#paint14_linear_1185_1046)"/>
<path d="M281.849 120.869V153.3H250.131V120.869C250.131 116.663 251.802 112.63 254.776 109.656C257.75 106.682 261.784 105.011 265.99 105.011C270.196 105.011 274.23 106.682 277.204 109.656C280.178 112.63 281.849 116.663 281.849 120.869Z" fill="url(#paint15_linear_1185_1046)"/>
<path style="mix-blend-mode:overlay" opacity="0.45" d="M264.047 145.49C263.697 145.49 263.361 145.35 263.113 145.103C262.865 144.855 262.726 144.519 262.726 144.168V121.583C262.726 121.232 262.865 120.896 263.113 120.648C263.361 120.4 263.697 120.261 264.047 120.261C264.398 120.261 264.734 120.4 264.982 120.648C265.23 120.896 265.369 121.232 265.369 121.583V144.155C265.371 144.33 265.338 144.503 265.272 144.665C265.207 144.827 265.109 144.974 264.987 145.098C264.864 145.222 264.717 145.321 264.556 145.388C264.395 145.455 264.222 145.49 264.047 145.49Z" fill="url(#paint16_linear_1185_1046)"/>
<path d="M302.108 153.327H296.875V350.278H302.108V153.327Z" fill="url(#paint17_linear_1185_1046)"/>
<path style="mix-blend-mode:overlay" opacity="0.45" d="M302.108 153.327H298.633V350.278H302.108V153.327Z" fill="url(#paint18_linear_1185_1046)"/>
<path d="M313.024 129.75C313.024 130.657 312.755 131.544 312.251 132.298C311.747 133.052 311.031 133.64 310.193 133.987C309.355 134.334 308.433 134.425 307.544 134.248C306.654 134.071 305.837 133.634 305.196 132.993C304.554 132.352 304.118 131.535 303.941 130.645C303.764 129.755 303.855 128.833 304.202 127.995C304.549 127.157 305.136 126.441 305.891 125.937C306.645 125.434 307.531 125.165 308.438 125.165C309.655 125.165 310.821 125.648 311.681 126.508C312.541 127.368 313.024 128.534 313.024 129.75Z" fill="url(#paint19_linear_1185_1046)"/>
<path d="M309.165 79.294L308.452 78.99C308.585 78.9869 308.718 79.0124 308.841 79.0648C308.964 79.1172 309.075 79.1954 309.165 79.294Z" fill="url(#paint20_linear_1185_1046)"/>
<path d="M327.416 87.0248L309.443 96.8572V130.015C309.443 130.281 309.337 130.537 309.149 130.725C308.96 130.914 308.705 131.019 308.438 131.019C308.172 131.019 307.917 130.914 307.728 130.725C307.54 130.537 307.434 130.281 307.434 130.015V79.9941C307.434 79.7277 307.54 79.4723 307.728 79.2839C307.917 79.0956 308.172 78.9897 308.438 78.9897L309.165 79.2937L327.416 87.0248Z" fill="url(#paint21_linear_1185_1046)"/>
<path style="mix-blend-mode:overlay" opacity="0.45" d="M338.24 120.87V153.3H271.091C271.635 152.666 272.134 151.995 272.585 151.292C273.563 149.697 274.918 148.368 276.532 147.42C278.145 146.473 279.966 145.937 281.836 145.86C285.985 145.358 290.214 145.569 293.584 140.719C299.624 132.037 307.421 142.609 313.011 132.882C318.601 123.156 326.914 131.799 330.442 122.31C332.491 116.826 335.438 116.019 337.539 116.31C337.995 117.787 338.231 119.324 338.24 120.87Z" fill="url(#paint22_linear_1185_1046)"/>
<path d="M231.868 134.151C231.868 134.151 235.224 136.08 236.506 135.314C237.788 134.547 235.026 131.349 232.634 130.318L231.868 134.151Z" fill="url(#paint23_linear_1185_1046)"/>
<path d="M171.182 99.8438H171.076L170.402 105.725L166.53 104.707L158.601 102.619L161.244 93.3682L163.675 93.8704C164.93 92.2817 166.086 90.6179 167.138 88.8881C167.138 88.8881 162.816 87.963 162.658 85.5314C162.584 84.9856 162.655 84.43 162.866 83.921C163.076 83.412 163.417 82.9678 163.855 82.6335C164.293 82.2992 164.811 82.0867 165.358 82.0177C165.904 81.9487 166.459 82.0257 166.966 82.2407C167.599 82.6016 168.116 83.1347 168.458 83.7781C168.799 84.4215 168.951 85.1487 168.896 85.875L171.539 82.1746C174.376 83.1807 177.436 83.3819 180.38 82.7561C180.472 82.9057 180.556 83.0601 180.631 83.2187C182.613 87.4344 181.886 100.439 171.182 99.8438Z" fill="url(#paint24_linear_1185_1046)"/>
<path style="mix-blend-mode:overlay" opacity="0.45" d="M180.67 83.3375C178.498 83.3699 176.365 83.9325 174.459 84.9762C171.618 86.9057 171.882 86.6546 169.556 88.1215C167.23 89.5884 170.402 92.0201 167.138 94.3328C163.874 96.6455 168.935 100.082 167.429 102.883C167.058 103.57 166.794 104.205 166.556 104.76L158.627 102.672L161.27 93.4209L163.702 93.9231C164.956 92.3345 166.113 90.6706 167.164 88.9409C167.164 88.9409 162.843 88.0158 162.684 85.5841C162.61 85.0384 162.682 84.4827 162.892 83.9737C163.103 83.4647 163.444 83.0205 163.882 82.6862C164.319 82.3519 164.838 82.1394 165.384 82.0705C165.93 82.0015 166.485 82.0784 166.992 82.2934C167.625 82.6543 168.142 83.1874 168.484 83.8308C168.826 84.4742 168.977 85.2014 168.922 85.9277L171.565 82.2274C174.402 83.2334 177.462 83.4347 180.406 82.8089C180.505 82.9796 180.593 83.1561 180.67 83.3375Z" fill="url(#paint25_linear_1185_1046)"/>
<path d="M189.882 68.7209C189.99 70.5077 189.77 72.2992 189.234 74.0071C187.265 79.7294 183.776 82.095 180.419 82.9276C177.475 83.5534 174.415 83.3521 171.578 82.3461L168.935 86.0465C168.991 85.3201 168.839 84.593 168.497 83.9496C168.156 83.3062 167.638 82.773 167.006 82.4122C166.499 82.1971 165.944 82.1202 165.397 82.1892C164.851 82.2582 164.332 82.4706 163.895 82.8049C163.457 83.1392 163.116 83.5835 162.905 84.0925C162.695 84.6015 162.623 85.1571 162.697 85.7029C162.856 88.1345 167.177 89.0596 167.177 89.0596C167.177 89.0596 163.979 94.4383 161.283 96.5793C160.743 97.0984 160.036 97.4076 159.288 97.4515C157.054 97.2665 151.887 93.315 149.944 86.4694C149.455 84.6473 149.224 82.7655 149.257 80.8792C149.257 70.6636 158.971 70.3067 158.971 70.3067C158.971 70.3067 159.367 62.2453 167.653 62.2453C174.261 62.2453 176.508 64.624 181.966 64.8884C187.424 65.1527 188.904 61.5845 188.904 61.5845C189.49 63.9203 189.818 66.3134 189.882 68.7209Z" fill="url(#paint26_linear_1185_1046)"/>
<path d="M144.328 328.01L141.685 333.799H133.755L134.086 327.508C137.436 328.327 140.913 328.498 144.328 328.01Z" fill="url(#paint27_linear_1185_1046)"/>
<path d="M148.015 350.278H132.791C132.519 350.277 132.251 350.216 132.006 350.1C131.761 349.984 131.544 349.815 131.371 349.606C131.198 349.396 131.074 349.151 131.006 348.889C130.938 348.626 130.93 348.351 130.98 348.084L131.443 345.6L133.676 333.798H141.605L146.416 346.247L148.015 350.278Z" fill="url(#paint28_linear_1185_1046)"/>
<path d="M148.015 350.278H132.791C132.519 350.277 132.251 350.216 132.006 350.1C131.761 349.984 131.544 349.815 131.371 349.606C131.198 349.397 131.074 349.152 131.006 348.889C130.938 348.626 130.93 348.351 130.98 348.085L131.443 345.6L146.455 346.248L148.015 350.278Z" fill="url(#paint29_linear_1185_1046)"/>
<path d="M190.662 242.175C190.534 239.077 190.233 235.989 189.763 232.924C189.697 232.528 189.644 232.132 189.578 231.735C189.419 230.717 189.247 229.7 189.062 228.669L188.666 226.581C188.494 225.709 188.309 224.85 188.124 224.004C187.833 222.682 187.543 221.361 187.212 220.039C187.027 219.233 186.829 218.414 186.618 217.608C186.01 215.216 185.375 212.929 184.767 210.775C184.543 210.009 184.318 209.269 184.107 208.529L183.525 206.652C183.168 205.489 182.811 204.392 182.494 203.401C182.402 203.15 182.336 202.912 182.256 202.687C182.177 202.463 182.111 202.225 182.032 202C182.032 202 182.032 202 182.032 201.934C181.952 201.67 181.873 201.405 181.781 201.154C181.781 201.353 181.715 201.511 181.688 201.656C181.666 201.754 181.621 201.845 181.556 201.921C181.519 202.006 181.465 202.082 181.397 202.145C181.14 202.422 180.836 202.65 180.499 202.819L180.142 202.991C180.017 203.064 179.884 203.122 179.745 203.163L179.257 203.348H179.124C178.715 203.48 178.265 203.626 177.803 203.731C177.582 203.8 177.357 203.853 177.129 203.89L176.23 204.075L175.437 204.22C174.631 204.352 173.746 204.485 172.794 204.564L171.882 204.643C170.732 204.762 169.517 204.828 168.248 204.868C168.18 204.894 168.104 204.894 168.037 204.868C167.746 204.868 167.455 204.868 167.138 204.868C166.517 204.868 165.816 204.868 165.208 204.868H165.142C165.13 204.875 165.117 204.878 165.103 204.878C165.089 204.878 165.075 204.875 165.063 204.868C165.063 204.868 165.063 204.868 164.984 204.868C164.777 204.881 164.569 204.881 164.363 204.868H164.151C163.768 204.868 163.398 204.868 163.015 204.868C162.631 204.868 161.865 204.868 161.27 204.789H160.675C160.081 204.789 159.473 204.709 158.865 204.643L156.962 204.445H156.433L155.402 204.326C155.282 204.316 155.162 204.294 155.046 204.26C154.517 204.26 154.002 204.128 153.486 204.035L152.165 203.797C150.249 203.457 148.352 203.016 146.482 202.476C145.319 202.145 144.182 201.789 143.086 201.379L142.081 200.996C141.738 200.85 141.381 200.718 141.037 200.56C140.694 200.401 140.363 200.269 140.02 200.11C139.676 199.952 139.068 199.661 138.619 199.423C138.169 199.185 138.011 199.106 137.733 198.934C137.456 198.762 137.112 198.577 136.821 198.392C136.531 198.207 136.438 198.168 136.266 198.035C136.095 197.903 135.698 197.652 135.421 197.441C135.143 197.229 134.879 197.044 134.601 196.833C133.568 196.024 132.624 195.107 131.786 194.097C131.786 196.45 131.786 200.19 131.786 204.934C131.786 209.15 131.786 214.185 131.786 219.669C131.786 226.118 131.786 233.281 131.786 240.814C131.786 253.924 131.892 268.065 131.971 281.108C132.117 299.121 132.315 315.046 132.645 323.332C132.645 324.891 132.764 326.173 132.844 327.165C133.306 327.323 133.795 327.495 134.271 327.627C134.747 327.759 135.13 327.839 135.592 327.918H135.804C136.068 327.918 136.332 328.024 136.597 328.063L137.35 328.156H137.561H137.826C138.959 328.256 140.098 328.291 141.235 328.261H142.121C142.53 328.261 142.94 328.261 143.323 328.182L144.486 328.05C145.504 327.918 146.403 327.772 147.13 327.614C148.409 328.867 149.783 330.021 151.24 331.063C151.57 331.288 151.874 331.499 152.204 331.697C152.535 331.896 152.812 332.094 153.129 332.266C153.661 332.572 154.213 332.841 154.781 333.072L155.508 333.349L155.997 333.508C156.111 333.555 156.231 333.587 156.354 333.601L156.698 333.693L157.12 333.772H157.372C158.045 333.865 158.73 333.811 159.38 333.614C159.729 333.46 160.05 333.25 160.332 332.993C160.504 332.86 160.675 332.715 160.86 332.543L161.138 332.279L161.429 331.975C163.188 330.126 164.805 328.147 166.266 326.054L167.098 324.839C168.42 322.975 169.741 320.874 171.182 318.416L171.724 317.504C172.437 316.182 173.164 314.94 173.878 313.539L174.552 312.218C175.072 311.24 175.574 310.235 176.058 309.205C176.204 308.901 176.362 308.597 176.508 308.28C176.825 307.592 177.155 306.958 177.472 306.191C178.45 304.077 179.389 301.844 180.314 299.504L180.644 298.672C181.252 297.126 181.834 295.553 182.402 293.927C182.706 293.055 182.997 292.17 183.3 291.284L183.776 289.804L184.252 288.271C184.45 287.65 184.622 287.029 184.807 286.395C184.992 285.76 185.177 285.152 185.349 284.531C185.626 283.5 185.904 282.47 186.168 281.399C186.366 280.619 186.565 279.84 186.75 279.034C186.855 278.571 186.974 278.122 187.067 277.712C187.159 277.302 187.331 276.575 187.45 276.007C187.529 275.65 187.609 275.32 187.675 274.963C189.534 266.037 190.574 256.96 190.78 247.845C190.78 246.669 190.78 245.479 190.78 244.29C190.728 243.594 190.688 242.889 190.662 242.175ZM151.689 303.958L154.728 275.901L158.693 239.982L159.235 234.894L159.883 228.973C160.438 230.651 161.006 232.488 161.548 234.471C161.632 234.736 161.703 235.005 161.759 235.277C162.142 236.598 162.473 238.131 162.777 239.691C164.521 248.651 164.997 260.452 161.706 275.254C159.637 284.276 156.671 293.068 152.852 301.5L151.689 303.958Z" fill="url(#paint30_linear_1185_1046)"/>
<path style="mix-blend-mode:overlay" opacity="0.45" d="M190.701 244.277C190.701 245.466 190.701 246.656 190.701 247.819C185.217 245.942 186.525 241.079 183.789 237.14C180.525 232.449 176.164 235.819 169.781 236.229C163.398 236.638 164.918 230.44 159.896 225.233C154.874 220.026 149.151 228.762 143.456 224.07C137.76 219.379 139.927 212.996 132.434 205.78C132.103 205.476 131.813 205.159 131.535 204.855C131.535 200.11 131.535 196.37 131.535 194.005C142.94 207.947 180.433 206.137 181.675 201.591C181.722 201.426 181.757 201.258 181.781 201.088C184.701 209.877 190.701 229.502 190.701 244.277Z" fill="url(#paint31_linear_1185_1046)"/>
<g style="mix-blend-mode:overlay" opacity="0.25">
<path d="M176.917 220.912C176.917 220.912 190.054 277.646 151.808 327.508" stroke="white" stroke-width="0.53" stroke-miterlimit="10"/>
</g>
<g style="mix-blend-mode:overlay" opacity="0.25">
<path d="M153.79 222.021C153.79 222.021 146.297 296.993 146.112 313.433" stroke="white" stroke-width="0.53" stroke-miterlimit="10"/>
</g>
<path d="M183.618 138.764C183.366 139.293 183.076 139.861 182.772 140.442L182.455 141.037L182.137 141.605C180.893 143.821 179.442 145.914 177.803 147.856C177.604 148.107 177.393 148.332 177.195 148.57L179.838 156.076L180.155 156.988L180.697 158.508C180.697 158.508 180.842 160.688 181.014 164.058C181.199 167.693 181.463 172.715 181.662 177.935C182.045 187.582 182.296 197.851 181.741 201.115C181.717 201.285 181.682 201.452 181.635 201.617C180.433 206.163 142.9 207.974 131.495 194.031C130.719 193.094 130.062 192.064 129.54 190.965C129.248 190.342 129.005 189.697 128.813 189.036C129.143 187.516 129.434 185.521 129.685 183.234C129.857 181.741 130.029 180.129 130.161 178.463C131.125 167.006 131.482 152.468 131.482 152.468C130.358 152.53 129.231 152.395 128.152 152.072C125.377 151.279 121.544 149.032 119.905 142.742C120.394 123.579 138.989 106.24 151.306 103.174V103.082C151.306 103.082 153.063 99.1172 154.279 98.3111C155.495 97.5049 170.138 100.888 171.856 103.082C172.259 104.235 172.403 105.462 172.279 106.677C173.315 107.414 174.233 108.306 175.001 109.32C175.521 109.964 176.002 110.64 176.442 111.342C179.161 116.004 180.631 121.288 180.71 126.685C180.974 132.288 182.111 136.121 183.618 138.764Z" fill="url(#paint32_linear_1185_1046)"/>
<path style="mix-blend-mode:overlay" opacity="0.45" d="M181.741 201.088C181.717 201.258 181.682 201.426 181.635 201.59C180.433 206.136 142.9 207.947 131.495 194.005C130.719 193.068 130.062 192.038 129.54 190.939C133.504 189.432 137.072 188.031 136.689 183.313C135.857 172.741 146.416 177.934 146.178 166.701C145.94 155.468 157.319 155.138 155.64 143.865C153.962 132.592 160.001 128.297 160.001 128.297C160.001 128.297 157.358 145.292 167.587 155.534L180.155 156.961L180.697 158.481C180.697 158.481 182.851 194.427 181.741 201.088Z" fill="url(#paint33_linear_1185_1046)"/>
<path d="M235.317 125.945C235.317 125.945 236.638 133.412 232.793 133.993C228.947 134.575 227.203 133.742 228.18 131.562C228.18 131.456 228.286 131.337 228.352 131.231L228.009 131.324C224.172 132.514 220.774 134.813 218.242 137.931C209.441 147.896 204.128 164.6 186.419 164.6C184.6 164.602 182.786 164.393 181.014 163.979C175.742 162.662 171.034 159.682 167.587 155.482C170.284 154.361 172.759 152.768 174.895 150.777C175.692 150.055 176.451 149.292 177.168 148.491C177.367 148.253 177.578 148.028 177.776 147.777C179.416 145.835 180.867 143.742 182.111 141.526L182.428 140.945L182.745 140.35C183.049 139.768 183.34 139.2 183.591 138.672C184.34 140.194 185.493 141.482 186.924 142.393C188.355 143.304 190.009 143.804 191.706 143.839C197.6 143.839 200.362 138.275 205.212 132.923C209.732 127.914 216.062 123.051 228.445 123.051C234.471 123.051 242.691 122.892 243.286 124.227C243.881 125.562 235.317 125.945 235.317 125.945Z" fill="url(#paint34_linear_1185_1046)"/>
<path d="M131.496 152.441C131.496 152.441 131.125 166.978 130.174 178.436C128.695 177.543 127.388 176.393 126.315 175.04C120.183 167.441 118.861 152.97 119.919 142.728C121.61 149.018 125.39 151.265 128.165 152.058L128.879 152.23H129.209C129.54 152.23 129.844 152.335 130.108 152.362H130.491H130.755C131 152.403 131.247 152.43 131.496 152.441Z" fill="url(#paint35_linear_1185_1046)"/>
<path d="M154.649 333.032C152.192 333.931 149.547 334.191 146.963 333.786C144.378 333.382 141.939 332.326 139.874 330.719L145.411 324.111L154.649 333.032Z" fill="url(#paint36_linear_1185_1046)"/>
<path d="M172.913 350.278H144.988C144.988 350.278 133.755 340.38 134.006 339.296C134.924 337.573 135.99 335.932 137.191 334.393C138.513 332.477 139.834 330.732 139.834 330.732C141.904 332.344 144.351 333.401 146.944 333.803C149.536 334.206 152.188 333.94 154.649 333.032C155.626 335.48 157.394 337.532 159.671 338.86C163.781 341.503 167.878 339.441 172.887 342.97C173.214 343.186 173.519 343.434 173.798 343.71C177.274 347.014 172.913 350.278 172.913 350.278Z" fill="url(#paint37_linear_1185_1046)"/>
<path d="M155.865 173.124L150.962 172.252C148.57 110.733 172.265 106.703 172.265 106.703C173.302 107.441 174.22 108.332 174.988 109.346C152.455 126.777 155.865 173.124 155.865 173.124Z" fill="url(#paint38_linear_1185_1046)"/>
<path d="M198.155 194.705C197.906 196.199 197.357 197.627 196.539 198.901C195.721 200.176 194.652 201.271 193.397 202.119C189.432 205.185 184.054 206.863 181.662 206.784C177.763 206.665 161.415 205.779 160.16 202.264C160.154 202.211 160.154 202.158 160.16 202.105C160.154 202.079 160.154 202.052 160.16 202.026C159.208 197.81 164.693 175.833 150.037 172.516L151.662 172.344C157.926 171.736 180.565 169.793 190.159 172.199C193.423 173.018 195.63 176.718 196.926 181.172C198.128 185.576 198.544 190.157 198.155 194.705Z" fill="url(#paint39_linear_1185_1046)"/>
<path d="M160.504 226.647C158.138 226.541 149.482 225.669 147.42 218.718C145.041 210.683 146.68 188.163 147.42 180.102C148.16 172.04 149.944 172.503 149.944 172.503C164.6 175.82 159.116 197.798 160.067 202.013C160.061 202.039 160.061 202.066 160.067 202.093C160.504 204.841 162.578 219.141 160.504 226.647Z" fill="url(#paint40_linear_1185_1046)"/>
<path style="mix-blend-mode:overlay" opacity="0.45" d="M160.504 226.647C158.138 226.541 149.482 225.669 147.42 218.718C145.041 210.683 146.68 188.163 147.42 180.102C148.16 172.04 149.944 172.503 149.944 172.503C164.6 175.82 159.116 197.798 160.067 202.013C160.061 202.039 160.061 202.066 160.067 202.093C160.504 204.841 162.578 219.141 160.504 226.647Z" fill="url(#paint41_linear_1185_1046)"/>
<path d="M190.701 221.757C190.378 222.175 190.015 222.56 189.617 222.907C182.494 229.026 161.098 226.66 161.098 226.66H160.504C161.825 221.89 161.468 214.357 160.913 208.806C160.609 205.634 160.239 203.11 160.081 202.119C160.075 202.172 160.075 202.225 160.081 202.278C161.402 205.793 177.684 206.678 181.582 206.797C183.974 206.877 189.34 205.198 193.318 202.132C194.031 208.053 194.269 216.987 190.701 221.757Z" fill="url(#paint42_linear_1185_1046)"/>
<path d="M177.301 87.6594C177.301 88.4259 176.904 88.981 176.415 88.981C175.926 88.981 175.543 88.3599 175.543 87.6594C175.543 86.959 175.939 86.3379 176.415 86.3379C176.891 86.3379 177.301 86.8929 177.301 87.6594Z" fill="url(#paint43_linear_1185_1046)"/>
<path d="M171.036 90.9629C171.103 90.9629 177.895 94.0421 177.895 94.0421C177.349 94.7058 176.646 95.2234 175.851 95.5487C175.055 95.8739 174.191 95.9965 173.336 95.9055C170.534 95.4958 171.036 90.9629 171.036 90.9629Z" fill="#EBF7FF"/>
<path style="mix-blend-mode:overlay" opacity="0.45" d="M189.882 68.7207C189.99 70.5075 189.77 72.299 189.234 74.0069C187.265 79.7293 183.776 82.0948 180.42 82.9274C177.475 83.5532 174.415 83.352 171.578 82.3459L168.935 86.0463C168.991 85.32 168.839 84.5928 168.497 83.9494C168.156 83.306 167.639 82.7729 167.006 82.412C166.499 82.197 165.944 82.12 165.397 82.189C164.851 82.258 164.333 82.4705 163.895 82.8048C163.457 83.1391 163.116 83.5833 162.906 84.0923C162.695 84.6013 162.623 85.1569 162.697 85.7027C162.856 88.1343 167.178 89.0594 167.178 89.0594C167.178 89.0594 163.979 94.4382 161.283 96.5791C160.743 97.0982 160.036 97.4075 159.288 97.4513C157.054 97.2663 151.887 93.3148 149.944 86.4692C151.876 87.0289 153.907 87.1508 155.891 86.826C158.839 86.0199 158.019 77.9055 166.213 77.7734C172.411 77.628 186.578 75.5664 189.882 68.7207Z" fill="url(#paint44_linear_1185_1046)"/>
<path style="mix-blend-mode:overlay" opacity="0.45" d="M131.694 128.191C130.782 130.623 131.073 133.689 130.174 136.411C129.898 137.262 129.482 138.061 128.945 138.777C126.024 142.556 128.747 147.803 128.165 152.085C128.068 152.79 127.863 153.477 127.557 154.12C126.13 156.948 126.936 159.75 127.703 162.538C128.229 164.171 128.514 165.871 128.548 167.587C128.278 170.203 127.516 172.746 126.302 175.08C127.384 176.406 128.69 177.533 130.161 178.41C130.161 177.564 130.306 176.732 130.372 175.859C130.372 175.238 130.452 174.617 130.504 174.009C130.504 173.639 130.504 173.256 130.504 172.886C130.504 172.516 130.504 172.331 130.504 172.067C130.504 171.802 130.504 171.419 130.504 171.115C130.504 171.115 130.504 171.023 130.504 170.956C130.504 170.468 130.504 169.992 130.597 169.516C130.597 168.829 130.597 168.194 130.703 167.454C130.808 166.714 130.769 166.305 130.795 165.736C130.888 163.767 130.967 161.877 131.046 160.199C131.046 159.578 131.046 159.01 131.046 158.441C131.046 157.873 131.046 156.974 131.046 156.34C131.039 156.274 131.039 156.208 131.046 156.142C131.046 155.679 131.046 155.256 131.046 154.82C131.046 154.635 131.046 154.45 131.046 154.278C131.046 154.107 131.046 153.948 131.046 153.789C131.046 152.878 131.046 152.375 131.046 152.375C131.046 152.375 131.139 142.345 132.143 133.874C132.315 132.367 132.513 130.913 132.764 129.579C133.006 128.002 133.386 126.45 133.901 124.94C132.792 125.717 132.006 126.873 131.694 128.191ZM129.315 152.336H129.209H129.064H129.315Z" fill="url(#paint45_linear_1185_1046)"/>
<path style="mix-blend-mode:overlay" opacity="0.45" d="M218.242 137.984C209.441 147.948 204.128 164.653 186.419 164.653C184.6 164.654 182.786 164.446 181.014 164.032C175.742 162.714 171.034 159.735 167.587 155.534C170.284 154.413 172.759 152.82 174.895 150.829C175.164 151.293 175.381 151.785 175.543 152.296C176.706 155.851 177.895 156.261 179.838 156.05C183.257 155.447 186.779 155.947 189.895 157.477C199.252 161.878 200.864 147.777 206.044 147.671C210.67 147.565 213.353 138.156 218.242 137.984Z" fill="url(#paint46_linear_1185_1046)"/>
<path style="mix-blend-mode:overlay" opacity="0.45" d="M205.212 132.975C204.075 136.557 203.428 140.31 200.586 140.905C195.816 141.988 197.071 148.623 191.864 146.852C186.657 145.081 183.327 148.689 182.111 141.565V141.288C180.948 133.742 177.248 136.094 178.847 127.544C179.686 122.006 178.862 116.345 176.481 111.275C179.201 115.937 180.671 121.222 180.75 126.619C181.041 132.288 182.164 136.134 183.644 138.724C184.393 140.247 185.546 141.534 186.977 142.445C188.408 143.357 190.062 143.857 191.758 143.891C197.6 143.891 200.362 138.328 205.212 132.975Z" fill="url(#paint47_linear_1185_1046)"/>
<path style="mix-blend-mode:overlay" opacity="0.45" d="M152.812 301.486C149.601 309.416 143.191 320.636 143.31 321.601C143.482 322.922 145.411 324.111 145.411 324.111L141.975 328.221C139.311 328.41 136.634 328.169 134.046 327.508C133.557 327.376 133.081 327.217 132.619 327.045C132.619 326.067 132.487 324.772 132.421 323.213C135.364 319.188 136.659 314.192 136.042 309.244C134.548 292.645 142.848 300.442 141.83 284.134C140.812 267.826 150.143 265.514 149.892 250.422C149.64 235.329 159.83 228.946 159.83 228.946L151.689 303.958C152.072 303.125 152.442 302.293 152.812 301.486Z" fill="url(#paint48_linear_1185_1046)"/>
<path style="mix-blend-mode:overlay" opacity="0.45" d="M187.582 274.95C180.221 310.394 162.274 332.583 159.288 333.587C157.292 334.248 154.385 333.296 151.147 331.023C151.363 330.762 151.558 330.484 151.728 330.191C154.993 324.772 157.015 320.213 165.473 317.319C173.931 314.425 168.116 307.09 175.199 301.724C182.283 296.359 177.657 292.672 183.631 283.223C185.223 280.605 186.547 277.833 187.582 274.95Z" fill="url(#paint49_linear_1185_1046)"/>
<path d="M158.508 335.768C158.508 335.768 153.777 340.301 154.543 341.636C155.31 342.971 159.116 336.521 161.045 337.195C162.975 337.869 157.702 342.059 159.037 343.407C160.371 344.755 161.68 338.372 164.059 338.794C166.437 339.217 162.896 342.561 162.988 344.411" stroke="url(#paint50_linear_1185_1046)" stroke-width="0.53" stroke-miterlimit="10"/>
<path d="M172.913 350.279H144.988C144.988 350.279 133.755 340.38 134.006 339.297C134.924 337.573 135.99 335.932 137.191 334.394C139.094 337.407 143.389 343.869 146.112 345.362C149.693 347.292 171.697 348.561 172.08 347.926C172.425 346.439 173.015 345.018 173.825 343.724C177.274 347.014 172.913 350.279 172.913 350.279Z" fill="url(#paint51_linear_1185_1046)"/>
<path style="mix-blend-mode:overlay" opacity="0.45" d="M232.515 131.76C232.264 131.654 233.057 130.65 231.669 130.623C230.469 130.73 229.297 131.048 228.207 131.562C228.207 131.456 228.313 131.337 228.379 131.231L228.035 131.324C229.277 129.91 232.251 129.315 232.964 130.095C233.098 130.214 233.196 130.368 233.247 130.539C233.298 130.711 233.3 130.893 233.254 131.066C233.207 131.239 233.113 131.395 232.983 131.518C232.852 131.64 232.691 131.724 232.515 131.76Z" fill="url(#paint52_linear_1185_1046)"/>
<path d="M264.047 144.512L239.123 146.111C238.671 146.137 238.228 145.983 237.889 145.684C237.55 145.384 237.343 144.963 237.312 144.512L236.215 127.411C236.201 127.064 236.288 126.719 236.467 126.42C236.605 126.188 236.798 125.992 237.028 125.85C237.258 125.707 237.518 125.622 237.788 125.601L263.995 123.896V144.512H264.047Z" fill="url(#paint53_linear_1185_1046)"/>
<path d="M264.047 129.513L255.986 134.35L236.493 126.42C236.632 126.188 236.824 125.992 237.054 125.85C237.284 125.707 237.545 125.622 237.815 125.601L264.021 123.896L264.047 129.513Z" fill="url(#paint54_linear_1185_1046)"/>
<path style="mix-blend-mode:overlay" opacity="0.45" d="M190.701 221.757C190.378 222.175 190.015 222.56 189.617 222.907C186.604 217.039 181.688 219.286 174.975 217.621C168.261 215.956 168.367 211.079 162.869 209.573C162.19 209.393 161.534 209.136 160.913 208.806C160.609 205.634 160.239 203.11 160.081 202.119C160.075 202.172 160.075 202.225 160.081 202.278C161.402 205.793 177.684 206.678 181.582 206.797C183.974 206.877 189.34 205.198 193.318 202.132C194.031 208.053 194.269 216.987 190.701 221.757Z" fill="url(#paint55_linear_1185_1046)"/>
<path d="M180.01 203.441C181.148 203.441 182.071 202.518 182.071 201.379C182.071 200.24 181.148 199.317 180.01 199.317C178.871 199.317 177.948 200.24 177.948 201.379C177.948 202.518 178.871 203.441 180.01 203.441Z" fill="url(#paint56_linear_1185_1046)"/>
<path style="mix-blend-mode:overlay" opacity="0.45" d="M196.833 181.172C196.441 181.395 195.988 181.485 195.541 181.43C195.093 181.376 194.675 181.179 194.349 180.868C192.682 179.439 190.676 178.465 188.523 178.039C186.37 177.613 184.143 177.75 182.058 178.436C177.327 179.758 172.715 174.207 166.543 175.344C161.521 176.269 154.821 173.679 151.57 172.344C157.834 171.736 180.472 169.793 190.067 172.199C193.331 173.018 195.512 176.718 196.833 181.172Z" fill="url(#paint57_linear_1185_1046)"/>
<path d="M255.986 136.226C257.03 136.226 257.876 135.38 257.876 134.337C257.876 133.293 257.03 132.447 255.986 132.447C254.942 132.447 254.096 133.293 254.096 134.337C254.096 135.38 254.942 136.226 255.986 136.226Z" fill="url(#paint58_linear_1185_1046)"/>
<path d="M253.812 50.2241L218.911 63.2176C217.871 63.6047 217.342 64.7613 217.729 65.801L225.245 85.9887C225.632 87.0284 226.789 87.5574 227.828 87.1704L262.729 74.1769C263.769 73.7898 264.298 72.6332 263.911 71.5935L256.395 51.4058C256.008 50.3661 254.852 49.837 253.812 50.2241Z" fill="url(#paint59_linear_1185_1046)"/>
<path d="M256.396 51.4224L256.713 52.2682L242.466 68.5894C242.102 69.0059 241.639 69.3244 241.119 69.516C240.6 69.7076 240.041 69.7661 239.493 69.6863L218.057 66.66L217.74 65.8142C217.639 65.5639 217.589 65.2957 217.593 65.0257C217.598 64.7557 217.657 64.4893 217.766 64.2426C217.876 63.9959 218.035 63.7738 218.232 63.5897C218.43 63.4056 218.662 63.2632 218.916 63.1711L253.819 50.2198C254.067 50.1293 254.33 50.0886 254.594 50.1C254.858 50.1115 255.117 50.1749 255.357 50.2866C255.596 50.3983 255.811 50.5561 255.989 50.751C256.167 50.9459 256.306 51.1741 256.396 51.4224Z" fill="url(#paint60_linear_1185_1046)"/>
<path d="M243.497 68.6287C243.672 69.0962 243.704 69.6051 243.589 70.0908C243.475 70.5766 243.219 71.0176 242.854 71.358C242.489 71.6984 242.031 71.9229 241.539 72.0032C241.046 72.0836 240.541 72.016 240.087 71.8092C239.632 71.6024 239.25 71.2656 238.987 70.8414C238.724 70.4171 238.593 69.9244 238.61 69.4256C238.627 68.9268 238.792 68.4443 239.083 68.039C239.374 67.6337 239.779 67.3238 240.246 67.1486C240.557 67.0321 240.887 66.9779 241.219 66.9893C241.55 67.0006 241.877 67.0772 242.178 67.2147C242.48 67.3522 242.752 67.5478 242.979 67.7904C243.205 68.0331 243.381 68.3179 243.497 68.6287Z" fill="url(#paint61_linear_1185_1046)"/>
<path d="M354.308 69.786L346.493 89.86C346.091 90.8939 346.603 92.0582 347.637 92.4606L382.341 105.97C383.375 106.373 384.539 105.861 384.942 104.827L392.756 84.7533C393.159 83.7194 392.647 82.5551 391.613 82.1526L356.908 68.6428C355.875 68.2404 354.71 68.7522 354.308 69.786Z" fill="url(#paint62_linear_1185_1046)"/>
<path d="M392.74 84.7513L392.423 85.5971L370.922 88.2402C370.385 88.3228 369.836 88.2732 369.322 88.0959C368.809 87.9186 368.346 87.6189 367.975 87.2226L353.979 70.7032L354.296 69.8574C354.393 69.607 354.538 69.3783 354.723 69.1845C354.909 68.9908 355.131 68.8359 355.377 68.7289C355.623 68.6219 355.888 68.5649 356.156 68.5612C356.424 68.5576 356.691 68.6073 356.94 68.7076L391.644 82.2139C392.116 82.416 392.494 82.7919 392.698 83.2639C392.902 83.736 392.917 84.2683 392.74 84.7513Z" fill="url(#paint63_linear_1185_1046)"/>
<path d="M371.662 89.0201C371.479 89.4842 371.164 89.8839 370.755 90.1688C370.345 90.4538 369.861 90.6111 369.362 90.6211C368.864 90.631 368.374 90.4931 367.953 90.2247C367.533 89.9564 367.202 89.5695 367.001 89.1131C366.801 88.6566 366.74 88.1509 366.826 87.6599C366.913 87.1688 367.143 86.7143 367.487 86.3538C367.831 85.9933 368.275 85.7428 368.761 85.634C369.248 85.5253 369.756 85.563 370.221 85.7426C370.532 85.8624 370.815 86.0424 371.056 86.2722C371.296 86.5021 371.489 86.7772 371.623 87.0818C371.757 87.3864 371.829 87.7144 371.836 88.0471C371.842 88.3797 371.783 88.7104 371.662 89.0201Z" fill="url(#paint64_linear_1185_1046)"/>
<path d="M242.221 181.985L208.381 197.535C207.373 197.998 206.932 199.191 207.395 200.199L216.389 219.773C216.853 220.781 218.045 221.223 219.054 220.759L252.893 205.209C253.901 204.746 254.343 203.553 253.88 202.545L244.885 182.972C244.422 181.964 243.229 181.522 242.221 181.985Z" fill="url(#paint65_linear_1185_1046)"/>
<path d="M244.885 182.983L245.268 183.802L232.264 201.128C231.932 201.571 231.495 201.924 230.992 202.155C230.488 202.386 229.935 202.487 229.383 202.449L207.776 201.035L207.392 200.203C207.177 199.72 207.16 199.173 207.345 198.678C207.531 198.183 207.904 197.781 208.384 197.56L242.215 182.005C242.455 181.894 242.714 181.831 242.978 181.82C243.242 181.809 243.505 181.85 243.753 181.94C244.001 182.031 244.228 182.17 244.423 182.349C244.617 182.528 244.774 182.743 244.885 182.983Z" fill="url(#paint66_linear_1185_1046)"/>
<path d="M233.295 201.101C233.506 201.557 233.577 202.065 233.499 202.561C233.421 203.058 233.197 203.52 232.856 203.889C232.515 204.258 232.072 204.517 231.584 204.634C231.095 204.751 230.583 204.721 230.112 204.546C229.64 204.372 229.232 204.062 228.937 203.655C228.642 203.248 228.475 202.763 228.457 202.261C228.438 201.759 228.569 201.262 228.833 200.835C229.096 200.407 229.481 200.067 229.938 199.859C230.548 199.58 231.244 199.554 231.873 199.787C232.502 200.02 233.013 200.492 233.295 201.101Z" fill="url(#paint67_linear_1185_1046)"/>
<mask id="mask0_1185_1046" style="mask-type:luminance" maskUnits="userSpaceOnUse" x="420" y="120" width="183" height="178">
<path d="M470.501 296.927C476.814 291.348 484.165 287.068 492.135 284.333C492.135 284.333 504.029 292.13 528.081 296.927C552.133 301.725 602.802 228.947 602.802 228.947L596.419 176.23C596.419 176.23 595.758 164.19 584.683 149.085C573.609 133.98 539.882 120.579 539.882 120.579L441.783 137.984L424.339 185.652L420.652 201.379L470.501 296.927Z" fill="white"/>
</mask>
<g mask="url(#mask0_1185_1046)">
<path d="M482.871 309.244C490.469 283.672 490.364 276.43 488.355 273.562C486.346 270.694 484.509 275.439 482.857 273.271C481.205 271.104 490.985 263.584 490.364 255.523C489.743 247.461 483.003 238.58 480.227 239.109C477.452 239.638 476.633 243.074 475.1 241.21C473.567 239.347 481.43 229.792 478.76 221.281C476.091 212.77 463.06 200.136 454.246 196.053C456.268 209.942 449.462 221.598 450.691 230.81C451.92 240.021 463.193 242.109 462.981 245.043C462.77 247.977 455.95 242.823 454.721 246.999C453.492 251.175 462.532 274.262 467.104 277.236C471.677 280.209 460.589 301.394 467.236 306.482C473.884 311.57 482.871 309.244 482.871 309.244Z" fill="url(#paint68_linear_1185_1046)"/>
<g style="mix-blend-mode:overlay" opacity="0.25">
<path d="M454.246 196.053C454.246 196.053 478.232 251.281 480.849 315.151" stroke="white" stroke-width="0.4" stroke-miterlimit="10"/>
</g>
<path d="M463.787 306.059C464.501 270.562 467.567 261.43 471.28 258.589C474.994 255.748 475.404 262.554 478.377 260.439C481.351 258.325 471.981 244.871 476.038 234.894C480.095 224.916 492.24 216.392 495.544 218.189C498.848 219.986 498.465 224.797 501.187 222.933C503.91 221.07 497.791 205.899 504.623 196.185C511.456 186.472 533.103 175.675 545.895 174.128C537.715 190.912 541.627 208.489 536.341 219.643C531.054 230.797 515.923 228.894 514.997 232.7C514.072 236.506 524.817 232.7 524.684 238.515C524.552 244.329 503.751 269.941 496.747 271.857C489.743 273.774 495.227 305.108 484.734 308.861C474.241 312.614 463.787 306.059 463.787 306.059Z" fill="url(#paint69_linear_1185_1046)"/>
<g style="mix-blend-mode:overlay" opacity="0.25">
<path d="M545.843 174.128C545.843 174.128 493.086 234.444 463.906 314.359" stroke="white" stroke-width="0.53" stroke-miterlimit="10"/>
</g>
<path d="M471.809 298.196C471.809 298.196 493.271 224.902 538.151 224.704C573.45 224.546 566.314 259.276 542.446 263.756C518.579 268.236 497.513 277.461 490.126 287.703C488.025 290.683 485.296 293.168 482.131 294.981C478.967 296.793 475.443 297.891 471.809 298.196Z" fill="url(#paint70_linear_1185_1046)"/>
<g style="mix-blend-mode:overlay" opacity="0.25">
<path d="M471.809 298.195C471.809 298.195 503.526 233.439 562.481 242.479" stroke="white" stroke-width="0.53" stroke-miterlimit="10"/>
</g>
<g style="mix-blend-mode:overlay" opacity="0.25">
<path d="M492.055 255.522L491.778 269.861L508.588 274.262" stroke="white" stroke-width="0.53" stroke-miterlimit="10"/>
</g>
<g style="mix-blend-mode:overlay" opacity="0.25">
<path d="M509.764 235.884L508.02 255.721L529.508 266.716" stroke="white" stroke-width="0.53" stroke-miterlimit="10"/>
</g>
<g style="mix-blend-mode:overlay" opacity="0.25">
<path d="M528.821 225.59L526.31 245.968L545.843 262.897" stroke="white" stroke-width="0.53" stroke-miterlimit="10"/>
</g>
</g>
<path d="M492.571 284.134L486.135 300.72L480.227 315.904L469.866 342.639L453.876 383.806C452.138 388.262 449.097 392.09 445.151 394.792C441.205 397.494 436.535 398.943 431.753 398.951H23.7094C19.7393 398.938 15.8356 397.931 12.3542 396.023C8.87275 394.115 5.92428 391.366 3.77754 388.026C1.6308 384.686 0.354061 380.862 0.0637079 376.903C-0.226645 372.943 0.478618 368.974 2.11521 365.357L4.50723 360.163L11.115 345.877L131.165 347.397L141.989 347.542H147.011L163.015 347.754H163.094L172.12 347.873H174.842L278.717 349.194H279.919L287.531 349.287H288.43H292.54L296.901 349.353H298.659H300.972H302.148H304.791L357.296 350.027C357.296 350.027 371.384 328.05 398.265 340.261C398.265 340.261 422.053 300.072 463.682 304.129C465.317 301.945 467.139 299.907 469.126 298.037C473.701 293.632 478.925 289.955 484.615 287.134C487.189 285.94 489.849 284.937 492.571 284.134Z" fill="url(#paint71_linear_1185_1046)"/>
<path style="mix-blend-mode:overlay" opacity="0.45" d="M469.866 342.692L453.876 383.859C452.138 388.315 449.097 392.143 445.151 394.845C441.205 397.547 436.535 398.996 431.753 399.004H23.7094C19.87 399.021 16.0847 398.098 12.6844 396.315C9.28412 394.532 6.37225 391.943 4.20328 388.775H365.16C365.16 388.775 380.41 366.798 409.418 378.995C409.418 378.995 431.264 344.926 469.866 342.692Z" fill="url(#paint72_linear_1185_1046)"/>
<defs>
<linearGradient id="paint0_linear_1185_1046" x1="200.547" y1="-9.87176" x2="329.359" y2="459.082" gradientUnits="userSpaceOnUse">
<stop stop-color="#FFE3EF"/>
<stop offset="1" stop-color="#B693CC"/>
</linearGradient>
<linearGradient id="paint1_linear_1185_1046" x1="252.034" y1="417.532" x2="229.898" y2="130.702" gradientUnits="userSpaceOnUse">
<stop/>
<stop offset="1" stop-opacity="0"/>
</linearGradient>
<linearGradient id="paint2_linear_1185_1046" x1="558.648" y1="239.056" x2="357.124" y2="-10.7703" gradientUnits="userSpaceOnUse">
<stop stop-color="white"/>
<stop offset="1" stop-color="white" stop-opacity="0"/>
</linearGradient>
<linearGradient id="paint3_linear_1185_1046" x1="344.002" y1="150.327" x2="334.949" y2="-29.8141" gradientUnits="userSpaceOnUse">
<stop stop-color="white"/>
<stop offset="1" stop-color="white" stop-opacity="0"/>
</linearGradient>
<linearGradient id="paint4_linear_1185_1046" x1="415.564" y1="-29.0607" x2="416.277" y2="156.367" gradientUnits="userSpaceOnUse">
<stop stop-color="white"/>
<stop offset="1" stop-color="white" stop-opacity="0"/>
</linearGradient>
<linearGradient id="paint5_linear_1185_1046" x1="410.132" y1="-23.2195" x2="410.714" y2="124.292" gradientUnits="userSpaceOnUse">
<stop stop-color="white"/>
<stop offset="1" stop-color="white" stop-opacity="0"/>
</linearGradient>
<linearGradient id="paint6_linear_1185_1046" x1="228.022" y1="-27.1315" x2="228.696" y2="145.411" gradientUnits="userSpaceOnUse">
<stop stop-color="white"/>
<stop offset="1" stop-color="white" stop-opacity="0"/>
</linearGradient>
<linearGradient id="paint7_linear_1185_1046" x1="206.771" y1="-21.2242" x2="207.3" y2="113.403" gradientUnits="userSpaceOnUse">
<stop stop-color="white"/>
<stop offset="1" stop-color="white" stop-opacity="0"/>
</linearGradient>
<linearGradient id="paint8_linear_1185_1046" x1="237.55" y1="383.965" x2="34.3083" y2="132.01" gradientUnits="userSpaceOnUse">
<stop stop-color="white"/>
<stop offset="1" stop-color="white" stop-opacity="0"/>
</linearGradient>
<linearGradient id="paint9_linear_1185_1046" x1="302.214" y1="379.247" x2="231.775" y2="307.288" gradientUnits="userSpaceOnUse">
<stop stop-color="#81C278"/>
<stop offset="1" stop-color="#8BDBCC"/>
</linearGradient>
<linearGradient id="paint10_linear_1185_1046" x1="299.558" y1="370.366" x2="261.655" y2="280.791" gradientUnits="userSpaceOnUse">
<stop stop-color="#423274"/>
<stop offset="1" stop-color="#724898"/>
</linearGradient>
<linearGradient id="paint11_linear_1185_1046" x1="295.976" y1="346.392" x2="353.675" y2="294.733" gradientUnits="userSpaceOnUse">
<stop stop-color="#81C278"/>
<stop offset="1" stop-color="#8BDBCC"/>
</linearGradient>
<linearGradient id="paint12_linear_1185_1046" x1="301.95" y1="166.965" x2="302.28" y2="84.4473" gradientUnits="userSpaceOnUse">
<stop stop-color="#423274"/>
<stop offset="1" stop-color="#724898"/>
</linearGradient>
<linearGradient id="paint13_linear_1185_1046" x1="291.311" y1="94.3458" x2="315.086" y2="149.309" gradientUnits="userSpaceOnUse">
<stop/>
<stop offset="1" stop-opacity="0"/>
</linearGradient>
<linearGradient id="paint14_linear_1185_1046" x1="303.152" y1="86.9979" x2="307.685" y2="135.803" gradientUnits="userSpaceOnUse">
<stop stop-color="white"/>
<stop offset="1" stop-color="white" stop-opacity="0"/>
</linearGradient>
<linearGradient id="paint15_linear_1185_1046" x1="266.572" y1="150.723" x2="263.215" y2="69.5402" gradientUnits="userSpaceOnUse">
<stop stop-color="#423274"/>
<stop offset="1" stop-color="#724898"/>
</linearGradient>
<linearGradient id="paint16_linear_1185_1046" x1="263.519" y1="116.297" x2="265.025" y2="164.441" gradientUnits="userSpaceOnUse">
<stop/>
<stop offset="1" stop-opacity="0"/>
</linearGradient>
<linearGradient id="paint17_linear_1185_1046" x1="280.659" y1="53.3647" x2="326.715" y2="538.864" gradientUnits="userSpaceOnUse">
<stop stop-color="#CDEFFF"/>
<stop offset="1" stop-color="#A5C3FF"/>
</linearGradient>
<linearGradient id="paint18_linear_1185_1046" x1="304.051" y1="149.653" x2="297.337" y2="335.49" gradientUnits="userSpaceOnUse">
<stop/>
<stop offset="1" stop-opacity="0"/>
</linearGradient>
<linearGradient id="paint19_linear_1185_1046" x1="316.262" y1="114.367" x2="300.496" y2="145.398" gradientUnits="userSpaceOnUse">
<stop stop-color="#FF6178"/>
<stop offset="1" stop-color="#FF8098"/>
</linearGradient>
<linearGradient id="paint20_linear_1185_1046" x1="308.861" y1="79.0032" x2="308.782" y2="79.175" gradientUnits="userSpaceOnUse">
<stop stop-color="#423274"/>
<stop offset="1" stop-color="#724898"/>
</linearGradient>
<linearGradient id="paint21_linear_1185_1046" x1="326.042" y1="52.2679" x2="300.549" y2="144.512" gradientUnits="userSpaceOnUse">
<stop stop-color="#FFD140"/>
<stop offset="1" stop-color="#FFDD88"/>
</linearGradient>
<linearGradient id="paint22_linear_1185_1046" x1="348.098" y1="198.551" x2="290.241" y2="114.354" gradientUnits="userSpaceOnUse">
<stop/>
<stop offset="1" stop-opacity="0"/>
</linearGradient>
<linearGradient id="paint23_linear_1185_1046" x1="238.079" y1="134.085" x2="208.331" y2="125.653" gradientUnits="userSpaceOnUse">
<stop stop-color="#FFD7CD"/>
<stop offset="1" stop-color="#FF7171"/>
</linearGradient>
<linearGradient id="paint24_linear_1185_1046" x1="185.19" y1="99.5002" x2="148.279" y2="83.6548" gradientUnits="userSpaceOnUse">
<stop stop-color="#FFD7CD"/>
<stop offset="1" stop-color="#FF7171"/>
</linearGradient>
<linearGradient id="paint25_linear_1185_1046" x1="182.151" y1="103.98" x2="155.098" y2="79.9543" gradientUnits="userSpaceOnUse">
<stop/>
<stop offset="1" stop-opacity="0"/>
</linearGradient>
<linearGradient id="paint26_linear_1185_1046" x1="172.318" y1="99.2356" x2="163.94" y2="25.7571" gradientUnits="userSpaceOnUse">
<stop stop-color="#423274"/>
<stop offset="1" stop-color="#724898"/>
</linearGradient>
<linearGradient id="paint27_linear_1185_1046" x1="126.156" y1="330.27" x2="148.385" y2="331.367" gradientUnits="userSpaceOnUse">
<stop stop-color="#FFD7CD"/>
<stop offset="1" stop-color="#FF7171"/>
</linearGradient>
<linearGradient id="paint28_linear_1185_1046" x1="132.711" y1="343.314" x2="95.298" y2="349.181" gradientUnits="userSpaceOnUse">
<stop stop-color="#FF6178"/>
<stop offset="1" stop-color="#FF8098"/>
</linearGradient>
<linearGradient id="paint29_linear_1185_1046" x1="130.954" y1="347.939" x2="148.015" y2="347.939" gradientUnits="userSpaceOnUse">
<stop stop-color="#423274"/>
<stop offset="1" stop-color="#724898"/>
</linearGradient>
<linearGradient id="paint30_linear_1185_1046" x1="152.614" y1="191.943" x2="166.424" y2="332.993" gradientUnits="userSpaceOnUse">
<stop stop-color="#423274"/>
<stop offset="1" stop-color="#724898"/>
</linearGradient>
<linearGradient id="paint31_linear_1185_1046" x1="214.767" y1="117.632" x2="125.707" y2="288.959" gradientUnits="userSpaceOnUse">
<stop/>
<stop offset="1" stop-opacity="0"/>
</linearGradient>
<linearGradient id="paint32_linear_1185_1046" x1="156.711" y1="205.806" x2="148.557" y2="98.6547" gradientUnits="userSpaceOnUse">
<stop stop-color="#FF6178"/>
<stop offset="1" stop-color="#FF8098"/>
</linearGradient>
<linearGradient id="paint33_linear_1185_1046" x1="211.265" y1="192.168" x2="108.276" y2="145.2" gradientUnits="userSpaceOnUse">
<stop/>
<stop offset="1" stop-opacity="0"/>
</linearGradient>
<linearGradient id="paint34_linear_1185_1046" x1="227.467" y1="143.707" x2="107.364" y2="144.711" gradientUnits="userSpaceOnUse">
<stop stop-color="#FFD7CD"/>
<stop offset="1" stop-color="#FF7171"/>
</linearGradient>
<linearGradient id="paint35_linear_1185_1046" x1="118.267" y1="169.383" x2="150.473" y2="127.464" gradientUnits="userSpaceOnUse">
<stop stop-color="#FFD7CD"/>
<stop offset="1" stop-color="#FF7171"/>
</linearGradient>
<linearGradient id="paint36_linear_1185_1046" x1="131.747" y1="329.543" x2="172.741" y2="328.287" gradientUnits="userSpaceOnUse">
<stop stop-color="#FFD7CD"/>
<stop offset="1" stop-color="#FF7171"/>
</linearGradient>
<linearGradient id="paint37_linear_1185_1046" x1="159.777" y1="300.191" x2="150.724" y2="374.661" gradientUnits="userSpaceOnUse">
<stop stop-color="#FF6178"/>
<stop offset="1" stop-color="#FF8098"/>
</linearGradient>
<linearGradient id="paint38_linear_1185_1046" x1="219.934" y1="82.5578" x2="220.436" y2="82.0556" gradientUnits="userSpaceOnUse">
<stop stop-color="#423274"/>
<stop offset="1" stop-color="#724898"/>
</linearGradient>
<linearGradient id="paint39_linear_1185_1046" x1="171.803" y1="160.992" x2="177.076" y2="206.784" gradientUnits="userSpaceOnUse">
<stop stop-color="#FFD140"/>
<stop offset="1" stop-color="#FFDD88"/>
</linearGradient>
<linearGradient id="paint40_linear_1185_1046" x1="105.395" y1="249.761" x2="201.009" y2="153.155" gradientUnits="userSpaceOnUse">
<stop stop-color="#FFD140"/>
<stop offset="1" stop-color="#FFDD88"/>
</linearGradient>
<linearGradient id="paint41_linear_1185_1046" x1="134.429" y1="180.683" x2="187.265" y2="233.85" gradientUnits="userSpaceOnUse">
<stop/>
<stop offset="1" stop-opacity="0"/>
</linearGradient>
<linearGradient id="paint42_linear_1185_1046" x1="176.23" y1="199.212" x2="177.75" y2="229.145" gradientUnits="userSpaceOnUse">
<stop stop-color="#FFD140"/>
<stop offset="1" stop-color="#FFDD88"/>
</linearGradient>
<linearGradient id="paint43_linear_1185_1046" x1="176.719" y1="93.1043" x2="176.204" y2="83.7476" gradientUnits="userSpaceOnUse">
<stop stop-color="#423274"/>
<stop offset="1" stop-color="#724898"/>
</linearGradient>
<linearGradient id="paint44_linear_1185_1046" x1="179.415" y1="116.072" x2="166.675" y2="64.3199" gradientUnits="userSpaceOnUse">
<stop/>
<stop offset="1" stop-opacity="0"/>
</linearGradient>
<linearGradient id="paint45_linear_1185_1046" x1="171.988" y1="172.529" x2="91.7564" y2="130.53" gradientUnits="userSpaceOnUse">
<stop/>
<stop offset="1" stop-opacity="0"/>
</linearGradient>
<linearGradient id="paint46_linear_1185_1046" x1="195.749" y1="168.684" x2="190.054" y2="124.742" gradientUnits="userSpaceOnUse">
<stop/>
<stop offset="1" stop-opacity="0"/>
</linearGradient>
<linearGradient id="paint47_linear_1185_1046" x1="208.595" y1="70.9415" x2="166.569" y2="192.445" gradientUnits="userSpaceOnUse">
<stop stop-color="white"/>
<stop offset="1" stop-color="white" stop-opacity="0"/>
</linearGradient>
<linearGradient id="paint48_linear_1185_1046" x1="199.741" y1="287.029" x2="113.205" y2="272.69" gradientUnits="userSpaceOnUse">
<stop/>
<stop offset="1" stop-opacity="0"/>
</linearGradient>
<linearGradient id="paint49_linear_1185_1046" x1="215.203" y1="326.186" x2="153.817" y2="295.328" gradientUnits="userSpaceOnUse">
<stop/>
<stop offset="1" stop-opacity="0"/>
</linearGradient>
<linearGradient id="paint50_linear_1185_1046" x1="160.266" y1="335.755" x2="159.261" y2="344.015" gradientUnits="userSpaceOnUse">
<stop stop-color="#423274"/>
<stop offset="1" stop-color="#724898"/>
</linearGradient>
<linearGradient id="paint51_linear_1185_1046" x1="133.993" y1="342.336" x2="175.16" y2="342.336" gradientUnits="userSpaceOnUse">
<stop stop-color="#423274"/>
<stop offset="1" stop-color="#724898"/>
</linearGradient>
<linearGradient id="paint52_linear_1185_1046" x1="232.343" y1="130.703" x2="211.648" y2="134.152" gradientUnits="userSpaceOnUse">
<stop/>
<stop offset="1" stop-opacity="0"/>
</linearGradient>
<linearGradient id="paint53_linear_1185_1046" x1="250.99" y1="137.244" x2="245.651" y2="84.0115" gradientUnits="userSpaceOnUse">
<stop stop-color="#EFEFEF"/>
<stop offset="1" stop-color="white"/>
</linearGradient>
<linearGradient id="paint54_linear_1185_1046" x1="248.506" y1="109.888" x2="252.021" y2="140.336" gradientUnits="userSpaceOnUse">
<stop stop-color="#EFEFEF"/>
<stop offset="0.04" stop-color="white"/>
</linearGradient>
<linearGradient id="paint55_linear_1185_1046" x1="175.53" y1="199.357" x2="183.948" y2="231.061" gradientUnits="userSpaceOnUse">
<stop/>
<stop offset="1" stop-opacity="0"/>
</linearGradient>
<linearGradient id="paint56_linear_1185_1046" x1="179.6" y1="188.93" x2="180.353" y2="212.335" gradientUnits="userSpaceOnUse">
<stop stop-color="#423274"/>
<stop offset="1" stop-color="#724898"/>
</linearGradient>
<linearGradient id="paint57_linear_1185_1046" x1="173.627" y1="169.648" x2="175.146" y2="188.52" gradientUnits="userSpaceOnUse">
<stop/>
<stop offset="1" stop-opacity="0"/>
</linearGradient>
<linearGradient id="paint58_linear_1185_1046" x1="254.532" y1="122.72" x2="258.391" y2="153.592" gradientUnits="userSpaceOnUse">
<stop stop-color="#FF6178"/>
<stop offset="1" stop-color="#FF8098"/>
</linearGradient>
<linearGradient id="paint59_linear_1185_1046" x1="235.913" y1="55.6602" x2="256.001" y2="109.104" gradientUnits="userSpaceOnUse">
<stop stop-color="#EFEFEF"/>
<stop offset="1" stop-color="white"/>
</linearGradient>
<linearGradient id="paint60_linear_1185_1046" x1="257.929" y1="108.249" x2="231.841" y2="46.2419" gradientUnits="userSpaceOnUse">
<stop stop-color="#EFEFEF"/>
<stop offset="0.04" stop-color="white"/>
</linearGradient>
<linearGradient id="paint61_linear_1185_1046" x1="240.355" y1="66.8442" x2="248.243" y2="94.5084" gradientUnits="userSpaceOnUse">
<stop stop-color="#FF6178"/>
<stop offset="1" stop-color="#FF8098"/>
</linearGradient>
<linearGradient id="paint62_linear_1185_1046" x1="372.372" y1="80.6678" x2="352.285" y2="128.984" gradientUnits="userSpaceOnUse">
<stop stop-color="#EFEFEF"/>
<stop offset="1" stop-color="white"/>
</linearGradient>
<linearGradient id="paint63_linear_1185_1046" x1="365.45" y1="102.037" x2="371.014" y2="84.9363" gradientUnits="userSpaceOnUse">
<stop stop-color="#EFEFEF"/>
<stop offset="1" stop-color="white"/>
</linearGradient>
<linearGradient id="paint64_linear_1185_1046" x1="387.329" y1="122.979" x2="364.244" y2="77.7899" gradientUnits="userSpaceOnUse">
<stop stop-color="#FFD140"/>
<stop offset="1" stop-color="#FFDD88"/>
</linearGradient>
<linearGradient id="paint65_linear_1185_1046" x1="236.452" y1="215.47" x2="214.21" y2="161.59" gradientUnits="userSpaceOnUse">
<stop stop-color="#EFEFEF"/>
<stop offset="1" stop-color="white"/>
</linearGradient>
<linearGradient id="paint66_linear_1185_1046" x1="249.246" y1="232.436" x2="222.947" y2="186.036" gradientUnits="userSpaceOnUse">
<stop stop-color="#EFEFEF"/>
<stop offset="1" stop-color="white"/>
</linearGradient>
<linearGradient id="paint67_linear_1185_1046" x1="266.498" y1="213.049" x2="218.165" y2="198.299" gradientUnits="userSpaceOnUse">
<stop stop-color="#423274"/>
<stop offset="1" stop-color="#724898"/>
</linearGradient>
<linearGradient id="paint68_linear_1185_1046" x1="483.082" y1="314.689" x2="460.444" y2="185.375" gradientUnits="userSpaceOnUse">
<stop stop-color="#423274"/>
<stop offset="1" stop-color="#724898"/>
</linearGradient>
<linearGradient id="paint69_linear_1185_1046" x1="458.418" y1="357.742" x2="523.873" y2="178.869" gradientUnits="userSpaceOnUse">
<stop stop-color="#81C278"/>
<stop offset="1" stop-color="#8BDBCC"/>
</linearGradient>
<linearGradient id="paint70_linear_1185_1046" x1="446.761" y1="320.926" x2="544.827" y2="232.768" gradientUnits="userSpaceOnUse">
<stop stop-color="#423274"/>
<stop offset="1" stop-color="#724898"/>
</linearGradient>
<linearGradient id="paint71_linear_1185_1046" x1="274.356" y1="493.178" x2="242.691" y2="310.182" gradientUnits="userSpaceOnUse">
<stop stop-color="#423274"/>
<stop offset="1" stop-color="#724898"/>
</linearGradient>
<linearGradient id="paint72_linear_1185_1046" x1="422.727" y1="457.311" x2="64.8758" y2="284.161" gradientUnits="userSpaceOnUse">
<stop/>
<stop offset="1" stop-opacity="0"/>
</linearGradient>
</defs>
</svg>
