<svg xmlns="http://www.w3.org/2000/svg" width="144" height="144" style="width:100%;height:100%;transform:translate3d(0,0,0);content-visibility:visible" viewBox="0 0 144 144"><defs><clipPath id="a"><path d="M0 0h144v144H0z"/></clipPath><clipPath id="i"><path d="M0 0h144v144H0z"/></clipPath><clipPath id="h"><path d="M0 0h144v144H0z"/></clipPath><clipPath id="g"><path d="M0 0h144v144H0z"/></clipPath><clipPath id="f"><path d="M0 0h144v144H0z"/></clipPath><clipPath id="b"><path d="M0 0h144v144H0z"/></clipPath><clipPath id="c"><path d="M0 0h144v144H0z"/></clipPath><clipPath id="e"><path d="M0 0h144v144H0z"/></clipPath><clipPath id="d"><path d="M0 0h144v144H0z"/></clipPath></defs><g fill="none" clip-path="url(#a)"><g clip-path="url(#b)" style="display:none"><g clip-path="url(#c)" style="display:none"><path class="primary" style="display:none"/><path class="primary" style="display:none"/><path class="primary" style="display:none"/><path class="primary" style="display:none"/><path class="primary" style="display:none"/></g><g clip-path="url(#d)" style="display:none"><path class="primary" style="display:none"/><path class="primary" style="display:none"/><path class="primary" style="display:none"/><path class="primary" style="display:none"/><path class="primary" style="display:none"/></g><g clip-path="url(#e)" style="display:none"><path class="primary" style="display:none"/><path class="primary" style="display:none"/><path class="primary" style="display:none"/><path class="primary" style="display:none"/><path class="primary" style="display:none"/></g></g><g clip-path="url(#f)" style="display:none"><path class="primary" style="display:none"/><path class="primary" style="display:none"/></g><g clip-path="url(#g)" style="display:none"><path class="primary" style="display:none"/><path class="primary" style="display:none"/></g><g stroke="#FFF" stroke-linecap="round" stroke-linejoin="round" stroke-width="9" clip-path="url(#h)" style="display:block"><path d="M37.473 40.924C27.596 49.974 14.438 55.5 0 55.5c-14.689 0-28.053-5.719-37.984-15.05" class="primary" style="display:block" transform="rotate(-43 127.391 -55.391)"/><path d="M37.473 40.924C27.596 49.974 14.438 55.5 0 55.5c-14.689 0-28.053-5.719-37.984-15.05" class="primary" style="display:block" transform="rotate(132 19.972 52.028)"/></g><g clip-path="url(#i)" style="display:none"><path class="primary" style="display:none"/><path class="primary" style="display:none"/></g></g></svg>