<svg xmlns="http://www.w3.org/2000/svg"  viewBox="0 0 50 50" width="50px" height="50px"><path d="M 20 3 C 18.355469 3 17 4.355469 17 6 L 17 9 L 3 9 C 1.347656 9 0 10.347656 0 12 L 0 25 C 0 26.652344 1.347656 28 3 28 L 47 28 C 48.652344 28 50 26.652344 50 25 L 50 12 C 50 10.347656 48.652344 9 47 9 L 33 9 L 33 6 C 33 4.355469 31.644531 3 30 3 Z M 20 5 L 30 5 C 30.5625 5 31 5.4375 31 6 L 31 9 L 19 9 L 19 6 C 19 5.4375 19.4375 5 20 5 Z M 25 22 C 26.105469 22 27 22.894531 27 24 C 27 25.105469 26.105469 26 25 26 C 23.894531 26 23 25.105469 23 24 C 23 22.894531 23.894531 22 25 22 Z M 0 27 L 0 44 C 0 45.652344 1.347656 47 3 47 L 47 47 C 48.652344 47 50 45.652344 50 44 L 50 27 C 50 28.652344 48.652344 30 47 30 L 3 30 C 1.347656 30 0 28.652344 0 27 Z"/></svg>