<svg xmlns="http://www.w3.org/2000/svg"  viewBox="0 0 48 48" width="48px" height="48px"><path d="M 24 4 C 12.972066 4 4 12.972074 4 24 C 4 35.027926 12.972066 44 24 44 C 35.027934 44 44 35.027926 44 24 C 44 12.972074 35.027934 4 24 4 z M 24 7 C 28.142307 7 31.929518 8.4763377 34.875 10.927734 C 32.122374 13.351092 28.974768 15.323142 25.580078 16.835938 C 23.811529 13.61959 21.891654 10.500767 19.736328 7.5585938 C 21.100562 7.2070927 22.524179 7 24 7 z M 16.785156 8.6171875 C 18.997535 11.542724 20.949628 14.664262 22.746094 17.886719 C 19.050465 19.170625 15.137713 20 11 20 C 9.8323552 20 8.6813446 19.922155 7.5390625 19.810547 C 8.7969115 14.835264 12.230939 10.75149 16.785156 8.6171875 z M 37.001953 13.046875 C 39.461176 15.964926 40.9535 19.721786 40.992188 23.837891 C 38.832662 23.296195 36.575941 23 34.25 23 C 32.4219 23 30.655764 23.235969 28.925781 23.574219 C 28.323231 22.178362 27.663283 20.821807 26.984375 19.46875 C 30.643681 17.813906 34.040456 15.676234 37.001953 13.046875 z M 24.177734 20.570312 C 24.811258 21.821635 25.45011 23.063845 26.015625 24.353516 C 19.953229 26.24965 14.749259 30.09875 11.257812 35.238281 C 8.6153572 32.243192 7 28.319322 7 24 C 7 23.585614 7.0335222 23.180292 7.0625 22.773438 C 8.3577913 22.906235 9.665848 23 11 23 C 15.643379 23 20.045102 22.063249 24.177734 20.570312 z M 34.25 26 C 36.498791 26 38.668342 26.319367 40.738281 26.882812 C 39.953494 31.489342 37.336086 35.457573 33.644531 38.001953 C 32.755328 34.064901 31.510607 30.269114 30.085938 26.5625 C 31.460152 26.325929 32.807024 26 34.25 26 z M 27.091797 27.125 C 28.662683 31.125628 30.006215 35.241408 30.90625 39.53125 C 28.795754 40.468547 26.462824 41 24 41 C 20.010678 41 16.357113 39.622608 13.460938 37.332031 C 16.608874 32.477365 21.430763 28.841138 27.091797 27.125 z"/></svg>