<svg xmlns="http://www.w3.org/2000/svg" viewBox="0 0 450 439"><defs><style>.cls-1{fill:#f5f5f5;}.cls-2{fill:#e6e6e6;}.cls-3{fill:#37474f;}.cls-4{fill:#455a64;}.cls-5{fill:#ba68c8;}.cls-24,.cls-6{opacity:0.6;}.cls-11,.cls-14,.cls-24,.cls-27,.cls-7{fill:#fff;}.cls-8{fill:#e0e0e0;}.cls-9{fill:#ebebeb;}.cls-10{opacity:0.15;}.cls-11,.cls-13{opacity:0.2;}.cls-12{fill:#f0f0f0;}.cls-14,.cls-15,.cls-18{opacity:0.3;}.cls-16{opacity:0.39;}.cls-17{isolation:isolate;}.cls-19{opacity:0.5;}.cls-20{fill:#263238;}.cls-21{fill:none;}.cls-22{opacity:0.4;}.cls-23{fill:#ffc3c2;}.cls-25{fill:#ffa8a7;}.cls-26{fill:#9c5756;}.cls-27{opacity:0.1;}.cls-28{fill:#f28f8f;}.cls-29{fill:#803837;}</style></defs><g id="Character_2" data-name="Character 2"><path class="cls-1" d="M371.9,223.3c-85.5-49.3-223.6-49.3-308.5,0s-84.5,129.4,1,178.7,223.6,49.3,308.5,0S457.4,272.7,371.9,223.3Z"/><path class="cls-2" d="M407.2,319.4c7.7-4.5,20.1-4.5,27.7,0s7.5,11.5-.1,16-20.1,4.4-27.7,0S399.6,323.8,407.2,319.4Z"/><path class="cls-2" d="M118.4,282.7c-19.2-11.1-50.1-11.1-69.2,0s-18.9,29,.2,40.1,50.2,11,69.3,0S137.6,293.8,118.4,282.7Z"/><path class="cls-2" d="M154.3,365.3c21.5-12.4,56.3-12.4,77.7,0s21.2,32.6-.3,45-56.3,12.5-77.7,0S132.7,377.8,154.3,365.3Z"/><polygon class="cls-2" points="146.9 239.8 385.3 376.5 397.5 369.4 159.1 232.7 146.9 239.8"/><g id="freepik--light-bulb--inject-77"><g id="freepik--Idea--inject-77"><g id="freepik--light--inject-77"><path class="cls-3" d="M70.2,58.5A2.9,2.9,0,1,1,66.4,57a2.9,2.9,0,0,1,3.8,1.5Z"/><path class="cls-4" d="M64.4,61.2c-2.2-.3-2.9-1.9-1.6-3.7a7.6,7.6,0,0,1,6.4-2.7c2.2.3,2.9,1.9,1.6,3.7A7.6,7.6,0,0,1,64.4,61.2Z"/><path class="cls-3" d="M63.9,60.3c-2.3-.3-3-2-1.6-3.8a7.8,7.8,0,0,1,6.6-2.8c2.2.3,3,2,1.6,3.8A7.9,7.9,0,0,1,63.9,60.3Z"/><path class="cls-4" d="M63.4,59.4c-2.4-.3-3.1-2.1-1.7-3.9a8.1,8.1,0,0,1,6.8-2.9c2.4.3,3.1,2,1.7,3.9A8.1,8.1,0,0,1,63.4,59.4Z"/><path class="cls-3" d="M62.8,58.4c-2.4-.3-3.2-2.1-1.7-4.1a8.5,8.5,0,0,1,7-3c2.4.3,3.2,2.1,1.7,4.1A8.8,8.8,0,0,1,62.8,58.4Z"/><path class="cls-4" d="M62.3,57.3c-2.5-.3-3.3-2.1-1.8-4.1a8.6,8.6,0,0,1,7.2-3c2.4.3,3.2,2.1,1.7,4.1A8.4,8.4,0,0,1,62.3,57.3Z"/><path class="cls-5" d="M52.6,24.6a13.8,13.8,0,0,0-7.3,18.1h0C49.6,52.9,58.6,51,60.4,55.1a2.4,2.4,0,0,0,2,1.2,7.3,7.3,0,0,0,6.2-2.6,2.2,2.2,0,0,0,.5-2.3h0C67.4,47.3,75,42.1,70.7,32a13.8,13.8,0,0,0-18-7.4Z"/><g class="cls-6"><path class="cls-7" d="M52.6,24.6a13.8,13.8,0,0,0-7.3,18.1h0C49.6,52.9,58.6,51,60.4,55.1a2.4,2.4,0,0,0,2,1.2,7.3,7.3,0,0,0,6.2-2.6,2.2,2.2,0,0,0,.5-2.3h0C67.4,47.3,75,42.1,70.7,32a13.8,13.8,0,0,0-18-7.4Z"/></g><path class="cls-5" d="M63,55.5c-1.6-.2-2.1-1.4-1.2-2.7a6,6,0,0,1,4.7-2c1.6.3,2.1,1.4,1.1,2.7A5.4,5.4,0,0,1,63,55.5Z"/><path class="cls-7" d="M66.3,52.1a.5.5,0,0,1-.6-.2,33.9,33.9,0,0,1-2.2-7.7,16.4,16.4,0,0,1-.2-2.3,6.6,6.6,0,0,1-1.4,0,10.5,10.5,0,0,1-2.3-.8,6.5,6.5,0,0,1-1.1,2.2l-.8,1L59.2,46a33.8,33.8,0,0,1,3.9,6.9.4.4,0,0,1-.8.4,34.5,34.5,0,0,0-3.9-6.7,8,8,0,0,0-1.5-1.7,3.2,3.2,0,0,1-2.7.3,1.4,1.4,0,0,1-.9-1.7,1.2,1.2,0,0,1,.9-1A3.6,3.6,0,0,1,57,43.6a3.6,3.6,0,0,0,.8-.9,7.5,7.5,0,0,0,1-2,4.1,4.1,0,0,1-1.7-2.2,1.6,1.6,0,0,1,.8-1.4,1.4,1.4,0,0,1,1.6.4,3.6,3.6,0,0,1,.4,2.7,5.7,5.7,0,0,0,2.2.7h1.2a3.5,3.5,0,0,1,1-2.8,1.2,1.2,0,0,1,1.4,0,1.5,1.5,0,0,1,.6,1.9,3.3,3.3,0,0,1-2.1,1.7,17.9,17.9,0,0,0,.2,2.3,32.7,32.7,0,0,0,2.1,7.4.5.5,0,0,1-.2.6ZM54.4,43.4c-.1.1-.2.2-.2.3a.5.5,0,0,0,.4.6,1.8,1.8,0,0,0,1.6-.1,2.5,2.5,0,0,0-1.8-.8Zm9.9-2.6a2.5,2.5,0,0,0,1.2-1.1c0-.1.1-.5-.2-.7s-.3-.1-.4,0S64.4,39.8,64.3,40.8Zm-6-2.8a.5.5,0,0,0-.2.4h0a3,3,0,0,0,.9,1.3,3,3,0,0,0-.2-1.6.4.4,0,0,0-.5-.1Z"/></g><path class="cls-8" d="M50.7,19.8h-.2a.9.9,0,0,1-1.2-.5l-1.9-4.3a.9.9,0,0,1,.5-1.2h0a1,1,0,0,1,1.2.5l1.8,4.3A.9.9,0,0,1,50.7,19.8Z"/><path class="cls-8" d="M42.5,26.3a1.1,1.1,0,0,1-1.1,0l-3.8-2.8a1.1,1.1,0,0,1-.1-1.3.9.9,0,0,1,1.2-.2l3.8,2.8a.9.9,0,0,1,.2,1.3C42.6,26.1,42.6,26.2,42.5,26.3Z"/><path class="cls-8" d="M38.7,35.9a.8.8,0,0,1-.7.2l-4.7-.5a1,1,0,0,1-.8-1,.9.9,0,0,1,1-.8l4.7.5a.9.9,0,0,1,.8,1A.6.6,0,0,1,38.7,35.9Z"/><path class="cls-8" d="M40.2,46.2l-.2.2-4.3,1.8a1,1,0,0,1-1.2-.4h0a.9.9,0,0,1,.5-1.2h0l4.3-1.9a.9.9,0,0,1,1.2.5,1,1,0,0,1-.3,1Z"/><path class="cls-8" d="M81.4,28.4c0,.1-.1.1-.2.2l-4.3,1.8a.9.9,0,0,1-1.2-.5.9.9,0,0,1,.5-1.2l4.3-1.8a.9.9,0,0,1,1.2.5,1,1,0,0,1-.3,1Z"/><path class="cls-8" d="M70.6,22.1a.9.9,0,0,1-1.3-1.2l2.9-3.8a.8.8,0,0,1,1.2-.2h0a.9.9,0,0,1,.2,1.3h0l-2.8,3.7A.2.2,0,0,1,70.6,22.1Z"/><path class="cls-8" d="M61,18.3a.9.9,0,0,1-1.3-.2.7.7,0,0,1-.2-.6l.6-4.7a.9.9,0,0,1,1.1-.7,1,1,0,0,1,.7.9l-.6,4.7A.9.9,0,0,1,61,18.3Z"/></g></g><path class="cls-7" d="M402.5,293.9l18.5.6,18.5-.6c.8,12.5-1.6,25.3-5,31.5h0a8.4,8.4,0,0,1-3.7,3.8c-5.4,3.1-14.3,3.1-19.7,0a8.5,8.5,0,0,1-3.7-3.9C404.1,319.1,401.7,306.4,402.5,293.9Z"/><path class="cls-9" d="M407.9,286.3c-7.2,4.2-7.3,11-.1,15.2s19,4.2,26.3,0,7.3-11,0-15.2S415.2,282.1,407.9,286.3Z"/><path class="cls-8" d="M410.8,288c-5.7,3.3-5.7,8.6-.1,11.8s14.8,3.3,20.5,0,5.7-8.5.1-11.8S416.5,284.7,410.8,288Z"/><g class="cls-10"><path d="M410.8,288c-5.7,3.3-5.7,8.6-.1,11.8s14.8,3.3,20.5,0,5.7-8.5.1-11.8S416.5,284.7,410.8,288Z"/></g><path class="cls-4" d="M430.5,256c3-3.8,6.5-7.1,9.2-11.1s3.5-5.9,2.7-9.1a8,8,0,0,0-6.5-5.7,12.2,12.2,0,0,0-8.7,1.9,26.3,26.3,0,0,0-6.6,6.3A65.4,65.4,0,0,0,406.8,285c.2,1.9.5,3.9,1.8,5.4a5.6,5.6,0,0,0,5.5,1.7c5.1-1.5,4.4-8.4,5.2-12.4a55,55,0,0,1,5.8-15.7A53.4,53.4,0,0,1,430.5,256Z"/><path class="cls-11" d="M430.5,256c3-3.8,6.5-7.1,9.2-11.1s3.5-5.9,2.7-9.1a8,8,0,0,0-6.5-5.7,12.2,12.2,0,0,0-8.7,1.9,26.3,26.3,0,0,0-6.6,6.3A65.4,65.4,0,0,0,406.8,285c.2,1.9.5,3.9,1.8,5.4a5.6,5.6,0,0,0,5.5,1.7c5.1-1.5,4.4-8.4,5.2-12.4a55,55,0,0,1,5.8-15.7A53.4,53.4,0,0,1,430.5,256Z"/><path class="cls-12" d="M413.8,287c.2-.1.3-.2.3-.4.4-8.1,3-35.8,22.1-51.5a.5.5,0,0,0,.1-.6.5.5,0,0,0-.7-.1c-19.3,15.9-22,43.9-22.3,52.1,0,.3.1.5.4.5Z"/><path class="cls-4" d="M411,287.8c.6,3.2,3.3,7.2,6.2,8.6a17,17,0,0,0,9.4,1.6,39.9,39.9,0,0,0,9.5-2.3c1.5-.5,3.2-1.2,3.4-3.1a3.3,3.3,0,0,0-1.1-2.6l-1-.9a.9.9,0,0,1,.5-1.7l2.7-.4a11.8,11.8,0,0,0,5.7-2.5,9.3,9.3,0,0,0,2.6-3.9,3.9,3.9,0,0,0-.3-3.9,5.6,5.6,0,0,0-2.1-.9l-2.1-.3a1,1,0,0,1-.2-1.8l2.9-1.2a6.1,6.1,0,0,0,2.2-1.3,4.6,4.6,0,0,0,.5-4,51.8,51.8,0,0,0-1.4-5.3,12.8,12.8,0,0,1-.2-5.5,48.7,48.7,0,0,0-16.1,1.1,12.3,12.3,0,0,0-4.4,1.9c-1.8,1.5-2.2,3.6-2,6a.4.4,0,0,1-.8.2l-1.9-3.4a2.1,2.1,0,0,0-2.8-.9,12.1,12.1,0,0,0-4.2,3.3,7.1,7.1,0,0,0-1.8,5.4,54.2,54.2,0,0,0,1.3,7.9.7.7,0,0,1-1.1.7h-.1a2.2,2.2,0,0,0-1.7-.5c-1.7.2-2.1,1.8-2.2,3.2A29.1,29.1,0,0,0,411,287.8Z"/><path class="cls-13" d="M411,287.8c.6,3.2,3.3,7.2,6.2,8.6a17,17,0,0,0,9.4,1.6,39.9,39.9,0,0,0,9.5-2.3c1.5-.5,3.2-1.2,3.4-3.1a3.3,3.3,0,0,0-1.1-2.6l-1-.9a.9.9,0,0,1,.5-1.7l2.7-.4a11.8,11.8,0,0,0,5.7-2.5,9.3,9.3,0,0,0,2.6-3.9,3.9,3.9,0,0,0-.3-3.9,5.6,5.6,0,0,0-2.1-.9l-2.1-.3a1,1,0,0,1-.2-1.8l2.9-1.2a6.1,6.1,0,0,0,2.2-1.3,4.6,4.6,0,0,0,.5-4,51.8,51.8,0,0,0-1.4-5.3,12.8,12.8,0,0,1-.2-5.5,48.7,48.7,0,0,0-16.1,1.1,12.3,12.3,0,0,0-4.4,1.9c-1.8,1.5-2.2,3.6-2,6a.4.4,0,0,1-.8.2l-1.9-3.4a2.1,2.1,0,0,0-2.8-.9,12.1,12.1,0,0,0-4.2,3.3,7.1,7.1,0,0,0-1.8,5.4,54.2,54.2,0,0,0,1.3,7.9.7.7,0,0,1-1.1.7h-.1a2.2,2.2,0,0,0-1.7-.5c-1.7.2-2.1,1.8-2.2,3.2A29.1,29.1,0,0,0,411,287.8Z"/><path class="cls-11" d="M411,287.8c.6,3.2,3.3,7.2,6.2,8.6a17,17,0,0,0,9.4,1.6,39.9,39.9,0,0,0,9.5-2.3c1.5-.5,3.2-1.2,3.4-3.1a3.3,3.3,0,0,0-1.1-2.6l-1-.9a.9.9,0,0,1,.5-1.7l2.7-.4a11.8,11.8,0,0,0,5.7-2.5,9.3,9.3,0,0,0,2.6-3.9,3.9,3.9,0,0,0-.3-3.9,5.6,5.6,0,0,0-2.1-.9l-2.1-.3a1,1,0,0,1-.2-1.8l2.9-1.2a6.1,6.1,0,0,0,2.2-1.3,4.6,4.6,0,0,0,.5-4,51.8,51.8,0,0,0-1.4-5.3,12.8,12.8,0,0,1-.2-5.5,48.7,48.7,0,0,0-16.1,1.1,12.3,12.3,0,0,0-4.4,1.9c-1.8,1.5-2.2,3.6-2,6a.4.4,0,0,1-.8.2l-1.9-3.4a2.1,2.1,0,0,0-2.8-.9,12.1,12.1,0,0,0-4.2,3.3,7.1,7.1,0,0,0-1.8,5.4,54.2,54.2,0,0,0,1.3,7.9.7.7,0,0,1-1.1.7h-.1a2.2,2.2,0,0,0-1.7-.5c-1.7.2-2.1,1.8-2.2,3.2A29.1,29.1,0,0,0,411,287.8Z"/><path class="cls-12" d="M419.5,296a78.5,78.5,0,0,1,4.4-12.6.4.4,0,0,1,.1-.3l.3-.7a37.6,37.6,0,0,0-4.3-14.3.5.5,0,0,1,.2-.6c.2-.1.5-.1.6.1A42.7,42.7,0,0,1,425,281c3.7-7.4,9.6-16,18.6-22.2a.4.4,0,0,1,.6.1.5.5,0,0,1-.1.6c-9.3,6.5-15.2,15.4-18.8,22.9,7.3-3.5,15-2.1,15.4-2.1s.4.3.3.5-.1.4-.3.4h-.2c-.1,0-8.5-1.6-15.8,2.5a61,61,0,0,0-4.3,12.5.5.5,0,0,1-.3.3h-.2C419.7,296.5,419.5,296.2,419.5,296Z"/><path class="cls-5" d="M383.3,323l.3-179.1a13.8,13.8,0,0,0-6.2-10.8L155.3,5.2c-1.8-1-3.3-1.1-4.5-.5L157.4.9h0c1.2-.7,2.8-.7,4.6.4L384.1,129.2a13.8,13.8,0,0,1,6.2,10.8L390,319.1c0,1.9-.6,3.2-1.7,3.9h0l-.3.2-6.5,3.8A4.4,4.4,0,0,0,383.3,323Z"/><path class="cls-14" d="M157.4.9h0c1.2-.7,2.8-.7,4.6.4L384.1,129.2a13.8,13.8,0,0,1,4.8,5.3l-6.8,3.9a12.8,12.8,0,0,0-4.7-5.3L155.3,5.2c-1.8-1-3.3-1.1-4.5-.5Z"/><path class="cls-11" d="M390.3,140,390,319.1c0,1.9-.6,3.2-1.7,3.9h0l-.3.2-6.5,3.8a4.4,4.4,0,0,0,1.8-4l.3-179.1a11.4,11.4,0,0,0-1.5-5.5l6.8-3.9A12.5,12.5,0,0,1,390.3,140Z"/><path class="cls-5" d="M383.6,152l-.3,171a4.4,4.4,0,0,1-1.8,4,.1.1,0,0,0-.1.1h0a4.5,4.5,0,0,1-4.4-.5L154.9,198.7a13.5,13.5,0,0,1-6.2-10.8L149,16.7Z"/><path class="cls-13" d="M383.6,152l-.3,171a4.4,4.4,0,0,1-1.8,4,.1.1,0,0,0-.1.1h0a4.5,4.5,0,0,1-4.4-.5L154.9,198.7a13.5,13.5,0,0,1-6.2-10.8L149,16.7Z"/><polygon class="cls-7" points="176.6 193.4 176.8 51.3 367.8 161.1 367.6 303 176.6 193.4"/><polygon class="cls-4" points="255.7 181.4 255.8 107.9 340.5 156.6 340.3 230 255.7 181.4"/><path class="cls-5" d="M149,8.8c0-2,.7-3.4,1.8-4h0c1.2-.6,2.7-.5,4.5.5L377.4,133.1a13.8,13.8,0,0,1,6.2,10.8V152L149,16.7Z"/><path class="cls-15" d="M149,8.8c0-2,.7-3.4,1.8-4h0c1.2-.6,2.7-.5,4.5.5L377.4,133.1a13.8,13.8,0,0,1,6.2,10.8V152L149,16.7Z"/><g class="cls-16"><path class="cls-7" d="M165.6,17.4c-.9-.5-1.7-.1-1.7,1a3.4,3.4,0,0,0,1.7,2.9c.9.6,1.7.2,1.7-.9A4,4,0,0,0,165.6,17.4Z"/><path class="cls-7" d="M160.9,14.7c-.9-.5-1.7-.1-1.7,1a3.7,3.7,0,0,0,1.7,2.9c1,.6,1.7.2,1.7-.9A3.8,3.8,0,0,0,160.9,14.7Z"/><path class="cls-7" d="M156.2,12c-.9-.5-1.7-.1-1.7,1a3.7,3.7,0,0,0,1.7,2.9c1,.6,1.7.2,1.7-.9A3.5,3.5,0,0,0,156.2,12Z"/></g><polygon class="cls-7" points="164.9 75.8 164.9 84.7 164.9 75.8 164.9 75.8"/><polygon class="cls-7" points="164.9 88.2 157.1 83.7 157.1 83.7 164.9 88.2 164.8 97.1 164.8 97.1 164.9 88.2"/><polygon class="cls-7" points="157.1 96 164.8 100.5 164.8 100.5 157.1 96 157.1 96"/><polygon class="cls-7" points="164.7 145.4 156.9 140.9 156.9 140.9 164.7 145.4 164.7 145.4"/><polygon class="cls-7" points="157.2 55.5 164.9 60 157.2 55.5 157.2 55.5"/><polygon class="cls-7" points="160.5 60.9 164.9 63.5 164.9 72.4 164.9 63.5 160.5 60.9"/><polygon class="cls-7" points="157.1 67.9 164.9 72.4 157.1 67.9 157.1 67.9"/><polygon class="cls-7" points="157.1 80.2 164.9 84.7 157.1 80.2 157.1 80.2"/><polygon class="cls-7" points="160.2 155.2 164.7 157.7 164.6 166.7 164.6 166.7 164.7 157.7 160.2 155.2"/><polygon class="cls-7" points="157 116.2 164.8 120.7 164.8 120.7 157 116.2 157 116.2"/><polygon class="cls-7" points="157 128.6 164.7 133.1 164.7 133.1 157 128.6 157 128.6"/><polygon class="cls-7" points="157.1 71.3 164.9 75.8 164.9 84.7 157.1 80.2 157.1 71.3"/><polygon class="cls-7" points="164.8 97.1 157.1 92.6 157.1 83.7 164.9 88.2 164.8 97.1"/><polygon class="cls-7" points="157 128.6 164.7 133.1 164.7 142 156.9 137.5 157 128.6"/><polygon class="cls-7" points="164.7 154.3 156.9 149.8 156.9 140.9 164.7 145.4 164.7 154.3"/><polygon class="cls-7" points="157 116.2 164.8 120.7 164.7 129.6 157 125.1 157 116.2"/><path class="cls-5" d="M154.3,176l12.8,7.3.2-64-12.8-7.4Zm2.6-35.1,7.8,4.5h0v8.9l-7.8-4.5v-8.9Zm7.8-11.3-7.7-4.5v-8.9h0l7.8,4.5h0Zm0,12.4-7.8-4.5v-8.9h0l7.7,4.5h0Zm-.1,24.7h0l-7.7-4.5v-8.9l3.3,1.9,4.5,2.5v9Zm-7.8,7.8v-8.9l7.7,4.5V179Z"/><path class="cls-5" d="M154.5,106.4l12.8,7.3.2-64-12.8-7.4ZM164.9,60l-7.7-4.5h0V46.6l7.8,4.5Zm0,12.4-7.8-4.5h0V59l3.3,1.9,4.4,2.6Zm0,12.3-7.8-4.5h0V71.3l7.8,4.5h0Zm-.1,12.4h0l-7.7-4.5V83.7h0l7.8,4.5Zm0,12.3-7.8-4.5V96h0l7.7,4.5h0Z"/><path class="cls-4" d="M154.3,176l12.8,7.3.2-64-12.8-7.4Zm2.6-35.1,7.8,4.5h0v8.9l-7.8-4.5v-8.9Zm7.8-11.3-7.7-4.5v-8.9h0l7.8,4.5h0Zm0,12.4-7.8-4.5v-8.9h0l7.7,4.5h0Zm-.1,24.7h0l-7.7-4.5v-8.9l3.3,1.9,4.5,2.5v9Zm-7.8,7.8v-8.9l7.7,4.5V179Z"/><path class="cls-4" d="M154.5,106.4l12.8,7.3.2-64-12.8-7.4ZM164.9,60l-7.7-4.5h0V46.6l7.8,4.5Zm0,12.4-7.8-4.5h0V59l3.3,1.9,4.4,2.6Zm0,12.3-7.8-4.5h0V71.3l7.8,4.5h0Zm-.1,12.4h0l-7.7-4.5V83.7h0l7.8,4.5Zm0,12.3-7.8-4.5V96h0l7.7,4.5h0Z"/><polygon class="cls-7" points="157.1 67.9 157.2 59 160.5 60.9 164.9 63.5 164.9 72.4 157.1 67.9 157.1 67.9"/><polygon class="cls-7" points="154.7 42.3 154.7 37.3 167.5 44.7 167.5 49.7 154.7 42.3 154.7 42.3"/><polygon class="cls-7" points="157.2 55.5 157.2 46.6 165 51.1 164.9 60 157.2 55.5 157.2 55.5"/><polygon class="cls-7" points="157.1 96 157.1 96 164.8 100.5 164.8 100.5 164.8 109.4 157 104.9 157.1 96"/><polygon class="cls-7" points="156.9 162.2 156.9 153.3 160.2 155.2 164.7 157.7 164.6 166.7 164.6 166.7 156.9 162.2"/><polygon class="cls-7" points="164.6 170.1 164.6 179 156.8 174.5 156.9 165.6 164.6 170.1"/><polygon class="cls-3" points="320.8 232.6 320.8 236.7 255.4 198.4 255.4 194.3 320.8 232.6"/><g class="cls-17"><polygon class="cls-3" points="301.1 247.2 301.1 251.3 255.3 224.4 255.4 220.3 301.1 247.2"/><polygon class="cls-3" points="289.6 227 289.6 231.1 255.4 210.8 255.4 206.7 289.6 227"/><polygon class="cls-3" points="320.8 252.4 320.7 256.4 255.4 218.1 255.4 214.1 320.8 252.4"/><polygon class="cls-3" points="320.8 238.8 320.8 242.9 255.4 204.6 255.4 200.5 320.8 238.8"/></g><path class="cls-8" d="M197.6,175a17.2,17.2,0,0,1,7.8,13.5c0,5-3.5,7-7.9,4.5s-7.8-8.6-7.8-13.5S193.3,172.5,197.6,175Z"/><path class="cls-8" d="M197.6,152.2c4.4,2.5,7.9,8.6,7.8,13.5s-3.5,7-7.8,4.5a17.2,17.2,0,0,1-7.8-13.5C189.8,151.7,193.3,149.7,197.6,152.2Z"/><path class="cls-8" d="M218.9,164.5a17.2,17.2,0,0,1,7.8,13.5c0,5-3.5,7-7.8,4.5s-7.9-8.6-7.8-13.5S214.6,162,218.9,164.5Z"/><path class="cls-8" d="M240.1,199.6a17.2,17.2,0,0,1,7.8,13.5c0,4.9-3.5,6.9-7.8,4.4s-7.9-8.5-7.8-13.5S235.8,197.1,240.1,199.6Z"/><path class="cls-8" d="M240.2,176.8a17.2,17.2,0,0,1,7.8,13.5c0,4.9-3.6,6.9-7.9,4.4s-7.8-8.5-7.8-13.5S235.8,174.3,240.2,176.8Z"/><path class="cls-8" d="M218.8,187.3c4.4,2.5,7.9,8.5,7.8,13.5s-3.5,7-7.8,4.5-7.8-8.6-7.8-13.5S214.5,184.8,218.8,187.3Z"/><path class="cls-5" d="M406.1,102.5,322.3,54.1a1.8,1.8,0,0,0-1.7-.2h0l-6.2,4.5h0a1.8,1.8,0,0,1,1.7.2L399.9,107a5.1,5.1,0,0,1,2.3,4.1l-.3,74.8q0,1.2-.6,1.5h0l6.3-4.5h0a1.8,1.8,0,0,0,.6-1.5l.3-74.8A5,5,0,0,0,406.1,102.5Z"/><path class="cls-4" d="M401.9,185.9l.3-74.8a5.1,5.1,0,0,0-2.3-4.1L316.1,58.6a1.8,1.8,0,0,0-1.7-.2,1.7,1.7,0,0,0-.7,1.6l-.4,74.8a5.2,5.2,0,0,0,2.4,4.1l83.8,48.4a1.7,1.7,0,0,0,1.8.1Q401.9,187.1,401.9,185.9Z"/><g class="cls-18"><polygon points="326.4 113.4 326.4 122.3 318.7 117.8 318.7 109 326.4 113.4"/></g><g class="cls-18"><polygon points="326.4 130 326.4 138.9 318.7 134.4 318.7 125.6 326.4 130"/></g><polygon class="cls-7" points="334.1 134.5 334.1 143.3 326.4 138.9 326.4 130 334.1 134.5"/><g class="cls-19"><polygon class="cls-7" points="376.9 145.3 376.9 148.7 331 122.2 331 118.8 376.9 145.3"/></g><g class="cls-18"><polygon points="326.4 99.8 326.4 108.7 318.7 104.2 318.7 95.4 326.4 99.8"/></g><g class="cls-19"><polygon class="cls-7" points="377 118.1 377 121.5 331 95 331 91.5 377 118.1"/></g><g class="cls-19"><polygon class="cls-7" points="376.9 131.7 376.9 135.1 331 108.6 331 105.2 376.9 131.7"/></g><g class="cls-18"><polygon points="326.5 86.2 326.4 95.1 318.7 90.6 318.8 81.7 326.5 86.2"/></g><polygon class="cls-7" points="396.9 126.9 396.9 135.7 381 126.6 381.1 117.7 396.9 126.9"/><polygon class="cls-7" points="396.8 154.1 396.8 163 381 153.8 381 144.9 396.8 154.1"/><polygon class="cls-7" points="396.9 140.5 396.9 149.4 381 140.2 381 131.3 396.9 140.5"/><g class="cls-18"><path d="M399.9,107a5.1,5.1,0,0,1,2.3,4.1v7.2L350.7,88.5V78.6Z"/></g><polygon class="cls-7" points="346.1 80.3 317.3 63.8 317.3 67 346.1 83.6 346.1 80.3"/><polygon class="cls-7" points="392.8 105.4 392.8 106.3 398.5 109.6 398.6 108.7 392.8 105.4"/><polygon class="cls-7" points="392.7 111 398.5 114.4 398.5 113.5 392.8 110.1 392.7 111"/><polygon class="cls-7" points="392.8 107.9 398.5 111.2 398.5 110.3 392.8 106.9 392.8 107.9"/><polygon class="cls-7" points="392.8 109.4 398.5 112.8 398.5 111.9 392.8 108.5 392.8 109.4"/><path class="cls-3" d="M406.1,102.5,322.3,54.1a1.8,1.8,0,0,0-1.7-.2h0l-6.2,4.5h0a1.8,1.8,0,0,1,1.7.2L399.9,107a5.9,5.9,0,0,1,1.8,2l6.6-3.7A4.8,4.8,0,0,0,406.1,102.5Z"/><path class="cls-20" d="M401.7,109a5.8,5.8,0,0,1,.5,2.1l-.3,74.8q0,1.2-.6,1.5h0l6.3-4.5h0a1.8,1.8,0,0,0,.6-1.5l.3-74.8a5.9,5.9,0,0,0-.2-1.3Z"/><path class="cls-5" d="M276.7,48.7,192.9.3a1.5,1.5,0,0,0-1.7-.1h0L185,4.7h0a1.5,1.5,0,0,1,1.7.1l83.7,48.4a5.1,5.1,0,0,1,2.4,4.1l-.3,34.3a1.8,1.8,0,0,1-.7,1.5h0l6.4-4.6h0a1.6,1.6,0,0,0,.6-1.4l.3-34.3A5.4,5.4,0,0,0,276.7,48.7Z"/><path class="cls-4" d="M272.5,91.6l.3-34.3a5.1,5.1,0,0,0-2.4-4.1L186.7,4.8a1.5,1.5,0,0,0-1.7-.1c-.5.2-.7.7-.7,1.5l-.4,34.2a5.6,5.6,0,0,0,2.4,4.2l83.8,48.3a1.4,1.4,0,0,0,2.4-1.3Z"/><g class="cls-19"><polygon class="cls-7" points="200.1 32.3 200 44.5 189.4 38.4 189.4 26.2 200.1 32.3"/></g><g class="cls-19"><polygon class="cls-7" points="216.7 41.5 216.6 53.7 206 47.6 206 35.3 216.7 41.5"/></g><g class="cls-19"><polygon class="cls-7" points="233.2 50.7 233.2 62.9 222.6 56.8 222.6 44.5 233.2 50.7"/></g><g class="cls-19"><polygon class="cls-7" points="249.8 59.9 249.8 72.1 239.2 66 239.2 53.7 249.8 59.9"/></g><g class="cls-19"><polygon class="cls-7" points="266.4 69 266.4 81.3 255.8 75.1 255.8 62.9 266.4 69"/></g><g class="cls-18"><path d="M270.4,53.2a5.1,5.1,0,0,1,2.4,4.1v7.2L221.3,34.7V24.8Z"/></g><polygon class="cls-7" points="216.7 26.6 187.9 10 187.9 13.3 216.7 29.9 216.7 26.6"/><polygon class="cls-7" points="263.4 51.6 263.4 52.5 269.1 55.9 269.1 54.9 263.4 51.6"/><polygon class="cls-7" points="263.3 57.3 269.1 60.6 269.1 59.7 263.3 56.3 263.3 57.3"/><polygon class="cls-7" points="263.3 54.1 269.1 57.4 269.1 56.5 263.3 53.2 263.3 54.1"/><polygon class="cls-7" points="263.3 55.7 269.1 59 269.1 58.1 263.3 54.8 263.3 55.7"/><path class="cls-3" d="M276.7,48.7,192.9.3a1.5,1.5,0,0,0-1.7-.1h0L185,4.7h0a1.5,1.5,0,0,1,1.7.1l83.7,48.4a4.9,4.9,0,0,1,1.9,2.1l6.6-3.8A4.8,4.8,0,0,0,276.7,48.7Z"/><path class="cls-20" d="M272.3,55.3a4.9,4.9,0,0,1,.5,2l-.3,34.3a1.8,1.8,0,0,1-.7,1.5h0l6.4-4.6h0a1.6,1.6,0,0,0,.6-1.4l.3-34.3a5.9,5.9,0,0,0-.2-1.3Z"/><path class="cls-5" d="M406.1,199.5l-83.8-48.4a1.5,1.5,0,0,0-1.7-.1h0l-6.2,4.4h0a1.8,1.8,0,0,1,1.7.2L399.9,204a5.3,5.3,0,0,1,2.3,4.1l-.3,114.5q0,1.2-.6,1.5h0l6.3-4.5h0a1.8,1.8,0,0,0,.6-1.5l.3-114.5A5.1,5.1,0,0,0,406.1,199.5Z"/><path class="cls-5" d="M401.9,322.6l.3-114.5a5.3,5.3,0,0,0-2.3-4.1l-83.8-48.4a1.8,1.8,0,0,0-1.7-.2,1.7,1.7,0,0,0-.7,1.6l-.4,114.5a5.4,5.4,0,0,0,2.4,4.1L399.5,324a1.7,1.7,0,0,0,1.8.1Q401.9,323.8,401.9,322.6Z"/><g class="cls-18"><path d="M399.9,204a5.3,5.3,0,0,1,2.3,4.1v7.2l-51.5-29.8v-9.9Z"/></g><polygon class="cls-21" points="396 281.8 396 281.8 395.5 280.8 394.4 281.4 395.5 280.8 396 281.8"/><polygon class="cls-21" points="396.1 256.8 396.1 256.8 395.5 255.8 394.5 256.4 395.5 255.8 396.1 256.8"/><polygon class="cls-21" points="393.4 244.5 392.9 244.8 393.4 244.5 393.4 244.5"/><polygon class="cls-21" points="348.9 246.3 347.3 243.5 347.8 243.2 347.3 243.5 348.9 246.3 348.9 246.3"/><polygon class="cls-21" points="393.6 310.2 393.3 309.5 392.7 309.8 393.3 309.5 393.6 310.2"/><polygon class="cls-21" points="394.4 281.4 393.3 279.6 392.8 279.9 393.3 279.6 394.4 281.4"/><polygon class="cls-21" points="347.8 253.3 348.9 255.1 349.9 254.5 350.5 255.5 350.5 255.5 349.9 254.5 348.9 255.1 347.8 253.3 347.2 253.6 347.2 253.6 347.8 253.3"/><polygon class="cls-21" points="347.9 228.3 347.9 228.3 347.3 228.6 347.3 228.6 347.9 228.3"/><polygon class="cls-21" points="350.4 285.4 350.4 285.4 349.8 284.5 348.8 285.1 349.8 284.5 350.4 285.4"/><polygon class="cls-21" points="347.2 283.6 347.7 283.2 347.7 283.2 347.2 283.6 348.2 285.3 347.2 283.6"/><polygon class="cls-21" points="395.4 310.7 395.9 311.7 395.4 310.7 394.3 311.4 394.3 311.4 395.4 310.7"/><polygon class="cls-21" points="392.8 254.9 392.8 254.9 393.4 254.6 392.8 254.9"/><polygon class="cls-21" points="395.6 232.6 394.5 233.2 395.6 232.6 395.6 232.6"/><polygon class="cls-7" points="323 236.5 317.1 233.1 317.1 240.3 323 243.7 323 236.5"/><polygon class="cls-7" points="323.1 226.4 317.2 223 317.2 230.1 323 233.5 323.1 226.4"/><polygon class="cls-7" points="346.1 177.4 317.3 160.8 317.3 164.1 346.1 180.7 346.1 177.4"/><polygon class="cls-7" points="396.2 233.5 395.6 232.6 394.5 233.2 393.5 231.4 392.9 231.7 394.5 234.5 396.2 233.5"/><polygon class="cls-7" points="323.1 211.5 317.2 208.1 317.2 215.2 323.1 218.6 323.1 211.5"/><polygon class="cls-7" points="323.1 201.4 317.2 198 317.2 205.1 323.1 208.5 323.1 201.4"/><polygon class="cls-5" points="317.3 184.9 317.3 192 390.6 234.4 390.6 227.2 317.3 184.9"/><path class="cls-5" d="M390.6,234.4l7.9,4.5v-7.1l-7.9-4.6Zm2.9-3,1,1.8,1.1-.6h0l.6.9-1.7,1-1.6-2.8Z"/><polygon class="cls-5" points="317.3 174.2 317.3 181.4 390.6 223.7 390.6 216.6 317.3 174.2"/><polygon class="cls-7" points="396.2 222.9 395.6 221.9 394.6 222.5 393.5 220.7 392.9 221 394.6 223.8 396.2 222.9"/><path class="cls-5" d="M390.6,223.7l7.9,4.6v-7.2l-7.9-4.5Zm2.9-3,1.1,1.8,1-.6.6,1-1.6.9-1.7-2.8Z"/><polygon class="cls-7" points="350.6 220.4 350 219.4 349 220 347.9 218.2 347.3 218.5 349 221.3 350.6 220.4"/><path class="cls-5" d="M352.9,225.7v-7.1L345,214v7.2Zm-5-7.5L349,220l1-.6.6,1-1.6.9-1.7-2.8Z"/><polygon class="cls-5" points="326.1 220.4 345 231.3 345 231.3 345 231.3 345 224.1 326.1 213.2 326.1 220.4"/><polygon class="cls-5" points="345 214 326.1 203.1 326.1 210.3 345 221.2 345 214"/><polygon class="cls-7" points="348.9 231.4 350.6 230.5 350 229.5 348.9 230.1 347.9 228.3 347.3 228.6 348.9 231.4"/><path class="cls-5" d="M345,231.3l7.9,4.5v-7.1l-7.9-4.6h0v7.2Zm2.9-3h0l1,1.8,1.1-.6.6,1-1.7.9-1.6-2.8h0Z"/><path class="cls-5" d="M390.5,257.6l7.9,4.5V255l-7.9-4.6Zm2.3-2.7.6-.3,1.1,1.8,1-.6.6,1h0l-1.6.9-1.7-2.8Z"/><path class="cls-5" d="M390.5,272.5l7.9,4.5v-7.1l-7.9-4.6Zm2.9-3,1,1.8,1.1-.6.5,1-1.6.9-1.6-2.8Z"/><path class="cls-5" d="M390.4,282.6l7.9,4.5V280l-7.8-4.6Zm2.9-3,1.1,1.8,1.1-.6.5,1h0l-1.6.9-1.6-2.8Z"/><polygon class="cls-5" points="371.5 264.5 371.5 271.7 390.4 282.6 390.4 282.6 390.5 275.4 371.5 264.5"/><polygon class="cls-5" points="371.6 254.4 371.6 261.6 390.5 272.5 390.5 265.3 371.6 254.4"/><polygon class="cls-5" points="371.6 239.5 371.6 246.6 390.5 257.6 390.5 250.4 371.6 239.5"/><polygon class="cls-5" points="371.6 229.4 371.6 236.5 390.5 247.5 390.6 240.3 371.6 229.4"/><polygon class="cls-7" points="396.1 246.7 395.6 245.7 394.5 246.3 393.4 244.5 392.9 244.8 394.5 247.6 396.1 246.7"/><path class="cls-5" d="M390.6,240.3v7.2l7.9,4.5v-7.1l-7.8-4.6Zm2.8,4.2h0l1.1,1.8,1.1-.6.5,1-1.6.9-1.6-2.8Z"/><polygon class="cls-7" points="362.7 241.5 368.6 244.9 368.6 237.8 362.7 234.4 362.7 241.5"/><polygon class="cls-7" points="368.6 227.7 362.8 224.3 362.7 231.4 368.6 234.8 368.6 227.7"/><polygon class="cls-7" points="394.5 257.7 396.1 256.8 396.1 256.8 395.5 255.8 394.5 256.4 393.4 254.6 392.8 254.9 392.8 254.9 394.5 257.7"/><polygon class="cls-5" points="326 235.3 344.9 246.2 344.9 246.2 344.9 246.2 345 239 326 228.1 326 235.3"/><path class="cls-5" d="M344.9,246.2l7.9,4.5v-7.1L345,239v7.2Zm2.9-3,1.1,1.8,1.1-.6.5,1-1.6.9h0l-1.6-2.8Z"/><polygon class="cls-7" points="348.9 246.3 348.9 246.3 350.5 245.4 350 244.4 348.9 245 347.8 243.2 347.3 243.5 348.9 246.3"/><polygon class="cls-7" points="348.9 255.1 347.8 253.3 347.2 253.6 348.9 256.4 350.5 255.5 349.9 254.5 348.9 255.1"/><path class="cls-5" d="M344.9,256.3h0l7.9,4.6v-7.2l-7.9-4.5h0Zm2.9-3,1.1,1.8,1-.6.6,1h0l-1.6.9-1.7-2.8h0Z"/><polygon class="cls-7" points="333.2 263.8 333.3 256.6 327.4 253.3 327.4 260.4 333.2 263.8"/><polygon class="cls-5" points="326 245.4 344.9 256.3 344.9 256.3 344.9 249.2 344.9 249.2 326 238.2 326 245.4"/><polygon class="cls-5" points="344.9 279.1 344.9 279.1 317.1 263 317 270.2 344.8 286.2 344.9 279.1 344.9 279.1"/><polygon class="cls-7" points="348.2 285.3 348.8 286.4 350.4 285.4 349.8 284.5 348.8 285.1 347.7 283.2 347.2 283.6 348.2 285.3"/><path class="cls-5" d="M344.9,279.1v7.1h0l7.9,4.6v-7.2l-7.8-4.5Zm2.8,4.1h0l1.1,1.9,1-.6.6.9h0l-1.6,1-.6-1.1-1-1.7Z"/><polygon class="cls-5" points="390.4 305.4 362.6 289.3 362.6 296.5 390.4 312.5 390.4 312.5 390.4 312.5 390.4 305.4"/><polygon class="cls-15" points="317.3 184.9 317.3 192 390.6 234.4 390.6 227.2 317.3 184.9"/><polygon class="cls-15" points="317.3 174.2 317.3 181.4 390.6 223.7 390.6 216.6 317.3 174.2"/><polygon class="cls-15" points="326.1 220.4 345 231.3 345 231.3 345 231.3 345 224.1 326.1 213.2 326.1 220.4"/><polygon class="cls-15" points="345 214 326.1 203.1 326.1 210.3 345 221.2 345 214"/><polygon class="cls-15" points="371.5 264.5 371.5 271.7 390.4 282.6 390.4 282.6 390.5 275.4 371.5 264.5"/><polygon class="cls-15" points="371.6 254.4 371.6 261.6 390.5 272.5 390.5 265.3 371.6 254.4"/><polygon class="cls-15" points="371.6 239.5 371.6 246.6 390.5 257.6 390.5 250.4 371.6 239.5"/><polygon class="cls-15" points="371.6 229.4 371.6 236.5 390.5 247.5 390.6 240.3 371.6 229.4"/><polygon class="cls-15" points="326 235.3 344.9 246.2 344.9 246.2 344.9 246.2 345 239 326 228.1 326 235.3"/><polygon class="cls-15" points="326 245.4 344.9 256.3 344.9 256.3 344.9 249.2 344.9 249.2 326 238.2 326 245.4"/><polygon class="cls-15" points="344.9 279.1 344.9 279.1 317.1 263 317 270.2 344.8 286.2 344.9 279.1 344.9 279.1"/><polygon class="cls-15" points="390.4 305.4 362.6 289.3 362.6 296.5 390.4 312.5 390.4 312.5 390.4 312.5 390.4 305.4"/><path class="cls-5" d="M390.4,305.4v7.1h0l7.8,4.6v-7.2l-7.9-4.5Zm2.9,4.1.3.7.7,1.2,1.1-.7.5,1-1.6.9-1.6-2.8Z"/><path class="cls-22" d="M390.6,234.4l7.9,4.5v-7.1l-7.9-4.6Zm2.9-3,1,1.8,1.1-.6h0l.6.9-1.7,1-1.6-2.8Z"/><path class="cls-22" d="M390.6,223.7l7.9,4.6v-7.2l-7.9-4.5Zm2.9-3,1.1,1.8,1-.6.6,1-1.6.9-1.7-2.8Z"/><path class="cls-22" d="M352.9,225.7v-7.1L345,214v7.2Zm-5-7.5L349,220l1-.6.6,1-1.6.9-1.7-2.8Z"/><path class="cls-22" d="M345,231.3l7.9,4.5v-7.1l-7.9-4.6h0v7.2Zm2.9-3h0l1,1.8,1.1-.6.6,1-1.7.9-1.6-2.8h0Z"/><path class="cls-22" d="M390.5,257.6l7.9,4.5V255l-7.9-4.6Zm2.3-2.7.6-.3,1.1,1.8,1-.6.6,1h0l-1.6.9-1.7-2.8Z"/><path class="cls-22" d="M390.5,272.5l7.9,4.5v-7.1l-7.9-4.6Zm2.9-3,1,1.8,1.1-.6.5,1-1.6.9-1.6-2.8Z"/><path class="cls-22" d="M390.4,282.6l7.9,4.5V280l-7.8-4.6Zm2.9-3,1.1,1.8,1.1-.6.5,1h0l-1.6.9-1.6-2.8Z"/><path class="cls-22" d="M390.6,240.3v7.2l7.9,4.5v-7.1l-7.8-4.6Zm2.8,4.2h0l1.1,1.8,1.1-.6.5,1-1.6.9-1.6-2.8Z"/><path class="cls-22" d="M344.9,246.2l7.9,4.5v-7.1L345,239v7.2Zm2.9-3,1.1,1.8,1.1-.6.5,1-1.6.9h0l-1.6-2.8Z"/><path class="cls-22" d="M344.9,256.3h0l7.9,4.6v-7.2l-7.9-4.5h0Zm2.9-3,1.1,1.8,1-.6.6,1h0l-1.6.9-1.7-2.8h0Z"/><path class="cls-22" d="M344.9,279.1v7.1h0l7.9,4.6v-7.2l-7.8-4.5Zm2.8,4.1h0l1.1,1.9,1-.6.6.9h0l-1.6,1-.6-1.1-1-1.7Z"/><path class="cls-22" d="M390.4,305.4v7.1h0l7.8,4.6v-7.2l-7.9-4.5Zm2.9,4.1.3.7.7,1.2,1.1-.7.5,1-1.6.9-1.6-2.8Z"/><polygon class="cls-7" points="395.9 311.7 395.4 310.7 394.3 311.4 394.3 311.4 393.6 310.2 393.3 309.5 392.7 309.8 394.3 312.6 395.9 311.7"/><polygon class="cls-7" points="362.6 266.5 368.5 269.9 368.5 262.8 362.7 259.4 362.6 266.5"/><polygon class="cls-7" points="362.7 256.4 368.6 259.8 368.6 252.7 362.7 249.3 362.7 256.4"/><polygon class="cls-7" points="396 271.7 395.5 270.7 394.4 271.3 393.4 269.5 392.8 269.8 394.4 272.6 396 271.7"/><polygon class="cls-7" points="396 281.8 396 281.8 395.5 280.8 394.4 281.4 393.3 279.6 392.8 279.9 394.4 282.7 396 281.8"/><polygon class="cls-7" points="323 250.7 317.1 247.3 317.1 254.5 323 257.9 323 250.7"/><polygon class="cls-7" points="350.5 273.8 356.4 277.2 356.4 270 350.5 266.6 350.5 273.8"/><polygon class="cls-7" points="360.8 279.7 366.7 283.1 366.7 275.9 360.8 272.5 360.8 279.7"/><polygon class="cls-7" points="382.1 284.9 382.1 292 388 295.4 388 288.3 382.1 284.9"/><polygon class="cls-7" points="392.4 297.9 398.3 301.3 398.3 294.2 392.4 290.8 392.4 297.9"/><polygon class="cls-7" points="392.8 202.4 392.8 203.3 398.5 206.6 398.6 205.7 392.8 202.4"/><polygon class="cls-7" points="392.7 208.1 398.5 211.4 398.5 210.5 392.8 207.1 392.7 208.1"/><polygon class="cls-7" points="392.8 204.9 398.5 208.2 398.5 207.3 392.8 204 392.8 204.9"/><polygon class="cls-7" points="392.8 206.5 398.5 209.8 398.5 208.9 392.8 205.5 392.8 206.5"/><path class="cls-14" d="M406.1,199.5l-83.8-48.4a1.5,1.5,0,0,0-1.7-.1h0l-6.2,4.4h0a1.8,1.8,0,0,1,1.7.2L399.9,204a5.4,5.4,0,0,1,1.8,2.1l6.6-3.8A4.8,4.8,0,0,0,406.1,199.5Z"/><path class="cls-11" d="M401.7,206.1a4.9,4.9,0,0,1,.5,2l-.3,114.5q0,1.2-.6,1.5h0l6.3-4.5h0a1.8,1.8,0,0,0,.6-1.5l.3-114.5a5.9,5.9,0,0,0-.2-1.3Z"/><path class="cls-23" d="M155.3,106.3s.7-3-1.1-3.3c0,0,1.5-3.4-.4-4s-4.5,6-7.5,8.7c-.5.6-3.9,3.7-4.4,2.7h0l-4.7,1.8a8.1,8.1,0,0,1-1.3,3.7c-5,7.7-10.8,11.4-15,16.8l-4.2-4-7.9,11,7.8,5.8a8.6,8.6,0,0,0,12.3-2.1l14.3-21.2a7.6,7.6,0,0,1,2.4-2.3c2.3-1.3,6.6-4,8.3-6S156.4,108.2,155.3,106.3Z"/><path class="cls-5" d="M92.5,110c7.9-.4,18.7,12.5,24.7,18.5-.4,7.4-8.4,12.3-8.4,12.3a187.5,187.5,0,0,1-16.3-12.7Z"/><path class="cls-14" d="M92.5,110c7.9-.4,18.7,12.5,24.7,18.5-.4,7.4-8.4,12.3-8.4,12.3a187.5,187.5,0,0,1-16.3-12.7Z"/><polygon class="cls-5" points="164.3 54.3 188.9 107 145.8 118.7 121.2 66 164.3 54.3"/><g class="cls-18"><polygon class="cls-7" points="164.3 54.3 188.9 107 145.8 118.7 121.2 66 164.3 54.3"/></g><path class="cls-7" d="M177.3,93.7l.6,1.3a2,2,0,0,1-.6,1.5,2.9,2.9,0,0,1-1.4.8,2.7,2.7,0,0,1-2.3-.3,4.7,4.7,0,0,1-1.2-.9,4.8,4.8,0,0,1-.8,1.8,3.4,3.4,0,0,1-1.7,1.1,4.7,4.7,0,0,1-3.6-.6l-.4-.3a9.1,9.1,0,0,1-3.3-4.1,7.2,7.2,0,0,1-.9-4.7c.2-1.3,1.1-2.1,2.7-2.6a4.7,4.7,0,0,1,1.7-.1,4.7,4.7,0,0,1,1.7.3l-2.6-5.6a5.9,5.9,0,0,0-1.6-2.2h-.2a2.3,2.3,0,0,0-1.6-.3,1.4,1.4,0,0,0-1.1,1.1l.6.2.5.4a3.8,3.8,0,0,1,.9,1.3,4.3,4.3,0,0,1,.4,2.4,1.5,1.5,0,0,1-1.1,1.2,2.3,2.3,0,0,1-1.8-.3l-.3-.2a5.6,5.6,0,0,1-1.7-2.2,5.1,5.1,0,0,1-.6-2.9,4.1,4.1,0,0,1,.9-2.6,5.9,5.9,0,0,1,2.9-1.7,6,6,0,0,1,4.6.5h.1a9.8,9.8,0,0,1,3.7,4.6l5.1,11a3.5,3.5,0,0,0,1.5,1.8A1.6,1.6,0,0,0,177.3,93.7Zm-6.6,1,.5-.6L169.3,90l-1-.3h-.8a1.3,1.3,0,0,0-.9,1.1,4,4,0,0,0,.5,2.2,3.4,3.4,0,0,0,1.3,1.7l.3.2a1.3,1.3,0,0,0,1.3.2,1,1,0,0,0,.7-.4"/><path class="cls-7" d="M164.8,98.7a3,3,0,0,1,.1,1.3l-7.2,1.9-1-1.1a6.4,6.4,0,0,1-.8-1.4q1.5-.3.6-2.4l-1.1-1.9-.6-.8-5.9,1.6.2.9a16.7,16.7,0,0,0,.7,1.9,3.1,3.1,0,0,0,1.2,1.5,1.7,1.7,0,0,0,1.4.2,9.4,9.4,0,0,1,.6,1.5,6.2,6.2,0,0,1,.1,1.3l-5.9,1.6a5.2,5.2,0,0,1-1-1.1,6.7,6.7,0,0,1-.9-1.4,1.3,1.3,0,0,0,1-1.1,4,4,0,0,0,0-2.2l-5-21.3a6.3,6.3,0,0,0-3,.2,6.9,6.9,0,0,1-.7-3.2l7.2-1.9,15.9,22.1a5.7,5.7,0,0,0,1.9,1.9,2.3,2.3,0,0,0,1.7.4A8.8,8.8,0,0,1,164.8,98.7ZM148,92.5l4.7-1.3L146,81.4a7.7,7.7,0,0,0-1.6-1.9l3.6,13"/><path class="cls-23" d="M96.6,278.4c-.1,3.4,0,7.4,0,7.4H94.7a4.6,4.6,0,0,0-4.2,3.1h-.1a1.9,1.9,0,0,1-2.2,1.2h0a2.9,2.9,0,0,1-1.2-1l-1-8.5Z"/><path class="cls-3" d="M99.5,307.8c5.1,2.1,13,2.6,16.2-2.7v1.5c-3.2,5.2-11.1,4.8-16.2,2.6s-4-5.8-8.6-7.7a12.9,12.9,0,0,1-4.5-2.8c0-.5-.1-1-.1-1.6a14,14,0,0,0,4.6,3C95.5,302,94.4,305.6,99.5,307.8Z"/><path class="cls-5" d="M86.3,292.5a7.1,7.1,0,0,0-.1-3.1,1.6,1.6,0,0,1,.3-1.3l.4-.4v1.6a2.9,2.9,0,0,0,1.2,1,1.9,1.9,0,0,0,2.2-1.2h.1a4.6,4.6,0,0,1,4.2-3.1h2a1.4,1.4,0,0,1,1.4.8c2,5,7.2,10.5,11.1,13,2.9-.1,6.5,2.3,6.5,5.2v.3c-3.2,5.3-11.1,4.8-16.2,2.7s-4-5.8-8.6-7.7a14,14,0,0,1-4.6-3A14.1,14.1,0,0,1,86.3,292.5Z"/><path class="cls-7" d="M96.2,296.5a.6.6,0,1,1-1-.8,7.2,7.2,0,0,1,6.7-2.9l.8,1A6.8,6.8,0,0,0,96.2,296.5Z"/><path class="cls-7" d="M94.2,294.2c-.3.3-.7.4-.9.1a.6.6,0,0,1-.1-.9,7.7,7.7,0,0,1,6.9-3,10.5,10.5,0,0,0,.8,1.1A7.2,7.2,0,0,0,94.2,294.2Z"/><path class="cls-7" d="M98.3,298.7a.6.6,0,0,1-1-.8,7.1,7.1,0,0,1,6.5-2.9l1,1A7.1,7.1,0,0,0,98.3,298.7Z"/><path class="cls-7" d="M109.2,299.6c2.9-.1,6.5,2.3,6.5,5.2v.3c-3.2,5.2-10.8,4.8-16,2.7C100.1,300.8,106.9,299.5,109.2,299.6Z"/><path class="cls-7" d="M100.5,300.8a.8.8,0,0,1-1,.1.7.7,0,0,1-.1-.9,7.4,7.4,0,0,1,6.6-2.9l1.2,1A7.2,7.2,0,0,0,100.5,300.8Z"/><path class="cls-23" d="M69.4,284.7c-.1,3.3,0,7.3,0,7.3H67.5a4.6,4.6,0,0,0-4.2,3.1h-.1a1.8,1.8,0,0,1-2.3,1.2h0a1.8,1.8,0,0,1-1.1-1l-1-8.4Z"/><path class="cls-3" d="M72.3,314c5.1,2.2,12.9,2.6,16.2-2.6v1.4c-3.3,5.2-11.1,4.8-16.2,2.6s-4-5.8-8.6-7.7a11.7,11.7,0,0,1-4.5-2.8,11.5,11.5,0,0,0-.2-1.6,15.9,15.9,0,0,0,4.7,3C68.3,308.2,67.2,311.8,72.3,314Z"/><path class="cls-5" d="M59,298.7a5.7,5.7,0,0,0,0-3,2.2,2.2,0,0,1,.2-1.4l.4-.3.2,1.5a1.8,1.8,0,0,0,1.1,1,1.8,1.8,0,0,0,2.3-1.2h.1a4.6,4.6,0,0,1,4.2-3.1h1.9a1.4,1.4,0,0,1,1.4.9A32.9,32.9,0,0,0,82,305.8c2.9-.1,6.5,2.3,6.5,5.3v.3c-3.3,5.2-11.1,4.8-16.2,2.6s-4-5.8-8.6-7.7a15.9,15.9,0,0,1-4.7-3A23.3,23.3,0,0,1,59,298.7Z"/><path class="cls-7" d="M69,302.7a.7.7,0,0,1-1.1-.8,7.6,7.6,0,0,1,6.7-2.9l.9,1A7.3,7.3,0,0,0,69,302.7Z"/><path class="cls-7" d="M66.9,300.5a.6.6,0,0,1-.9.1c-.2-.3-.3-.7-.1-.9a7.7,7.7,0,0,1,7-3l.8,1C71.2,297.6,68.9,298,66.9,300.5Z"/><path class="cls-7" d="M71.1,305c-.3.2-.7.3-.9,0a.7.7,0,0,1-.2-.9,7.6,7.6,0,0,1,6.6-2.9l1,1A7.1,7.1,0,0,0,71.1,305Z"/><path class="cls-7" d="M82,305.8c2.9-.1,6.5,2.3,6.5,5.3v.3c-3.2,5.1-10.9,4.8-16,2.7C72.9,307,79.7,305.8,82,305.8Z"/><path class="cls-7" d="M73.2,307.1a.7.7,0,0,1-1-.9,7.4,7.4,0,0,1,6.5-2.9l1.3,1A7.2,7.2,0,0,0,73.2,307.1Z"/><path class="cls-3" d="M103.3,172.2l-1,65.3-3.1,45.8c-7.8,4.9-15.9.3-15.9.3-2.9-21.7-3-35.1-1.4-44.2l-1-34.9-1.5,36.1L72,286.9c-8,5.2-16.7-.2-16.7-.2,0-16.6-1.7-36.4,2.9-48.3-3.2-37.1,2.2-65.5,2.2-65.5Z"/><path class="cls-15" d="M84.2,191.4l-3.3,13.1.5,16.9,4.8-27.2c7-2.7,7.9-6.5,7.9-6.5A21.4,21.4,0,0,1,84.2,191.4Z"/><path class="cls-5" d="M63.5,116.3c11.3-5.3,19.8-5.9,29.1-6.3,13.8,8.9,8.6,16.3,8.4,28.3a163.2,163.2,0,0,0,4.3,38.9c-18.2,14.5-42.2,11.1-47.7,7.6C58.9,149.3,57.3,118.9,63.5,116.3Z"/><path class="cls-24" d="M63.5,116.3c11.3-5.3,19.8-5.9,29.1-6.3,13.8,8.9,8.6,16.3,8.4,28.3a163.2,163.2,0,0,0,4.3,38.9c-18.2,14.5-42.2,11.1-47.7,7.6C58.9,149.3,57.3,118.9,63.5,116.3Z"/><path class="cls-20" d="M97.9,92.4A9.4,9.4,0,0,0,100.5,80a5.6,5.6,0,0,0,2.5-2.3,3,3,0,0,0-.6-3.1,2.8,2.8,0,0,0-3-.6,3.9,3.9,0,0,0-1.5-4.5,3.6,3.6,0,0,0-4.5.8,2.7,2.7,0,0,0-1.7-2.4,5.8,5.8,0,0,0-3.2.2c-1,.4-1.9.9-2.9,1.2a31.9,31.9,0,0,1-5.4.7,11,11,0,0,0-5.1,1.3c-1.5,1-2.9,3.3-2.1,5.3a3,3,0,0,0-2.1-1.2,3.2,3.2,0,0,0-2.2,1L72,78.5a3,3,0,0,0-3.4,1.4,7.4,7.4,0,0,0-.6,3.6,46.1,46.1,0,0,0,2.5,13.8c.8,2.4,2.9,6.3,5.1,7.3Z"/><path class="cls-23" d="M97.9,80.3a12,12,0,0,1-8,3.3c-2.8,0-5.5-.9-8.2-1.6a5.7,5.7,0,0,1-1.8,3.4A6.8,6.8,0,0,1,76.1,87a24.9,24.9,0,0,1,0,7.7,1.4,1.4,0,0,1-1,1.1c-.9.3-1.5-.6-2-1.4a6.7,6.7,0,0,0-1.9-2.2,3.3,3.3,0,0,0-2.9-.3,3.8,3.8,0,0,0-1.5,1.8,7,7,0,0,0-.1,2.5,6.9,6.9,0,0,0,1.6,3.6,4.9,4.9,0,0,0,3.5,1.9,3.6,3.6,0,0,0,3.3-1.7v.2a5.6,5.6,0,0,0,.4,1.2,9.9,9.9,0,0,0,7.3,6.3l5.6,1,2.8.4a6.8,6.8,0,0,0,7.6-5.6C100.2,96.1,100.7,87.5,97.9,80.3Z"/><path class="cls-23" d="M75.6,101.4v12.8a13.7,13.7,0,0,0,10.3,5.7,4.8,4.8,0,0,0,3.7-.9,3.1,3.1,0,0,0-.4-4.8,1.7,1.7,0,0,1-.7-1.3v-4.2l-5.6-1A9.9,9.9,0,0,1,75.6,101.4Z"/><path class="cls-25" d="M84.1,110.5a33.9,33.9,0,0,0,4.4.8v-2.6l-5.6-1a10.1,10.1,0,0,1-7.1-5.7,10.2,10.2,0,0,0,2.6,5.3A12.4,12.4,0,0,0,84.1,110.5Z"/><polygon class="cls-25" points="91.5 91.2 96.2 96.9 91.9 98.4 91.5 91.2"/><path class="cls-20" d="M84.8,91.9a1.3,1.3,0,0,0,1.3,1.3,1.3,1.3,0,0,0,1.3-1.3,1.3,1.3,0,0,0-2.6,0Z"/><path class="cls-20" d="M95.7,91.6A1.3,1.3,0,0,0,97,92.9a1.3,1.3,0,1,0-1.3-1.3Z"/><path class="cls-20" d="M95,85.8l3.5.4A1.9,1.9,0,0,0,97,84.7,2.3,2.3,0,0,0,95,85.8Z"/><path class="cls-20" d="M87.3,85.8l-3.4,1a1.8,1.8,0,0,1,1.2-1.7A2.3,2.3,0,0,1,87.3,85.8Z"/><path class="cls-25" d="M86.5,100.3l3.6,1.8a2.3,2.3,0,0,1-2.7.7A2.1,2.1,0,0,1,86.5,100.3Z"/><path class="cls-15" d="M86.5,100.3l3.6,1.8a2.3,2.3,0,0,1-2.7.7A2.1,2.1,0,0,1,86.5,100.3Z"/><path class="cls-25" d="M88.6,103a2.5,2.5,0,0,1-1.2-.2,2,2,0,0,1-1-1.9,2.4,2.4,0,0,1,1.4.5A2.1,2.1,0,0,1,88.6,103Z"/><path class="cls-23" d="M53.6,190.2l-16-28.1a11,11,0,0,1-.3-9.4l8.9-20.9a27,27,0,0,1,15.5-14.9l2.3-.8c1.2,12.5-2.6,18.6-14,40.4,0,0,6,20.3,10.7,29.3a35.6,35.6,0,0,1,10.2,7.4,1.9,1.9,0,0,1,.1,2.4h-.1a1.6,1.6,0,0,1-2.1.5l-4.6-2.4a50.3,50.3,0,0,0,6,9.9,2,2,0,0,1-.1,2.5h0a2.2,2.2,0,0,1-1.7.5l-5-.7a9,9,0,0,1-6.8-5A31.1,31.1,0,0,1,53.6,190.2Z"/><path class="cls-5" d="M64,116.1c-9.8,3.3-15.3,5.5-23,26.5,3.9,6,14.5,5.2,14.5,5.2C69.3,126.9,64,116.1,64,116.1Z"/><path class="cls-14" d="M64,116.1c-9.8,3.3-15.3,5.5-23,26.5,3.9,6,14.5,5.2,14.5,5.2C69.3,126.9,64,116.1,64,116.1Z"/><path class="cls-23" d="M141.9,110.4a3.4,3.4,0,0,1,.1-.9c.7-2.6,1.5-5.1.1-6.1a.8.8,0,0,0-1.2.3c-.6,1.2-1.9,3.4-2.7,4.9a14.2,14.2,0,0,0-1,3.6l4.7-1.8Z"/><polygon class="cls-26" points="173.9 118.1 177.4 121.3 171.3 154.8 167.6 176.6 154.9 178.1 160.1 154.8 170 116.2 173.9 118.1"/><path class="cls-5" d="M168.8,173.9c-8.8-3.3-14.6,1.4-14.6,1.4l-1.4,37.3,15.7-8.9Z"/><path class="cls-20" d="M168.8,173.9c-8.8-3.3-14.6,1.4-14.6,1.4l-1.4,37.3,15.7-8.9Z"/><path class="cls-27" d="M168.8,173.9c-8.8-3.3-14.6,1.4-14.6,1.4l-1.4,37.3,15.7-8.9Z"/><path class="cls-5" d="M176.6,66.5c-1.4-.9-2.6-.2-2.6,1.5l-.5,53.7a5.7,5.7,0,0,0,2.6,4.5l64.7,37.4c1.4.8,2.6.1,2.6-1.6l.5-53.7a5.9,5.9,0,0,0-2.6-4.5Z"/><g class="cls-17"><polygon class="cls-7" points="197.1 93.8 179.5 107.7 179.5 121.2 237.9 154.9 237.9 141.4 226.8 119.3 216.8 127 220.3 138 215.2 128.3 197.1 93.8"/><path class="cls-7" d="M216.3,100.6c-2.8-1.6-5-.3-5,2.9a11.2,11.2,0,0,0,4.9,8.6c2.8,1.6,5,.3,5-2.9A11.2,11.2,0,0,0,216.3,100.6Z"/></g><path class="cls-26" d="M214.9,195.1l13.8-4.6,9.2-34.5a5.4,5.4,0,0,0-.3-3.1l-.9-2.4a8.9,8.9,0,0,1-.7-4v-5.2a1.7,1.7,0,0,1,1.6-1.6h0a1.6,1.6,0,0,1,1.6,1.3l.9,4.6,1.9,2.2,1.6-6.3v-8.1l4.1,5.9a7.2,7.2,0,0,1,1.2,5.3l-1.7,10-4.4,38.8a15.8,15.8,0,0,1-9.8,12.7l-14.6,5.6Z"/><path class="cls-20" d="M185.1,405c.8,2.4,3.4,3.8,5.9,4s4.9-.5,7.3-1c5.5-1,10.8,0,16.2-.1a24.8,24.8,0,0,0,5.4-.6,8.7,8.7,0,0,0,4.5-2.7,5.2,5.2,0,0,0,1.3-2.8,5.2,5.2,0,0,1-1.3,4.4,8.7,8.7,0,0,1-4.5,2.7,24.8,24.8,0,0,1-5.4.6c-5.4.1-10.7-.9-16.2.1-2.4.5-4.9,1.2-7.3,1s-5.1-1.6-5.9-4a10.1,10.1,0,0,1-.2-2.5C185,404.4,185,404.7,185.1,405Z"/><path class="cls-3" d="M185.3,400.5c.3-1.7.6-3.3,1-5a8.1,8.1,0,0,1,.8-2.5,2.6,2.6,0,0,1,2.2-1.3c3-.4,7.2-1.4,9.7.3a23.6,23.6,0,0,0,13.4,3.9c2.5-.1,5-.6,7.5-.3s5,1.6,5.7,4a4.1,4.1,0,0,1,.1,2.2,5.2,5.2,0,0,1-1.3,2.8,8.7,8.7,0,0,1-4.5,2.7,24.8,24.8,0,0,1-5.4.6c-5.4.1-10.7-.9-16.2.1-2.4.5-4.9,1.2-7.3,1s-5.1-1.6-5.9-4c-.1-.3-.1-.6-.2-.9A11.1,11.1,0,0,1,185.3,400.5Z"/><path class="cls-26" d="M199.8,386.8l.2,6.4a2.6,2.6,0,0,1-2.4,2.7,46.8,46.8,0,0,1-6.5-.1,3.7,3.7,0,0,1-3.4-3.4l-.2-4.8Z"/><path class="cls-20" d="M157.5,383.3a4.2,4.2,0,0,0,3.9,4.4,7.8,7.8,0,0,0,7.6-3.1c.8-1.2,1.3-2.6,2-3.8a16.8,16.8,0,0,1,4.3-4.1,18.7,18.7,0,0,0,4.3-4.1,6.3,6.3,0,0,0,.8-5.5,4.3,4.3,0,0,1,.4.7,6.4,6.4,0,0,1-.8,5.8,16,16,0,0,1-4.4,4.2,19.5,19.5,0,0,0-4.3,4.3c-.8,1.3-1.3,2.7-2.1,3.9a7.6,7.6,0,0,1-7.7,3.2,5.2,5.2,0,0,1-3.2-1.8,6.6,6.6,0,0,1-.9-3.7Z"/><path class="cls-3" d="M159.4,375.2c2-3.5,6.1-6,9.2-8.4a11.8,11.8,0,0,1,6.1-2.8,5.7,5.7,0,0,1,5.6,2.9c0,.1.1.1.1.2a6.3,6.3,0,0,1-.8,5.5,18.7,18.7,0,0,1-4.3,4.1,16.8,16.8,0,0,0-4.3,4.1c-.7,1.2-1.2,2.6-2,3.8a7.8,7.8,0,0,1-7.6,3.1,4.2,4.2,0,0,1-3.9-4.4,2.8,2.8,0,0,1-.1-.9A16.5,16.5,0,0,1,159.4,375.2Z"/><path class="cls-26" d="M168,372.2v5.9a10.1,10.1,0,0,1-9.2-.4l-.5-5.3Z"/><path class="cls-5" d="M156.7,265.4c-1.8,5.3.4,30.4,1.4,54.6-3.8,9.1-2.8,35-.5,53.4,0,0,7.6,2.5,14.6.2l4.8-51,1.2-28.7s2.2,25.5,4.7,41.8c-2.4,12.5-3.3,14.3.4,53.6,0,0,9.6,3.2,16.6-.2,3.3-54.1,2.1-103.4,1.5-121.1Z"/><path class="cls-15" d="M156.7,265.4c-1.8,5.3.4,30.4,1.4,54.6-3.8,9.1-2.8,35-.5,53.4,0,0,7.6,2.5,14.6.2l4.8-51,1.2-28.7s2.2,25.5,4.7,41.8c-2.4,12.5-3.3,14.3.4,53.6,0,0,9.6,3.2,16.6-.2,3.3-54.1,2.1-103.4,1.5-121.1Z"/><path class="cls-15" d="M177.5,311.4l.9-23.4c-6,0-11.6-4.5-15.9-8.8,4.1,7.3,12.1,10.5,12.1,10.5Z"/><path class="cls-20" d="M202.3,269.4c-27,11.3-44.5,1.1-46.8-4.2,1.2-18.6-3.2-40.5-2.9-49.8s1.5-19.7,15.9-17.6l15.3,1.5,7.7,1.9,9.4,19.3Z"/><path class="cls-20" d="M168.5,190.5a4.1,4.1,0,0,1-3-1,3.1,3.1,0,0,1-.7-2.6,3,3,0,0,1-2.1-1.7,3.3,3.3,0,0,1,.5-2.7,5,5,0,0,1-3-2.5,5.3,5.3,0,0,1-.2-4.1,4.2,4.2,0,0,1-3-2.9,4.6,4.6,0,0,1,.9-4.4,5.6,5.6,0,0,1-.7-5.8,5.9,5.9,0,0,1,5-3.4,6.4,6.4,0,0,1,2-5.5,5.7,5.7,0,0,1,5.5-1,5.5,5.5,0,0,1,4.1-3.3,5.4,5.4,0,0,1,4.8,1.7,4.4,4.4,0,0,1,6.9.8,5.8,5.8,0,0,1,5.3.5,5.4,5.4,0,0,1,2.4,4.8,3.1,3.1,0,0,1,2.3,3.2,3.2,3.2,0,0,1-2.6,3,76.8,76.8,0,0,1-7.2,21c-1.5,3-3.4,6-6.3,7.5S171.2,192.8,168.5,190.5Z"/><path class="cls-20" d="M168.5,190.5a4.1,4.1,0,0,1-3-1,3.1,3.1,0,0,1-.7-2.6,3,3,0,0,1-2.1-1.7,3.3,3.3,0,0,1,.5-2.7,5,5,0,0,1-3-2.5,5.3,5.3,0,0,1-.2-4.1,4.2,4.2,0,0,1-3-2.9,4.6,4.6,0,0,1,.9-4.4,5.6,5.6,0,0,1-.7-5.8,5.9,5.9,0,0,1,5-3.4,6.4,6.4,0,0,1,2-5.5,5.7,5.7,0,0,1,5.5-1,5.5,5.5,0,0,1,4.1-3.3,5.4,5.4,0,0,1,4.8,1.7,4.4,4.4,0,0,1,6.9.8,5.8,5.8,0,0,1,5.3.5,5.4,5.4,0,0,1,2.4,4.8,3.1,3.1,0,0,1,2.3,3.2,3.2,3.2,0,0,1-2.6,3,76.8,76.8,0,0,1-7.2,21c-1.5,3-3.4,6-6.3,7.5S171.2,192.8,168.5,190.5Z"/><polygon class="cls-28" points="194 173.2 197.1 178.7 193.7 180 194 173.2"/><polygon class="cls-29" points="194 173.2 197.1 178.7 193.7 180 194 173.2"/><path class="cls-26" d="M192.9,163.6a51.4,51.4,0,0,1,.9,23.4,8.1,8.1,0,0,1-1.5,3.7,5.6,5.6,0,0,1-4,1.9,17.3,17.3,0,0,1-4.5-.5v7.2c-5.5,1.3-11,1.8-15.3-1.5v-7.3a19.1,19.1,0,0,0,9.5.6c3.7-2,4.5-8.9,4-10.7a2.8,2.8,0,0,1-3,1,3.8,3.8,0,0,1-2.4-1.9,8,8,0,0,1-.9-3.1,5.2,5.2,0,0,1,.5-3.7,4,4,0,0,1,4.3-1.5,6.2,6.2,0,0,1,3.6,3l.6,1.4a.9.9,0,0,0,1.7-.2,12.1,12.1,0,0,0-1.1-6,4,4,0,0,0,3-1.9,3.5,3.5,0,0,0,.6-3.4A11.1,11.1,0,0,0,192.9,163.6Z"/><path class="cls-26" d="M173.6,119.3l2.8-7.2,1.2-5.7a1.4,1.4,0,0,0-.9-1.7h0a1.6,1.6,0,0,0-1.9.9l-1,3.1V100l-3.7,6.5a6,6,0,0,0-.7,3.2l-.7,11.5Z"/><path class="cls-20" d="M191.5,201.2c8.6-2.9,23.9-7.5,23.9-7.5,6.9,6.9,6.3,18.1,6.3,18.1l-20.8,8.7C180.9,226.8,178,205.6,191.5,201.2Z"/><path class="cls-27" d="M191.5,201.2c8.6-2.9,23.9-7.5,23.9-7.5,6.9,6.9,6.3,18.1,6.3,18.1l-20.8,8.7C180.9,226.8,178,205.6,191.5,201.2Z"/></g></svg>