<svg xmlns="http://www.w3.org/2000/svg" viewBox="0 0 40.3 36.8"><defs><style>.cls-1{fill:#260b51;}.cls-2{fill:#ce79cc;}.cls-3{fill:#fbfefb;}.cls-4{fill:#232b38;}.cls-5{fill:#c7cfd7;}.cls-6{fill:#fbfcfc;}.cls-7{fill:#57667c;}.cls-8{fill:#e8a89f;}.cls-9{fill:#708095;}.cls-10{fill:#c08586;}.cls-11{fill:#57759b;}</style></defs><g id="Character_2" data-name="Character 2"><path class="cls-1" d="M16,4.3H28.3l.5-.2,2.4-2.5A4.9,4.9,0,0,1,36.8.4a4.9,4.9,0,0,1,3.5,4.4,5.6,5.6,0,0,1-1.9,4.7l-2.9,2.9a1.4,1.4,0,0,0-.3.9V29a3.7,3.7,0,0,1-3,3.6H21.9c-.3,0-.3.1-.2.3a14.2,14.2,0,0,1,.5,1.6c.1.3.2.4.4.3h2a1.1,1.1,0,0,1,.9,1.5.9.9,0,0,1-.7.3H10.4a.7.7,0,0,1-.7-.5,1,1,0,0,1,.9-1.4h2.1c.2,0,.2,0,.3-.2l.6-1.7c.1-.2.1-.3-.2-.3H3.6A3.7,3.7,0,0,1,0,29V8.2A3.8,3.8,0,0,1,3,4.4H16Zm.9,19.6a16.6,16.6,0,0,0,2.1-.6l5.8-1.7c.3-.1.3-.2.3-.4a15.9,15.9,0,0,1-.7-2c-.1-.3-.1-.7-.3-.8s-.5.2-.8.2h0c-.2,0-.2.1-.2.3a3.8,3.8,0,0,0,.3,1c.1.4-.1.4-.3.5l-3.7,1.1h-.1l.3-.5c.3-.9.6-1.8,1-2.7s.2-.5.6-.5l.8-.2c.1-.1.5-.8.4-1h0c-.3-.1-.6-.4-.9-.3l-2.1.5c-.2.1-.3.2-.3.4s-1.1,3.3-1.7,4.9-.4,1.2-.5,1.8ZM31.7,9l1.9,2c.2.2.3.2.5,0l2.1-2.4,1.1-1.2a3,3,0,0,0,.1-4,3.2,3.2,0,0,0-4.2-.6,5,5,0,0,0-1.1,1L29.5,6.4c-.1.1-.2.2-.1.4Zm-7.5,7.6c.4,1.2.8,2.4,1.3,3.6s.2.3.3,0,2.5-2.9,3.7-4.3a41.2,41.2,0,0,1,2.8-3.1.2.2,0,0,0,0-.3l-2.1-2.1L28,8.3c-.1-.2-.2-.2-.4-.1l-3.4,3.3c-1.2,1.3-2.5,2.5-3.7,3.7ZM20.3,8.9l.3.2L22,10.5q.2.3.3,0l3.2-3.3.5-.5H6.1A2.7,2.7,0,0,0,3.3,9.5V27.2a2.8,2.8,0,0,0,.4,1.5A2.2,2.2,0,0,0,5.9,30a5.2,5.2,0,0,0-1.1-1c-.2-.2-.6-.3-.6-.5s.3-.5.5-.7H23.3a5.7,5.7,0,0,0,3.4-1,3.4,3.4,0,0,0,1.6-2.9A1.2,1.2,0,0,0,27,22.7c-.6-.1-1,.3-1.3,1s-.4.6-.7.9a3.4,3.4,0,0,1-1.7.3H10.8c-.1,0-.2.1-.3-.1s2.1-2.9,3.2-4.4l5.1-6.8a6.9,6.9,0,0,0,1.3-2A2.9,2.9,0,0,0,20.3,8.9ZM18.6,30.5a.9.9,0,0,0-1-1,.9.9,0,0,0-.9.9c0,.6.4,1.1,1,1A.9.9,0,0,0,18.6,30.5Z"/><path class="cls-2" d="M20.3,8.9a.9.9,0,0,0-.6-.3H12.3A5.4,5.4,0,0,0,8.5,10,3.9,3.9,0,0,0,7,13.3a3.1,3.1,0,0,0,1.1,2.5,5.4,5.4,0,0,0,4.2,1.8L10.5,20,8.3,23c-1.1,1.3-2.1,2.7-3.1,4.1l-.5.7c-.2.2-.5.5-.5.7s.4.3.6.5a5.2,5.2,0,0,1,1.1,1,2.2,2.2,0,0,1-2.2-1.3,2.8,2.8,0,0,1-.4-1.5V9.5A2.7,2.7,0,0,1,6.1,6.7H26l-.5.5-3.2,3.3q-.2.3-.3,0L20.6,9.1Z"/><path class="cls-3" d="M18.6,30.5a.9.9,0,0,1-.9.9c-.6.1-1-.4-1-1a.9.9,0,0,1,.9-.9A.9.9,0,0,1,18.6,30.5Z"/><path class="cls-3" d="M16.9,23.9Z"/><path class="cls-1" d="M12.3,17.6a5.4,5.4,0,0,1-4.2-1.8A3.1,3.1,0,0,1,7,13.3a2,2,0,0,0,.7,1,1.3,1.3,0,0,0,1.9-.7,1.4,1.4,0,0,0,.2-.6A2.6,2.6,0,0,1,12,11.5h4.8v.2l-2.3,3.1Z"/><path class="cls-4" d="M19.4,21.5h0Z"/><path class="cls-5" d="M23.6,24.9l1.1-.2a2.1,2.1,0,0,0,1-1.1,1.4,1.4,0,0,1,2.3-.5,1.6,1.6,0,0,1,.2,1.5,3.4,3.4,0,0,1-1.3,2,4.7,4.7,0,0,1-3.2,1.2H5c-.1-.1,0-.2.1-.3a20.9,20.9,0,0,0,1.4-1.7c.9-1.2,1.8-2.5,2.8-3.7l2.6-3.4a5.8,5.8,0,0,1,2.8-2.3,2.6,2.6,0,0,1,2.1-.1l-3.1,4.2-3.1,4.4h-.1c0,.1-.1.1-.1.2H23.5C23.7,25.1,23.7,25,23.6,24.9Z"/><path class="cls-6" d="M16.8,16.2a2.6,2.6,0,0,0-2.1.1,5.8,5.8,0,0,0-2.8,2.3L9.3,22c-1,1.2-1.9,2.5-2.8,3.7a20.9,20.9,0,0,1-1.4,1.7c-.1.1-.2.2-.1.3H4.7v-.2l.3-.4h.2c.1-.1.1-.1.1-.2s1.3-1.7,2-2.6a9.1,9.1,0,0,0,1.1-1.6h.1c.1-.1.2-.1.2-.3s.3-.2.4-.4l1.6-2.1,1.5-2,2.1-2.8,2.2-3,.2-.2c-.1-.2-.2-.1-.3-.1H11.8A2.2,2.2,0,0,0,10,12.7a3.6,3.6,0,0,0-.4.9,1.3,1.3,0,0,1-2,.6,1.3,1.3,0,0,1-.6-.9v-.8h.1A4.6,4.6,0,0,1,9.8,9.2a5.4,5.4,0,0,1,2.1-.5h7.9c.2,0,.3,0,.4.2a2.6,2.6,0,0,1-.1,2.7A10.8,10.8,0,0,1,19,13.4Z"/><path class="cls-5" d="M28.4,8.7l1.8,1.7-3.7,3.9-2.3,2.4-2.8-1.1.2-.3.9-.9,5.1-5A2.7,2.7,0,0,1,28.4,8.7Z"/><path class="cls-7" d="M30.9,11.2l1.4,1.4c.1.1,0,.1-.1.2l-2.7,3.1c-1.3,1.5-2.6,2.8-3.7,4.3s-.2.3-.3,0l-1-2.7h.1l4.1-4.2c.5-.5.9-1.1,1.4-1.5S30.5,11.3,30.9,11.2Z"/><path class="cls-5" d="M23.4,20.3a3.1,3.1,0,0,0-.2-.8c.2,0,.2-.1.3-.2a2.4,2.4,0,0,1,.6-.8c.4.9.7,1.9,1,2.8s0,.3-.2.3l-6,1.7-1.7.5.4-.9c.5-1.8,1.2-3.5,1.8-5.3,0-.2.2-.3.4-.4l2.5-.6c.2,0,.1.1.1.2s-.3.9-1,.9a1.3,1.3,0,0,0-1,.9c-.3,1-.6,1.9-1,2.9s0,0,0,.1h.1l3.6-1.1C23.2,20.5,23.3,20.5,23.4,20.3Z"/><path class="cls-5" d="M31.7,9,29.8,7.2a20.8,20.8,0,0,0,2.1-2.1,7.4,7.4,0,0,1,1.3-1.2l1.5,1.5.2.2-.3.3C33.6,6.9,32.6,7.9,31.7,9Z"/><path class="cls-7" d="M37,7.7a8.7,8.7,0,0,1-.8,1L34,11c-.2.2-.3.2-.5,0L32.3,9.7l.6-.7a33.1,33.1,0,0,0,2.6-2.7A6.7,6.7,0,0,1,37,7.7Z"/><path class="cls-8" d="M34.9,5.6l-.2-.2L33.2,3.9a2.3,2.3,0,0,1,1.4-1,5,5,0,0,1,2.1,0h0c0,.1.1.1.2.1H37l.3.4a1.8,1.8,0,0,1-.7,1.9,2.7,2.7,0,0,0-.7.8h-.4A3.4,3.4,0,0,0,34.9,5.6Z"/><path class="cls-6" d="M28.4,8.7a2.7,2.7,0,0,0-.8.7l-5.1,5-.9.9-.2.3-.8-.3c.8-.8,1.5-1.7,2.4-2.5l4.6-4.5c.1-.2.2-.2.4,0Z"/><path class="cls-9" d="M30.9,11.2c-.4.1-.5.4-.8.6s-.9,1-1.4,1.5l-4.1,4.2h-.1l-.3-.8,2.3-2.4,3.7-3.9Z"/><path class="cls-6" d="M36.7,2.9a5,5,0,0,0-2.1,0,2.3,2.3,0,0,0-1.4,1,7.4,7.4,0,0,0-1.3,1.2,20.8,20.8,0,0,1-2.1,2.1c-.6-.6-.6-.5,0-1.1l2.8-2.9a3.5,3.5,0,0,1,4.1-.4Z"/><path class="cls-10" d="M35.5,6.2h.4a2.7,2.7,0,0,1,.7-.8,1.8,1.8,0,0,0,.7-1.9A3.1,3.1,0,0,1,37,7.7a6.7,6.7,0,0,0-1.5-1.4Z"/><path class="cls-9" d="M35.5,6.2h0A33.1,33.1,0,0,1,32.9,9l-.6.7L31.7,9c.9-1.1,1.9-2.1,2.9-3.1l.3-.3A3.4,3.4,0,0,1,35.5,6.2Z"/><path class="cls-3" d="M22.3,16.6l-2.5.6c-.2.1-.4.2-.4.4-.6,1.8-1.3,3.5-1.8,5.3l-.4.9h-.3a5,5,0,0,1,.3-1.3L19,17.2c.1-.2.2-.3.4-.3l2-.5C21.8,16.3,22,16.5,22.3,16.6Z"/><path class="cls-6" d="M23.6,24.9c.1.1.1.2-.1.2H10.4c0-.1.1-.1.1-.2Z"/><path class="cls-6" d="M17.5,29.5a1,1,0,0,1,1.1.9.9.9,0,0,1-1,1,.9.9,0,0,1-.9-.9A.9.9,0,0,1,17.5,29.5Z"/><path class="cls-3" d="M5,27.8H5Z"/><path class="cls-3" d="M23.4,20.3c-.1.2-.2.2-.3.2l-3.6,1.1h-.1l2.5-.7Z"/><path class="cls-3" d="M24.1,18.5a2.4,2.4,0,0,0-.6.8c-.1.1-.1.2-.3.2h0c0-.2-.2-.6-.1-.7a2.9,2.9,0,0,1,1-.3Z"/><path class="cls-7" d="M4.2,28.6H3.9c0-.1.2-.1.3-.2S4.1,28.5,4.2,28.6Z"/><path class="cls-11" d="M6.4,6.7h0Z"/><path class="cls-7" d="M4.5,27.9c0-.1,0-.2.2-.2H4.5Z"/><path class="cls-6" d="M36.9,3c-.1,0-.2,0-.2-.1Z"/><path class="cls-6" d="M37,3h0Z"/><path class="cls-11" d="M8.4,6.7Z"/><path class="cls-7" d="M5.3,26.9v-.2C5.4,26.8,5.4,26.8,5.3,26.9Z"/><path class="cls-7" d="M5.1,27.1a.1.1,0,0,1,.1-.1A.1.1,0,0,1,5.1,27.1Z"/><path class="cls-7" d="M4.7,27.7v0Z"/><path class="cls-7" d="M5.2,27h0Z"/><path class="cls-7" d="M5.3,26.9Z"/><path class="cls-4" d="M19.4,21.5h0Z"/></g></svg>