<svg xmlns="http://www.w3.org/2000/svg" viewBox="0 0 72 34.1"><defs><style>.cls-1,.cls-3{fill:#260b51;}.cls-1{stroke:#f5f5f5;stroke-miterlimit:10;stroke-width:0.5px;}.cls-2{fill:#fbfefb;}.cls-4{fill:#232b38;}.cls-5{fill:#c7cfd7;}.cls-6{fill:#fbfcfc;}.cls-7{fill:#57667c;}.cls-8{fill:#e8a89f;}.cls-9{fill:#708095;}.cls-10{fill:#c08586;}.cls-11{fill:#57759b;}.cls-12{fill:#ce79cc;}.cls-13{fill:#fff;}</style></defs><g id="Character_2" data-name="Character 2"><path class="cls-1" d="M14,3.9H25l2.1-2.2a4.3,4.3,0,0,1,4.8-1,4.2,4.2,0,0,1,2.9,3.7,4.5,4.5,0,0,1-1.6,4.1l-2.5,2.5a.9.9,0,0,0-.3.7c.1,4.5,0,9,0,13.5a3,3,0,0,1-2.5,3.1H19.1c-.3,0-.3.1-.2.3s.3.9.4,1.4.2.3.4.3h1.6a.9.9,0,0,1,.8,1.3.5.5,0,0,1-.5.3H9.1a.5.5,0,0,1-.5-.4.7.7,0,0,1,.1-.9.9.9,0,0,1,.7-.3h1.7c.2,0,.3,0,.3-.2s.3-.9.5-1.4.1-.3-.2-.3H3.3a3,3,0,0,1-3-3.2V7.3A3.2,3.2,0,0,1,2.8,4H14Zm.8,16.8,1.8-.5,5-1.4c.2-.1.2-.1.2-.4l-.6-1.7c-.1-.2-.1-.5-.3-.6s-.4.1-.6.1h-.1c-.1.1-.1.1-.1.3s.1.6.2.9,0,.3-.2.4a29.9,29.9,0,0,0-3.2.9h0l.2-.5a19.5,19.5,0,0,1,.8-2.2c.1-.3.2-.5.5-.5l.7-.2c.1,0,.5-.6.4-.8h0c-.3-.1-.5-.3-.8-.2l-1.8.4c-.2,0-.2.1-.3.3s-.9,2.8-1.4,4.2-.3,1-.4,1.5-.1,0-.1.1ZM27.5,8l1.6,1.7c.1.1.2.1.4,0a18,18,0,0,1,1.9-2l.9-1.1a2.7,2.7,0,0,0,.1-3.4,2.8,2.8,0,0,0-3.6-.6l-1,.9c-.8.7-1.5,1.5-2.3,2.3s-.1.1,0,.3Zm-6.4,6.5a28.1,28.1,0,0,0,1,3.1q.1.3.3,0c1-1.3,2.1-2.5,3.2-3.7s1.5-1.8,2.4-2.7a.1.1,0,0,0,0-.2L26.2,9.2a17,17,0,0,1-1.9-1.9h-.4l-2.8,2.9-3.3,3.1ZM17.6,7.9h.3l1.2,1.3h.3l2.8-2.8.4-.5H5.5A2.4,2.4,0,0,0,3.1,8.4V23.6a2.1,2.1,0,0,0,.3,1.3,2.1,2.1,0,0,0,2,1.1l-1-.8c-.2-.2-.6-.3-.6-.5s.3-.4.4-.6H20.3a4.5,4.5,0,0,0,2.9-.9,2.9,2.9,0,0,0,1.4-2.4,1.2,1.2,0,0,0-1.1-1.1c-.6,0-.9.3-1.2.9a1.1,1.1,0,0,1-.6.7,2.7,2.7,0,0,1-1.5.3H9.3L12,17.8,16.4,12a10.8,10.8,0,0,0,1.1-1.8A2.1,2.1,0,0,0,17.6,7.9ZM16.2,26.4a.9.9,0,0,0-.8-.8.7.7,0,0,0-.8.8c0,.5.4.9.8.8A.7.7,0,0,0,16.2,26.4Z"/><path class="cls-2" d="M16.2,26.4a.7.7,0,0,1-.8.8c-.4.1-.8-.3-.8-.8a.7.7,0,0,1,.8-.8A.9.9,0,0,1,16.2,26.4Z"/><path class="cls-2" d="M14.8,20.7h-.1c0-.1,0-.1.1-.1Z"/><path class="cls-3" d="M10.8,15.4a5,5,0,0,1-3.6-1.6,2.6,2.6,0,0,1-.9-2.2,1.3,1.3,0,0,0,.5.9,1.1,1.1,0,0,0,1.7-.6c.1-.1.1-.3.2-.5a2.1,2.1,0,0,1,1.9-1.2,25.4,25.4,0,0,1,3.9-.1h.2v.2l-2,2.7Z"/><path class="cls-4" d="M16.9,18.7h0c-.1,0-.1-.1,0-.1Z"/><path class="cls-5" d="M20.5,21.6a1.8,1.8,0,0,0,1-.2,1.2,1.2,0,0,0,.8-.9,1.2,1.2,0,0,1,2-.4,1.3,1.3,0,0,1,.2,1.2,2.9,2.9,0,0,1-1.2,1.8,3.9,3.9,0,0,1-2.7,1c-.1-.1-.2,0-.3,0H4.5c0-.2.1-.2.1-.3l1.2-1.5,2.4-3.1,2.3-3a5.6,5.6,0,0,1,2.3-2,2.5,2.5,0,0,1,1.9,0L12,17.8,9.3,21.5h0c-.1.1-.1.1-.1.2H20.5C20.6,21.8,20.6,21.7,20.5,21.6Z"/><path class="cls-6" d="M14.7,14.2a2.5,2.5,0,0,0-1.9,0,5.6,5.6,0,0,0-2.3,2l-2.3,3L5.8,22.3,4.6,23.8c0,.1-.1.1-.1.3H4.4a.5.5,0,0,0,.2-.4h.2c.1,0,.1,0,.1-.1L6.6,21l1-1.4h0l.2-.2c.2-.1.2-.3.3-.4l1.4-1.8,1.3-1.7L12.6,13l1.9-2.6.2-.2H10.4a2.1,2.1,0,0,0-1.6,1l-.3.7a1.1,1.1,0,0,1-1.7.6c-.3-.2-.4-.6-.6-.9a1.3,1.3,0,0,0,.1-.6h0A4.2,4.2,0,0,1,8.7,8.1l1.8-.4h6.7c.2,0,.3,0,.4.2a2.1,2.1,0,0,1-.1,2.3,4.9,4.9,0,0,1-1,1.5Z"/><path class="cls-5" d="M24.6,7.7l1.5,1.5L23,12.5l-2,2-2.4-.9.2-.2a6,6,0,0,1,.8-.8l4.3-4.3Z"/><path class="cls-7" d="M26.8,9.8,27.9,11a.2.2,0,0,1,0,.3,28.5,28.5,0,0,0-2.3,2.6c-1.1,1.3-2.2,2.4-3.2,3.7s-.2.2-.3,0l-.8-2.3h.1l3.5-3.6,1.2-1.3C26.3,10.2,26.5,9.9,26.8,9.8Z"/><path class="cls-5" d="M20.3,17.7c0-.2-.1-.4-.1-.7a.2.2,0,0,0,.2-.2c.2-.2.3-.5.6-.7s.5,1.6.8,2.5,0,.2-.2.2l-5.1,1.5-1.5.4.3-.8,1.6-4.5c0-.2.2-.3.3-.4l2.2-.5h.1a1,1,0,0,1-.8.9.9.9,0,0,0-.9.7l-.9,2.5H17l3.1-.9C20.2,17.8,20.3,17.8,20.3,17.7Z"/><path class="cls-5" d="M27.4,8,25.8,6.4a16.2,16.2,0,0,0,1.9-1.8,5.5,5.5,0,0,1,1.1-1L30,4.9a.2.2,0,0,1,.2.2l-.2.2A33.1,33.1,0,0,0,27.4,8Z"/><path class="cls-7" d="M32,6.9l-.7.8-1.8,2c-.2.1-.3.2-.5,0L28,8.6l.5-.6c.8-.8,1.6-1.5,2.3-2.3A4.6,4.6,0,0,1,32,6.9Z"/><path class="cls-8" d="M30.2,5.1a.2.2,0,0,0-.2-.2L28.8,3.6A2.7,2.7,0,0,1,30,2.7a5.4,5.4,0,0,1,1.8,0H32l.3.3a1.9,1.9,0,0,1-.6,1.6l-.7.6-.2.2Z"/><path class="cls-6" d="M24.6,7.7l-.7.6-4.3,4.3a6,6,0,0,0-.8.8l-.2.2-.7-.2L20,11.2l3.9-3.8c.2-.2.2-.2.4,0Z"/><path class="cls-9" d="M26.8,9.8c-.3.1-.5.4-.7.6l-1.2,1.3-3.5,3.6h-.1l-.3-.8,2-2,3.1-3.3Z"/><path class="cls-6" d="M31.8,2.7a5.4,5.4,0,0,0-1.8,0,2.7,2.7,0,0,0-1.2.9,5.5,5.5,0,0,0-1.1,1,16.2,16.2,0,0,1-1.9,1.8c-.5-.4-.5-.4,0-.9S27.4,3.8,28.3,3a2.7,2.7,0,0,1,3.4-.3Z"/><path class="cls-10" d="M30.8,5.6l.2-.2.7-.6a1.9,1.9,0,0,0,.6-1.6A2.7,2.7,0,0,1,32,6.9a4.6,4.6,0,0,0-1.2-1.2Z"/><path class="cls-9" d="M30.8,5.6h0c-.7.8-1.5,1.5-2.3,2.3l-.5.6L27.4,8A33.1,33.1,0,0,1,30,5.3l.2-.2Z"/><path class="cls-2" d="M19.4,14.5l-2.2.5c-.1.1-.3.2-.3.4l-1.6,4.5-.3.8h-.3a3.6,3.6,0,0,1,.4-1.1L16.6,15c0-.2.1-.2.3-.3l1.7-.4A1.1,1.1,0,0,1,19.4,14.5Z"/><path class="cls-6" d="M20.5,21.6c.1.1.1.2,0,.2H9.2c0-.1,0-.1.1-.2Z"/><path class="cls-6" d="M15.3,25.6a.8.8,0,0,1,.9.8.8.8,0,1,1-1.6,0A.8.8,0,0,1,15.3,25.6Z"/><path class="cls-2" d="M4.5,24.1H20.3c.1,0,.2-.1.3,0H4.5Z"/><path class="cls-2" d="M20.3,17.7c0,.1-.1.1-.2.2l-3.1.9h-.1a8.6,8.6,0,0,1,2.1-.7Z"/><path class="cls-2" d="M21,16.1c-.3.2-.4.5-.6.7a.2.2,0,0,1-.2.2h0c-.1-.2-.2-.5-.1-.6l.8-.2Z"/><path class="cls-7" d="M3.8,24.8s-.2,0-.2-.1h.3C3.8,24.6,3.8,24.7,3.8,24.8Z"/><path class="cls-11" d="M5.8,6h0Z"/><path class="cls-7" d="M4.1,24.2h0Z"/><path class="cls-6" d="M31.9,2.8h0Z"/><path class="cls-6" d="M32,2.9h0Z"/><path class="cls-11" d="M7.5,6h0Z"/><path class="cls-7" d="M4.8,23.3a.1.1,0,0,1,.1-.1C4.9,23.3,4.9,23.3,4.8,23.3Z"/><path class="cls-7" d="M4.6,23.5h0Z"/><path class="cls-7" d="M4.3,24c0-.1,0-.1.1-.1Z"/><path class="cls-7" d="M4.7,23.4h0Z"/><path class="cls-7" d="M4.8,23.4h0Z"/><path class="cls-4" d="M16.9,18.7h0Z"/><path class="cls-12" d="M17.6,7.9c-.1-.2-.2-.2-.4-.2-2.1,0-4.3-.1-6.4,0A4.6,4.6,0,0,0,7.6,8.8a3.3,3.3,0,0,0-1.3,2.8,2.6,2.6,0,0,0,.9,2.2,5,5,0,0,0,3.6,1.6l-1.5,2c-.7.8-1.3,1.7-2,2.6L4.7,23.5l-.5.6c-.1.2-.4.4-.4.6s.4.3.6.5l1,.8a2.1,2.1,0,0,1-2-1.1,2.1,2.1,0,0,1-.3-1.3V8.4A2.4,2.4,0,0,1,5.5,6H22.6l-.4.5L19.4,9.3h-.3L17.9,8Z"/><path class="cls-13" d="M36.3,24.6l-2-13.8h2.3l.8,8.3c0,.4.1.7.1,1.1s.1.6.1,1v1.1h.1a5.2,5.2,0,0,0,.2-1.1,4.4,4.4,0,0,0,.2-1l.3-1.1,1.2-4.8h1.8l1.2,4.8a4.3,4.3,0,0,0,.2,1.1,3,3,0,0,1,.2,1,3.6,3.6,0,0,1,.2,1.1h.1c0-.4.1-.8.1-1.1v-1a4.1,4.1,0,0,0,.1-1.1l.8-8.3h2.2L44.6,24.6H42.1l-1.2-5.2a6.9,6.9,0,0,1-.2-1.3l-.3-1.3h0a5.9,5.9,0,0,0-.2,1.3l-.3,1.3-1.2,5.2Z"/><path class="cls-13" d="M49,24.6V10.8h8.7v1.8H51.1v3.9h5.6v1.8H51.1v4.5h6.8v1.8Z"/><path class="cls-13" d="M61.3,24.6V10.8h4.1a9.5,9.5,0,0,1,2.5.3,3.4,3.4,0,0,1,1.7,1.1,3,3,0,0,1,.6,2,3.2,3.2,0,0,1-.6,1.8,3.3,3.3,0,0,1-1.8,1.1h0a4.5,4.5,0,0,1,2.3,1.1,2.7,2.7,0,0,1,.8,2.2,4.1,4.1,0,0,1-.6,2.3,3.6,3.6,0,0,1-1.9,1.3,6.8,6.8,0,0,1-2.7.5Zm2.1-8.1h1.7a4.1,4.1,0,0,0,2.3-.5,1.9,1.9,0,0,0,.7-1.6,1.6,1.6,0,0,0-.7-1.5,4.3,4.3,0,0,0-2.2-.4H63.4Zm0,6.4h2.1a4.4,4.4,0,0,0,2.5-.6,2.1,2.1,0,0,0,.9-1.9,1.9,1.9,0,0,0-.9-1.7,5.5,5.5,0,0,0-2.5-.5H63.4Z"/></g></svg>