<svg xmlns="http://www.w3.org/2000/svg" viewBox="0 0 450 433.2"><defs><style>.cls-1{fill:#fafafa;}.cls-2{fill:#e6e6e6;}.cls-3{fill:#e0e0e0;}.cls-4,.cls-8,.cls-9{fill:#37474f;}.cls-5,.cls-7{fill:#263238;}.cls-6{fill:#455a64;}.cls-7{opacity:0.9;}.cls-8{opacity:0.5;}.cls-9{opacity:0.8;}.cls-10{opacity:0.85;}.cls-11,.cls-24{fill:#ba68c8;}.cls-12,.cls-13,.cls-14,.cls-15,.cls-16,.cls-23{fill:#fff;}.cls-12{opacity:0.45;}.cls-13,.cls-18,.cls-21,.cls-24{opacity:0.3;}.cls-15,.cls-17,.cls-19{opacity:0.25;}.cls-16{opacity:0.55;}.cls-20{fill:#ebebeb;}.cls-22{opacity:0.65;}.cls-23{opacity:0.6;}.cls-25{fill:#c8856a;}.cls-26{fill:#af6152;}.cls-27{fill:#874c4c;}.cls-28{fill:#ffa8a7;}</style></defs><g id="Character_2" data-name="Character 2"><ellipse id="Floor-2" data-name="Floor" class="cls-1" cx="225" cy="297.8" rx="225" ry="135.4"/><ellipse id="Shadow" class="cls-2" cx="339.8" cy="342.4" rx="81.3" ry="47"/><path id="Shadow-2" data-name="Shadow" class="cls-3" d="M11.5,383.9,35,397.5a9.1,9.1,0,0,0,8.5,0l171.9-99.2c2.3-1.4,2.3-3.6,0-4.9l-23.6-13.6a9.1,9.1,0,0,0-8.5,0L11.5,379C9.1,380.4,9.1,382.6,11.5,383.9Z"/><path id="Shadow-3" data-name="Shadow" class="cls-3" d="M53.6,386.3l9.2,5.4a9.8,9.8,0,0,0,8.5,0l156.1-90.2c2.4-1.4,2.4-3.6,0-5l-9.2-5.3a9.1,9.1,0,0,0-8.5,0L53.6,381.4C51.2,382.8,51.2,385,53.6,386.3Z"/><g id="Mobile"><path class="cls-4" d="M211.3,287.3V10.9c0-6.1-3.1-7.8-5.8-9.3a11,11,0,0,0-10.9-.3L37.3,92.1a15.4,15.4,0,0,0-6.9,12V380.5c0,4.4,2.8,7,5.4,8.6s7.4,3.2,11.3,1l157.2-90.8A12.9,12.9,0,0,0,211.3,287.3Z"/><path class="cls-5" d="M205,289.6,45,382V104.6L32.4,97.3a14.7,14.7,0,0,0-2,6.8V380.5c0,4.4,2.8,7,5.4,8.6s7.4,3.2,11.3,1l157.2-90.8a12.8,12.8,0,0,0,6-6.7l-.4-.2Z"/><path class="cls-6" d="M204.1,8.9,46.6,99.9a10.6,10.6,0,0,0-4.9,8.4V382.7c0,4.8,3.4,6.7,7.5,4.3l154.9-89.4a12.3,12.3,0,0,0,5.6-9.6V12.1C209.7,8.6,207.2,7.1,204.1,8.9Z"/><path d="M205.8,31.9V276.1a12,12,0,0,1-5.3,9.2L50.9,371.6c-2.9,1.8-5.3.4-5.3-3V122.8a11.7,11.7,0,0,1,3.7-8l.5-.4,1.1-.8L198.6,28.3l.5-.3C202.8,25.9,205.8,27.6,205.8,31.9Z"/><path class="cls-1" d="M192.8,279.3a11.8,11.8,0,0,0,5.3-9.2V28.6l-147.2,85-1.1.8-.5.4a11.7,11.7,0,0,0-3.7,8V364.3Z"/><path class="cls-5" d="M106.4,72.8l22.5-13c.7-.5,1.4-.2,1.4.7a3.5,3.5,0,0,1-1.4,2.4l-22.5,13c-.8.5-1.5.1-1.5-.7A3,3,0,0,1,106.4,72.8Z"/><path class="cls-5" d="M135.7,55.2c.9-.5,1.6-.1,1.6.9a3.4,3.4,0,0,1-1.6,2.8c-.9.5-1.6.1-1.6-.9A3.6,3.6,0,0,1,135.7,55.2Z"/><path class="cls-6" d="M39.5,132.6a5.8,5.8,0,0,0-2.6-4.6c-.7-.4-1.3-.5-1.7-.2l-2,1.1a1.9,1.9,0,0,0-.8,1.8v19.4a5.9,5.9,0,0,0,2.6,4.6,1.8,1.8,0,0,0,1.7.2l2-1.2a1.9,1.9,0,0,0,.8-1.8Z"/><path class="cls-4" d="M37.6,133.7V153c0,1.8-1.2,2.5-2.6,1.7a5.9,5.9,0,0,1-2.6-4.6V130.7c0-1.7,1.2-2.5,2.6-1.7A6.1,6.1,0,0,1,37.6,133.7Z"/><path class="cls-6" d="M39.5,166.4a5.9,5.9,0,0,0-2.6-4.6,1.8,1.8,0,0,0-1.7-.2l-2,1.1a2.1,2.1,0,0,0-.8,1.9v19.3a5.9,5.9,0,0,0,2.6,4.6,1.8,1.8,0,0,0,1.7.2l2-1.1a2.1,2.1,0,0,0,.8-1.9Z"/><path class="cls-4" d="M37.6,167.5v19.3c0,1.8-1.2,2.5-2.6,1.7a5.9,5.9,0,0,1-2.6-4.6V164.6c0-1.8,1.2-2.5,2.6-1.7A5.9,5.9,0,0,1,37.6,167.5Z"/></g><g id="Wintow"><g id="Window"><path class="cls-7" d="M197.3,270.6a4.5,4.5,0,0,1-4.2,0l-.4-.3a4.4,4.4,0,0,1-2.1-3.6V83.7a3.9,3.9,0,0,1,.6-2l4.8,2.8a5.4,5.4,0,0,0-.8,2.8V268.4c0,1.9,1.3,2.6,3,1.7Z"/><path class="cls-8" d="M312.7,18.7v.8a2,2,0,0,0-3-1.7L198.1,82.3a5.3,5.3,0,0,0-2.1,2.1h0l-4.8-2.8a3.3,3.3,0,0,1,1.5-1.6L305.9,14.8a4.5,4.5,0,0,1,4.2,0l.4.2A4.7,4.7,0,0,1,312.7,18.7Z"/><path class="cls-9" d="M312.7,201.7c0,1.9-1.3,3-3,4L198.2,270.1c-1.7.9-3,.2-3-1.7V87.3h0a5.7,5.7,0,0,1,2.9-5L309.7,17.8a2,2,0,0,1,3,1.7h0Z"/><g class="cls-10"><path class="cls-6" d="M310.7,18.5a1,1,0,0,1,1,1V201.7c0,1.2-.7,2.2-2.4,3.2L197.7,269.3l-.8.3c-.7,0-.7-.8-.7-1.2V87.3a4.8,4.8,0,0,1,2.4-4.2L310.2,18.6h.5m0-.9a2,2,0,0,0-1,.2L198.1,82.3a5.7,5.7,0,0,0-2.9,5V268.4c0,1.3.7,2.1,1.7,2.1a2.7,2.7,0,0,0,1.3-.4l111.5-64.4c1.7-1,3-2.1,3-4V19.5a2,2,0,0,0-2-1.9Z"/></g></g><g id="Text"><path class="cls-1" d="M203.2,91.2a1.8,1.8,0,0,1,.9-1.4l9.2-5.3c.4-.2.8-.1.8.4a2,2,0,0,1-.8,1.4l-9.2,5.3C203.6,91.9,203.2,91.7,203.2,91.2Z"/><path class="cls-1" d="M203.2,94.8a1.7,1.7,0,0,1,.9-1.4l9.2-5.3a.5.5,0,0,1,.8.4,2,2,0,0,1-.8,1.4l-9.2,5.3C203.6,95.4,203.2,95.3,203.2,94.8Z"/><path class="cls-1" d="M203.2,98.3a1.8,1.8,0,0,1,.9-1.4l9.2-5.2a.5.5,0,0,1,.8.4,1.8,1.8,0,0,1-.8,1.3l-9.2,5.3C203.6,99,203.2,98.8,203.2,98.3Z"/><path class="cls-1" d="M304.6,39.7V38c0-.1,0-.1-.1-.1l-1.3.6c-.1,0-.2,0-.2-.1l-.3-.6c0-.1-.1-.2,0-.3l.8-1.7a.2.2,0,0,0,0-.3l-1-.5c0-.1-.2-.1-.2,0l-1.1,1.6a.2.2,0,0,1-.2.2h-.7c-.1.1-.2,0-.2-.1l-.2-1.4h-.1l-1.5.8a.4.4,0,0,0-.1.3l-.2,1.6c0,.1-.1.2-.1.3l-.8.8c-.1.1-.2.2-.3.1l-.9-.3h-.3l-1,1.8a.2.2,0,0,0,0,.3l.7.6a.4.4,0,0,1,.1.3l-.3,1.1c0,.1-.1.2-.2.3l-1.3.9c-.1.1-.2.2-.2.3v1.7h.2l1.3-.6c.1-.1.2,0,.2.1l.3.6v.3l-.9,1.7a.4.4,0,0,0,.1.3l.9.5h.3l1.1-1.6a.2.2,0,0,1,.2-.2h.7c.1-.1.2,0,.2.1l.2,1.4c0,.1,0,.1.1.1l1.5-.8c0-.1.1-.2.1-.3l.2-1.6c0-.1.1-.2.1-.3a6,6,0,0,0,.8-.8c.1-.1.2-.2.3-.1l.9.3h.3l1-1.8a.2.2,0,0,0,0-.3l-.8-.6c0-.1-.1-.2,0-.3l.3-1.1c0-.1.1-.3.2-.3l1.3-.9A.4.4,0,0,0,304.6,39.7ZM299,44.9c-1.3.8-2.4.1-2.4-1.4a5.6,5.6,0,0,1,2.4-4.2c1.4-.8,2.5-.1,2.5,1.4A5.4,5.4,0,0,1,299,44.9Z"/><path class="cls-1" d="M253.9,83.5c11.5-6.6,20.8-1.2,20.8,12s-9.3,29.3-20.8,35.9-20.7,1.3-20.7-12S242.5,90.1,253.9,83.5Z"/><path class="cls-11" d="M253.8,109.5a15,15,0,0,0,6.7-11.7c0-4.3-3-6-6.7-3.9a15,15,0,0,0-6.7,11.7C247.1,109.9,250.1,111.6,253.8,109.5Zm2.2.9-3.8,2.2c-6.1,3.6-11.1,12.1-11.1,19.2v1.9a10.5,10.5,0,0,0,3.6.5,18.6,18.6,0,0,0,9.2-2.8,40.8,40.8,0,0,0,13.2-13v-1.6C267.1,109.8,262.1,106.9,256,110.4Z"/><path class="cls-12" d="M253.8,109.5a15,15,0,0,0,6.7-11.7c0-4.3-3-6-6.7-3.9a15,15,0,0,0-6.7,11.7C247.1,109.9,250.1,111.6,253.8,109.5Zm2.2.9-3.8,2.2c-6.1,3.6-11.1,12.1-11.1,19.2v1.9a10.5,10.5,0,0,0,3.6.5,18.6,18.6,0,0,0,9.2-2.8,40.8,40.8,0,0,0,13.2-13v-1.6C267.1,109.8,262.1,106.9,256,110.4Z"/><path class="cls-11" d="M235.2,151.1l37.5-21.6c1.1-.7,2-.2,2,1a4.2,4.2,0,0,1-2,3.3l-37.5,21.7c-1.1.6-2,.1-2-1.1A4.2,4.2,0,0,1,235.2,151.1Z"/><path class="cls-13" d="M212.8,183.3l82.3-47.5c2.4-1.4,4.4-.4,4.4,2.2a9.4,9.4,0,0,1-4.4,7.3l-82.3,47.5c-2.4,1.4-4.4.4-4.4-2.2A9.4,9.4,0,0,1,212.8,183.3Z"/><path class="cls-13" d="M212.8,202.4l82.3-47.5c2.4-1.4,4.4-.4,4.4,2.2a9.7,9.7,0,0,1-4.4,7.4l-82.3,47.4c-2.4,1.4-4.4.4-4.4-2.2A9.6,9.6,0,0,1,212.8,202.4Z"/><path class="cls-11" d="M239.6,210.8l28.7-16.6c1.2-.7,2.2-.1,2.2,1.3v9.3a4.9,4.9,0,0,1-2.2,3.8l-28.7,16.5c-1.2.7-2.2.2-2.2-1.2v-9.3A4.9,4.9,0,0,1,239.6,210.8Z"/><path class="cls-14" d="M249.1,216.5H249l-.2-.2-2.3-4v5.8l-.3.2h-.2v-7.5l.2-.2h.5l2.3,4.1v-5.4a.4.4,0,0,1,.1-.3h.1l.3-.2h.1c.1,0,.1.1.1.2v7a.4.4,0,0,1-.1.3.1.1,0,0,1-.1.1Z"/><path class="cls-14" d="M253.9,212.8h.1v.8c0,.1-.1.1-.1.2l-2.9,1.6h-.1c-.1,0-.1-.1-.1-.2v-7a.4.4,0,0,1,.1-.3h.1l2.8-1.6h.1a.1.1,0,0,1,.1.1v.4a.4.4,0,0,1-.1.3h-.1l-2.3,1.4v2.3l2.1-1.3h.2v.8l-.2.2-2.1,1.3v2.4Z"/><path class="cls-14" d="M256.6,209.1l-1.3,3.6v.2l-.2.2-.3.2h-.1c0-.1-.1-.1-.1-.2h.1l1.6-4.5-1.6-2.5h0v-.2h.1l.3-.2h.3l1.3,1.9,1.2-3.3v-.3c0-.1.1-.1.2-.2l.3-.2h.1v.2h-.1l-1.5,4.3,1.6,2.6h.1c0,.1-.1.1-.1.2h-.1l-.3.2c-.1.1-.2.1-.2,0H258Z"/><path class="cls-14" d="M262.6,201.1h.1c.1,0,.1.1.1.2v.3a.4.4,0,0,1-.1.3v.2l-1.3.7v6.4c0,.1,0,.2-.1.2v.2l-.3.2h-.1v-6.6l-1.3.8h-.2v-.8c.1-.1.1-.2.2-.2Z"/><path class="cls-6" d="M234.3,173.6a4.3,4.3,0,0,0-2.1,3.5c0,1.4.9,1.9,2.1,1.2a4.4,4.4,0,0,0,2-3.6C236.3,173.4,235.4,172.9,234.3,173.6Z"/><path class="cls-6" d="M240.8,169.8a4.4,4.4,0,0,0-2,3.5c0,1.4.9,1.9,2,1.2a4.3,4.3,0,0,0,2.1-3.5C242.9,169.6,242,169.1,240.8,169.8Z"/><path class="cls-6" d="M247.4,166a4.3,4.3,0,0,0-2.1,3.6c0,1.3.9,1.8,2.1,1.2a4.9,4.9,0,0,0,2.1-3.6C249.5,165.8,248.5,165.3,247.4,166Z"/><path class="cls-6" d="M253.9,162.2a4.4,4.4,0,0,0-2,3.6c0,1.3.9,1.8,2,1.2a4.6,4.6,0,0,0,2.1-3.6C256,162.1,255.1,161.5,253.9,162.2Z"/><path class="cls-6" d="M260.5,158.4a4.9,4.9,0,0,0-2.1,3.6c0,1.3,1,1.8,2.1,1.2a4.9,4.9,0,0,0,2.1-3.6C262.6,158.3,261.6,157.7,260.5,158.4Z"/><path class="cls-6" d="M267.1,154.6a4.6,4.6,0,0,0-2.1,3.6c0,1.3.9,1.8,2.1,1.2a4.7,4.7,0,0,0,2-3.6C269.1,154.5,268.2,153.9,267.1,154.6Z"/><path class="cls-6" d="M273.6,150.8a4.9,4.9,0,0,0-2.1,3.6c0,1.3,1,1.8,2.1,1.2a4.6,4.6,0,0,0,2.1-3.6C275.7,150.7,274.8,150.2,273.6,150.8Z"/><path class="cls-6" d="M234.3,192.7a4.4,4.4,0,0,0-2.1,3.6c0,1.3.9,1.8,2.1,1.2a4.7,4.7,0,0,0,2-3.6C236.3,192.6,235.4,192,234.3,192.7Z"/><path class="cls-6" d="M240.8,188.9a4.7,4.7,0,0,0-2,3.6c0,1.3.9,1.8,2,1.2a4.6,4.6,0,0,0,2.1-3.6C242.9,188.8,242,188.2,240.8,188.9Z"/><path class="cls-6" d="M247.4,185.1a4.6,4.6,0,0,0-2.1,3.6c0,1.3.9,1.8,2.1,1.2a4.9,4.9,0,0,0,2.1-3.6C249.5,185,248.5,184.4,247.4,185.1Z"/><path class="cls-6" d="M253.9,181.3a4.7,4.7,0,0,0-2,3.6c0,1.3.9,1.9,2,1.2a4.6,4.6,0,0,0,2.1-3.6C256,181.2,255.1,180.7,253.9,181.3Z"/><path class="cls-6" d="M260.5,177.5a4.9,4.9,0,0,0-2.1,3.6c0,1.3,1,1.9,2.1,1.2a4.9,4.9,0,0,0,2.1-3.6C262.6,177.4,261.6,176.9,260.5,177.5Z"/><path class="cls-6" d="M267.1,173.7a4.6,4.6,0,0,0-2.1,3.6c0,1.3.9,1.9,2.1,1.2a4.4,4.4,0,0,0,2-3.6C269.1,173.6,268.2,173.1,267.1,173.7Z"/><path class="cls-6" d="M273.6,169.9a4.9,4.9,0,0,0-2.1,3.6c0,1.4,1,1.9,2.1,1.2a4.3,4.3,0,0,0,2.1-3.6C275.7,169.8,274.8,169.3,273.6,169.9Z"/></g></g><g id="Paper_Clip" data-name="Paper Clip"><g id="Wintow-2" data-name="Wintow"><g id="Window-2" data-name="Window"><path class="cls-11" d="M213.9,25.4,61.6,113.2a6.2,6.2,0,0,0-2.9,4.9V364.3a6.2,6.2,0,0,0,2.9,4.9l.6.3a6.4,6.4,0,0,0,5.7,0l152.3-87.9a6.8,6.8,0,0,0,2.8-5V30.6a6.2,6.2,0,0,0-2.9-4.9l-.5-.4A6.1,6.1,0,0,0,213.9,25.4Z"/><path class="cls-11" d="M223,276.8c0,2.5-1.8,4.1-3.9,5.4L68.9,368.8c-2.1,1.3-3.9.3-3.9-2.2V122.9h0a7.7,7.7,0,0,1,3.9-6.7L219.1,29.4a2.6,2.6,0,0,1,3.9,2.3h0Z"/><path class="cls-15" d="M223,276.8c0,2.5-1.8,4.1-3.9,5.4L68.9,368.8c-2.1,1.3-3.9.3-3.9-2.2V122.9h0a7.7,7.7,0,0,1,3.9-6.7L219.1,29.4a2.6,2.6,0,0,1,3.9,2.3h0Z"/><path class="cls-11" d="M223,30.6v1.1a2.6,2.6,0,0,0-3.9-2.3L68.9,116.2a6.3,6.3,0,0,0-2.8,2.8H66l-6.5-3.7a5,5,0,0,1,2.1-2.2L213.9,25.4a6.1,6.1,0,0,1,5.7-.1l.5.4A6.2,6.2,0,0,1,223,30.6Z"/><path class="cls-16" d="M223,30.6v1.1a2.6,2.6,0,0,0-3.9-2.3L68.9,116.2a6.3,6.3,0,0,0-2.8,2.8H66l-6.5-3.7a5,5,0,0,1,2.1-2.2L213.9,25.4a6.1,6.1,0,0,1,5.7-.1l.5.4A6.2,6.2,0,0,1,223,30.6Z"/></g></g><path id="Shadow-4" data-name="Shadow" class="cls-17" d="M217.6,270.8c0,2.5-1.9,4.2-4.1,5.5L71.6,358.2c-2.2,1.3-4,.2-4-2.4V140.2h0a8.1,8.1,0,0,1,4-7L213.5,51.3a2.7,2.7,0,0,1,4.1,2.3h0Z"/><g id="Paper"><path class="cls-1" d="M220.4,272.2c0,2.6-1.8,4.2-4,5.5L74.5,359.6c-2.2,1.3-4,.3-4-2.3V141.7h0a8,8,0,0,1,4-7l141.9-82a2.7,2.7,0,0,1,4,2.3h0Z"/><path class="cls-11" d="M216.4,52.7l-141.9,82a8,8,0,0,0-4,7v27.2L220.4,82.3V55A2.7,2.7,0,0,0,216.4,52.7Z"/><path class="cls-18" d="M216.4,52.7l-141.9,82a8,8,0,0,0-4,7v27.2L220.4,82.3V55A2.7,2.7,0,0,0,216.4,52.7Z"/></g><g id="Shadow-5" data-name="Shadow" class="cls-19"><path d="M186.6,62.1v9a10.2,10.2,0,0,1-4.8,8.2L158.3,92.9c-1.2.7-1.8,2-2.5,3.4a14.9,14.9,0,0,1-1.8,3c-1.9,2.1-5.9,4.2-8.7,5.1a9.6,9.6,0,0,1-2.8.7l-1.1.2c-2.6.3-5.8.7-7.7,1.8L106.2,123a4.7,4.7,0,0,1-2.4.7,2.9,2.9,0,0,1-1.6-.4,3.9,3.9,0,0,1-1.8-3.6v-9a10.3,10.3,0,0,1,4.8-8.2l9.2-5.4h.2a1,1,0,0,1,1.2.4,1.1,1.1,0,0,1-.3,1.3h-.1l-9.2,5.3a8.4,8.4,0,0,0-3.8,6.5v9a2.1,2.1,0,0,0,.8,1.9,1.9,1.9,0,0,0,2-.3l27.5-15.9c2.2-1.3,5.7-1.7,8.4-2.1l1.1-.2,2.5-.5a22.4,22.4,0,0,0,7.8-4.6,15,15,0,0,0,1.5-2.5c.8-1.7,1.6-3.3,3.3-4.3l23.5-13.6a8.1,8.1,0,0,0,3.8-6.5v-9a1.6,1.6,0,0,0-2.8-1.6l-8,4.7a9.5,9.5,0,0,0-1-1.7l8-4.7a4.2,4.2,0,0,1,4-.3A3.9,3.9,0,0,1,186.6,62.1Z"/></g><g id="Clip"><path class="cls-4" d="M169.4,62.4h0a2.3,2.3,0,0,1,2.5.2,7.8,7.8,0,0,1,3.5,6.1,2.3,2.3,0,0,1-1,2.2h0l-55.8,32.3-5-8.6Z"/><path class="cls-6" d="M116.1,98.9l58.3-33.7a6.9,6.9,0,0,0-2.5-2.6l-.3-.2L114.2,95.6Z"/><path class="cls-5" d="M116.1,94.8c-1.9-1.1-3.5-.2-3.5,2a7.8,7.8,0,0,0,3.5,6.1c1.9,1.1,3.5.2,3.5-2A7.9,7.9,0,0,0,116.1,94.8Z"/><path class="cls-6" d="M187.6,63v9a10.3,10.3,0,0,1-4.8,8.2L159.3,93.8c-1.2.7-1.8,2-2.5,3.4a18.9,18.9,0,0,1-1.9,3c-1.8,2.1-5.8,4.2-8.6,5.1l-2.8.7h-1.2c-2.5.4-5.7.8-7.6,1.9l-27.5,15.9a4.9,4.9,0,0,1-2.4.7,2.9,2.9,0,0,1-1.6-.4,3.9,3.9,0,0,1-1.8-3.6v-9a10.2,10.2,0,0,1,4.8-8.2l9.2-5.4h.2a.9.9,0,0,1,1.2.4.9.9,0,0,1-.3,1.2c0,.1,0,.1-.1.1l-9.2,5.4a8.1,8.1,0,0,0-3.8,6.5v9a2.1,2.1,0,0,0,.8,1.9,2.6,2.6,0,0,0,2-.3l27.5-15.9c2.2-1.3,5.6-1.8,8.4-2.1l1.1-.2a11.4,11.4,0,0,0,2.5-.6,22.2,22.2,0,0,0,7.8-4.5,12.7,12.7,0,0,0,1.5-2.6c.8-1.6,1.6-3.3,3.3-4.2l23.5-13.6a8.4,8.4,0,0,0,3.8-6.5V63a2.1,2.1,0,0,0-.8-1.9,1.9,1.9,0,0,0-2,.3l-8,4.6a9.5,9.5,0,0,0-1-1.7l8-4.6a3.6,3.6,0,0,1,5.8,3.3Z"/></g><g id="Text-2" data-name="Text"><path class="cls-14" d="M86.8,142.8H87v1.9l-.2.2-2.5,1.4v1.8l2.3-1.4h.2a.4.4,0,0,1,.1.3v1.3a.4.4,0,0,1-.1.3.2.2,0,0,1-.2.2l-2.3,1.4v2.7a.4.4,0,0,1-.1.3.3.3,0,0,1-.1.2l-1.1.7h-.2v-8.8l.2-.2Z"/><path class="cls-14" d="M87.7,145.7a7.7,7.7,0,0,1,.2-1.5,5.8,5.8,0,0,1,.5-1.4,3.6,3.6,0,0,1,.8-1.2,3.1,3.1,0,0,1,1.1-.9,1.9,1.9,0,0,1,1.1-.4,1.1,1.1,0,0,1,.8.3,2.2,2.2,0,0,1,.5.8,5.1,5.1,0,0,1,.2,1.3V145a7.8,7.8,0,0,1-.2,1.4,5.8,5.8,0,0,1-.5,1.4,5.7,5.7,0,0,1-.8,1.3l-1.1.9-1.1.3a1.1,1.1,0,0,1-.8-.3,1.6,1.6,0,0,1-.5-.8,4.3,4.3,0,0,1-.2-1.2v-2.3Zm3.7.1v-2.2a1.1,1.1,0,0,1-.1-.5l-.2-.4h-.8l-.5.4-.3.5c-.1.2-.1.4-.2.6s-.1.4-.1.6V147c.1.4.1.7.3.9s.4.2.8,0a2.4,2.4,0,0,0,.8-.9Z"/><path class="cls-14" d="M96.4,137.3a2.6,2.6,0,0,1,1-.4.8.8,0,0,1,.7.1,1,1,0,0,1,.5.7,3.7,3.7,0,0,1,.2,1.2,4.7,4.7,0,0,1-.3,1.7,4.6,4.6,0,0,1-.7,1.4l1,2.5h0v.3h-.2l-1.1.7h-.2l-.2-.2-.9-2.2-.8.4v3.1l-.2.2-1.1.6H94c-.1,0-.1-.1-.1-.2v-8.3a.4.4,0,0,1,.1-.3.3.3,0,0,1,.1-.2Zm-1,4.4,1-.5.6-.6a1.9,1.9,0,0,0,.2-.8,1,1,0,0,0-.2-.7.7.7,0,0,0-.6.2l-1,.5Z"/><path class="cls-14" d="M102.2,140.7c-.1,0-.1-.1-.1-.2l-.8-1.6v4.5l-.2.2-1.1.7a.1.1,0,0,1-.1-.1c-.1,0-.1-.1-.1-.2v-8.3a.4.4,0,0,1,.1-.3c0-.1.1-.1.1-.2l1-.5h.4l1.3,2.8,1.4-4.4V133c.1-.2.1-.3.3-.3l.9-.6h.2c0,.1.1.1.1.2v8.4c0,.1-.1.2-.1.3l-.2.2-1.1.6h-.1v-4.5l-.8,2.6a.4.4,0,0,1-.1.3c0,.1-.1.1-.2.2l-.5.3Z"/><path class="cls-20" d="M84.2,184.6l53.4-30.8c1.2-.7,2.2-.1,2.2,1.3v4.4a4.9,4.9,0,0,1-2.2,3.8L84.2,194.2c-1.2.7-2.2.1-2.2-1.3v-4.5A4.9,4.9,0,0,1,84.2,184.6Z"/><path class="cls-20" d="M154.4,144.1l53.4-30.8c1.2-.7,2.2-.2,2.2,1.3V119a4.9,4.9,0,0,1-2.2,3.8l-53.4,30.8c-1.3.7-2.2.2-2.2-1.2v-4.5A4.6,4.6,0,0,1,154.4,144.1Z"/><path class="cls-6" d="M84.6,174.2h.1v.3h0c0,.1-.1.1-.1.2l-1.7.9v1.8l1.6-.9h.1v.6h-.1l-1.6.9v2.3h-.5v-5.3h.1Z"/><path class="cls-6" d="M85.8,174v.2a.1.1,0,0,1-.1.1l-.3.2h-.1v-.7h.5Zm0,4.7c0,.1,0,.2-.1.2h-.4v-3.8h.4Z"/><path class="cls-6" d="M87.9,173.7H88v.3h0a.1.1,0,0,1-.1.1l-.3.2a1.4,1.4,0,0,0-.6,1.3v2.4h-.5v-3.8h.3c0-.1,0-.1.1,0h0v.2l.3-.5.3-.3Z"/><path class="cls-6" d="M90,175.4c0-.1,0-.2-.1-.2h-.8c-.3.1-.5.1-.6-.1s-.1-.3-.1-.6V174l.2-.5.3-.4.4-.3.5-.2h.3l.2.2v.3h-.1c0,.1,0,.1-.1.1h-.9l-.3.4-.2.4c0,.1,0,.2.1.2h1.4c0,.1.1.2.1.3v.8l-.2.5-.4.5-.4.4h-.8l-.2-.2a.3.3,0,0,1-.1-.2v-.2h.4a.1.1,0,0,1,.1.1h.6c0-.1.1-.1.2-.2l.2-.2v-.2A.4.4,0,0,0,90,175.4Z"/><path class="cls-6" d="M91.7,174.2c0,.1,0,.1.1.2v.2h.4l.2-.2h.2v.4h-.1l-.3.2q-.4.3-.6,0c-.2-.1-.2-.4-.2-.9v-2l-.4.2h-.1v-.3h0v-.2l.4-.2v-1.3h0a.1.1,0,0,1,.1-.1l.2-.2h.1v1.3l.7-.4h.1v.3h0c-.1.1-.1.1-.1.2l-.7.3Z"/><path class="cls-6" d="M96.7,172.7h-.2l-1.6-2.8v4a.1.1,0,0,1-.1.1h-.3v-5.1h0v-.2h.3v.2l1.6,2.8v-4a.1.1,0,0,1,.1-.1H97v5.1h-.1Z"/><path class="cls-6" d="M97.7,171.1v-.6l.3-.5.3-.5.4-.4.7-.6h0c0-.3,0-.4-.2-.5s-.2,0-.4.1l-.3.3a.5.5,0,0,0-.2.4h-.4c-.1,0-.1-.1-.1-.2s.1-.2.1-.4.1-.3.2-.4l.3-.4.4-.3.4-.2h.4l.2.4c0,.2.1.4.1.6v2.6h-.4v0l-.3.3c0,.1-.1.2-.2.3l-.3.2h-.6l-.2-.2Zm.9-.1.3-.3.3-.4c.1-.1.1-.3.2-.5v-.7l-.6.5-.5.6-.2.5v.2h.5Z"/><path class="cls-6" d="M101.1,166.5c0-.1,0-.2.1-.2s.1-.2.1-.3l.2-.2.3-.2c.2-.1.3-.2.5-.1s.2.1.3.3.1-.2.1-.4l.2-.3.2-.3.3-.2c.4-.2.6-.2.8.1a2.7,2.7,0,0,1,.2,1.1v2.4a.1.1,0,0,0-.1.1h-.4v-2.1c0-.4,0-.7-.1-.8s-.3-.2-.5-.1-.3.3-.4.6a2,2,0,0,0-.2.9V169h-.1l-.2.2h-.1v-2.1a1.5,1.5,0,0,0-.2-.8c-.1-.1-.2-.1-.4,0l-.5.5a3.1,3.1,0,0,0-.1,1v2.3h-.3a.1.1,0,0,1-.1-.1v-3.7h.1v-.2h.2c.1.1.1.1.1.2Z"/><path class="cls-6" d="M105,165.4c0-.2.1-.5.1-.7l.3-.7.3-.6.5-.4h.5l.3.2a1.1,1.1,0,0,1,.3.5c0,.2.1.4.1.7v.4c0,.1,0,.1-.1.1l-1.7,1h0c0,.3,0,.6.2.7h.5a.8.8,0,0,0,.4-.4.5.5,0,0,0,.2-.4.1.1,0,0,0,.1-.1h.3v.2c0,.1-.1.2-.1.3l-.2.5-.3.4-.5.4h-.5l-.3-.2-.3-.4c0-.2-.1-.4-.1-.7Zm.5-.2,1.4-.8h0a.8.8,0,0,0-.2-.6h-.5l-.3.2a.8.8,0,0,0-.2.4l-.2.4v.5Z"/><path class="cls-6" d="M108.4,162.2h.2v.6h-.1v.2l-.3.2H108c-.1,0-.1,0-.1-.1v-.7h.1Zm0,2.7h.2v.5c0,.1-.1.1-.1.2h-.1l-.3.2h-.2v-.6h.1c0-.1,0-.1.1-.2Z"/><path class="cls-20" d="M84.2,241.8l123.6-71.3c1.2-.7,2.2-.1,2.2,1.3v4.4a4.9,4.9,0,0,1-2.2,3.8L84.2,251.4c-1.2.7-2.2.1-2.2-1.3v-4.4A4.9,4.9,0,0,1,84.2,241.8Z"/><path class="cls-6" d="M84.6,235.6l-1.7,1-.3,1.2v.2h-.4l1.3-5.7v-.2h.2l.3-.2c.1-.1.1-.1.1,0h.1l1.3,4.2h0c0,.1,0,.1-.1.2h-.4Zm-1.6.2,1.4-.8-.7-2.4Z"/><path class="cls-6" d="M86.8,231.4c.3-.1.4-.2.5-.1s.3.1.3.2v-1.7c0-.1,0-.2.1-.2h.4v5.3h-.5v-.3a.9.9,0,0,1-.3.6.7.7,0,0,1-.5.4l-.4.2-.4-.2c-.1-.1-.1-.3-.2-.5s-.1-.4-.1-.7v-.5a2.2,2.2,0,0,1,.1-.8,6.4,6.4,0,0,1,.2-.7c.1-.3.3-.4.4-.6S86.7,231.5,86.8,231.4Zm.8,2v-.6c0-.4,0-.6-.2-.8h-.5a1.8,1.8,0,0,0-.5.7,1.6,1.6,0,0,0-.2,1,.3.3,0,0,0,0,.4c0,.4,0,.7.2.8a.3.3,0,0,0,.5,0,1,1,0,0,0,.5-.6A2.4,2.4,0,0,0,87.6,233.4Z"/><path class="cls-6" d="M89.9,229.6h.5l.3.2v-1.9h.4v5.2h0v.2h-.3v-.4l-.3.5-.5.5h-.5l-.3-.2-.3-.4c0-.2-.1-.4-.1-.7v-.5c0-.3.1-.6.1-.9l.3-.7.3-.6Zm.8,2V231a1.2,1.2,0,0,0-.2-.7.6.6,0,0,0-.6,0,1,1,0,0,0-.5.6,3.6,3.6,0,0,0-.2,1v.5a1.2,1.2,0,0,0,.2.7c.1.2.3.2.5.1l.6-.6A3,3,0,0,0,90.7,231.6Z"/><path class="cls-6" d="M93.2,227.8h.2v.3a.1.1,0,0,1-.1.1v.2h-.3a1.7,1.7,0,0,0-.5,1.3v2.3h-.2l-.2.2h-.1v-3.8h.5v.3a.8.8,0,0,1,.2-.5.8.8,0,0,1,.4-.4Z"/><path class="cls-6" d="M93.6,229.2c.1-.2.1-.5.2-.7a1.4,1.4,0,0,1,.2-.7l.3-.6.5-.4h.9l.2.5c0,.3.1.5.1.8v.4h-.1l-1.7,1h0a1.2,1.2,0,0,0,.2.7h.5c.2-.1.3-.3.4-.4l.2-.4h.5a.6.6,0,0,1-.1.4l-.2.4-.3.5-.5.3-.5.2L94,231l-.2-.4a6.4,6.4,0,0,1-.2-.7Zm.5-.2,1.4-.9h0c0-.3,0-.5-.2-.6h-.5l-.3.2-.2.4c-.1.1-.1.2-.1.4a.6.6,0,0,0-.1.4Z"/><path class="cls-6" d="M98.1,227.9v-.2h-.8c-.2.1-.4.1-.5-.1s-.2-.3-.2-.6v-.5c.1-.1.1-.3.2-.5l.3-.4.5-.3.4-.2h.3c.1.1.2.1.2.2a.4.4,0,0,1,.1.3h-.1c0,.1,0,.1-.1.2h-.8a.8.8,0,0,0-.4.4l-.2.4c0,.1.1.2.1.3h1.4c0,.1.1.2.1.3s.1.2.1.4a4.3,4.3,0,0,0-.1.5c-.1.1-.1.3-.2.5l-.4.4a.8.8,0,0,1-.4.4h-.8l-.2-.2c0-.1-.1-.1-.1-.2V229h.3a.1.1,0,0,1,.1.1h.6l.2-.2.2-.2c.1-.1.1-.1.1-.2A.4.4,0,0,0,98.1,227.9Z"/><path class="cls-6" d="M100.7,226.4v-.2H99.2a1.5,1.5,0,0,1-.1-.7V225c.1-.1.1-.3.2-.4l.3-.5.4-.3.5-.2h.5v.3a.3.3,0,0,0-.1.2h-.4l-.2-.2-.4.2-.3.3c-.1.2-.2.3-.2.5v.2h1.1l.3.2a.3.3,0,0,1,.1.2v.9l-.3.5c0,.1-.2.3-.3.4s-.3.3-.4.4l-.5.2h-.3l-.2-.2c-.1,0-.1-.1-.1-.2v-.2h1.3l.2-.3a.3.3,0,0,0,.1-.2A.4.4,0,0,0,100.7,226.4Z"/><path class="cls-6" d="M102.2,223h.1v.6h0v.2l-.4.2h-.1v-.9a.1.1,0,0,0,.1-.1Zm0,2.8c0-.1,0-.1.1,0h0v.7h-.1l-.4.2h-.1v-.6h0v-.2Z"/><path class="cls-20" d="M84.2,270.4l123.6-71.3c1.2-.7,2.2-.1,2.2,1.3v4.4a4.9,4.9,0,0,1-2.2,3.8L84.2,280c-1.2.7-2.2.1-2.2-1.3v-4.4A5.1,5.1,0,0,1,84.2,270.4Z"/><path class="cls-6" d="M84.6,264.7h.1v.4c0,.1,0,.2-.1.2h-.1l-2,1.2h-.2v-5.1h.1c0-.1,0-.1.1-.2l2-1.1h.1v.5h-.1l-1.7.9v1.7l1.6-.9h.1v.5h-.1l-1.6.9v1.7Z"/><path class="cls-6" d="M85.9,261.1c0-.1,0-.2.1-.2v-.3c.1-.1.1-.2.2-.2l.2-.2c.3-.1.4-.2.6-.1s.2.1.3.3.1-.3.1-.4l.2-.3.2-.3.3-.2a.5.5,0,0,1,.8.1,2.7,2.7,0,0,1,.2,1.1v2.4h-.3a.1.1,0,0,1-.1-.1v-2.1c0-.4,0-.7-.1-.8s-.3-.2-.5-.1a.9.9,0,0,0-.4.6,2,2,0,0,0-.2.9v2.2h0a.1.1,0,0,1-.1.1l-.2.2a.1.1,0,0,1-.1-.1h0v-2.1a1.5,1.5,0,0,0-.2-.8h-.4l-.5.5a3.1,3.1,0,0,0-.1,1v2.1c0,.1-.1.1-.1.2a.1.1,0,0,1-.1.1h-.3v-3.7h0v-.2h.3c0,.1.1.1.1.2Z"/><path class="cls-6" d="M89.7,261.5c0-.2.1-.4.1-.6s.1-.4.2-.6.2-.3.4-.4a.8.8,0,0,1,.4-.4l.7-.6h0a.6.6,0,0,0-.2-.5c-.1-.1-.2-.1-.4,0s-.3.2-.3.4a.5.5,0,0,0-.2.4H90c-.1-.1-.1-.1-.1-.2s.1-.2.1-.4.1-.3.2-.4l.3-.4a.5.5,0,0,1,.4-.3l.4-.2h.4c.1.1.1.2.2.4s.1.4.1.6v2.6a.1.1,0,0,1-.1.1h-.3v-.4c0,.2-.1.3-.1.4l-.3.3-.2.3-.3.2H90a.2.2,0,0,1-.2-.2C89.8,261.8,89.7,261.6,89.7,261.5Zm1-.1.3-.3.3-.4c0-.2.1-.3.1-.5a.7.7,0,0,0,.1-.5v-.2l-.6.5-.5.6a.8.8,0,0,0-.2.5v.2h.5Z"/><path class="cls-6" d="M93.2,255.6v.2h-.4c-.1.1-.1.1-.1,0h-.1v-.6c0-.1,0-.1.1-.1l.3-.2h.1Zm0,4.7c0,.1-.1.1-.1.2a.1.1,0,0,1-.1.1h-.3v-3.9h.4c0,.1.1.1.1.2Z"/><path class="cls-6" d="M94.4,259.6v.2H94a.1.1,0,0,1-.1-.1v-5.2H94v-.2h.2v5.3Z"/><path class="cls-6" d="M98.5,256.2l-1.8,1-.2,1.2c-.1.1-.1.1-.1.2H96l1.2-5.7a.3.3,0,0,0,.1-.2h.1l.4-.2H98l1.2,4.2h0v.2h-.5Zm-1.6.2,1.4-.8-.7-2.4Z"/><path class="cls-6" d="M100.7,252c.2-.1.4-.2.5-.1l.3.2v-1.9h.5v5.1c0,.1-.1.1-.1.2h-.4v-.3l-.3.6a1,1,0,0,1-.5.4l-.4.2a.5.5,0,0,1-.4-.2.8.8,0,0,1-.2-.5c-.1-.1-.1-.4-.2-.7v-.5c.1-.3.1-.5.2-.8a1.4,1.4,0,0,1,.2-.7,1.3,1.3,0,0,1,.4-.6A.8.8,0,0,1,100.7,252Zm.8,2v-.6a1,1,0,0,0-.2-.7c-.2-.2-.3-.2-.5,0s-.4.3-.6.6a3,3,0,0,0-.2,1v.4a1.3,1.3,0,0,0,.2.8c.2.2.3.2.6,0s.3-.3.5-.6A2.4,2.4,0,0,0,101.5,254Z"/><path class="cls-6" d="M103.7,250.3l.5-.2c.2.1.3.1.3.2v-1.9h.4v5.2h0c-.1.1-.1.1-.1.2h-.3c-.1-.1-.1-.1-.1-.2v-.2c0,.2-.1.3-.3.5a.8.8,0,0,1-.5.5h-.4l-.4-.2c-.1-.1-.1-.2-.2-.4a1.5,1.5,0,0,1-.1-.7v-.5a2.8,2.8,0,0,1,.1-.9c.1-.2.1-.5.2-.7l.4-.6Zm.8,1.9v-.6a1.2,1.2,0,0,0-.2-.7h-.5a1,1,0,0,0-.5.6,1.8,1.8,0,0,0-.2,1,.5.5,0,0,0,0,.5c0,.4,0,.6.2.8h.5a1,1,0,0,0,.5-.6A3,3,0,0,0,104.5,252.2Z"/><path class="cls-6" d="M107.1,248.4h.1v.3h0v.2h-.3a1.5,1.5,0,0,0-.6,1.3v2.3h-.1l-.2.2h-.1v-4h.4v.3l.3-.5.3-.4Z"/><path class="cls-6" d="M107.5,249.8c0-.2.1-.5.1-.7a2.5,2.5,0,0,0,.2-.7l.4-.6a1,1,0,0,1,.5-.4h.8l.3.5v1.2h-.1l-1.7,1h0c0,.3,0,.6.2.7h.5l.4-.4a.8.8,0,0,0,.2-.4h.5v.4c-.1.1-.1.3-.2.4l-.4.5-.4.3-.5.2-.3-.2-.3-.4c0-.2-.1-.4-.1-.7Zm.5-.2,1.4-.9h0a.8.8,0,0,0-.2-.6h-.5l-.3.2a.5.5,0,0,0-.2.4l-.2.4v.4Z"/><path class="cls-6" d="M112,248.5v-.2h-.8c-.3,0-.5,0-.6-.2a.8.8,0,0,1-.2-.6,4.3,4.3,0,0,0,.1-.5l.2-.4.3-.5.4-.3.5-.2h.3l.2.2v.3h0v.2h-.9l-.3.4a.8.8,0,0,0-.2.4v.3h1.4l.2.3v.4a1.1,1.1,0,0,1-.1.5l-.2.5-.3.4c-.1.2-.3.3-.4.4h-.5c-.1.1-.2,0-.3,0l-.2-.2v-.4h1.1l.2-.2.2-.2v-.2C111.9,248.7,112,248.6,112,248.5Z"/><path class="cls-6" d="M114.5,247v-.2h-.2c-.1-.1-.1,0-.3,0h-.9a1.4,1.4,0,0,1-.2-.7,1.1,1.1,0,0,1,.1-.5l.2-.4c0-.2.1-.3.3-.5l.4-.3.4-.2h.5a.4.4,0,0,1,.1.3v.2h-.4l-.2-.2-.4.2c-.2,0-.3.2-.4.3a.9.9,0,0,0-.1.5v.2h1.2l.2.2c.1,0,.1.1.2.2v.4a1.1,1.1,0,0,1-.1.5l-.2.5-.3.4-.5.4-.4.2c-.1,0-.3,0-.3-.1l-.3-.2v-.4h.7c.1.1.2,0,.3-.1h.3c0-.1.1-.2.1-.3l.2-.2Z"/><path class="cls-6" d="M116,243.6h.2v.6h-.1v.2l-.3.2h-.1v-.9h.1Zm0,2.8h.2v.7a.1.1,0,0,1-.1.1l-.3.2h-.1v-.6h.1Z"/><path class="cls-20" d="M84.2,213.2l53.4-30.8c1.2-.7,2.2-.1,2.2,1.3v4.4a4.9,4.9,0,0,1-2.2,3.8L84.2,222.8c-1.2.7-2.2.1-2.2-1.3V217A4.9,4.9,0,0,1,84.2,213.2Z"/><path class="cls-6" d="M82.6,209.4h-.2V204h.1l1.3-.8h.6l.3.2.2.3c0,.2.1.3.1.5a4.3,4.3,0,0,0-.1.5c0,.1-.1.2-.1.4v.2a.3.3,0,0,0-.1.2l.3.3a1.5,1.5,0,0,1,.1.7v.7c-.1.2-.1.4-.2.6l-.4.6-.5.4Zm.3-5V206l1-.5.5-.5a1.9,1.9,0,0,0,.2-.7.6.6,0,0,0-.2-.5c-.1-.1-.3-.1-.5.1Zm0,2.3v1.8l1.1-.6.3-.2.2-.4c0-.1.1-.2.1-.3v-.7a.3.3,0,0,0-.1-.2H84Z"/><path class="cls-6" d="M86.3,202.4h0v.2h-.4c-.1,0-.1,0-.1-.1v-.5h.2l.3-.2h.1Zm-.1,4.7v.2h-.4v-3.9h.4Z"/><path class="cls-6" d="M88.3,202h.2v.5h-.1l-.2.2a1.2,1.2,0,0,0-.6,1.2v2.3h-.1v.2H87v-4a.1.1,0,0,0,.1-.1h.4v.3a.8.8,0,0,1,.2-.5l.4-.3Z"/><path class="cls-6" d="M89.6,204v.2a.3.3,0,0,0,.1.2h.8v.3h-.2l-.3.2q-.4.3-.6,0c-.2-.1-.2-.4-.2-.9v-2l-.4.2h-.2v-.4h.1l.4-.3v-1.4h.4v1.3l.7-.4h.1v.5h-.1l-.7.4Z"/><path class="cls-6" d="M93.3,203v.2a.1.1,0,0,0-.1.1h-.4v-2.1c0-.4,0-.7-.1-.8h-.6a1,1,0,0,0-.5.6,3,3,0,0,0-.2,1v2.3H91v-5.2h0v-.2h.3v1.9l.3-.5.5-.5H93a.5.5,0,0,1,.2.4,1.7,1.7,0,0,1,.1.7Z"/><path class="cls-6" d="M96.9,199l1-3.7v-.2l.2-.2h.3v5.4a.1.1,0,0,0-.1.1H98v-3.7l-.8,2.8c0,.1,0,.2-.1.2v.2h-.3c0-.1-.1-.1-.1-.2l-.8-1.9v3.8h0a.1.1,0,0,1-.1.1l-.2.2h-.1v-5.2c0-.1.1-.1.1-.2h.5Z"/><path class="cls-6" d="M100.4,195l.5-.2.4.2c.1.1.1.2.2.4a1.3,1.3,0,0,1,.1.6v.8a1.7,1.7,0,0,1-.1.7,6.4,6.4,0,0,1-.2.7l-.4.6-.5.4-.5.2-.4-.2-.2-.4a1.5,1.5,0,0,1-.1-.7h0v-.6a2.5,2.5,0,0,1,.1-.8c.1-.2.1-.4.2-.6l.4-.6Zm.7,2a.4.4,0,0,0,.1-.3c0-.2,0-.3-.1-.4v-.4c-.1-.1-.1-.2-.2-.2h-.5l-.3.3a.5.5,0,0,0-.2.4l-.2.4v1.5l.2.3h.5l.3-.2.2-.4c.1-.1.1-.3.2-.4Z"/><path class="cls-6" d="M104.6,196.5v.2a.1.1,0,0,0-.1.1h-.4v-2.1c0-.4,0-.7-.1-.8h-.6a1,1,0,0,0-.5.6,3,3,0,0,0-.2,1v2.1h0v.2h-.3v-4h.4v.3l.3-.6.5-.4.4-.2.4.2a.5.5,0,0,1,.2.4,1.5,1.5,0,0,1,.1.7Z"/><path class="cls-6" d="M106,194.5v.5h.3l.3-.2h.1v.6h-.1l-.3.2c-.3.1-.5.2-.7,0a2,2,0,0,1-.2-.9v-2l-.3.2H105v-.5h.1l.3-.2v-1.3a.3.3,0,0,1,.1-.2h.3v1.4l.6-.3h.2v.2c0,.1,0,.2-.1.2h-.1l-.6.4Z"/><path class="cls-6" d="M109.7,193.6h-.1c0,.1,0,.1-.1.1v.2h-.2v-2c0-.4,0-.7-.2-.8s-.3-.2-.5,0a1,1,0,0,0-.5.6,2.5,2.5,0,0,0-.2,1v2.2h-.5v-5.1c0-.1,0-.1.1-.2h.4v1.7l.3-.5a1,1,0,0,1,.5-.4l.4-.2.4.2.2.4a1.5,1.5,0,0,1,.1.7Z"/><path class="cls-6" d="M153.7,134.2l.6-.2h.4a.5.5,0,0,1,.2.4.4.4,0,0,1,.1.3v.2h-.5l-.2-.2h-.6l-.2.2-.3.3v.3a.6.6,0,0,0-.1.4c0,.1,0,.3.1.3v.2h1.7l.2.3v.5a1.7,1.7,0,0,1-.1.7,1.1,1.1,0,0,1-.3.7l-.4.6-.5.4-.6.2h-.4l-.3-.3a.9.9,0,0,1-.1-.5h.3a.1.1,0,0,1,.1-.1c0,.1,0,.1.1.2h.1v.2h.7l.3-.3.3-.3c.1-.1.1-.3.2-.4v-.7h-.3c-.1-.1-.2-.1-.4,0h-1.2a.4.4,0,0,1-.1-.3.9.9,0,0,1-.1-.5,1.3,1.3,0,0,1,.1-.6,1.4,1.4,0,0,1,.2-.6l.4-.6A1,1,0,0,1,153.7,134.2Z"/><path class="cls-6" d="M155.6,136.2a1.7,1.7,0,0,1,.1-.7,6.4,6.4,0,0,1,.2-.7l.4-.6.5-.4h.5l.3.2a1.1,1.1,0,0,1,.3.5v1.1h-.1l-1.8,1h0c.1.3.1.6.3.7h.5l.4-.4c.1-.1.1-.2.2-.4h.4v.2a.4.4,0,0,0-.1.3l-.2.5-.4.4-.4.4h-.5l-.4-.2-.2-.4a1.5,1.5,0,0,1-.1-.7Zm.4-.2,1.5-.8h0a.8.8,0,0,0-.2-.6h-.5l-.3.2a7867464773628.2,7867464773628.2,0,0,1-.4.8.9.9,0,0,1-.1.5Z"/><path class="cls-6" d="M158.9,135a.7.7,0,0,0,.1.5v.2h.5l.4-.3.3-.7v-.2h.3v.2c0,.1-.1.2-.1.4s-.1.4-.2.6l-.4.5a1,1,0,0,1-.5.4l-.5.2-.3-.2-.3-.5c0-.1-.1-.4-.1-.6v-.6c0-.3.1-.5.1-.8l.3-.7.3-.6.5-.4.5-.2.4.2c.1,0,.1.1.2.2s.1.3.1.4v.2h-.4l-.3-.3c-.1-.1-.2,0-.4.1l-.2.2-.3.3a4.3,4.3,0,0,0-.1.5.7.7,0,0,0-.1.5Z"/><path class="cls-6" d="M162.5,130.5h.8a.8.8,0,0,1,.2.5c.1.1.1.3.2.6v.6h0c-.1.3-.1.6-.2.8a1.4,1.4,0,0,1-.2.7l-.4.6-.4.4h-.9l-.2-.4a6.4,6.4,0,0,1-.2-.7h0V133c.1-.3.1-.5.2-.8a1.9,1.9,0,0,1,.2-.7,1,1,0,0,1,.4-.5Zm.7,2.1v-.7a.6.6,0,0,0-.1-.4c0-.1-.1-.2-.1-.3h-.5l-.4.3-.2.3c0,.2-.1.3-.1.5a.7.7,0,0,0-.1.5v.6c0,.2,0,.3.1.4v.3h.6l.3-.3.2-.3c0-.2.1-.3.1-.5A.6.6,0,0,0,163.2,132.6Z"/><path class="cls-6" d="M166.7,132.1h-.1c0,.1,0,.1-.1.1l-.2.2h-.1v-2.2a1.3,1.3,0,0,0-.2-.8c-.1-.2-.3-.2-.5,0a1,1,0,0,0-.5.6,1.5,1.5,0,0,0-.2,1v2c0,.1,0,.2-.1.2h-.4v-3.8h.5v.2a.9.9,0,0,1,.3-.5.7.7,0,0,1,.5-.4l.4-.2.3.2.3.4c0,.2.1.4.1.7Z"/><path class="cls-6" d="M168.4,127.1c.2-.1.4-.2.5-.1l.3.2v-1.9h.4c.1,0,.1,0,.1.1v5.3h-.4v-.3l-.3.6a1,1,0,0,1-.5.4l-.4.2-.4-.2a.8.8,0,0,1-.2-.5c-.1-.1-.1-.4-.1-.7v-.5a2.2,2.2,0,0,1,.1-.8,1.4,1.4,0,0,1,.2-.7,1.3,1.3,0,0,1,.4-.6C168.1,127.3,168.3,127.2,168.4,127.1Zm.8,2v-.6a1.5,1.5,0,0,0-.2-.8.4.4,0,0,0-.5,0,2,2,0,0,0-.6.7,3,3,0,0,0-.2,1v.4a1.3,1.3,0,0,0,.2.8c.2.1.3.2.6,0s.3-.3.5-.6A2.4,2.4,0,0,0,169.2,129.1Z"/><path class="cls-6" d="M174.1,128h-.2l-1.7-2.9v3.9h-.1l-.2.2h-.1v-5.4c0-.1,0-.1.1-.1h.3l1.7,2.9v-4.1h.5v5.1c0,.1,0,.1-.1.2a.1.1,0,0,1-.1.1Z"/><path class="cls-6" d="M175,126.4a1.3,1.3,0,0,1,.1-.6c0-.2.1-.3.2-.5l.3-.5a.8.8,0,0,0,.4-.4l.8-.5h0c0-.3-.1-.5-.2-.5h-.4l-.4.3a.8.8,0,0,1-.2.4v.2h-.4a.6.6,0,0,1,.1-.4c0-.2.1-.3.2-.5l.3-.4.4-.3h.7c.1.1.2.2.2.3a1.5,1.5,0,0,1,.1.7V126h0a.1.1,0,0,1-.1.1l-.2.2a.1.1,0,0,1-.1-.1h0v-.3l-.2.3a.5.5,0,0,1-.2.4l-.3.2a.2.2,0,0,1-.2.2h-.7c0-.1-.1-.2-.1-.3S175,126.6,175,126.4Zm.9-.1.4-.3a.5.5,0,0,0,.2-.4l.2-.4a4.3,4.3,0,0,1,.1-.5v-.2l-.6.5-.5.5a.7.7,0,0,0-.2.6h.1a.1.1,0,0,0,.1.1C175.8,126.4,175.9,126.4,175.9,126.3Z"/><path class="cls-6" d="M178.4,121.9a.4.4,0,0,0,.1-.3l.2-.3.2-.2.2-.2h.5a.3.3,0,0,1,.3.3l.2-.3.2-.3.2-.3.3-.2c.3-.2.6-.2.7,0a1.7,1.7,0,0,1,.3,1.2v2.1a.3.3,0,0,1-.1.2h-.4v-2.1a1.3,1.3,0,0,0-.2-.8c-.1-.1-.2-.1-.4,0a1,1,0,0,0-.4.5,1.6,1.6,0,0,0-.2,1v2.3h-.4a.1.1,0,0,1-.1-.1v-2.1c0-.4,0-.7-.1-.8s-.3-.2-.5-.1-.3.3-.4.6a2,2,0,0,0-.2.9v2.2h-.1l-.2.2a.1.1,0,0,1-.1-.1h0v-3.8a.1.1,0,0,1,.1-.1h.3Z"/><path class="cls-6" d="M182.4,120.8a2.2,2.2,0,0,1,.1-.8,2.5,2.5,0,0,1,.2-.7,1,1,0,0,1,.4-.5c.1-.2.3-.3.4-.4l.5-.2.4.2a.8.8,0,0,1,.2.5,1.9,1.9,0,0,1,.1.8v.4a.1.1,0,0,0-.1.1l-1.8,1h0a1,1,0,0,0,.2.7h.5l.5-.3a.5.5,0,0,1,.2-.4c0-.1,0-.1.1-.2h.2c0-.1.1,0,.1,0h0a.8.8,0,0,1-.1.4l-.2.4-.3.4a1,1,0,0,1-.5.4h-.8a.8.8,0,0,1-.2-.5,1.3,1.3,0,0,1-.1-.6Zm.4-.3,1.5-.8h0a1.2,1.2,0,0,0-.2-.7h-.6l-.2.3-.3.3c0,.1-.1.3-.1.4a.9.9,0,0,0-.1.5Z"/><path class="cls-6" d="M185.8,117.5h.1v.7h-.1l-.4.2h-.1V118h0v-.2Zm0,2.8h.1v.7h-.1l-.4.2h-.1v-.7h.1Z"/><path class="cls-20" d="M84.2,299.1l53.4-30.9c1.2-.7,2.2-.1,2.2,1.3v4.4a5.1,5.1,0,0,1-2.2,3.9L84.2,308.6c-1.2.7-2.2.1-2.2-1.3v-4.4A4.9,4.9,0,0,1,84.2,299.1Z"/><path class="cls-20" d="M154.4,258.5l53.4-30.8c1.2-.7,2.2-.1,2.2,1.3v4.4a4.9,4.9,0,0,1-2.2,3.8l-53.4,30.9c-1.3.7-2.2.1-2.2-1.3v-4.5A4.6,4.6,0,0,1,154.4,258.5Z"/><path class="cls-11" d="M154.4,287.1l20.3-11.7c1.2-.7,2.2-.2,2.2,1.2v4.5a4.9,4.9,0,0,1-2.2,3.8l-20.3,11.8c-1.3.7-2.2.1-2.2-1.3v-4.5A4.6,4.6,0,0,1,154.4,287.1Z"/><path class="cls-11" d="M186.4,278.1h-.7a1.9,1.9,0,0,1-.8-1.7v-4.4a5.1,5.1,0,0,1,2.4-4.1l20.3-11.7a1.7,1.7,0,0,1,1.8-.2,1.9,1.9,0,0,1,.8,1.7V262a5.3,5.3,0,0,1-2.3,4.1l-20.4,11.7Zm1.1-9.8a4.7,4.7,0,0,0-2.1,3.6v4.4a1.2,1.2,0,0,0,.6,1.2c.3.2.7.2,1.3-.1l20.3-11.8a4.4,4.4,0,0,0,2.1-3.6v-4.4a1.4,1.4,0,0,0-.5-1.2,1.2,1.2,0,0,0-1.3.1Z"/><path class="cls-6" d="M83.9,289l.4-.2h.4l.3.4c.1.1.1.4.1.7a2.5,2.5,0,0,1-.1.8l-.3.6a2.1,2.1,0,0,1-.4.6l-.4.4-1,.5V295h-.5V290h.1v-.2Zm-1,3.2.9-.5.6-.6a2,2,0,0,0,.2-.9.8.8,0,0,0-.2-.6h-.6l-.9.6Z"/><path class="cls-6" d="M85.4,292.6a1.3,1.3,0,0,1,.1-.6,1.4,1.4,0,0,1,.2-.6l.3-.4.4-.4.8-.6h0a.6.6,0,0,0-.2-.5h-.4l-.4.4-.2.4h-.4v-.2a.8.8,0,0,1,.1-.4l.2-.4.3-.4.4-.3.4-.2h.3a.5.5,0,0,1,.2.4,1.3,1.3,0,0,1,.1.6v2.6h-.4V292c-.1.2-.1.3-.2.4s-.1.2-.2.3l-.3.3c0,.1-.1.1-.2.2h-.7a.3.3,0,0,1-.1-.2A.6.6,0,0,1,85.4,292.6Zm.9-.1.4-.3a.8.8,0,0,0,.2-.4c.1-.2.2-.3.2-.5a4.3,4.3,0,0,0,.1-.5v-.2l-.6.5-.5.6a.6.6,0,0,0-.2.5v.2a.1.1,0,0,0,.1.1h.3Z"/><path class="cls-6" d="M89.9,289.9c0-.1,0-.2-.1-.2H89a.6.6,0,0,1-.6-.1c-.1-.1-.1-.4-.1-.6v-.5l.2-.5.3-.4c.1-.2.3-.3.4-.4h.5c.1-.1.2,0,.3,0l.2.2c0,.1.1.1.1.2s0,.1-.1.2,0,.1-.1.1h-.9l-.3.4a.5.5,0,0,0-.2.4c0,.1,0,.2.1.2s0,.1.1.1h1.3c0,.1.1.2.1.3v.8a1.7,1.7,0,0,0-.2.5l-.4.5-.4.3-.5.2h-.3c-.1-.1-.2-.1-.2-.2a.4.4,0,0,1-.1-.3h0v-.2h.4a.2.2,0,0,0,.2.2h.4c0-.1.1-.1.2-.2l.2-.2v-.3C89.9,290,89.9,290,89.9,289.9Z"/><path class="cls-6" d="M92.4,288.4v-.2h-.8c-.3.1-.5.1-.6-.1a.8.8,0,0,1-.2-.6c0-.2.1-.3.1-.5s.1-.3.2-.5l.3-.4.4-.4h.8l.2.2v.4a.1.1,0,0,1-.1.1h-.2a.1.1,0,0,1-.1-.1h-.6l-.4.4a.6.6,0,0,0-.1.4v.2h1.2c.1,0,.2,0,.2.1l.2.3v.3a.7.7,0,0,1-.1.5.8.8,0,0,1-.2.5l-.3.5-.5.4h-.7c-.1-.1-.2-.1-.2-.2a.4.4,0,0,1-.1-.3h0a.1.1,0,0,1,.1-.1l.2-.2h.7l.3-.2c0-.1.1-.1.2-.2v-.5Z"/><path class="cls-6" d="M95.9,286.3l.6-3a.1.1,0,0,1,.1-.1V283h.2a.1.1,0,0,0,.1.1h0l-.8,4.1h-.1v.2h-.1c-.1,0-.1,0-.1-.1s-.1,0-.1-.1l-.6-2.2-.6,2.9c0,.1,0,.2-.1.2h-.2c-.1.1-.1,0-.1,0H94l-.7-3.2h-.1c0-.1.1-.1.1-.2a.1.1,0,0,1,.1-.1h.3l.6,2.3.6-3h.4Z"/><path class="cls-6" d="M98.5,281.9l.5-.2.4.2a.5.5,0,0,1,.2.4,1.3,1.3,0,0,1,.1.6v.8a1.7,1.7,0,0,1-.1.7,1.4,1.4,0,0,1-.2.7,2.1,2.1,0,0,1-.4.6,1,1,0,0,1-.5.4h-.8l-.3-.4c0-.2-.1-.4-.1-.7h0v-.6c0-.3.1-.5.1-.8l.3-.7.3-.5Zm.8,2v-1.1a.3.3,0,0,0-.1-.2l-.3-.2h-.3l-.3.3c-.1.1-.1.2-.2.4s-.1.2-.1.4a.9.9,0,0,0-.1.5v.6c0,.2,0,.3.1.4s0,.2.1.3h.5c.2,0,.3-.1.3-.2l.3-.4c0-.1.1-.3.1-.4A4.3,4.3,0,0,1,99.3,283.9Z"/><path class="cls-6" d="M101.7,280.1h.2v.5a.1.1,0,0,1-.1.1h-.3a1.5,1.5,0,0,0-.6,1.3v2.3h0c0,.1-.1.1-.1.2h-.3v-4h.4v.3l.3-.5c.1-.1.2-.3.4-.3Z"/><path class="cls-6" d="M103.3,279.1h.5l.3.2v-1.9h.4v5.3a.1.1,0,0,1-.1.1h-.2c0,.1-.1.1-.1,0h0v-.2l-.3.5-.5.5h-.5l-.3-.2-.3-.4c0-.2-.1-.5-.1-.7v-.5c0-.3.1-.6.1-.9l.3-.7.3-.6Zm.8,2v-.6c-.1-.4-.1-.6-.3-.7a.4.4,0,0,0-.5,0,1,1,0,0,0-.5.6,3,3,0,0,0-.2,1v.5a1.2,1.2,0,0,0,.2.7c.1.2.3.2.5.1l.5-.6A2.9,2.9,0,0,0,104.1,281.1Z"/><path class="cls-6" d="M105.7,278.2h.2v.5c0,.1-.1.1-.1.2s0,.1-.1.1l-.3.2h-.2v-.7c0-.1,0-.1.1-.1Zm0,2.7h.2v.6h-.1c0,.1,0,.1-.1.2l-.3.2h-.1c0-.1-.1-.1-.1-.2v-.5c0-.1.1-.1.1-.2h.1Z"/><path class="cls-20" d="M84.2,327.7l53.4-30.9c1.2-.7,2.2-.1,2.2,1.3v4.4a5.1,5.1,0,0,1-2.2,3.9L84.2,337.2c-1.2.7-2.2.1-2.2-1.3v-4.4A4.9,4.9,0,0,1,84.2,327.7Z"/><path class="cls-6" d="M83.9,317.6l.4-.2h.4l.3.4c.1.1.1.4.1.7a2.5,2.5,0,0,1-.1.8l-.3.6-.4.6-.4.4-1,.5v2.1h-.5v-5.1h.1c0-.1,0-.1.1-.2Zm-1,3.2.9-.5a1.7,1.7,0,0,0,.6-.6,2,2,0,0,0,.2-.9.8.8,0,0,0-.2-.6c-.1-.1-.3,0-.6.1l-.9.5Z"/><path class="cls-6" d="M88,320.5v.2a.1.1,0,0,0-.1.1h-.4v-2.1c0-.4,0-.7-.2-.8h-.5a1,1,0,0,0-.5.6,3,3,0,0,0-.2,1v2.1h0v.2h-.3c0-.1-.1-.1-.1-.2v-5.1a.3.3,0,0,0,.1-.2.1.1,0,0,1,.1-.1h.3v1.8l.3-.6.5-.4c.2-.1.3-.2.4-.1h.4a.5.5,0,0,1,.2.4,1.5,1.5,0,0,1,.1.7Z"/><path class="cls-6" d="M89.8,315.5l.5-.2.4.2.2.4a1.5,1.5,0,0,1,.1.7h0v.6a2.2,2.2,0,0,1-.1.8c-.1.2-.1.4-.2.6s-.3.4-.4.6a1,1,0,0,1-.5.4l-.5.2-.3-.2-.3-.4c0-.2-.1-.4-.1-.6v-.8c0-.2.1-.5.1-.7l.3-.7.3-.6Zm.8,2v-.6a.8.8,0,0,1-.1-.4c0-.2-.1-.2-.2-.3h-.5l-.3.2a.8.8,0,0,0-.2.4c-.1.1-.1.3-.2.4v1.6l.2.2c0,.1.1.1.2.1h.3l.3-.3a.5.5,0,0,0,.2-.4.8.8,0,0,0,.2-.4A.9.9,0,0,1,90.6,317.5Z"/><path class="cls-6" d="M94,317v.2a.1.1,0,0,0-.1.1h-.4v-2.1c0-.4,0-.7-.1-.8h-.6l-.5.6a3,3,0,0,0-.2,1v2.3h-.4v-3.7h0c0-.1.1-.1.1-.2h.3v.4l.3-.5a1.2,1.2,0,0,1,.5-.5h.8a.8.8,0,0,1,.2.4,1.7,1.7,0,0,1,.1.7Z"/><path class="cls-6" d="M94.6,314.4c0-.2.1-.4.1-.7l.3-.7.3-.6c.2-.1.3-.3.5-.3a.6.6,0,0,1,.5-.2l.3.2.3.5c0,.2.1.4.1.8v.2h-.1c0,.1,0,.1-.1.2l-1.7,1h0a1,1,0,0,0,.2.7h.5a.8.8,0,0,0,.4-.4.5.5,0,0,0,.2-.4.1.1,0,0,0,.1-.1h.4c0,.1-.1.2-.1.3s-.1.3-.2.5l-.3.4-.5.4h-.5l-.3-.2-.3-.4c0-.2-.1-.4-.1-.6Zm.5-.2,1.4-.8h0a1,1,0,0,0-.2-.7h-.5l-.3.3-.2.3c-.1.1-.1.3-.2.4v.5Z"/><path class="cls-6" d="M101.2,313.1h-.1a.1.1,0,0,0-.1-.1l-1.6-2.9v3.8c0,.1-.1.1-.1.2h-.4V309a.1.1,0,0,1,.1-.1h.2c0-.1.1-.1.1,0h.1l1.6,2.8v-3.8c0-.1.1-.1.1-.2h.4v5.1h0c0,.1-.1.1-.1.2Z"/><path class="cls-6" d="M102.3,308.6c0-.1,0-.1.1-.2h.3c.1,0,.1,0,.1.1v2.1c0,.4,0,.6.2.8s.2.1.5,0l.5-.6a3,3,0,0,0,.2-1v-2.3h.4v3.9h-.4v-.3l-.3.5a1.2,1.2,0,0,1-.5.5h-.8a.8.8,0,0,1-.2-.5c-.1-.1-.1-.4-.1-.6Z"/><path class="cls-6" d="M105.8,306.8a.4.4,0,0,0,.1-.3l.2-.2c0-.1.1-.2.2-.3h.2a.6.6,0,0,1,.5-.2.8.8,0,0,1,.4.4c0-.2,0-.3.1-.4l.2-.3.2-.3.3-.2c.3-.2.6-.2.7,0a1.9,1.9,0,0,1,.3,1.2v2.2h-.1c0,.1,0,.1-.1.2h-.3v-2.3a1.7,1.7,0,0,0-.1-.8.5.5,0,0,0-.5,0,1,1,0,0,0-.4.5,3,3,0,0,0-.2,1v2.3H107v-2.1c0-.4,0-.7-.1-.8a.4.4,0,0,0-.5,0l-.4.5a2.4,2.4,0,0,0-.2.9v2.4h-.4v-4h.4Z"/><path class="cls-6" d="M111.2,303.2c.1-.1.3-.2.4-.1h.4c.1.1.1.3.2.5s.1.4.1.7v.5a2.2,2.2,0,0,1-.1.8,6.4,6.4,0,0,1-.2.7,1.5,1.5,0,0,1-.4.6c-.1.2-.3.3-.4.4s-.4.2-.5.1-.3-.1-.3-.2v.3h-.1c0,.1,0,.1-.1.2h-.3v-5.5a.1.1,0,0,0,.1-.1h.4v1.8a1.4,1.4,0,0,1,.2-.6Zm-.8,2.9a1.4,1.4,0,0,0,.2.7h.5a1.8,1.8,0,0,0,.5-.7,1.6,1.6,0,0,0,.2-1v-.4c0-.4,0-.6-.2-.8h-.5a1,1,0,0,0-.5.6,3,3,0,0,0-.2,1v.6Z"/><path class="cls-6" d="M112.8,303.9c0-.2.1-.5.1-.7l.3-.7.3-.6.5-.4h.5l.3.2.3.5c0,.2.1.4.1.7v.3h-.1c0,.1,0,.1-.1.1l-1.7,1.1h0c0,.4,0,.6.2.7h.5a.8.8,0,0,0,.4-.4.5.5,0,0,0,.2-.4.1.1,0,0,0,.1-.1h.3v.2c0,.1-.1.2-.1.3l-.2.5-.3.4-.5.4h-.5l-.3-.2-.3-.4c0-.2-.1-.4-.1-.6Zm.5-.2,1.4-.8h0a1,1,0,0,0-.2-.7H114l-.3.3c-.1,0-.2.2-.2.3s-.1.3-.2.4v.5Z"/><path class="cls-6" d="M117.1,299.8h.2v.3c0,.1-.1.1-.1.2a.1.1,0,0,1-.1.1l-.3.2a1.2,1.2,0,0,0-.6,1.2v2.5a.1.1,0,0,0-.1.1h-.3v-4h.4v.3l.3-.5.4-.3Z"/><path class="cls-6" d="M118.1,299.6h.2v.6h-.1c0,.1,0,.1-.1.2l-.3.2a.1.1,0,0,1-.1-.1h0v-.7h.1Zm0,2.7h.1c.1,0,.1,0,.1.1v.5c0,.1,0,.1-.1.2a.1.1,0,0,1-.1.1l-.3.2h-.1v-.6h0c0-.1.1-.1.1-.2Z"/><path class="cls-6" d="M153,251.2v1.3a2,2,0,0,0,.2.9c.2.2.4.2.7,0l.4-.3.3-.4c.1-.2.2-.3.2-.5v-.6h.5c0,.2-.1.4-.1.6l-.3.8-.4.7a1.8,1.8,0,0,1-.7.5l-.6.2-.4-.2-.3-.5a1.9,1.9,0,0,1-.1-.8v-1.4a2.8,2.8,0,0,1,.1-.9l.3-.8a4.3,4.3,0,0,1,.4-.7l.6-.5a1.1,1.1,0,0,1,.7-.2l.4.2.3.4a4.3,4.3,0,0,0,.1.5v.2h-.4v-.3l-.2-.3h-.3l-.4.2a1.9,1.9,0,0,0-.7.8A3.7,3.7,0,0,0,153,251.2Z"/><path class="cls-6" d="M157,248.1l.5-.2.4.2a.5.5,0,0,1,.2.4c.1.2.1.4.2.6v.8c-.1.2-.1.5-.2.7a1.4,1.4,0,0,1-.2.7l-.4.6a1,1,0,0,1-.5.4l-.4.2-.4-.2a.5.5,0,0,1-.2-.4c-.1-.2-.1-.4-.2-.6v-.8c.1-.2.1-.5.2-.7a1.4,1.4,0,0,1,.2-.7l.4-.6Zm.8,2v-.7a.8.8,0,0,0-.1-.4v-.2H157l-.3.2a.8.8,0,0,1-.2.4c0,.1-.1.3-.1.4a.9.9,0,0,0-.1.5v.7a.8.8,0,0,0,.1.4v.2h.5l.4-.2.2-.4v-.4A.9.9,0,0,0,157.8,250.1Z"/><path class="cls-6" d="M161.2,249.6v.2h-.4v-2.1a1.3,1.3,0,0,0-.2-.8h-.5a1,1,0,0,0-.5.6,1.6,1.6,0,0,0-.2,1v2.3h-.4v-3.9h.5v.3a.8.8,0,0,1,.2-.5c.2-.2.3-.4.6-.5h.7l.3.4v2.9Z"/><path class="cls-6" d="M164.1,248H164v.2h-.3v-3.3l-.9.5v3.2h-.1v.2h-.2v-3.4l-.4.3h-.1v-.5h.1l.4-.2v-.4a3.1,3.1,0,0,1,.2-1.1,1.2,1.2,0,0,1,.7-.7l.8-.5h.2v.3h-.2l-.8.5c-.1.1-.2.1-.2.2v.2a.4.4,0,0,0-.1.3v.6l1.2-.7h.2Z"/><path class="cls-6" d="M166.2,242.9h.1v.5h-.4a1.5,1.5,0,0,0-.6,1.3v2.3h-.1v.2h-.3v-4h.4v.3c.1-.2.1-.4.2-.5s.3-.3.4-.4Z"/><path class="cls-6" d="M167.2,242.7v-.2l.2-.3V242l.3-.2h.5l.3.3.2-.3v-.3l.3-.3c0-.1.1-.2.3-.2s.5-.2.7,0,.2.6.2,1.2v2.3h-.4v-2.1a1.3,1.3,0,0,0-.2-.8h-.4l-.5.5a3.1,3.1,0,0,0-.1,1v2.1c0,.1,0,.1-.1.2h-.4v-2.1c0-.4,0-.7-.1-.8s-.3-.2-.5-.1a.9.9,0,0,0-.4.6,2,2,0,0,0-.2.9v2.2h-.1l-.2.2h-.2v-3.6c0-.1.1-.1.1-.2h.4Z"/><path class="cls-6" d="M174,237l.5-.2h.3l.3.3a1.5,1.5,0,0,1,.1.7,1.9,1.9,0,0,1-.1.8c-.1.3-.1.5-.3.7l-.3.6-.5.3-1,.6V243h-.4v-5.3h.1Zm-1,3.2,1-.6a1.2,1.2,0,0,0,.5-.5,1.5,1.5,0,0,0,.2-.9c0-.3,0-.5-.2-.6s-.3,0-.5.1l-1,.5Z"/><path class="cls-6" d="M175.5,240.5c0-.2.1-.4.1-.6s.1-.3.2-.5l.4-.4.4-.4.7-.6h0c0-.3-.1-.5-.2-.5h-.4l-.4.3c0,.2-.1.3-.1.4s-.1.1-.1.2h-.4a.8.8,0,0,1,.1-.4l.2-.4.3-.4.4-.4h.7l.3.4v3h0c0,.1-.1.1-.1.2h-.3V240l-.2.4-.2.3-.2.2-.3.2-.4.2h-.2c-.1-.1-.2-.1-.2-.3S175.5,240.7,175.5,240.5Zm1-.1.3-.3.3-.3c0-.2.1-.3.1-.5a.9.9,0,0,0,.1-.5v-.2l-.6.5-.5.5a.7.7,0,0,0-.2.6v.2h.5Z"/><path class="cls-6" d="M180,237.9a.4.4,0,0,0-.1-.3h-1.4a1.5,1.5,0,0,1-.1-.7v-.4c.1-.2.1-.4.2-.5l.3-.5.5-.3.4-.2h.5a.4.4,0,0,1,.1.3v.2a.1.1,0,0,1-.1.1h-.5c-.1-.1-.2,0-.3.1l-.4.3c-.1.2-.2.3-.2.5s.1.1.1.2H180l.3.2v.2c0,.1.1.3.1.4a4.3,4.3,0,0,0-.1.5l-.2.5-.4.5-.4.3-.5.2h-.5v-.5h.4l.2.2.4-.2h.2l.2-.3c.1,0,.1-.1.1-.2Z"/><path class="cls-6" d="M182.6,236.4v-.2h-.8a.6.6,0,0,1-.6-.1,1.3,1.3,0,0,1-.1-.6V235l.2-.5.3-.4.4-.4.5-.2h.3c.1,0,.1.1.2.2v.2c.1.1,0,.1,0,.2h-1l-.3.3c-.1.2-.2.3-.2.5s0,.2.1.2h1.3l.2.2v.9l-.3.5-.3.5-.4.3-.5.2H181a.4.4,0,0,1-.1-.3v-.2h.5a.2.2,0,0,0,.2.2h.4c0-.1.1-.1.2-.2l.2-.2v-.5Z"/><path class="cls-6" d="M186,234.2l.6-2.9c0-.1,0-.1.1-.2h.4l-.8,4c0,.1,0,.2-.1.2h-.4l-.6-2.3-.6,3v.2h-.5l-.7-3.2h0V233h.4l.6,2.3.6-3h.1v-.2h.2Z"/><path class="cls-6" d="M188.7,229.8h.8l.2.4a6.4,6.4,0,0,1,.2.7v.6h0c-.1.3-.1.6-.2.8a1.9,1.9,0,0,1-.2.7,2.1,2.1,0,0,1-.4.6l-.4.4h-.9a.8.8,0,0,1-.2-.4,6.4,6.4,0,0,1-.2-.7h0v-.6l.2-.8a1.9,1.9,0,0,1,.2-.7l.4-.6Zm.7,2.1v-.7c0-.2,0-.3-.1-.4s-.1-.2-.1-.3h-.5l-.4.3-.2.3c0,.2-.1.3-.1.5a.7.7,0,0,0-.1.5v.6c0,.2,0,.3.1.4v.3h.6l.3-.3.2-.3c0-.2.1-.3.1-.5A.6.6,0,0,0,189.4,231.9Z"/><path class="cls-6" d="M191.8,228.1h.2v.3h-.2l-.3.2a1.6,1.6,0,0,0-.5,1.3v2.2c0,.1,0,.2-.1.2h-.4v-3.8h.4c.1,0,.1,0,.1.1v.2c0-.2.1-.3.2-.5l.4-.3Z"/><path class="cls-6" d="M193.4,227.1c.2-.1.4-.2.5-.1l.3.2v-1.9a.1.1,0,0,1,.1-.1h.3v5.3h-.4v-.3l-.3.6a1,1,0,0,1-.5.4l-.5.2-.3-.2-.3-.5a5.6,5.6,0,0,1-.1-.7v-.5c0-.3.1-.5.1-.8l.3-.7.3-.6Zm.8,2v-.6a1.5,1.5,0,0,0-.2-.8h-.6a1.8,1.8,0,0,0-.5.7,3,3,0,0,0-.2,1v.4a1.3,1.3,0,0,0,.2.8.3.3,0,0,0,.5,0,1.7,1.7,0,0,0,.6-.6A2.4,2.4,0,0,0,194.2,229.1Z"/><path class="cls-6" d="M195.8,226.1h.1c.1,0,.1,0,.1.1v.7h-.1l-.3.2h-.1v-.6h0v-.2Zm0,2.8h.2v.5c0,.1,0,.2-.1.2s0,.1-.1.1l-.3.2h-.1v-.7h.1Z"/><path class="cls-6" d="M152.8,168.9h-.2v-5.3h.1l1.3-.8a.7.7,0,0,1,.6-.1h.3a.8.8,0,0,1,.2.4v.9c0,.2-.1.3-.1.4l-.2.3c0,.1,0,.2-.1.2s.3.2.4.3a1.5,1.5,0,0,1,.1.7v.6l-.3.7a.9.9,0,0,1-.3.5,1.2,1.2,0,0,1-.5.5Zm.3-5v1.6l1-.6a1.2,1.2,0,0,0,.5-.5,1.4,1.4,0,0,0,.2-.6c0-.3-.1-.5-.2-.5s-.3-.1-.5.1Zm0,2.3V168l1.1-.6.3-.3.2-.3c0-.1.1-.2.1-.3v-.7a.3.3,0,0,0-.1-.2h-.5Z"/><path class="cls-6" d="M156.5,161.8c0,.1,0,.2-.1.2h-.1l-.2.2H156a.1.1,0,0,1-.1-.1v-.5h.1v-.2h.2c.1-.1.1-.1.1,0h.1Zm-.1,4.8h0c0,.1-.1.1-.1.2H156v-4h.4Z"/><path class="cls-6" d="M158.5,161.5h.2v.3h-.1v.2h-.3a1.4,1.4,0,0,0-.5,1.3v2.3h-.2l-.2.2h-.1v-3.8h.5v.3a.8.8,0,0,1,.2-.5.8.8,0,0,1,.4-.4Z"/><path class="cls-6" d="M159.8,163.5v.2a.3.3,0,0,0,.1.2h.6c0-.1.1-.1.1,0h0v.4h-.1l-.3.2c-.3.2-.5.2-.7,0a1.4,1.4,0,0,1-.2-.9v-2l-.3.2h-.2v-.3h.1v-.2l.3-.2v-1.3h.5v1.3l.6-.4h.2v.3h-.1v.2l-.6.3Z"/><path class="cls-6" d="M163.5,162.5v.2a.1.1,0,0,0-.1.1H163v-2.1c0-.4,0-.7-.2-.8h-.5a1,1,0,0,0-.5.6,3,3,0,0,0-.2,1v2.1h0v.2h-.3v-5.5h.4v1.8l.3-.6.5-.4.4-.2.4.2a.5.5,0,0,1,.2.4,1.5,1.5,0,0,1,.1.7Z"/><path class="cls-6" d="M168.3,156.6v1.2c0,.3-.1.7-.1,1l-.3.8a1.8,1.8,0,0,1-.5.7l-.5.5-1.2.6h-.2v-5c0-.1,0-.2.1-.2h.1l1.1-.7.6-.2a.6.6,0,0,1,.5.2,1.1,1.1,0,0,1,.3.5C168.2,156,168.3,156.2,168.3,156.6Zm-.5.3a.7.7,0,0,0-.1-.5c0-.2,0-.3-.1-.4h-.8l-.8.5v4l.8-.4.5-.4.3-.5c.1-.2.1-.4.2-.6v-1.7Z"/><path class="cls-6" d="M168.8,158.6a1.3,1.3,0,0,1,.1-.6c0-.2.1-.3.2-.5l.3-.5.4-.4.7-.5h0c0-.3,0-.5-.1-.5h-.5l-.3.3-.2.4c0,.1,0,.1-.1.2H169V156l.3-.5.3-.4.3-.3h.8l.2.3a1.5,1.5,0,0,1,.1.7v2.4h-.5v-.3a.4.4,0,0,1-.1.3c-.1.2-.1.3-.2.4l-.3.2-.2.2H169l-.2-.3Zm.9-.1.3-.3c.2-.1.2-.2.3-.4s.1-.3.2-.4v-.7l-.6.5-.5.5a1.4,1.4,0,0,0-.2.6h.5Z"/><path class="cls-6" d="M172.4,158.8v.2H172l.5-1.9-1-2.8h.1l.2-.2h.1l.8,2.3.8-3.2h.2l.2-.2h0c.1.1.1.1.1.2h0Z"/><polygon class="cls-6" points="134.1 188.1 137.2 186.3 135.7 190.2 134.1 188.1"/><path class="cls-20" d="M154.4,172.7l22.5-13c1.2-.7,2.2-.1,2.2,1.3v4.4a4.9,4.9,0,0,1-2.2,3.8l-22.5,13c-1.3.8-2.2.2-2.2-1.2v-4.5A4.6,4.6,0,0,1,154.4,172.7Z"/><path class="cls-6" d="M183.6,151.1h-.1v-5.3h.1l1.4-.8c.2-.1.4-.2.5-.1s.3,0,.3.1l.2.4a.9.9,0,0,1,.1.5.6.6,0,0,1-.1.4c0,.2-.1.3-.1.4s-.1.2-.1.3v.2l.3.3a1.4,1.4,0,0,1,.2.7c0,.2-.1.4-.1.6a6.4,6.4,0,0,1-.2.7,1,1,0,0,1-.4.5l-.5.5Zm.3-5v1.6l1-.6a1.2,1.2,0,0,0,.5-.5,1.4,1.4,0,0,0,.2-.6c0-.3-.1-.5-.2-.5s-.3-.1-.5.1Zm0,2.3v1.8l1.1-.6.3-.3.2-.3a.4.4,0,0,0,.1-.3.8.8,0,0,0,.1-.4.4.4,0,0,0-.1-.3c0-.1,0-.2-.1-.2H185Z"/><path class="cls-6" d="M187.3,144v.2h-.1l-.3.2h-.2v-.5h.1c0-.1,0-.1.1-.2h.4Zm0,4.8h-.1v.2h-.3v-4h.5Z"/><path class="cls-6" d="M189.4,143.7h.1v.3h0v.2h-.3a1.5,1.5,0,0,0-.6,1.3v2.3h-.1c0,.1,0,.1-.1.1v.2h-.1v-4h.4v.3a.8.8,0,0,1,.2-.5l.4-.4Z"/><path class="cls-6" d="M190.6,145.7v.4h.8v.2c0,.1,0,.2-.1.2h-.1l-.3.2q-.5.3-.6,0c-.2-.1-.2-.4-.2-.9v-2l-.4.2h-.1v-.3h0v-.2l.4-.2v-1.4a.1.1,0,0,1,.1-.1h.3V143l.7-.4h.1v.3h0c-.1.1-.1.1-.1.2l-.7.3Z"/><path class="cls-6" d="M194.3,144.7v.2h-.4v-2.1a1.3,1.3,0,0,0-.2-.8h-.6c-.2.1-.3.3-.5.6a3,3,0,0,0-.2,1v2.1h0v.2H192v-5.5h.4v1.8l.3-.6.5-.4c.2-.1.3-.2.5-.1h.3a.5.5,0,0,1,.2.4,1.5,1.5,0,0,1,.1.7Z"/><path class="cls-6" d="M197.6,142.8h0v.2h-.3v-2l-1.3-2.4h0v-.2h.5l.9,1.9.9-3v-.2h.5l-1.3,3.8Z"/><path class="cls-6" d="M198.9,139.9a2.2,2.2,0,0,1,.1-.8,1.9,1.9,0,0,1,.2-.7,1,1,0,0,1,.4-.5c.1-.2.3-.3.4-.4l.5-.2.4.2a.8.8,0,0,1,.2.5,1.9,1.9,0,0,1,.1.8v.2h0c-.1.1-.1.1-.1.2l-1.8,1h0a1,1,0,0,0,.2.7h.5a.8.8,0,0,0,.4-.4l.3-.4h.4a.4.4,0,0,1-.1.3c0,.2-.1.3-.2.5l-.3.4a1,1,0,0,1-.5.4h-.4l-.4-.2a.5.5,0,0,1-.2-.4,1.3,1.3,0,0,1-.1-.6A.8.8,0,0,1,198.9,139.9Zm.4-.3,1.4-.8h0c0-.3,0-.6-.2-.7H200l-.3.3-.2.3c0,.1-.1.3-.1.4a.9.9,0,0,0-.1.5Z"/><path class="cls-6" d="M201.6,139.7c0-.3.1-.4.1-.6s.1-.4.2-.6.2-.3.4-.4l.4-.4.7-.6h0a.6.6,0,0,0-.2-.5h-.4a.8.8,0,0,0-.4.4c0,.1-.1.2-.1.4h-.5v-.2a2,2,0,0,1,.3-.8l.3-.4a.5.5,0,0,1,.4-.3l.4-.2c.1,0,.3,0,.3.1l.3.4v3.2h-.4v-.4a.5.5,0,0,1-.2.4l-.2.3-.2.3-.3.2h-.6l-.2-.2A.8.8,0,0,1,201.6,139.7Zm1-.2.3-.2.3-.4c0-.2.1-.3.1-.5a.7.7,0,0,0,.1-.5v-.2l-.6.5-.5.6c-.2.1-.2.3-.2.5v.2h.5Z"/><path class="cls-6" d="M205.9,134.1h.1c.1.1.1.1.1.2v.4a.1.1,0,0,1-.1.1l-.3.2a1.2,1.2,0,0,0-.6,1.2v2.5h-.4v-3.9h.4v.3l.3-.5.4-.3Z"/><path class="cls-20" d="M185.2,154.9l22.6-13c1.2-.7,2.2-.1,2.2,1.3v4.4a4.9,4.9,0,0,1-2.2,3.8l-22.6,13.1c-1.2.7-2.2.1-2.2-1.3v-4.5A4.9,4.9,0,0,1,185.2,154.9Z"/><polygon class="cls-6" points="173.8 165.2 176.9 163.4 175.4 167.3 173.8 165.2"/><polygon class="cls-6" points="204.6 147.4 207.8 145.6 206.2 149.5 204.6 147.4"/><path class="cls-14" d="M160.4,285.2c.2-.1.4-.2.5-.1h.4l.3.3a.6.6,0,0,1,.1.4h-.5V286h-.7l-.3.2-.2.3-.2.4v.7h1.5l.4.2a.4.4,0,0,1,.1.3.7.7,0,0,1,.1.5,2,2,0,0,1-.1.7l-.3.6-.4.6-.6.4a.6.6,0,0,1-.5.2h-.4a.3.3,0,0,1-.3-.3.6.6,0,0,1-.1-.4V290h.4c.1.1.1.1.1.2h.5l.3-.2.4-.2a.5.5,0,0,0,.2-.4.5.5,0,0,0,.2-.4c.1-.1.1-.2.1-.4a.4.4,0,0,0-.1-.3h-1.5l-.3-.2-.2-.3v-.5a1.3,1.3,0,0,1,.1-.6,1.4,1.4,0,0,1,.2-.6,1,1,0,0,1,.4-.5A1.2,1.2,0,0,1,160.4,285.2Z"/><path class="cls-14" d="M162.2,288.7a1.3,1.3,0,0,1,.1-.6c0-.2.1-.3.2-.5l.3-.5a.8.8,0,0,0,.4-.4l.8-.6h0a.8.8,0,0,0-.2-.5h-.4l-.4.3a.8.8,0,0,1-.2.4h-.4a.6.6,0,0,1,.1-.4c0-.2.1-.3.2-.5l.3-.4.4-.3h.7l.2.3a1.5,1.5,0,0,1,.1.7v2.5a.1.1,0,0,1-.1.1H164v-.3l-.2.3a.8.8,0,0,1-.2.4l-.3.2-.2.2h-.7v-.3C162.2,289,162.2,288.9,162.2,288.7Zm.9-.1.4-.3a.5.5,0,0,0,.2-.4.8.8,0,0,0,.2-.4,4.3,4.3,0,0,1,.1-.5v-.2l-.6.5a1.2,1.2,0,0,0-.5.5.7.7,0,0,0-.2.6h0c0,.1,0,.1.1.1h.3Z"/><path class="cls-14" d="M166,287.5h-.1l-1-3h.1l.2-.2h.1c0,.1,0,.1.1.1l.7,2.4.8-3.3h.1c0-.1,0-.1.1-.1l.2-.2h.1v.2h0l-1,4.2v.2H166Z"/><path class="cls-14" d="M167.7,284.1c0-.2.1-.5.1-.7l.3-.7.3-.6.5-.4h.5l.3.2a1.1,1.1,0,0,1,.3.5c0,.2.1.4.1.7v.2a.3.3,0,0,1-.1.2c0,.1,0,.1-.1.1l-1.7,1h0a1.2,1.2,0,0,0,.2.7h.5a.8.8,0,0,0,.4-.4.5.5,0,0,0,.2-.4.1.1,0,0,0,.1-.1h.3v.2c0,.1-.1.2-.1.3l-.2.5-.3.4-.5.4h-.5l-.3-.2-.3-.4c0-.2-.1-.4-.1-.7Zm.5-.2,1.4-.8h0a.8.8,0,0,0-.2-.6h-.5l-.3.2c-.1.1-.1.2-.2.4l-.2.4v.5Z"/><path class="cls-11" d="M190.3,270.1v1.3a1.2,1.2,0,0,0,.3.9c.2.2.4.2.7,0l.4-.3.3-.4c0-.2.1-.3.1-.5s.1-.2.1-.4h.1c0-.1,0-.1.1-.1l.2-.2h.1a1.3,1.3,0,0,1-.1.6,2.4,2.4,0,0,1-.2.8l-.5.7a1.5,1.5,0,0,1-.6.5.7.7,0,0,1-.6.2l-.4-.2a.5.5,0,0,1-.3-.5,1.9,1.9,0,0,1-.1-.8,3.3,3.3,0,0,1,0-1.4,2.8,2.8,0,0,1,.1-.9,1.1,1.1,0,0,1,.3-.8,1.6,1.6,0,0,1,.4-.7l.6-.5a.8.8,0,0,1,.6-.2l.5.2a.8.8,0,0,1,.2.4,1.1,1.1,0,0,1,.1.5v.2h-.5a.4.4,0,0,0-.1-.3c0-.1-.1-.2-.1-.3s-.2-.1-.3,0h-.4a1.9,1.9,0,0,0-.7.8A2.7,2.7,0,0,0,190.3,270.1Z"/><path class="cls-11" d="M193.1,270.9a3.5,3.5,0,0,1,.1-.6c.1-.2.1-.4.2-.6s.2-.3.4-.4a.8.8,0,0,1,.4-.4l.7-.6h0a.6.6,0,0,0-.2-.5h-.4c-.2.1-.3.2-.3.4a.5.5,0,0,0-.2.4.1.1,0,0,0-.1.1h-.4v-.2a2,2,0,0,1,.3-.8l.3-.4a.5.5,0,0,1,.4-.3l.4-.2h.4c0,.1.1.2.2.4s.1.4.1.6v2.4a.3.3,0,0,0-.1.2h-.4v-.4a.8.8,0,0,1-.2.4c0,.1-.1.2-.2.3l-.2.3H194l-.3.2c-.2,0-.3,0-.3-.1l-.2-.2A.8.8,0,0,1,193.1,270.9Zm1-.2.3-.2.3-.4c0-.2.1-.3.1-.5a.7.7,0,0,0,.1-.5v-.2l-.6.5-.5.6a.8.8,0,0,0-.2.5v.2h.5Z"/><path class="cls-11" d="M198.4,268.6v.2H198v-2.1a1.3,1.3,0,0,0-.2-.8.4.4,0,0,0-.5,0,1,1,0,0,0-.5.6,1.6,1.6,0,0,0-.2,1v2.3a.1.1,0,0,1-.1.1h-.3v-3.9a.1.1,0,0,0,.1-.1h.4v.3a.8.8,0,0,1,.2-.5c.2-.2.3-.4.5-.5h.8l.3.4v2.9Z"/><path class="cls-11" d="M199.5,266.4a4.3,4.3,0,0,0,.1.5l.2.3h.4l.5-.4a1.4,1.4,0,0,0,.2-.6.3.3,0,0,0,.1-.2.1.1,0,0,1,.1-.1h.3a1.1,1.1,0,0,1-.1.5,1.7,1.7,0,0,1-.2.5,1,1,0,0,1-.4.5c-.1.2-.3.3-.5.5h-.5l-.3-.2-.3-.4v-.7a.4.4,0,0,1-.1-.3.4.4,0,0,1,.1-.3,2.5,2.5,0,0,1,.1-.8,2.5,2.5,0,0,1,.2-.7,1,1,0,0,1,.4-.5l.4-.5h.9l.2.3a.4.4,0,0,1,.1.3v.2h-.5c0-.2-.1-.3-.2-.3h-.5l-.2.2c-.1.1-.2.2-.2.3s-.2.3-.2.5-.1.4-.1.6Z"/><path class="cls-11" d="M201.9,264.4a1.7,1.7,0,0,1,.1-.7,1.4,1.4,0,0,1,.2-.7l.4-.6c.1-.2.3-.3.4-.4h.9c.1.2.2.3.2.5a2.2,2.2,0,0,1,.1.8v.4h-.1l-1.8,1h0a1.2,1.2,0,0,0,.2.7h.5l.5-.4c.1-.1.1-.3.2-.4s0-.1.1-.1h.3v.4l-.3.4c0,.2-.2.3-.3.5l-.5.3-.4.2-.4-.2a.5.5,0,0,1-.2-.4,1.5,1.5,0,0,1-.1-.7Zm.4-.2,1.5-.9h0a.8.8,0,0,0-.2-.6H203l-.2.2-.3.4c0,.1-.1.2-.1.4s-.1.3-.1.4Z"/><path class="cls-11" d="M205.3,264.6v.2H205c-.1.1-.1.1-.1,0s-.1,0-.1-.1v-5.1c0-.1,0-.1.1-.2a.1.1,0,0,1,.1-.1h.3Z"/></g></g><g id="Plants"><path class="cls-11" d="M69,399.2l8.4-4.8s5-20.8,3-39.4c-2.8-26.3-20.1-36.2-26.7-33.9s-8.5,9.9,2.4,25.5C62.5,355.9,70.4,375.1,69,399.2Z"/><g class="cls-21"><path class="cls-14" d="M69,399.2l8.4-4.8s5-20.8,3-39.4c-2.8-26.3-20.1-36.2-26.7-33.9s-8.5,9.9,2.4,25.5C62.5,355.9,70.4,375.1,69,399.2Z"/></g><path class="cls-14" d="M72.5,389h-.1a.5.5,0,0,1-.5-.6c4.6-24.3-3.8-51.5-14.3-62.8a.6.6,0,0,1,.8-.8c10.7,11.5,19.3,39.2,14.7,63.8C73,388.9,72.7,389.1,72.5,389Z"/><path class="cls-11" d="M47.9,411.4c-1.3.7-4.6-2.2-5.6-2.9a11.6,11.6,0,0,1-3.6-4.6,10.6,10.6,0,0,1-.6-6.6,19.1,19.1,0,0,1,1-3.4,33.8,33.8,0,0,1,1.1-3.4,8,8,0,0,0,.7-3.4c-.2-2.3-2.2-4-4-5.5s-4-3.8-3.9-6.6a11,11,0,0,1,2.8-5.7c1.4-1.6,3.1-3,4.4-4.7a7.3,7.3,0,0,0,1.6-4.3,9.2,9.2,0,0,0-.8-2.7,41.1,41.1,0,0,1-2.7-5.6c-.6-2-.4-4.4,1.2-5.7s3.2-1.1,4.9-.9a10.2,10.2,0,0,1,4.3,1.8c4.3,2.6,6.6,8,11.2,10.1a45.8,45.8,0,0,0,5.6,1.7c1.8.6,3.7,1.6,4.5,3.4,1.5,3.6-1.9,7.6-.8,11.3s3.9,4.7,5.5,7.7a6.4,6.4,0,0,1,.7,4.3,20.2,20.2,0,0,1-2.2,7,57.9,57.9,0,0,1-4.2,6.5Z"/><g class="cls-22"><path class="cls-14" d="M47.9,411.4c-1.3.7-4.6-2.2-5.6-2.9a11.6,11.6,0,0,1-3.6-4.6,10.6,10.6,0,0,1-.6-6.6,19.1,19.1,0,0,1,1-3.4,33.8,33.8,0,0,1,1.1-3.4,8,8,0,0,0,.7-3.4c-.2-2.3-2.2-4-4-5.5s-4-3.8-3.9-6.6a11,11,0,0,1,2.8-5.7c1.4-1.6,3.1-3,4.4-4.7a7.3,7.3,0,0,0,1.6-4.3,9.2,9.2,0,0,0-.8-2.7,41.1,41.1,0,0,1-2.7-5.6c-.6-2-.4-4.4,1.2-5.7s3.2-1.1,4.9-.9a10.2,10.2,0,0,1,4.3,1.8c4.3,2.6,6.6,8,11.2,10.1a45.8,45.8,0,0,0,5.6,1.7c1.8.6,3.7,1.6,4.5,3.4,1.5,3.6-1.9,7.6-.8,11.3s3.9,4.7,5.5,7.7a6.4,6.4,0,0,1,.7,4.3,20.2,20.2,0,0,1-2.2,7,57.9,57.9,0,0,1-4.2,6.5Z"/></g><path class="cls-14" d="M60,405.1h0a.6.6,0,0,1-.5-.6c2-21.8-7.1-46.4-14.2-53.8a.6.6,0,0,1,0-.8.5.5,0,0,1,.8.1c7.3,7.5,16.5,32.5,14.5,54.6A.6.6,0,0,1,60,405.1Z"/><path class="cls-14" d="M57.8,378.2h-.1A72.9,72.9,0,0,0,42,374.9c-.3-.1-.6-.3-.5-.6a.5.5,0,0,1,.6-.5,72.8,72.8,0,0,1,16,3.4.6.6,0,0,1,.3.7A.5.5,0,0,1,57.8,378.2Z"/></g><g id="Bean_Bag" data-name="Bean Bag"><path class="cls-11" d="M390.2,212.2c16.8,9.7,41.2,32.7,41.2,74.1s-19.6,72.2-57.1,86c-20.1,7.4-52.2,7.7-72.9.4-21-10.8-35.2-21.9-43-42-7.9-23.4,6.3-47.8,25.7-61.8s17-29.9,30.7-46.4c7.4-8.9,18.2-16.5,31.5-18S377.4,204.8,390.2,212.2Z"/><path class="cls-23" d="M390.2,212.2c16.8,9.7,41.2,32.7,41.2,74.1s-19.6,72.2-57.1,86c-20.1,7.4-52.2,7.7-72.9.4-21-10.8-35.2-21.9-43-42-7.9-23.4,6.3-47.8,25.7-61.8s17-29.9,30.7-46.4c7.4-8.9,18.2-16.5,31.5-18S377.4,204.8,390.2,212.2Z"/><path class="cls-24" d="M381.8,305.5s3.8-4.3,6.5-13.4c4.5-15.2,4.6-43.3-.2-57.6-6.9-20.6-35.9-21.6-35.9-21.6s-19.8-2.2-30.6,26-13.3,35.7-25.7,42.6c-5.2,2.8-11.3,4.1-16.1,7.5a22.6,22.6,0,0,0-3.4,34c3.5,3.7,8.2,6.4,10,11.1s.7,7.1,0,10.7-1.7,10-2.6,15.1l-.3,2.2a156.7,156.7,0,0,0,17.9,10.6,84.9,84.9,0,0,0,12.3,3.2c.7-5.4,1.6-10.7,2.8-16,.5-1.9,1.2-4.1,3-4.7s4.2,1.3,5.2,3.2,3.3,4.8,6.4,5.3,7.6-2.1,10-5.3c3.9-5.1,2.4-12.2.7-17.9a14.3,14.3,0,0,1-.6-7.9c1.5-5.4,10.2-7.5,14.7-9.5,6.6-3,13.1-5.9,19.8-8.6,19.7-7.9,31.8-2.2,31.8-2.2S396.1,302.7,381.8,305.5Z"/><path class="cls-24" d="M310.4,375.2a102.2,102.2,0,0,0,68.8-16.5c30.2-20.5,43.3-53,36.8-91.6-5.7-34.1-22.7-52.8-39.8-60.6a69,69,0,0,1,11,4.1c13.9,10.1,26.2,28.1,30.9,56.2,6.6,39.4-6.8,72.6-37.7,93.7A103.8,103.8,0,0,1,329,377.8,108.3,108.3,0,0,1,310.4,375.2Z"/></g><g id="Character"><g id="Character-2" data-name="Character"><path class="cls-25" d="M324,325.5c2.4,1.1,4.7-1.1,7.4.1a7.5,7.5,0,0,1,3.9,4.3,10.2,10.2,0,0,0,1.3,2.8l2.4,2.8a33.3,33.3,0,0,0,4.2,4.2c3.6,3.3,4.8,8.6,4.6,13.3-.2,2.5-1.2,3.2-2.3,5.5s-2.1,3.4-4,3.4-3.3-1.4-4.4-2.8-1-2.5-1.8-4.4-2-4.6-3.8-5.7-2.7-2.2-4-3.2l-7.3-6.2-.7-.6c-2.4-1.9-12.7-6.7-12.7-6.7l6.8-16.3Z"/><path class="cls-5" d="M332.1,325.1a4.7,4.7,0,0,1,3.4.6,14.7,14.7,0,0,1,2.6,5.5c.8,2.8,1.2,3.9,3,5.2a20.3,20.3,0,0,1,6,6.1,15.6,15.6,0,0,1,1.7,12.9c-1.7,5.5-3.5,6.7-4.9,7.4a9.7,9.7,0,0,1-3.9.3Z"/><path class="cls-4" d="M323,324.6l1,.9,1.6,1.4c2.1,2.3,1.7,7.3,1.6,8.7a3.2,3.2,0,0,0-2.5.7c-1.6,1.1-4.2,3.4-4,4.3s6.2,4.3,9.3,7.8,3.5,5.5,4.5,9,3,6.8,6.7,5.5c1.9-.7,6.6-4.6,6.5-13s-5.3-10.8-8.1-12.8-3.1-4.2-4.6-8c-.7-1.6-1.1-2.9-2.9-4s-4.9-.1-6.7-.3S323.4,323.8,323,324.6Z"/><path class="cls-5" d="M327.2,335.6a1.7,1.7,0,0,0,.1,1.2,3,3,0,0,0,.8.8l1.7,1.5c1.2,1,2.3,1.9,3.4,3s2.1,2.1,3.1,3.2a19.2,19.2,0,0,1,2.5,3.8,13.3,13.3,0,0,0-2.1-4.1,24.3,24.3,0,0,0-3-3.4,32.7,32.7,0,0,0-3.5-3l-1.9-1.3a2.7,2.7,0,0,1-.8-.7A1.5,1.5,0,0,1,327.2,335.6Z"/><path class="cls-1" d="M338.9,347.6c-1.9.4-6.1,3.1-6.1,5l.3.5a2.6,2.6,0,0,1-.9-1.4c-.3-.9,1.8-3.8,6.1-5.1C338.9,346.7,339.4,347.4,338.9,347.6Z"/><path class="cls-1" d="M336.5,344.5c-2,.4-5.9,2.7-5.9,4.6l.2.3s-.7-.1-.9-1.1,1.7-3.7,6-4.8C336.5,343.7,337.1,344.4,336.5,344.5Z"/><path class="cls-1" d="M333.8,341.6c-1.9.5-5.8,3.1-5.7,4.9l.4.4a1.8,1.8,0,0,1-1.1-.9c-.4-1,1.6-3.9,5.7-5.3C333.7,340.7,334.3,341.4,333.8,341.6Z"/><path class="cls-1" d="M331.3,339.3c-1.9.5-6,3.1-5.9,5l.4.3a1.8,1.8,0,0,1-1.2-.9c-.4-1,1.9-4,6.1-5.4C331.3,338.4,331.9,339.1,331.3,339.3Z"/><path class="cls-6" d="M327.8,271.1a4.5,4.5,0,0,1-3.1,2.7c-6.2,1.6-22.4,5.5-31.6,8.9-13.6,5-17.2,6.9-20.3,12.4a14.2,14.2,0,0,0-.8,12.4c1.1,3,5.4,8.7,13.5,13.4,12.8,7.5,20.4,11.7,28.2,15.4,0,0,7-7.4,7.7-13.8l-11.3-10.4,26.8-12.7,34.3-31.1Z"/><path class="cls-4" d="M309.6,310.3a16,16,0,0,0-6.8,10.3c-.5,2.2-1.2,6.1-1.7,9.2,4.6,2.6,8.6,4.6,12.6,6.5,0,0,7-7.4,7.7-13.8l-11.3-10.4,1.5-.7Z"/><path class="cls-4" d="M336.9,299.4l-7.4-22.8-2.8,5.1a32.9,32.9,0,0,0,2.7,11.2s-13.3,10-14.8,10.9c-5.5,3.5-6.3,3-9.4.7a13,13,0,0,0-11.5-1.8c7.7-.5,9.6,2.7,16.4,9.4l26.8-12.7Z"/><path class="cls-25" d="M313.1,382.3c.6,2.5,2.4,5.8,1.7,8.9a9.1,9.1,0,0,1-3.7,5.3,10.5,10.5,0,0,0-2.7,2l-2.4,3.2a37.3,37.3,0,0,0-3.5,4.6c-2.7,4.6-8,7.1-13.1,8a19.4,19.4,0,0,1-7.6-.1c-1.8-.4-4.1-1.5-4.6-3.5s.7-3.9,2-5.3,3.6-2.8,5.5-4.1a26.1,26.1,0,0,0,5.2-5.3c1.5-2.2,6.2-6.9,7.9-14.9.7-3.7,2.8-19.6,2.8-19.6l18.6,1S312.6,379.9,313.1,382.3Z"/><path class="cls-5" d="M315.5,391.9a6.2,6.2,0,0,1,.2,3.8,20.9,20.9,0,0,1-5.3,4.1c-2.8,1.5-3.9,2.1-4.9,4.3s-1.5,4.6-4.6,7.4-8,4.8-15.2,4.6-8.4-2.5-8.9-3.1a7.6,7.6,0,0,1-1.3-3.6Z"/><path class="cls-4" d="M313.3,380.7l-.3,2a3.9,3.9,0,0,1-1.1,2.5c-2.1,2.3-5.9,3.1-7.4,3.3a4.1,4.1,0,0,0-1.9-2.2c-2.9-1.6-6.1-2.3-7-1.9s-2.5,5.7-5.5,9.8-5.8,5.9-9.8,8.5c-2.4,1.6-6.5,4.3-4.2,7.9,1.1,1.9,7.2,4.6,16.1,2.6a16.7,16.7,0,0,0,12.3-10.4c1.5-3.4,3.7-4.3,7.3-6.8,1.6-1.1,3-1.9,3.7-4.1s-1.1-6.2-1.3-8.2S314.2,381,313.3,380.7Z"/><path class="cls-5" d="M304.5,388.5a2,2,0,0,0-1.9,1.5c-.4.7-1,1.9-1.6,2.8-2.9,4-5.7,7.8-9.5,11,4.3-2.6,7.2-6.4,9.8-10.6a20,20,0,0,0,1.7-3.1A1.9,1.9,0,0,1,304.5,388.5Z"/><path class="cls-1" d="M293.2,403c-1.8-3.1-5.7-4.5-7.7-4l-.4.4a2.6,2.6,0,0,1,1.2-1.3c1-.5,5.4-.2,7.8,4C294.1,402.8,293.5,403.5,293.2,403Z"/><path class="cls-1" d="M296.9,400c-1.5-2.9-6.1-4.5-8.1-4.2l-.3.4a1.6,1.6,0,0,1,1-1.3c1-.4,6.4.5,8.4,4.2C297.9,399.8,297.2,400.6,296.9,400Z"/><path class="cls-1" d="M299.7,396.5c-1.1-2.5-6.5-4.7-8.4-4.1l-.3.6a2,2,0,0,1,.7-1.5c1-.6,6.7.6,8.9,4.1C300.6,396.2,300,397,299.7,396.5Z"/><path class="cls-1" d="M301.5,393.3c-.9-2.8-6.5-4.5-8.5-3.9l-.4.6a1.9,1.9,0,0,1,.7-1.4c.9-.6,6.6-.4,9.1,3.7C302.4,393,301.8,393.8,301.5,393.3Z"/><path class="cls-6" d="M325.7,274.9l4.2-4.1,50.7,6.6c0,5-2,15.4-3.9,20.7s-4.2,10-15.7,16.1-25.2,12.4-28,14-5.6,3.2-5.9,10.4-3.8,16.8-6.2,23.2l-5.2,14.5c-2.1,2.7-14.4,2.2-17.6-1.7,0,0,4.6-42.9,6-50.5.9-4.2,1.7-8,6.7-12.7S332,292.9,332,292.9A32.6,32.6,0,0,1,325.7,274.9Z"/><path class="cls-4" d="M371.1,281.5c.5,10.5.8,16.9-13.5,24.2l-13.2,6.4c-12.9,6-21.7,12.5-22.4,17.3-.2,1.9-.4,4-.6,6.6a108.8,108.8,0,0,1-3.7,21.5c-1.9,7.1-3.5,12.3-5,17.1l1.3-.2c1.4-4.8,3-9.7,4.8-16.6a111.2,111.2,0,0,0,3.8-21.8c.2-2.5.4-4.6.6-6.4.6-4.2,10.1-11,21.7-16.5,4.4-2,8.9-4.1,13.2-6.3,15.1-7.7,14.7-14.7,14.1-25.3,0-1-.1-2.1-.1-3.2l-1.2-.2C371,279.3,371,280.4,371.1,281.5Z"/><path class="cls-4" d="M362.1,304.3c-.2-.1-4.4-3.3-2.4-11a44.8,44.8,0,0,0,1.4-17.9l1.1-.2a43.6,43.6,0,0,1-1.4,18.4c-1.8,6.9,2,9.7,2,9.7Z"/><path class="cls-4" d="M298.4,369.8c1.7,3,12.5,5.9,18.6,3.3l-1.8,5.3c-4.6,2.7-13.2,1.8-17.4-2.6Z"/><g id="Top"><g id="Arm"><path class="cls-25" d="M348.5,214.7a20.4,20.4,0,0,0-17.9,7.3c-4.7,5.6-12,13.5-18.1,21.4L291.6,238l-2.9,11.3s18,7.2,24.3,9.3,7.2-.2,11.1-3.4,15.6-14.5,15.6-14.5Z"/><path class="cls-11" d="M348.2,214.4c-4.9-.5-8.5.3-11.7,2.3s-5,3.6-11.7,11.6l-3.9,4.3s2.4,6.4,6.5,10,6.7,4.5,6.7,4.5l9.9-9.2Z"/><path class="cls-5" d="M359.9,216.1c7.3,1.2,10.7,2.2,19.5,5.8,1.9,2.1,3.7,10.7,3.1,19.5-.8,13.4.9,19.3-1,35.5a133.5,133.5,0,0,1-3,16.8c-16.5,3.3-52.8-8.5-53.5-20,2.7-3.3,4.1-12.6,7-36.7,1.7-14.3,10.6-23,16.2-22.6C351,214.6,355.2,215.3,359.9,216.1Z"/><path class="cls-5" d="M342.5,187.6a8.6,8.6,0,0,1-2.8-4.1,13.3,13.3,0,0,1-.4-5.6,6.2,6.2,0,0,1,.7-1.9,2.9,2.9,0,0,1,2.2-.9h1.5a10.8,10.8,0,0,1-2.1-3.4,6.1,6.1,0,0,1,.1-3,1.6,1.6,0,0,1,.4-.7,1.7,1.7,0,0,1,1.7-.1,34.1,34.1,0,0,0,10.9,1.6c2.9.1,4.4-.2,8.4-.2s11,2.2,11.7,9.8c5.3,1.3,5.3,10,3.5,13.5-3.3,6.5-6.3,10.7-8,15.4-.3-.2-17.5-11.8-21.4-15.1l-4.3-3.6Z"/><path class="cls-25" d="M375.8,203.3c-3.3,2.2-5.3-.2-5.3-.2l-.9,15.3c-7.2,8.1-24.9,5.5-16.7-2.7l.2-2.9a26.1,26.1,0,0,1-4.9-.5,8.4,8.4,0,0,1-2.7-1.3,8.8,8.8,0,0,1-3.6-5.5,42.6,42.6,0,0,1-.6-11.7c.3-4.7,1.2-10.8,2.9-13.9s11.4-1.9,18.4.6c0,1.8-.3,3.3,1,5.3a7.7,7.7,0,0,0,2.5,2.3c0,3.5.1,4.4.6,6s.9,2.2,2.7,1.7,1.6-2,2.5-3.2,4.9-2,6.4,1.6S378.1,201.9,375.8,203.3Z"/><path class="cls-26" d="M353.1,212.8c3.6-.1,10-1,12-3.1s3.8-7,3.8-7-1.1,5.6-2.7,8-4.7,3.1-7,3.7a43.2,43.2,0,0,1-6.2.6Z"/><path class="cls-5" d="M356.4,189.6l3.7-.5a1.8,1.8,0,0,0-2.1-1.6A1.7,1.7,0,0,0,356.4,189.6Z"/><path class="cls-5" d="M348,186.5l-3.6,1.1a2,2,0,0,1,1.3-2.4A1.9,1.9,0,0,1,348,186.5Z"/><path class="cls-27" d="M356.3,202.1l-4,1.2a2.3,2.3,0,0,0,2.7,1.4A2,2,0,0,0,356.3,202.1Z"/><path class="cls-28" d="M356.1,202.9a2,2,0,0,0-2.2,1.8,2,2,0,0,0,2.5-1.8Z"/><polygon class="cls-26" points="353.6 189 351.8 200.1 346.1 197.3 353.6 189"/><path class="cls-5" d="M359.3,193.2a1.5,1.5,0,0,1-1.6,1.4,1.5,1.5,0,0,1-1.5-1.6,1.5,1.5,0,0,1,1.6-1.4A1.5,1.5,0,0,1,359.3,193.2Z"/><path class="cls-5" d="M347.7,192a1.6,1.6,0,1,1-1.5-1.6A1.6,1.6,0,0,1,347.7,192Z"/></g><g id="Tablet"><path class="cls-6" d="M277,217.1h-.1l1.5-.9h0a1.4,1.4,0,0,1,1.3,0L315.9,231a5.3,5.3,0,0,1,2.7,3.3l6.4,29.8a1.2,1.2,0,0,1-.3,1.4h0l-1.5,1h0a1.4,1.4,0,0,1-1.3,0l-36.2-14.8a5.2,5.2,0,0,1-2.7-3.3c-1.3-5.9-5.2-24-6.5-29.8C276.4,217.8,276.6,217.3,277,217.1Z"/><path class="cls-5" d="M315.9,232.9a5.9,5.9,0,0,1,1.3,2.3l6.4,29.8a1.2,1.2,0,0,1-.3,1.4l1.4-.9h0a1.2,1.2,0,0,0,.3-1.4l-6.4-29.8a4.4,4.4,0,0,0-1.2-2.2Z"/><path class="cls-4" d="M323.6,265l-6.4-29.8a5.1,5.1,0,0,0-2.7-3.2l-36.2-14.9c-1.3-.5-2,.2-1.8,1.5,1.3,5.8,5.2,23.9,6.5,29.8a5.2,5.2,0,0,0,2.7,3.3l36.2,14.8C323.1,267,323.9,266.3,323.6,265Z"/><path class="cls-6" d="M314.5,232l-8.5-3.4-8.4-3.4-16.8-6.8-2.1-.9-1-.3c-.4-.1-.7,0-.8.3s-.1,1.3,0,2l.5,2.2,1.9,8.9,1.9,8.9,1.8,8.9-2.1-8.9-1.9-8.8-2-8.9-.4-2.2-.3-1.1a1.5,1.5,0,0,1,.2-1.3,1.1,1.1,0,0,1,1.2-.4,4.2,4.2,0,0,1,1.2.3l2.1.9,16.7,6.9,8.4,3.5Z"/><path class="cls-6" d="M316.5,241.2l-1.2-5.6a1.2,1.2,0,0,0-.6-.6l-2.4-1c-.3-.1-.4,0-.4.3s1,4.5,1.2,5.6a1.5,1.5,0,0,0,.5.6l2.5,1C316.4,241.6,316.5,241.5,316.5,241.2Z"/><path class="cls-5" d="M315,236.9a2.4,2.4,0,0,0-1.3-1.5c-.6-.3-1,0-.9.6a2.2,2.2,0,0,0,1.3,1.5C314.7,237.8,315.1,237.5,315,236.9Z"/><path class="cls-5" d="M315.5,239.7a2.2,2.2,0,0,0-1.3-1.5c-.6-.2-.9,0-.8.6a2.6,2.6,0,0,0,1.3,1.6C315.3,240.6,315.7,240.3,315.5,239.7Z"/><path class="cls-25" d="M277.8,236.2c-1.2-1.9-1.1-2.1-.3-3a5.6,5.6,0,0,1,4.6-2c1.6.1,3.1.1,3.9.6s0,2.1-2,2.4-3.3,1.5-3.3,1.5l4.2-.6a27.2,27.2,0,0,1,4.6,1c1.4.3,1.5,2-.8,2.5l2.5.5c1.7.4,2.2,1.3.8,2.3a2.2,2.2,0,0,1-1.6.5s1.9.1,1.9.8-1.2,2.1-5,3-4.4,2.7-3.7,4.1l-2.6-1.9c-.9-.7-1.7-1.5-1.2-2.9s-2,0-2.1-1.3a8,8,0,0,1,.6-2.7,2.2,2.2,0,0,1-1-2.1,4,4,0,0,1,.9-2.2Z"/><path class="cls-26" d="M288.7,238.6l-2.2-.4a14.1,14.1,0,0,0-2.2.6,29.3,29.3,0,0,0-4,1.9,29.2,29.2,0,0,0,4.2-1.3l2-.6Z"/><path class="cls-26" d="M290.4,241.9a6.3,6.3,0,0,0-2.4-.2l-2.3.7a17.5,17.5,0,0,0-4.4,2l4.6-1.4A14.1,14.1,0,0,1,290.4,241.9Z"/></g><g id="Arm-2" data-name="Arm"><path class="cls-26" d="M353.1,246.3c-2.9-2.4-4.4-3.4-5.8-3.9s-6.3-2.9-8.2-3.5-1.8,1.5-.3,3,4.1,2.6,5.4,3.4a27.9,27.9,0,0,1,3.8,4.3Z"/><path class="cls-25" d="M392.1,233.2c-2.6-6.6-5.2-8.6-12-10.9-7.3,6.3-3.2,23.8-3.2,23.8l4.3,18.4s-14.8-5.1-16.7-6.5-7.2-7.8-9-9.7-3.6-2.3-4.9-2.2c-4.3.3-5.2.6-6.1,1.1a2,2,0,0,0-1,1.6c-1.1.1-2.8,0-3.1,1.8a12.3,12.3,0,0,0-.2,1.5,1.1,1.1,0,0,0-.7.3c-1,1.1.4,4.9,1.3,5.9a4,4,0,0,0,3,.7c1.2-.1.7-1.3.7-1.3l1.6.2c3.3,2.7,3.2,7.5,7.6,8.8a29.3,29.3,0,0,1,5.5,1.5c9.5,3.8,21.8,14.8,30.4,16.1s9.5-3.7,9.5-8.9C399,267.1,394.7,239.8,392.1,233.2Z"/><path class="cls-26" d="M380.7,262.2l.5,2.3c3.8,1.2,7.8,4.3,8.6,6.4C389.3,267.5,387.4,264.4,380.7,262.2Z"/><path class="cls-26" d="M343.5,248.8h5.4l-5.2-.5A1.4,1.4,0,0,0,343.5,248.8Z"/><path class="cls-26" d="M340.2,252.1l5.9-.4-5.8-.3A1.5,1.5,0,0,0,340.2,252.1Z"/><path class="cls-26" d="M340.8,254.6a2,2,0,0,0,.8.8l.9.4h0l.4.9h.1a1.4,1.4,0,0,0-.9.1,1.4,1.4,0,0,0-.5.8.9.9,0,0,1,.6-.6,1.1,1.1,0,0,1,.8-.1h.2v-.2l-.4-.9h-.1l-.9-.4A2.4,2.4,0,0,1,340.8,254.6Z"/><path class="cls-26" d="M342.3,255.5l2.1.3s0,.4.7,1.1a8.8,8.8,0,0,0,1,1l-1.6-.2s-.3-.7-1.7-1.1Z"/></g><path class="cls-11" d="M379.4,221.9c4.8,1.5,8.2,2.9,10.5,6s3,6.4,4.5,12.2a112,112,0,0,1,2.4,11.2s-1.5,2.7-7.2,4.1a26.8,26.8,0,0,1-11.2-.1s-2.4-9.9-3.2-13.6S373.2,227,379.4,221.9Z"/></g></g></g></g></svg>