<svg width="27" height="29" viewBox="0 0 27 29" fill="none" xmlns="http://www.w3.org/2000/svg">
<path d="M9.4353 8.36719H23.5048C24.5896 8.36719 25.4694 9.24672 25.4694 10.3319V26.5048C25.4694 27.5898 24.5899 28.4695 23.5048 28.4695H14.2431L9.4353 8.36719Z" fill="white"/>
<path d="M18.3396 23.6328L14.243 28.4692L12.6338 23.6328H18.3396Z" fill="#824FB5"/>
<path d="M18.3396 23.6329H2.49514C1.41025 23.6329 0.530518 22.7533 0.530518 21.6681V5.49544C0.530518 4.4105 1.41005 3.53076 2.49514 3.53076H11.757L18.3396 23.6329Z" fill="#380F63"/>
<path fill-rule="evenodd" clip-rule="evenodd" d="M23.5048 7.83641H13.7255L12.2614 3.36547C12.19 3.14747 11.9865 3 11.7571 3H2.49524C1.11937 3 0 4.11937 0 5.49529V21.668C0 23.0439 1.11937 24.1633 2.49524 24.1633H12.2511L13.7395 28.6369C13.8116 28.8536 14.0145 28.9999 14.243 28.9999H23.5047C24.8806 29 26 27.8806 26 26.5047V10.3318C26 8.95588 24.8806 7.83641 23.5048 7.83641ZM1.06123 21.668V5.49529C1.06123 4.70457 1.70452 4.06123 2.49524 4.06123H11.3725L17.6076 23.1022H2.49524C1.70452 23.1021 1.06123 22.4588 1.06123 21.668ZM17.8318 20.3766L17.9775 20.8216L18.8332 23.4347C18.8578 23.4959 18.8713 23.5628 18.8713 23.6328C18.8713 23.7687 18.8197 23.8924 18.7356 23.9863L15.3876 27.9388H23.5048C24.2955 27.9388 24.9388 27.2954 24.9388 26.5047L24.9387 10.3317C24.9387 9.54098 24.2954 8.89763 23.5047 8.89763H14.0729L16.1553 15.2571L16.1908 15.3655L17.8318 20.3766ZM13.3696 24.1633H17.1948L14.4484 27.4057L13.3696 24.1633Z" fill="#CE79CC"/>
<path d="M8.802 19.516C8.298 19.516 7.77533 19.4553 7.234 19.334C6.69267 19.222 6.18867 19.0213 5.722 18.732C5.25533 18.452 4.87267 18.0693 4.574 17.584C4.28467 17.108 4.14 16.506 4.14 15.778C4.14 15.106 4.27533 14.476 4.546 13.888C4.81667 13.3 5.19933 12.768 5.694 12.292C6.198 11.816 6.79067 11.4147 7.472 11.088C8.15333 10.7613 8.90467 10.528 9.726 10.388L10.02 11.48C9.33867 11.6013 8.70867 11.7833 8.13 12.026C7.55133 12.2687 7.04733 12.5673 6.618 12.922C6.198 13.2673 5.87133 13.664 5.638 14.112C5.40467 14.5693 5.288 15.0687 5.288 15.61C5.288 16.0487 5.36267 16.4267 5.512 16.744C5.66133 17.0613 5.85733 17.3227 6.1 17.528C6.352 17.7427 6.632 17.9107 6.94 18.032C7.248 18.1533 7.56067 18.2373 7.878 18.284C8.20467 18.34 8.51267 18.368 8.802 18.368C9.29667 18.368 9.80067 18.3213 10.314 18.228C10.8273 18.144 11.294 18.0133 11.714 17.836L12.078 18.816C11.854 18.928 11.5553 19.0353 11.182 19.138C10.818 19.25 10.426 19.3387 10.006 19.404C9.586 19.4787 9.18467 19.516 8.802 19.516ZM6.492 12.096C6.11867 12.0027 5.78267 11.8347 5.484 11.592C5.18533 11.3493 4.94733 11.06 4.77 10.724C4.602 10.388 4.518 10.0333 4.518 9.66C4.518 9.072 4.65333 8.582 4.924 8.19C5.204 7.798 5.55867 7.504 5.988 7.308C6.42667 7.112 6.88867 7.014 7.374 7.014C7.58867 7.014 7.81733 7.03267 8.06 7.07C8.30267 7.10733 8.536 7.16333 8.76 7.238L8.522 8.316C8.33533 8.26933 8.13933 8.232 7.934 8.204C7.72867 8.176 7.542 8.162 7.374 8.162C7.038 8.162 6.73933 8.22267 6.478 8.344C6.21667 8.46533 6.01133 8.63333 5.862 8.848C5.71267 9.05333 5.638 9.296 5.638 9.576C5.638 9.828 5.708 10.0567 5.848 10.262C5.99733 10.458 6.184 10.6307 6.408 10.78C6.632 10.92 6.86067 11.0273 7.094 11.102C7.32733 11.1673 7.53267 11.1953 7.71 11.186L6.492 12.096Z" fill="white"/>
<path d="M18.0568 21V12.2727H23.3239V13.2102H19.1136V16.1591H23.0511V17.0966H19.1136V20.0625H23.392V21H18.0568Z" fill="#380F63"/>
</svg>
