<svg width="26" height="26" viewBox="0 0 26 26" fill="none" xmlns="http://www.w3.org/2000/svg">
<path d="M9.4353 5.36719H23.5048C24.5896 5.36719 25.4694 6.24672 25.4694 7.33186V23.5048C25.4694 24.5898 24.5899 25.4695 23.5048 25.4695H14.2431L9.4353 5.36719Z" fill="white"/>
<path d="M18.3396 20.6328L14.243 25.4692L12.6338 20.6328H18.3396Z" fill="#824FB5"/>
<path d="M18.3396 20.6329H2.49514C1.41025 20.6329 0.530518 19.7533 0.530518 18.6681V2.49544C0.530518 1.4105 1.41005 0.530762 2.49514 0.530762H11.757L18.3396 20.6329Z" fill="#380F63"/>
<path fill-rule="evenodd" clip-rule="evenodd" d="M23.5048 4.83641H13.7255L12.2614 0.365473C12.19 0.147469 11.9865 0 11.7571 0H2.49524C1.11937 0 0 1.11937 0 2.49529V18.668C0 20.0439 1.11937 21.1633 2.49524 21.1633H12.2511L13.7395 25.6369C13.8116 25.8536 14.0145 25.9999 14.243 25.9999H23.5047C24.8806 26 26 24.8806 26 23.5047V7.3318C26 5.95588 24.8806 4.83641 23.5048 4.83641ZM1.06123 18.668V2.49529C1.06123 1.70457 1.70452 1.06123 2.49524 1.06123H11.3725L17.6076 20.1022H2.49524C1.70452 20.1021 1.06123 19.4588 1.06123 18.668ZM17.8318 17.3766L17.9775 17.8216L18.8332 20.4347C18.8578 20.4959 18.8713 20.5628 18.8713 20.6328C18.8713 20.7687 18.8197 20.8924 18.7356 20.9863L15.3876 24.9388H23.5048C24.2955 24.9388 24.9388 24.2954 24.9388 23.5047L24.9387 7.3317C24.9387 6.54098 24.2954 5.89763 23.5047 5.89763H14.0729L16.1553 12.2571L16.1908 12.3655L17.8318 17.3766ZM13.3696 21.1633H17.1948L14.4484 24.4057L13.3696 21.1633Z" fill="#CE79CC"/>
<path d="M21.773 19.334C21.377 19.334 20.9663 19.2863 20.541 19.191C20.1157 19.103 19.7197 18.9453 19.353 18.718C18.9863 18.498 18.6857 18.1973 18.451 17.816C18.2237 17.442 18.11 16.969 18.11 16.397C18.11 15.869 18.2163 15.374 18.429 14.912C18.6417 14.45 18.9423 14.032 19.331 13.658C19.727 13.284 20.1927 12.9687 20.728 12.712C21.2633 12.4553 21.8537 12.272 22.499 12.162L22.73 13.02C22.1947 13.1153 21.6997 13.2583 21.245 13.449C20.7903 13.6397 20.3943 13.8743 20.057 14.153C19.727 14.4243 19.4703 14.736 19.287 15.088C19.1037 15.4473 19.012 15.8397 19.012 16.265C19.012 16.6097 19.0707 16.9067 19.188 17.156C19.3053 17.4053 19.4593 17.6107 19.65 17.772C19.848 17.9407 20.068 18.0727 20.31 18.168C20.552 18.2633 20.7977 18.3293 21.047 18.366C21.3037 18.41 21.5457 18.432 21.773 18.432C22.1617 18.432 22.5577 18.3953 22.961 18.322C23.3643 18.256 23.731 18.1533 24.061 18.014L24.347 18.784C24.171 18.872 23.9363 18.9563 23.643 19.037C23.357 19.125 23.049 19.1947 22.719 19.246C22.389 19.3047 22.0737 19.334 21.773 19.334ZM19.958 13.504C19.6647 13.4307 19.4007 13.2987 19.166 13.108C18.9313 12.9173 18.7443 12.69 18.605 12.426C18.473 12.162 18.407 11.8833 18.407 11.59C18.407 11.128 18.5133 10.743 18.726 10.435C18.946 10.127 19.2247 9.896 19.562 9.742C19.9067 9.588 20.2697 9.511 20.651 9.511C20.8197 9.511 20.9993 9.52567 21.19 9.555C21.3807 9.58433 21.564 9.62833 21.74 9.687L21.553 10.534C21.4063 10.4973 21.2523 10.468 21.091 10.446C20.9297 10.424 20.783 10.413 20.651 10.413C20.387 10.413 20.1523 10.4607 19.947 10.556C19.7417 10.6513 19.5803 10.7833 19.463 10.952C19.3457 11.1133 19.287 11.304 19.287 11.524C19.287 11.722 19.342 11.9017 19.452 12.063C19.5693 12.217 19.716 12.3527 19.892 12.47C20.068 12.58 20.2477 12.6643 20.431 12.723C20.6143 12.7743 20.7757 12.7963 20.915 12.789L19.958 13.504Z" fill="#380F63"/>
<path d="M4.23295 16V5.81818H10.3778V6.91193H5.46591V10.3523H10.0597V11.446H5.46591V14.9062H10.4574V16H4.23295Z" fill="white"/>
</svg>
