<svg xmlns="http://www.w3.org/2000/svg" xmlns:xlink="http://www.w3.org/1999/xlink" viewBox="0 0 429.2 416.9"><defs><style>.cls-1{isolation:isolate;}.cls-2{fill:url(#New_Gradient_Swatch_copy_3);}.cls-3{fill:url(#linear-gradient);}.cls-4{fill:url(#New_Gradient_Swatch_copy_11);}.cls-5{fill:url(#New_Gradient_Swatch_copy_11-2);}.cls-13,.cls-6{fill:#fff;}.cls-101,.cls-6,.cls-87,.cls-89,.cls-9,.cls-93{opacity:0.3;}.cls-108,.cls-110,.cls-7,.cls-96,.cls-98{opacity:0.5;}.cls-101,.cls-108,.cls-110,.cls-113,.cls-12,.cls-30,.cls-35,.cls-38,.cls-39,.cls-41,.cls-42,.cls-46,.cls-50,.cls-51,.cls-52,.cls-53,.cls-55,.cls-56,.cls-57,.cls-61,.cls-64,.cls-66,.cls-68,.cls-7,.cls-70,.cls-72,.cls-74,.cls-76,.cls-78,.cls-80,.cls-82,.cls-85,.cls-87,.cls-89,.cls-9,.cls-93,.cls-96,.cls-98{mix-blend-mode:multiply;}.cls-7{fill:url(#linear-gradient-2);}.cls-8,.cls-9{fill:url(#New_Gradient_Swatch_copy_2);}.cls-10{fill:url(#New_Gradient_Swatch_copy_11-3);}.cls-11,.cls-12{fill:url(#New_Gradient_Swatch);}.cls-12{opacity:0.7;}.cls-14,.cls-55,.cls-56,.cls-57,.cls-83,.cls-90,.cls-91,.cls-94{fill:none;stroke-linecap:round;}.cls-14{stroke:#fff;}.cls-14,.cls-55,.cls-56,.cls-57{stroke-linejoin:round;}.cls-15{fill:url(#linear-gradient-3);}.cls-16{fill:url(#linear-gradient-4);}.cls-17{fill:url(#linear-gradient-5);}.cls-18{fill:url(#linear-gradient-6);}.cls-19{fill:url(#linear-gradient-7);}.cls-20{fill:url(#linear-gradient-8);}.cls-21{fill:url(#linear-gradient-9);}.cls-22{fill:url(#linear-gradient-10);}.cls-23{fill:url(#linear-gradient-11);}.cls-24{fill:url(#linear-gradient-12);}.cls-25{fill:url(#linear-gradient-13);}.cls-26{fill:url(#linear-gradient-14);}.cls-27{fill:url(#linear-gradient-15);}.cls-28{fill:url(#New_Gradient_Swatch_copy_2-3);}.cls-29{fill:url(#New_Gradient_Swatch-3);}.cls-30,.cls-39,.cls-41,.cls-42,.cls-46,.cls-50,.cls-51,.cls-52,.cls-53,.cls-55,.cls-56,.cls-57,.cls-61,.cls-64,.cls-66,.cls-68,.cls-70,.cls-72,.cls-74,.cls-76,.cls-78,.cls-80,.cls-82,.cls-85{opacity:0.4;}.cls-30{fill:url(#New_Gradient_Swatch_copy_2-4);}.cls-31{fill:url(#New_Gradient_Swatch-4);}.cls-32{fill:url(#New_Gradient_Swatch_copy_2-5);}.cls-33{fill:url(#linear-gradient-16);}.cls-34{fill:url(#New_Gradient_Swatch_copy_11-4);}.cls-35,.cls-38{opacity:0.6;}.cls-35{fill:url(#New_Gradient_Swatch_copy_11-5);}.cls-36{fill:url(#New_Gradient_Swatch_copy_11-6);}.cls-37{fill:url(#New_Gradient_Swatch_copy_3-2);}.cls-38{fill:url(#New_Gradient_Swatch_copy_11-7);}.cls-39{fill:url(#New_Gradient_Swatch_copy_3-3);}.cls-40{fill:url(#New_Gradient_Swatch_copy_3-4);}.cls-41{fill:url(#New_Gradient_Swatch_copy_2-6);}.cls-42{fill:url(#New_Gradient_Swatch_copy_3-5);}.cls-43{fill:url(#New_Gradient_Swatch_copy_2-7);}.cls-44{fill:url(#linear-gradient-17);}.cls-45{fill:url(#New_Gradient_Swatch_copy_5);}.cls-46{fill:url(#New_Gradient_Swatch_copy_5-2);}.cls-47{fill:url(#New_Gradient_Swatch_copy_5-3);}.cls-48{fill:url(#New_Gradient_Swatch-5);}.cls-49{fill:url(#New_Gradient_Swatch_copy_5-4);}.cls-50{fill:url(#New_Gradient_Swatch_copy_5-5);}.cls-51{fill:url(#New_Gradient_Swatch_copy_5-6);}.cls-52{fill:url(#linear-gradient-18);}.cls-53{fill:url(#New_Gradient_Swatch_copy_6);}.cls-54{fill:url(#New_Gradient_Swatch_copy_3-6);}.cls-55{stroke:url(#New_Gradient_Swatch_copy_5-7);}.cls-56{stroke:url(#New_Gradient_Swatch_copy_5-8);}.cls-57{stroke:url(#New_Gradient_Swatch_copy_5-9);}.cls-58{fill:#202020;}.cls-59{fill:url(#New_Gradient_Swatch_copy_3-7);}.cls-60{fill:url(#New_Gradient_Swatch_copy_3-8);}.cls-61{fill:url(#New_Gradient_Swatch_copy_3-9);}.cls-62{fill:url(#New_Gradient_Swatch_copy_4);}.cls-63{fill:url(#New_Gradient_Swatch_copy_2-8);}.cls-64{fill:url(#New_Gradient_Swatch_copy_2-9);}.cls-65{fill:url(#New_Gradient_Swatch_copy_2-10);}.cls-66{fill:url(#New_Gradient_Swatch_copy_2-11);}.cls-67{fill:url(#New_Gradient_Swatch_copy_2-12);}.cls-68{fill:url(#New_Gradient_Swatch_copy_2-13);}.cls-69{fill:url(#New_Gradient_Swatch_copy_2-14);}.cls-70{fill:url(#New_Gradient_Swatch_copy_2-15);}.cls-71{fill:url(#New_Gradient_Swatch_copy_2-16);}.cls-72{fill:url(#New_Gradient_Swatch_copy_2-17);}.cls-73{fill:url(#New_Gradient_Swatch_copy_2-18);}.cls-74{fill:url(#New_Gradient_Swatch_copy_2-19);}.cls-75{fill:url(#New_Gradient_Swatch_copy_2-20);}.cls-76{fill:url(#New_Gradient_Swatch_copy_2-21);}.cls-77{fill:url(#New_Gradient_Swatch_copy_2-22);}.cls-78{fill:url(#New_Gradient_Swatch_copy_2-23);}.cls-79{fill:url(#New_Gradient_Swatch_copy_2-24);}.cls-80{fill:url(#New_Gradient_Swatch_copy_2-25);}.cls-81{fill:url(#New_Gradient_Swatch_copy_2-26);}.cls-82{fill:url(#New_Gradient_Swatch_copy_2-27);}.cls-83{stroke:#e9a2cc;stroke-width:2px;}.cls-83,.cls-90,.cls-91,.cls-94{stroke-miterlimit:10;}.cls-84{fill:url(#New_Gradient_Swatch_copy_2-28);}.cls-85{fill:url(#New_Gradient_Swatch_copy_2-29);}.cls-86{fill:url(#linear-gradient-19);}.cls-87{fill:url(#linear-gradient-20);}.cls-88{fill:url(#linear-gradient-21);}.cls-89{fill:url(#linear-gradient-22);}.cls-90{stroke:url(#linear-gradient-23);}.cls-91{stroke:url(#linear-gradient-24);}.cls-92{fill:url(#linear-gradient-25);}.cls-93{fill:url(#linear-gradient-26);}.cls-94{stroke:url(#linear-gradient-27);}.cls-95{fill:url(#New_Gradient_Swatch_copy_3-10);}.cls-96{fill:url(#New_Gradient_Swatch_copy_3-11);}.cls-97{fill:url(#linear-gradient-28);}.cls-98{fill:url(#linear-gradient-29);}.cls-99{fill:url(#New_Gradient_Swatch_copy_3-12);}.cls-100{fill:url(#linear-gradient-30);}.cls-101{fill:url(#New_Gradient_Swatch_copy_3-13);}.cls-102{fill:url(#New_Gradient_Swatch_copy_2-30);}.cls-103{fill:url(#linear-gradient-31);}.cls-104{fill:url(#linear-gradient-32);}.cls-105{fill:url(#linear-gradient-33);}.cls-106{fill:#252725;}.cls-107{fill:url(#New_Gradient_Swatch_copy_4-2);}.cls-108{fill:url(#New_Gradient_Swatch_copy_4-3);}.cls-109{fill:url(#linear-gradient-34);}.cls-110{fill:url(#linear-gradient-35);}.cls-111{fill:url(#New_Gradient_Swatch_copy_2-31);}.cls-112,.cls-113{fill:#e4ecf8;}</style><linearGradient id="New_Gradient_Swatch_copy_3" x1="380.13" y1="319.99" x2="380.13" y2="383.53" gradientUnits="userSpaceOnUse"><stop offset="0" stop-color="#773850"/><stop offset="1" stop-color="#e48282"/></linearGradient><linearGradient id="linear-gradient" x1="331.1" y1="257.22" x2="429.16" y2="257.22" gradientUnits="userSpaceOnUse"><stop offset="0" stop-color="#d73591"/><stop offset="1" stop-color="#db62b1"/></linearGradient><linearGradient id="New_Gradient_Swatch_copy_11" x1="380.13" y1="317.23" x2="380.13" y2="320.46" gradientUnits="userSpaceOnUse"><stop offset="0" stop-color="#eec1b7"/><stop offset="1" stop-color="#f2d5d1"/></linearGradient><linearGradient id="New_Gradient_Swatch_copy_11-2" x1="380.13" y1="326.45" x2="380.13" y2="329.68" xlink:href="#New_Gradient_Swatch_copy_11"/><linearGradient id="linear-gradient-2" x1="340.86" y1="257.22" x2="419.39" y2="257.22" xlink:href="#linear-gradient"/><linearGradient id="New_Gradient_Swatch_copy_2" y1="408.83" x2="420.4" y2="408.83" gradientUnits="userSpaceOnUse"><stop offset="0" stop-color="#eec1b7"/><stop offset="1" stop-color="#e9a2cc"/></linearGradient><linearGradient id="New_Gradient_Swatch_copy_11-3" x1="482.87" y1="1650.27" x2="217.45" y2="1395.7" gradientTransform="translate(-796.1 -861.4) rotate(-33.9)" xlink:href="#New_Gradient_Swatch_copy_11"/><linearGradient id="New_Gradient_Swatch" x1="75.93" y1="34.7" x2="214.87" y2="34.7" gradientUnits="userSpaceOnUse"><stop offset="0" stop-color="#7f54b3"/><stop offset="1" stop-color="#b443e0"/></linearGradient><linearGradient id="linear-gradient-3" x1="177.91" y1="102.04" x2="262.31" y2="237.09" gradientUnits="userSpaceOnUse"><stop offset="0" stop-color="#fff"/><stop offset="1" stop-color="#f2d5d1"/></linearGradient><linearGradient id="linear-gradient-4" x1="144.1" y1="123.17" x2="228.51" y2="258.22" xlink:href="#linear-gradient-3"/><linearGradient id="linear-gradient-5" x1="216.51" y1="77.91" x2="300.91" y2="212.96" xlink:href="#linear-gradient-3"/><linearGradient id="linear-gradient-6" x1="234.82" y1="66.48" x2="319.22" y2="201.52" xlink:href="#linear-gradient-3"/><linearGradient id="linear-gradient-7" x1="124.93" y1="135.15" x2="209.33" y2="270.2" xlink:href="#linear-gradient-3"/><linearGradient id="linear-gradient-8" x1="199.84" y1="88.33" x2="284.24" y2="223.38" xlink:href="#linear-gradient-3"/><linearGradient id="linear-gradient-9" x1="91.58" y1="155.99" x2="175.99" y2="291.04" xlink:href="#linear-gradient-3"/><linearGradient id="linear-gradient-10" x1="164.59" y1="110.37" x2="248.99" y2="245.41" xlink:href="#linear-gradient-3"/><linearGradient id="linear-gradient-11" x1="106.38" y1="146.74" x2="190.79" y2="281.79" xlink:href="#linear-gradient-3"/><linearGradient id="linear-gradient-12" x1="179.73" y1="100.9" x2="264.14" y2="235.95" xlink:href="#linear-gradient-3"/><linearGradient id="linear-gradient-13" x1="154.58" y1="116.62" x2="238.98" y2="251.66" xlink:href="#linear-gradient-3"/><linearGradient id="linear-gradient-14" x1="147.01" y1="121.34" x2="231.42" y2="256.4" xlink:href="#linear-gradient-3"/><linearGradient id="linear-gradient-15" x1="280.85" y1="401.88" x2="280.85" y2="278.21" gradientUnits="userSpaceOnUse"><stop offset="0" stop-color="#383838"/><stop offset="1" stop-color="#202020"/></linearGradient><linearGradient id="New_Gradient_Swatch_copy_2-3" x1="274.9" y1="154.15" x2="261.09" y2="172.44" xlink:href="#New_Gradient_Swatch_copy_2"/><linearGradient id="New_Gradient_Swatch-3" x1="343.4" y1="182.36" x2="392.41" y2="182.36" xlink:href="#New_Gradient_Swatch"/><linearGradient id="New_Gradient_Swatch_copy_2-4" x1="274.21" y1="169.76" x2="233.35" y2="169.76" xlink:href="#New_Gradient_Swatch_copy_2"/><linearGradient id="New_Gradient_Swatch-4" x1="269.9" y1="279.23" x2="271.02" y2="298.64" xlink:href="#New_Gradient_Swatch"/><linearGradient id="New_Gradient_Swatch_copy_2-5" x1="286.53" y1="135.76" x2="320.87" y2="189.15" xlink:href="#New_Gradient_Swatch_copy_2"/><linearGradient id="linear-gradient-16" x1="336.17" y1="292.4" x2="212.73" y2="292.4" gradientUnits="userSpaceOnUse"><stop offset="0" stop-color="#7f54b3"/><stop offset="1" stop-color="#67168a"/></linearGradient><linearGradient id="New_Gradient_Swatch_copy_11-4" x1="162.22" y1="388.76" x2="219.25" y2="388.76" xlink:href="#New_Gradient_Swatch_copy_11"/><linearGradient id="New_Gradient_Swatch_copy_11-5" x1="165.93" y1="388.76" x2="219.25" y2="388.76" xlink:href="#New_Gradient_Swatch_copy_11"/><linearGradient id="New_Gradient_Swatch_copy_11-6" x1="224.43" y1="389.13" x2="280.61" y2="389.13" xlink:href="#New_Gradient_Swatch_copy_11"/><linearGradient id="New_Gradient_Swatch_copy_3-2" x1="271.33" y1="235.91" x2="177.72" y2="337.49" xlink:href="#New_Gradient_Swatch_copy_3"/><linearGradient id="New_Gradient_Swatch_copy_11-7" x1="225.29" y1="389.13" x2="280.61" y2="389.13" xlink:href="#New_Gradient_Swatch_copy_11"/><linearGradient id="New_Gradient_Swatch_copy_3-3" x1="275.95" y1="240.17" x2="182.34" y2="341.74" xlink:href="#New_Gradient_Swatch_copy_3"/><linearGradient id="New_Gradient_Swatch_copy_3-4" x1="339.58" y1="224.18" x2="238.32" y2="334.06" xlink:href="#New_Gradient_Swatch_copy_3"/><linearGradient id="New_Gradient_Swatch_copy_2-6" x1="368.05" y1="183.43" x2="303.29" y2="183.43" xlink:href="#New_Gradient_Swatch_copy_2"/><linearGradient id="New_Gradient_Swatch_copy_3-5" x1="342.89" y1="227.23" x2="241.63" y2="337.11" xlink:href="#New_Gradient_Swatch_copy_3"/><linearGradient id="New_Gradient_Swatch_copy_2-7" x1="299.85" y1="178.72" x2="383.43" y2="178.72" xlink:href="#New_Gradient_Swatch_copy_2"/><linearGradient id="linear-gradient-17" x1="207.55" y1="208.13" x2="314.14" y2="208.13" xlink:href="#linear-gradient-15"/><linearGradient id="New_Gradient_Swatch_copy_5" x1="315.33" y1="130.06" x2="310.6" y2="113.51" gradientUnits="userSpaceOnUse"><stop offset="0" stop-color="#e7a2a2"/><stop offset="1" stop-color="#e48282"/></linearGradient><linearGradient id="New_Gradient_Swatch_copy_5-2" x1="313.37" y1="123.19" x2="309.5" y2="109.67" xlink:href="#New_Gradient_Swatch_copy_5"/><linearGradient id="New_Gradient_Swatch_copy_5-3" x1="319.63" y1="87.1" x2="330.66" y2="99.76" xlink:href="#New_Gradient_Swatch_copy_5"/><linearGradient id="New_Gradient_Swatch-5" x1="308.81" y1="254.34" x2="384.71" y2="254.34" xlink:href="#New_Gradient_Swatch"/><linearGradient id="New_Gradient_Swatch_copy_5-4" x1="311.97" y1="115.15" x2="294.96" y2="60.41" xlink:href="#New_Gradient_Swatch_copy_5"/><linearGradient id="New_Gradient_Swatch_copy_5-5" x1="312.85" y1="114.65" x2="299.05" y2="70.22" xlink:href="#New_Gradient_Swatch_copy_5"/><linearGradient id="New_Gradient_Swatch_copy_5-6" x1="320.96" y1="88.63" x2="326.86" y2="95.4" xlink:href="#New_Gradient_Swatch_copy_5"/><linearGradient id="linear-gradient-18" x1="365.48" y1="254.35" x2="312.93" y2="254.35" xlink:href="#linear-gradient-16"/><linearGradient id="New_Gradient_Swatch_copy_6" x1="322.76" y1="208.13" x2="227.73" y2="208.13" gradientUnits="userSpaceOnUse"><stop offset="0" stop-color="#202020"/><stop offset="1" stop-color="#383838"/></linearGradient><linearGradient id="New_Gradient_Swatch_copy_3-6" x1="312.04" y1="88.83" x2="284.65" y2="51.4" xlink:href="#New_Gradient_Swatch_copy_3"/><linearGradient id="New_Gradient_Swatch_copy_5-7" x1="295.86" y1="92.36" x2="301.89" y2="99.29" xlink:href="#New_Gradient_Swatch_copy_5"/><linearGradient id="New_Gradient_Swatch_copy_5-8" x1="296.49" y1="102.56" x2="300.6" y2="107.27" xlink:href="#New_Gradient_Swatch_copy_5"/><linearGradient id="New_Gradient_Swatch_copy_5-9" x1="297.32" y1="105.57" x2="299.95" y2="108.58" xlink:href="#New_Gradient_Swatch_copy_5"/><linearGradient id="New_Gradient_Swatch_copy_3-7" x1="289.52" y1="83.95" x2="316.37" y2="80.42" xlink:href="#New_Gradient_Swatch_copy_3"/><linearGradient id="New_Gradient_Swatch_copy_3-8" x1="305.66" y1="83.95" x2="332.51" y2="80.42" xlink:href="#New_Gradient_Swatch_copy_3"/><linearGradient id="New_Gradient_Swatch_copy_3-9" x1="281.06" y1="77.7" x2="326.56" y2="77.7" xlink:href="#New_Gradient_Swatch_copy_3"/><linearGradient id="New_Gradient_Swatch_copy_4" x1="6.54" y1="76.94" x2="175.5" y2="76.94" gradientUnits="userSpaceOnUse"><stop offset="0" stop-color="#4875c8"/><stop offset="1" stop-color="#76a3f6"/></linearGradient><linearGradient id="New_Gradient_Swatch_copy_2-8" x1="-734.03" y1="-1502.42" x2="-734.03" y2="-1540.47" gradientTransform="matrix(0.06, -1, -1, -0.06, -1424.07, -562.83)" xlink:href="#New_Gradient_Swatch_copy_2"/><linearGradient id="New_Gradient_Swatch_copy_2-9" x1="-2014.43" y1="3325.04" x2="-2014.43" y2="3295.54" gradientTransform="matrix(-0.06, 1, 1, 0.06, -3379.04, 2067.18)" xlink:href="#New_Gradient_Swatch_copy_2"/><linearGradient id="New_Gradient_Swatch_copy_2-10" x1="995.22" y1="1629.73" x2="995.22" y2="1591.69" gradientTransform="matrix(1, 0.08, 0.08, -1, -1056.64, 1771.61)" xlink:href="#New_Gradient_Swatch_copy_2"/><linearGradient id="New_Gradient_Swatch_copy_2-11" x1="-3742.75" y1="192.05" x2="-3742.75" y2="162.56" gradientTransform="matrix(-1, -0.08, -0.08, 1, -3647.85, -232.46)" xlink:href="#New_Gradient_Swatch_copy_2"/><linearGradient id="New_Gradient_Swatch_copy_2-12" x1="-566.41" y1="-1455.3" x2="-566.41" y2="-1493.35" gradientTransform="matrix(0.14, -0.99, -0.99, -0.14, -1323.02, -484.65)" xlink:href="#New_Gradient_Swatch_copy_2"/><linearGradient id="New_Gradient_Swatch_copy_2-13" x1="-2180.77" y1="3277.91" x2="-2180.77" y2="3248.42" gradientTransform="matrix(-0.14, 0.99, 0.99, 0.14, -3471.32, 1988.36)" xlink:href="#New_Gradient_Swatch_copy_2"/><linearGradient id="New_Gradient_Swatch_copy_2-14" x1="944.5" y1="1795.92" x2="944.5" y2="1757.87" gradientTransform="matrix(0.99, 0.16, 0.16, -0.99, -1133.15, 1870.39)" xlink:href="#New_Gradient_Swatch_copy_2"/><linearGradient id="New_Gradient_Swatch_copy_2-15" x1="-3692.51" y1="25.97" x2="-3692.51" y2="-3.53" gradientTransform="matrix(-0.99, -0.16, -0.16, 0.99, -3565.5, -324.51)" xlink:href="#New_Gradient_Swatch_copy_2"/><linearGradient id="New_Gradient_Swatch_copy_2-16" x1="-275.23" y1="-1329.69" x2="-275.23" y2="-1367.73" gradientTransform="matrix(0.27, -0.96, -0.96, -0.27, -1157.11, -332.28)" xlink:href="#New_Gradient_Swatch_copy_2"/><linearGradient id="New_Gradient_Swatch_copy_2-17" x1="-2472.07" y1="3150.33" x2="-2472.07" y2="3120.84" gradientTransform="matrix(-0.27, 0.96, 0.96, 0.27, -3614.43, 1832.78)" xlink:href="#New_Gradient_Swatch_copy_2"/><linearGradient id="New_Gradient_Swatch_copy_2-18" x1="812.46" y1="2085.07" x2="812.46" y2="2047.03" gradientTransform="matrix(0.96, 0.29, 0.29, -0.96, -1282.47, 2027.65)" xlink:href="#New_Gradient_Swatch_copy_2"/><linearGradient id="New_Gradient_Swatch_copy_2-19" x1="-3560.4" y1="-262.81" x2="-3560.4" y2="-292.3" gradientTransform="matrix(-0.96, -0.29, -0.29, 0.96, -3399.87, -472.6)" xlink:href="#New_Gradient_Swatch_copy_2"/><linearGradient id="New_Gradient_Swatch_copy_2-20" x1="-71.54" y1="-1208.54" x2="-71.54" y2="-1246.59" gradientTransform="matrix(0.37, -0.93, -0.93, -0.37, -1041.57, -202.66)" xlink:href="#New_Gradient_Swatch_copy_2"/><linearGradient id="New_Gradient_Swatch_copy_2-21" x1="-2677.06" y1="3030.12" x2="-2677.06" y2="3000.62" gradientTransform="matrix(-0.37, 0.93, 0.93, 0.37, -3708.23, 1701.43)" xlink:href="#New_Gradient_Swatch_copy_2"/><linearGradient id="New_Gradient_Swatch_copy_2-22" x1="687.53" y1="2286.43" x2="687.53" y2="2248.39" gradientTransform="matrix(0.92, 0.38, 0.38, -0.92, -1406.97, 2132.38)" xlink:href="#New_Gradient_Swatch_copy_2"/><linearGradient id="New_Gradient_Swatch_copy_2-23" x1="-3436.19" y1="-465.03" x2="-3436.19" y2="-494.52" gradientTransform="matrix(-0.92, -0.38, -0.38, 0.92, -3259.65, -570.24)" xlink:href="#New_Gradient_Swatch_copy_2"/><linearGradient id="New_Gradient_Swatch_copy_2-24" x1="151.32" y1="-1036.05" x2="151.32" y2="-1074.1" gradientTransform="matrix(0.48, -0.88, -0.88, -0.48, -920.76, -34.67)" xlink:href="#New_Gradient_Swatch_copy_2"/><linearGradient id="New_Gradient_Swatch_copy_2-25" x1="-2897.68" y1="2858.76" x2="-2897.68" y2="2829.26" gradientTransform="matrix(-0.48, 0.88, 0.88, 0.48, -3796.35, 1532.89)" xlink:href="#New_Gradient_Swatch_copy_2"/><linearGradient id="New_Gradient_Swatch_copy_2-26" x1="512.21" y1="2504.23" x2="512.21" y2="2466.18" gradientTransform="matrix(0.87, 0.49, 0.49, -0.87, -1564.17, 2237.42)" xlink:href="#New_Gradient_Swatch_copy_2"/><linearGradient id="New_Gradient_Swatch_copy_2-27" x1="-3259.09" y1="-683.63" x2="-3259.09" y2="-713.13" gradientTransform="matrix(-0.87, -0.49, -0.49, 0.87, -3077.97, -666.31)" xlink:href="#New_Gradient_Swatch_copy_2"/><linearGradient id="New_Gradient_Swatch_copy_2-28" x1="663.14" y1="-496.65" x2="663.14" y2="-534.7" gradientTransform="matrix(0.68, -0.74, -0.74, -0.68, -782.97, 383.37)" xlink:href="#New_Gradient_Swatch_copy_2"/><linearGradient id="New_Gradient_Swatch_copy_2-29" x1="-3410.18" y1="2318.93" x2="-3410.18" y2="2289.43" gradientTransform="matrix(-0.68, 0.74, 0.74, 0.68, -3956.59, 1194.1)" xlink:href="#New_Gradient_Swatch_copy_2"/><linearGradient id="linear-gradient-19" x1="-3502.03" y1="2812.92" x2="-3502.03" y2="2781.23" gradientTransform="matrix(-0.42, 0.91, 0.91, 0.42, -3954.51, 2343.03)" gradientUnits="userSpaceOnUse"><stop offset="0" stop-color="#67168a"/><stop offset="1" stop-color="#7f54b3"/></linearGradient><linearGradient id="linear-gradient-20" x1="-3501.49" y1="2812.92" x2="-3501.49" y2="2782.26" xlink:href="#linear-gradient-19"/><linearGradient id="linear-gradient-21" x1="-3971.85" y1="575.71" x2="-3971.85" y2="544.02" gradientTransform="matrix(-1, 0.07, 0.07, 1, -3928.98, 30.72)" xlink:href="#linear-gradient-19"/><linearGradient id="linear-gradient-22" x1="-3971.31" y1="575.71" x2="-3971.31" y2="545.05" gradientTransform="matrix(-1, 0.07, 0.07, 1, -3928.98, 30.72)" xlink:href="#linear-gradient-19"/><linearGradient id="linear-gradient-23" x1="-4101.08" y1="1622.28" x2="-4101.08" y2="1607.25" gradientTransform="matrix(-0.85, 0.53, 0.53, 0.85, -4270.57, 1149.44)" xlink:href="#linear-gradient-19"/><linearGradient id="linear-gradient-24" x1="-4110.27" y1="1632.27" x2="-4110.27" y2="1613.54" gradientTransform="matrix(-0.85, 0.53, 0.53, 0.85, -4270.57, 1149.44)" xlink:href="#linear-gradient-19"/><linearGradient id="linear-gradient-25" x1="-4105.68" y1="1607.1" x2="-4105.68" y2="1564.54" gradientTransform="matrix(-0.85, 0.53, 0.53, 0.85, -4270.57, 1149.44)" xlink:href="#linear-gradient-19"/><linearGradient id="linear-gradient-26" x1="-4104.96" y1="1607.1" x2="-4104.96" y2="1565.92" gradientTransform="matrix(-0.85, 0.53, 0.53, 0.85, -4270.57, 1149.44)" xlink:href="#linear-gradient-19"/><linearGradient id="linear-gradient-27" x1="-4105.68" y1="1641.46" x2="-4105.68" y2="1583.07" gradientTransform="matrix(-0.85, 0.53, 0.53, 0.85, -4270.57, 1149.44)" xlink:href="#linear-gradient-19"/><linearGradient id="New_Gradient_Swatch_copy_3-10" x1="-212.42" y1="-323.06" x2="-266.99" y2="-407.45" gradientTransform="matrix(0.94, 0.34, -0.34, 0.94, 221.25, 715.51)" xlink:href="#New_Gradient_Swatch_copy_3"/><linearGradient id="New_Gradient_Swatch_copy_3-11" x1="91.23" y1="297.17" x2="152.15" y2="297.17" xlink:href="#New_Gradient_Swatch_copy_3"/><linearGradient id="linear-gradient-28" x1="119.1" y1="397.82" x2="78.02" y2="334.3" xlink:href="#linear-gradient"/><linearGradient id="linear-gradient-29" x1="120.18" y1="399.48" x2="93.58" y2="358.36" xlink:href="#linear-gradient"/><linearGradient id="New_Gradient_Swatch_copy_3-12" x1="140.01" y1="240.99" x2="51.51" y2="114.77" xlink:href="#New_Gradient_Swatch_copy_3"/><linearGradient id="linear-gradient-30" x1="26.15" y1="147.09" x2="122.2" y2="147.09" xlink:href="#linear-gradient-3"/><linearGradient id="New_Gradient_Swatch_copy_3-13" x1="117.57" y1="236.67" x2="54.28" y2="146.4" xlink:href="#New_Gradient_Swatch_copy_3"/><linearGradient id="New_Gradient_Swatch_copy_2-30" x1="-3744.17" y1="-9.55" x2="-3694.03" y2="70.68" gradientTransform="matrix(-1, 0, 0, 1, -3349.98, 0)" xlink:href="#New_Gradient_Swatch_copy_2"/><linearGradient id="linear-gradient-31" x1="340.61" y1="10.9" x2="399.95" y2="10.9" xlink:href="#linear-gradient-3"/><linearGradient id="linear-gradient-32" x1="340.61" y1="26.48" x2="388.05" y2="26.48" xlink:href="#linear-gradient-3"/><linearGradient id="linear-gradient-33" x1="340.61" y1="18.61" x2="367.26" y2="18.61" xlink:href="#linear-gradient-3"/><linearGradient id="New_Gradient_Swatch_copy_4-2" x1="-2799.36" y1="2670.47" x2="-2761.48" y2="2670.47" gradientTransform="translate(-3497.1 19.4) rotate(-135)" xlink:href="#New_Gradient_Swatch_copy_4"/><linearGradient id="New_Gradient_Swatch_copy_4-3" x1="339.11" y1="100.92" x2="376.13" y2="100.92" xlink:href="#New_Gradient_Swatch_copy_4"/><linearGradient id="linear-gradient-34" x1="-2689.67" y1="2647.35" x2="-2637.7" y2="2647.35" gradientTransform="translate(-3497.1 19.4) rotate(-135)" xlink:href="#linear-gradient"/><linearGradient id="linear-gradient-35" x1="233.5" y1="36.12" x2="284.28" y2="36.12" xlink:href="#linear-gradient"/><linearGradient id="New_Gradient_Swatch_copy_2-31" x1="258.69" y1="44.7" x2="258.69" y2="26.08" xlink:href="#New_Gradient_Swatch_copy_2"/></defs><g class="cls-1"><g id="Character_2" data-name="Character 2"><rect class="cls-2" x="372.1" y="295.2" width="16.1" height="111.97"/><path class="cls-3" d="M380.1,208.2a49,49,0,1,0,49.1,49A49,49,0,0,0,380.1,208.2Zm0,82a33,33,0,1,1,33-33A32.9,32.9,0,0,1,380.1,290.2Z"/><rect class="cls-4" x="372.1" y="316" width="16.1" height="5.7"/><rect class="cls-5" x="372.1" y="325.2" width="16.1" height="5.7"/><circle class="cls-6" cx="380.1" cy="257.2" r="32.9" transform="translate(65.3 591.2) rotate(-80.8)"/><path class="cls-7" d="M380.1,218a39.3,39.3,0,1,0,39.3,39.2A39.1,39.1,0,0,0,380.1,218Zm0,72.2a33,33,0,1,1,33-33A32.9,32.9,0,0,1,380.1,290.2Z"/><path class="cls-8" d="M420.4,410.4c0,3.6-1.8,6.5-4,6.5H4c-2.2,0-4-2.9-4-6.5v-3.2c0-3.5,1.8-6.4,4-6.4H416.4c2.2,0,4,2.9,4,6.4Z"/><path class="cls-9" d="M416.4,400.8H4c-2.2,0-4,2.9-4,6.4v2.1H398.8c2.2,0,4,2.9,4,6.5v1.1h13.6c2.2,0,4-2.9,4-6.5v-3.2C420.4,403.7,418.6,400.8,416.4,400.8Z"/><circle class="cls-10" cx="205.7" cy="183" r="167.6"/><rect class="cls-6" x="75.9" y="20.1" width="138.9" height="113.67" rx="20.2"/><path class="cls-11" d="M194.7,20.1H96.1A20.3,20.3,0,0,0,75.9,40.3v9h139v-9A20.3,20.3,0,0,0,194.7,20.1Z"/><path class="cls-12" d="M194.7,20.1h-3.5A20.1,20.1,0,0,1,171,40.2H75.9v9h139v-9A20.3,20.3,0,0,0,194.7,20.1Z"/><path class="cls-13" d="M201.1,35l5.1-5.1a.8.8,0,0,0,0-1.2.8.8,0,0,0-1.1,0l-5.2,5.2-5.1-5.2a.8.8,0,1,0-1.2,1.2l5.2,5.1-5.2,5.2a.8.8,0,0,0,0,1.1l.6.3a.9.9,0,0,0,.6-.3l5.1-5.1,5.2,5.1.6.3a.5.5,0,0,0,.5-.3.7.7,0,0,0,0-1.1Z"/><path class="cls-13" d="M90.5,32.7a1.7,1.7,0,0,1-1.7,1.6,1.6,1.6,0,0,1-1.6-1.6A1.7,1.7,0,0,1,88.8,31,1.8,1.8,0,0,1,90.5,32.7Z"/><path class="cls-13" d="M97.4,32.7a1.6,1.6,0,0,1-1.7,1.6,1.6,1.6,0,0,1-1.6-1.6A1.7,1.7,0,0,1,95.7,31,1.7,1.7,0,0,1,97.4,32.7Z"/><circle class="cls-13" cx="102.7" cy="32.7" r="1.6"/><path class="cls-13" d="M111.2,32.7a1.6,1.6,0,0,1-1.6,1.6,1.7,1.7,0,0,1-1.7-1.6,1.8,1.8,0,0,1,1.7-1.7A1.7,1.7,0,0,1,111.2,32.7Z"/><circle class="cls-13" cx="116.5" cy="32.7" r="1.6"/><circle class="cls-13" cx="123.4" cy="32.7" r="1.6"/><circle class="cls-13" cx="130.3" cy="32.7" r="1.6"/><path class="cls-13" d="M138.9,32.7a1.6,1.6,0,0,1-1.6,1.6,1.7,1.7,0,0,1-1.7-1.6,1.8,1.8,0,0,1,1.7-1.7A1.7,1.7,0,0,1,138.9,32.7Z"/><circle class="cls-13" cx="144.2" cy="32.7" r="1.6"/><polyline class="cls-14" points="153.5 324.3 165.3 289.5 228.3 325"/><circle class="cls-13" cx="153.8" cy="324.1" r="3.8"/><path class="cls-13" d="M231.7,325.7a2.8,2.8,0,0,1-2.9,2.8,2.7,2.7,0,0,1-2.8-2.8,2.8,2.8,0,0,1,2.8-2.9A2.9,2.9,0,0,1,231.7,325.7Z"/><circle class="cls-13" cx="86.7" cy="191.3" r="3.8"/><path class="cls-13" d="M87.8,231.8a4.8,4.8,0,0,1-4.8,4.8,4.7,4.7,0,0,1-4.8-4.8A4.8,4.8,0,0,1,83,227,4.9,4.9,0,0,1,87.8,231.8Z"/><polyline class="cls-14" points="87.1 191.8 122.5 206.4 81 232.9"/><circle class="cls-13" cx="234.6" cy="65" r="3.8"/><path class="cls-13" d="M266.9,66.5a2.9,2.9,0,0,1-2.9,2.9,2.9,2.9,0,0,1,0-5.7A2.9,2.9,0,0,1,266.9,66.5Z"/><polyline class="cls-14" points="234.6 65 267.5 86 263.8 64.9"/><path class="cls-15" d="M200.7,80.3c-9.7,10.2-26.8,30.7-37.1,57.1h37.1Z"/><path class="cls-16" d="M155,180.4a109.7,109.7,0,0,0,6.5,37h39.2v-70H160.1A118,118,0,0,0,155,180.4Z"/><path class="cls-17" d="M303.8,217.4a105.1,105.1,0,0,0,0-70H261.1a125.1,125.1,0,0,1,4.6,32.9,114.7,114.7,0,0,1-5.9,37.1Z"/><path class="cls-18" d="M257.9,137.4h41.7a104.1,104.1,0,0,0-76.4-57.6C234.2,92.3,249,112.3,257.9,137.4Z"/><path class="cls-19" d="M200.7,227.4H165.6c7.6,16.4,19.4,32.3,35.1,47.6Z"/><path class="cls-20" d="M210.7,81.1v56.3h36.4C237.1,111.6,220.6,91.6,210.7,81.1Z"/><path class="cls-21" d="M154.7,227.4H111.8a104.3,104.3,0,0,0,86.3,58.8C177.8,267.5,163.3,247.8,154.7,227.4Z"/><path class="cls-22" d="M256.1,227.4c-8.7,20.5-23.3,40.1-43.5,58.9a104.1,104.1,0,0,0,87-58.9Z"/><path class="cls-23" d="M145,180.3a125.1,125.1,0,0,1,4.7-32.9h-42a103.5,103.5,0,0,0,0,70h43.2A117.5,117.5,0,0,1,145,180.3Z"/><path class="cls-24" d="M255.7,180.4a114.5,114.5,0,0,0-5.1-33H210.7v70h38.5A104.9,104.9,0,0,0,255.7,180.4Z"/><path class="cls-25" d="M152.8,137.4c8.9-25,23.6-44.9,34.6-57.5a104.5,104.5,0,0,0-75.6,57.5Z"/><path class="cls-26" d="M210.7,227.4v46.9c15.4-15.1,26.9-30.8,34.4-46.9Z"/><path class="cls-27" d="M360.2,390.7H286.3V283.3a5.1,5.1,0,0,0-10.2,0V390.7H201.5a5.6,5.6,0,0,0,0,11.2H360.2a5.6,5.6,0,1,0,0-11.2Z"/><path class="cls-28" d="M265.3,132.2c-8.5.8-36.6,62.5-36.6,62.5s28.8,2.3,43.8-2S265.3,132.2,265.3,132.2Z"/><path class="cls-29" d="M374.3,147.7c21.9,0,22.1,12.2,10.4,62.4-25.6,13-41.3,3.8-41.3,3.8Z"/><path class="cls-30" d="M249,195.3a111.2,111.2,0,0,0,21.5-2.1c-.3-7.1-1.4-21.4-5.1-49-1.9,12.9-9.9,34.3-27.8,31.8-3.3,6.6-5.9,12.2-7.5,15.5Z"/><path class="cls-31" d="M333.2,278.5a10.1,10.1,0,0,1-10.1,10H216.6a10.1,10.1,0,0,1-10.1-10h0a10.1,10.1,0,0,1,10.1-10.1H323.1a10.1,10.1,0,0,1,10.1,10.1Z"/><path class="cls-32" d="M303,117.9s-28,9.3-37.7,14.3-2.8,98.6-2.8,98.6,66.7,8.5,80.9.7S369,132,369,132s1-7.7-53.7-16.9C306.8,116.1,303,117.9,303,117.9Z"/><path class="cls-33" d="M325,292.4a5.9,5.9,0,0,1-5.9,5.9H208.9a5.9,5.9,0,0,1-5.9-5.9h0a5.8,5.8,0,0,1,5.9-5.8H319.1a5.8,5.8,0,0,1,5.9,5.8Z"/><path class="cls-34" d="M191,380.9s-20.9,17.9-26.5,20.9,0,11.9,8.6,11.2,18.3-9,36.9-10.5c13.8-1.1,10.2-14.9,2-35.1-11.6-5.6-18-1.5-18-1.5S195.8,375.6,191,380.9Z"/><path class="cls-35" d="M212,367.4c-11.6-5.6-18-1.5-18-1.5a27.4,27.4,0,0,1,.2,7c14.2.5,15.9,11.3,15.8,17.4s-26.3,20.1-44.1,20.9a11.9,11.9,0,0,0,7.2,1.8c8.5-.8,18.3-9,36.9-10.5C223.8,401.4,220.2,387.6,212,367.4Z"/><path class="cls-36" d="M253.2,381.2s-20.9,18-26.5,21,0,11.9,8.6,11.2,17.8-9.4,36.9-10.5c13.8-.8,8.2-14.9,0-35.1-11.5-5.6-18.1-1.5-18.1-1.5S258,376,253.2,381.2Z"/><path class="cls-37" d="M294.9,270.4s-66.6,5.9-78.1,5.6c13.8,36.6,2.8,94.8,2.8,94.8H190.8s-21.2-101.9-4.8-121,78-25.2,78-25.2Z"/><path class="cls-38" d="M235.3,413.4c8.6-.8,17.8-9.4,36.9-10.5,13.8-.8,8.2-14.9,0-35.1-11.5-5.6-18.1-1.5-18.1-1.5a25.5,25.5,0,0,1,1.2,4.8c4-.2,10.6,0,14.3,2.9,5.5,4.4,10.2,22.1-7.2,25.7-11.2,2.3-23.8,13.3-37.1,8.9A10.5,10.5,0,0,0,235.3,413.4Z"/><path class="cls-39" d="M242.6,274.7l7.1-5.2,24.8-29.4L264,224.6s-23.8,2.4-45.8,8.8c24.2,9.4,11.1,38.8-9.8,38.6,12.9,20.2,13.3,82.6-18.9,91.9l1.3,6.9h28.8s11-58.2-2.8-94.8C220.7,276.1,230.8,275.5,242.6,274.7Z"/><path class="cls-40" d="M354.6,267.9s-66.5,6-78.1,5.6c13.8,36.6,2.8,94.8,2.8,94.8H250.6s-21.3-101.9-4.9-121,96.5-25.7,96.5-25.7Z"/><path class="cls-41" d="M362.2,175.5c-2.6-7.3-6-16.3-10.8-27.5-.3,29.6-19.3,48.6-53.2,54l7.1,16.8,49.8-11.7C357.7,197.5,360.1,186.3,362.2,175.5Z"/><path class="cls-42" d="M351,268.2l.7-11.3-9.5-35.3s-43.1,3.6-72.6,13.1c37.8,7,21.2,39.3-8.3,31.6,18.9,19.1,17.2,82.8-14.2,83.3,1.9,11.2,3.5,18.7,3.5,18.7h28.7s11-58.2-2.8-94.8C286.5,273.8,337,269.4,351,268.2Z"/><path class="cls-43" d="M349.4,153.2s3,27.3,5.2,35.5c-35.1,11-54.8,23.4-54.8,23.4l7.5,15.7s58-6.5,71.9-19.6c9.5-9,1.8-68.7-12-78.6C351.1,130.9,349.4,153.2,349.4,153.2Z"/><path class="cls-44" d="M208,189.6c-1.5-4.1.9-7.6,5.4-7.6h77.8a12.1,12.1,0,0,1,10.6,7.7l12,36.9c1.3,4.2-1.2,7.7-5.6,7.7l-76.2-.4a12.2,12.2,0,0,1-10.8-7.6Z"/><path class="cls-45" d="M319.6,121.2a9.6,9.6,0,0,1-9.7,9.7h0a9.7,9.7,0,0,1-9.7-9.7V101.1a9.7,9.7,0,0,1,9.7-9.7h0a9.6,9.6,0,0,1,9.7,9.7Z"/><path class="cls-46" d="M301.7,125.9a9.7,9.7,0,0,1,17.9-5.1V101.1a9.7,9.7,0,0,0-19.4,0v20.1a9.8,9.8,0,0,0,1.5,5.1Z"/><path class="cls-47" d="M328,90.4a5.5,5.5,0,0,1-11,0,5.5,5.5,0,1,1,11,0Z"/><path class="cls-48" d="M384.7,210.1H353.4c-14,0-28.7,46.1-34.6,63.3s-10,24.9-10,24.9,29.3,2.1,43.6-5.5C363.6,286.8,384.7,210.1,384.7,210.1Z"/><path class="cls-49" d="M323.5,94c0,11.1-12.4,22.8-23.5,22.8h0c-7.5.2-15.9-10.7-16.8-22.8V81.5a20.2,20.2,0,0,1,20.2-20.2h0a20.1,20.1,0,0,1,20.1,20.2Z"/><path class="cls-50" d="M317.1,66.7a19.8,19.8,0,0,1,4.3,12.4V91.6c0,11.2-12.5,22.9-23.6,22.9-2.7,0-5.6-1.4-8.1-3.8,3,3.8,6.8,6.2,10.3,6.1,11.1,0,23.5-11.7,23.5-22.8V81.5A20.3,20.3,0,0,0,317.1,66.7Z"/><path class="cls-51" d="M325.4,90.4a2.9,2.9,0,0,1-5.8,0,2.9,2.9,0,1,1,5.8,0Z"/><path class="cls-52" d="M360.7,280.5c-17.3-5.1-24.9-26.7-7.9-70.3-13.8,1.2-28.2,46.2-34,63.2s-10,24.9-10,24.9,29.3,2.1,43.6-5.5C354.8,291.5,357.7,286.9,360.7,280.5Z"/><path class="cls-53" d="M313.8,226.6l-12-36.9a12.1,12.1,0,0,0-10.6-7.7h-5.6c3.9,31.8-18.8,51.9-65.3,41.8l.9,2.5a12.2,12.2,0,0,0,10.8,7.6l76.2.4C312.6,234.3,315.1,230.8,313.8,226.6Z"/><path class="cls-54" d="M283.2,88.4c3.1.1,1-15.2,4-15.9s5.2,3.5,11.1,1.8,14.7-4.4,17.3.5,2.5,18.5,6.5,18.2,8.4-23.6-1.5-31.1-24.4-2.4-25.8-1.1C277.9,55.4,280.2,88.2,283.2,88.4Z"/><path class="cls-55" d="M299,90.3c.6,4-3.4,9.3-.1,11"/><path class="cls-56" d="M294.5,104.9a8.7,8.7,0,0,0,8,0"/><path class="cls-57" d="M296.3,107.1s1.7,1.3,4.6,0"/><path class="cls-58" d="M292.2,90.8c0,1.2-.6,2.1-1.3,2.1s-1.3-.9-1.3-2.1.6-2.1,1.3-2.1S292.2,89.7,292.2,90.8Z"/><path class="cls-58" d="M310,90.8c0,1.2-.6,2.1-1.3,2.1s-1.3-.9-1.3-2.1.6-2.1,1.3-2.1S310,89.7,310,90.8Z"/><path class="cls-58" d="M312.9,90.8s-4.9-2.9-7.9-.7C306.6,87.3,309.7,87.1,312.9,90.8Z"/><path class="cls-58" d="M295.2,91.1s-4.9-2.9-7.8-.7C289,87.6,292,87.4,295.2,91.1Z"/><path class="cls-59" d="M290.2,82.3c-2.4,0-.9,3.5,2,2.8S298,82.3,290.2,82.3Z"/><path class="cls-60" d="M306.4,82.3c-2.5,0-1,3.5,2,2.8S314.2,82.3,306.4,82.3Z"/><path class="cls-61" d="M321.2,62.4c4.5,9.2-2.4,13.5-12.9,3.6,4.2,6.6-14.3,8.8-20.6.1,0,3.6-4,9.1-6.3,7.2-1,7.4.3,15,1.8,15.1,3.1.1,1-15.2,4-15.9s5.2,3.5,11.1,1.8,14.7-4.4,17.3.5,2.5,18.5,6.5,18.2S330.3,70.4,321.2,62.4Z"/><rect class="cls-62" x="6.5" y="65.4" width="169" height="23.13" rx="4"/><path class="cls-13" d="M164.4,77.3l3.9-3.9a.6.6,0,0,0,0-.8.8.8,0,0,0-.9,0l-3.8,3.8-3.8-3.8a.7.7,0,0,0-.9,0,.6.6,0,0,0,0,.8l3.8,3.9-3.8,3.8a.7.7,0,0,0,0,.9h.9l3.8-3.9,3.8,3.9h.9a.7.7,0,0,0,0-.9Z"/><path class="cls-63" d="M48.3,259.2c-10.5-.7-19.4,5.6-19.4,5.6s8.1,7.4,18.5,8.1,19.5-5.7,19.5-5.7S58.8,259.9,48.3,259.2Z"/><path class="cls-64" d="M37.1,270.1h.6c10.5.6,19.4-5.7,19.4-5.7a35.3,35.3,0,0,0-8.2-5.2c10.2.8,18,7.9,18,7.9s-9,6.3-19.5,5.7A29.5,29.5,0,0,1,37.1,270.1Z"/><path class="cls-65" d="M74.7,248.9c.9-10.4-5.2-19.5-5.2-19.5s-7.5,7.9-8.4,18.4,5.2,19.5,5.2,19.5S73.9,259.4,74.7,248.9Z"/><path class="cls-66" d="M64.1,237.6a.7.7,0,0,0-.1.5c-.9,10.5,5.2,19.6,5.2,19.6a34.1,34.1,0,0,0,5.5-8.2c-1.1,10.2-8.4,17.8-8.4,17.8s-6.1-9-5.2-19.5A27,27,0,0,1,64.1,237.6Z"/><path class="cls-67" d="M59.4,274c-10.4-1.5-19.8,4.1-19.8,4.1s7.5,8,17.9,9.4,19.8-4.1,19.8-4.1S69.8,275.4,59.4,274Z"/><path class="cls-68" d="M47.4,284H48c10.4,1.4,19.8-4.2,19.8-4.2a37.3,37.3,0,0,0-7.8-5.8c10.1,1.6,17.3,9.3,17.3,9.3s-9.4,5.6-19.8,4.1A28.1,28.1,0,0,1,47.4,284Z"/><path class="cls-69" d="M86.5,265.7c1.7-10.3-3.7-19.8-3.7-19.8s-8.1,7.3-9.8,17.7,3.8,19.8,3.8,19.8S84.9,276.1,86.5,265.7Z"/><path class="cls-70" d="M76.7,253.6a.9.9,0,0,1-.1.5C75,264.5,80.4,274,80.4,274a35.4,35.4,0,0,0,6-7.7c-1.8,10.1-9.6,17.1-9.6,17.1S71.3,274,73,263.6A29.7,29.7,0,0,1,76.7,253.6Z"/><path class="cls-71" d="M69.3,289.8c-10.1-2.9-20.1,1.4-20.1,1.4s6.3,8.9,16.4,11.8,20.2-1.5,20.2-1.5S79.5,292.6,69.3,289.8Z"/><path class="cls-72" d="M56.1,298.1l.6.2c10.1,2.8,20.1-1.5,20.1-1.5a37,37,0,0,0-6.9-6.9c9.8,3,15.9,11.6,15.9,11.6s-10,4.3-20.2,1.5A29.4,29.4,0,0,1,56.1,298.1Z"/><path class="cls-73" d="M97.3,285.2c3.1-10-1-20.1-1-20.1s-9.1,6.1-12.1,16.2,1.1,20.2,1.1,20.2S94.3,295.3,97.3,285.2Z"/><path class="cls-74" d="M89.2,271.9c0,.2-.1.3-.1.5-3.1,10.1,1,20.2,1,20.2a35.1,35.1,0,0,0,7.1-6.8c-3.2,9.7-11.9,15.7-11.9,15.7s-4.1-10.1-1.1-20.2A29.9,29.9,0,0,1,89.2,271.9Z"/><path class="cls-75" d="M77,307.3c-9.8-3.8-20.2-.6-20.2-.6s5.4,9.5,15.2,13.4,20.2.6,20.2.6S86.8,311.2,77,307.3Z"/><path class="cls-76" d="M63,314.3l.5.2c9.8,3.8,20.2.6,20.2.6a34.2,34.2,0,0,0-6.2-7.6c9.4,4,14.7,13.2,14.7,13.2s-10.5,3.2-20.2-.6A31,31,0,0,1,63,314.3Z"/><path class="cls-77" d="M105.3,305.7c4-9.7,1-20.2,1-20.2s-9.6,5.2-13.7,14.9-.9,20.2-.9,20.2S101.2,315.4,105.3,305.7Z"/><path class="cls-78" d="M98.6,291.5a1.4,1.4,0,0,0-.2.6c-4.1,9.7-1,20.2-1,20.2a37.2,37.2,0,0,0,7.7-6.1c-4.2,9.3-13.4,14.4-13.4,14.4s-3.1-10.5.9-20.2A30.9,30.9,0,0,1,98.6,291.5Z"/><path class="cls-79" d="M82.6,327.8c-9.3-5-20-3-20-3s4.2,10,13.5,15,20,3,20,3S91.8,332.8,82.6,327.8Z"/><path class="cls-80" d="M67.9,333l.5.3c9.2,5,20,3,20,3a35.4,35.4,0,0,0-5.3-8.2c8.9,5,13,14.7,13,14.7s-10.8,2-20-3A26.6,26.6,0,0,1,67.9,333Z"/><path class="cls-81" d="M110.9,329.5c5.2-9.1,3.4-19.9,3.4-19.9s-10.2,4-15.3,13.2-3.4,19.9-3.4,19.9S105.7,338.7,110.9,329.5Z"/><path class="cls-82" d="M106,314.7l-.3.5c-5.2,9.2-3.4,19.9-3.4,19.9a35.7,35.7,0,0,0,8.3-5.1c-5.3,8.8-15,12.7-15,12.7s-1.8-10.8,3.4-19.9A28.1,28.1,0,0,1,106,314.7Z"/><path class="cls-83" d="M45.7,244.5s54.2,42.6,50.8,121.4"/><path class="cls-84" d="M50.3,240.2c-7.8-7.1-18.7-7.9-18.7-7.9s1.6,10.8,9.4,18,18.6,7.8,18.6,7.8S58,247.3,50.3,240.2Z"/><path class="cls-85" d="M34.7,241.6c.1.2.3.3.4.4,7.7,7.1,18.6,7.9,18.6,7.9a35.1,35.1,0,0,0-3-9.3c7.3,7.1,8.9,17.5,8.9,17.5s-10.9-.7-18.6-7.8A29,29,0,0,1,34.7,241.6Z"/><path class="cls-86" d="M42.7,331.2c8,3.6,19.8,1.8,19.8,1.8s-6.3-10.1-14.3-13.7-13-2.8-14.5.5S34.8,327.5,42.7,331.2Z"/><path class="cls-87" d="M33.4,322.8a24.2,24.2,0,0,0,5.8,3.8c7.9,3.7,13,2.8,14.5-.5a4.4,4.4,0,0,0,.2-3,48,48,0,0,1,8.6,9.9s-11.8,1.8-19.8-1.8C37,328.6,34.1,325.5,33.4,322.8Z"/><path class="cls-88" d="M65.1,319.2c.6,8.8,7.8,18.3,7.8,18.3s5.9-10.4,5.3-19.2-3.8-12.7-7.4-12.5S64.5,310.5,65.1,319.2Z"/><path class="cls-89" d="M68,307.1a26.1,26.1,0,0,0-.6,6.8c.6,8.7,3.8,12.7,7.4,12.5a4.7,4.7,0,0,0,2.8-1.2,49.3,49.3,0,0,1-4.7,12.3s-7.2-9.5-7.8-18.3C64.7,313,66,308.9,68,307.1Z"/><line class="cls-90" x1="68.1" y1="335.5" x2="53.1" y2="328.4"/><line class="cls-91" x1="71.9" y1="324" x2="73.6" y2="343.9"/><path class="cls-92" d="M39.6,306.4c6.2,10,20.8,16.6,20.8,16.6s.3-16-5.9-26-12.6-12.6-16.8-10S33.3,296.5,39.6,306.4Z"/><path class="cls-93" d="M35.2,290.2a35.9,35.9,0,0,0,3.7,8.5c6.2,9.9,12.6,12.6,16.7,10a5.8,5.8,0,0,0,2.5-3.2A66,66,0,0,1,60.4,323s-14.6-6.6-20.8-16.6C35.1,299.3,34,293.7,35.2,290.2Z"/><line class="cls-94" x1="47.9" y1="303.1" x2="78.5" y2="351.7"/><path class="cls-95" d="M129.6,300.1l11.6-6.3c12.6-35.4,14.7-66.7,4.4-70.5-5.9-2.1-14.6,5.3-23.5,18.7l.5,4.8,1.6,16.1-6.7-13.3a213.2,213.2,0,0,0-14.7,32c-2.2,5.9-4.1,11.8-5.7,17.5l.5,2.7,2.7,16-5.6-9.3c-5.4,23.9-4.6,42.3,3.1,45.1,10.1,3.7,28.4-20.6,41.5-54.8Z"/><path class="cls-14" d="M140.8,245.2s-36.2,70.1-46.3,134.1"/><path class="cls-14" d="M114.7,275.5s2.6,15.7.9,27.8"/><path class="cls-96" d="M129.6,300.1l11.6-6.3c7.4-20.8,11.2-40.2,10.9-53.5-8.6,39.4-38.4,89.8-54.1,55.7l-.9,3.1.5,2.7,2.7,16-5.6-9.3c-5.4,23.9-4.6,42.3,3.1,45.1,10.1,3.7,28.4-20.6,41.5-54.8Z"/><polygon class="cls-97" points="96.1 337.2 92.4 337.2 58.8 337.2 76.6 409.2 92.4 409.2 96.1 409.2 111.9 409.2 129.7 337.2 96.1 337.2"/><path class="cls-98" d="M116.8,337.2c-1.6,23.5-12,64.7-41.7,65.7l1.5,6.3h35.3l17.8-72Z"/><rect class="cls-99" x="22.6" y="111.6" width="103.1" height="70.9" rx="4"/><rect class="cls-100" x="26.1" y="115.2" width="96" height="63.86" rx="0.5"/><path class="cls-101" d="M102.6,152.1,81.7,165.2,48.3,135.3,22.6,158v20.5a4,4,0,0,0,4.1,4h95a4,4,0,0,0,4-4v-8.7Z"/><path class="cls-102" d="M334.2,0h74.5a2.7,2.7,0,0,1,2.7,2.7V51a2.7,2.7,0,0,1-2.7,2.7H344.3l-12.8,9.2V2.7A2.7,2.7,0,0,1,334.2,0Z"/><path class="cls-103" d="M399.9,10.9a1.8,1.8,0,0,1-1.8,1.8H342.5a1.8,1.8,0,0,1-1.9-1.8h0a1.8,1.8,0,0,1,1.9-1.8h55.6a1.8,1.8,0,0,1,1.8,1.8Z"/><path class="cls-104" d="M388,26.5a1.8,1.8,0,0,1-1.8,1.8H342.5a1.8,1.8,0,0,1-1.9-1.8h0a1.9,1.9,0,0,1,1.9-1.9h43.7a1.9,1.9,0,0,1,1.8,1.9Z"/><path class="cls-105" d="M367.3,18.6a2,2,0,0,1-1.9,1.9H342.5a1.9,1.9,0,0,1-1.9-1.9h0a1.8,1.8,0,0,1,1.9-1.8h22.9a1.9,1.9,0,0,1,1.9,1.8Z"/><polygon class="cls-106" points="185.2 193.6 188.2 164.8 188.3 164.7 188.2 164.6 188.2 164.6 188.2 164.6 188.2 164.6 188.1 164.7 165.7 183 173.5 184.2 168.1 194.1 174.7 197.6 180 187.7 185.2 193.6"/><path class="cls-107" d="M343.8,83.8a19,19,0,1,1,0,26.8A19,19,0,0,1,343.8,83.8Z"/><path class="cls-108" d="M372.3,85.7a19.2,19.2,0,0,1-4.7,19.1,19,19,0,0,1-26.8,0c-.6-.7-1.2-1.3-1.7-2a19.7,19.7,0,0,0,4.7,7.8,19,19,0,0,0,28.5-24.9Z"/><path class="cls-13" d="M357.2,86.8a7.7,7.7,0,0,0-7.8,7.7c0,4.3,7.8,13.1,7.8,13.1s7.7-8.8,7.7-13.1A7.6,7.6,0,0,0,357.2,86.8Zm0,12.5a5.4,5.4,0,0,1-5.4-5.3,5.4,5.4,0,0,1,5.4-5.4,5.4,5.4,0,0,1,0,10.7Z"/><path class="cls-109" d="M239.9,12.6a26,26,0,1,1,36.8,36.8,26,26,0,0,1-36.8-36.8Z"/><path class="cls-110" d="M279,15.3a26,26,0,0,1-43.2,26.1,29.8,29.8,0,0,1-2.3-2.7,26.9,26.9,0,0,0,6.4,10.7A26,26,0,0,0,279,15.3Z"/><path class="cls-13" d="M270.1,23.3l-1.5.2a10.7,10.7,0,0,0-9.9-6.3,11,11,0,0,0-10,6.3l-1.4-.2a7.3,7.3,0,0,0,0,14.6h22.8a7.3,7.3,0,0,0,0-14.6Z"/><polygon class="cls-111" points="260.8 34.7 260.8 26.8 256.6 26.8 256.6 34.7 252.1 34.7 255.4 40.4 258.7 46.1 262 40.4 265.3 34.7 260.8 34.7"/><rect class="cls-112" x="44.4" y="167.5" width="35.4" height="27.8" rx="2.9"/><path class="cls-113" d="M62,188l17.7-17.7h0a2.9,2.9,0,0,0-2.9-2.9H47.3a2.9,2.9,0,0,0-2.9,2.9h0Z"/><path class="cls-13" d="M76.8,167.5H47.3a2.8,2.8,0,0,0-2.9,2.4l5.8,4.7L62,184.3l11.9-9.7,5.8-4.7A2.9,2.9,0,0,0,76.8,167.5Z"/></g></g></svg>