<svg width="90" height="90" viewBox="0 0 90 90" fill="none" xmlns="http://www.w3.org/2000/svg">
<path d="M90 42.0968V38.4514L46.9216 7.25806H43.0784L33.3871 14.2748V8.70968H36.2903V0H7.25806V8.70968H10.1613V31.0935L0 38.4514V42.0968H7.25806V63.871H0V84.1936H7.25806V90H82.7419V59.5161C86.7448 59.5161 90 56.2609 90 52.2581C90 48.2552 86.7448 45 82.7419 45V42.0968H90ZM10.1613 2.90323H33.3871V5.80645H10.1613V2.90323ZM30.4839 8.70968V16.3778L13.0645 28.9923V8.70968H30.4839ZM5.80645 75.4839V81.2903H2.90323V66.7742H69.6774V81.2903H66.7742V75.4839H63.871V81.2903H60.9677V75.4839H58.0645V81.2903H55.1613V75.4839H52.2581V81.2903H49.3548V75.4839H46.4516V81.2903H43.5484V75.4839H40.6452V81.2903H37.7419V75.4839H34.8387V81.2903H31.9355V75.4839H29.0323V81.2903H26.129V75.4839H23.2258V81.2903H20.3226V75.4839H17.4194V81.2903H14.5161V75.4839H11.6129V81.2903H8.70968V75.4839H5.80645ZM79.8387 87.0968H10.1613V84.1936H72.5807V63.871H10.1613V42.0968H79.8387V45H27.1415L16.2544 52.2581L27.1415 59.5161H79.8387V87.0968ZM76.9355 47.9032V56.6129H74.0323V47.9032H76.9355ZM30.4839 50.8065V47.9032H71.129V50.8065H30.4839ZM71.129 53.7097V56.6129H30.4839V53.7097H71.129ZM27.5806 48.1972V56.3208L21.4875 52.2581L27.5806 48.1972ZM87.0968 52.2581C87.0968 54.6587 85.1425 56.6129 82.7419 56.6129H79.8387V47.9032H82.7419C85.1425 47.9032 87.0968 49.8575 87.0968 52.2581ZM81.2903 39.1936H79.8387H10.1613H8.70968H3.92661L44.0183 10.1613H45.9817L86.0734 39.1936H81.2903Z" fill="#CDA274"/>
<path d="M45 14.5161C38.5966 14.5161 33.3871 19.7256 33.3871 26.129C33.3871 32.5324 38.5966 37.7419 45 37.7419C51.4034 37.7419 56.6129 32.5324 56.6129 26.129C56.6129 19.7256 51.4034 14.5161 45 14.5161ZM45 34.8387C40.197 34.8387 36.2903 30.932 36.2903 26.129C36.2903 21.326 40.197 17.4193 45 17.4193C49.803 17.4193 53.7097 21.326 53.7097 26.129C53.7097 30.932 49.803 34.8387 45 34.8387Z" fill="#CDA274"/>
</svg>
