<svg width="90" height="90" viewBox="0 0 90 90" fill="none" xmlns="http://www.w3.org/2000/svg">
<path d="M61.5 79.5H58.5V72V15C58.5 14.7 58.35 14.25 58.2 14.1L53.85 1.05C53.7 0.45 53.1 0 52.5 0C51.9 0 51.3 0.45 51.15 1.05L46.8 14.1C46.65 14.4 46.5 14.7 46.5 15V72V88.5C46.5 89.4 47.1 90 48 90H57C57.9 90 58.5 89.4 58.5 88.5V82.5H63C63.9 82.5 64.5 81.9 64.5 81V36H61.5V79.5ZM49.5 16.5H55.5V70.5H49.5V16.5ZM52.5 6.3L54.9 13.5H50.1L52.5 6.3ZM55.5 87H49.5V73.5H55.5V87Z" fill="#CDA274"/>
<path d="M88.5003 0H72.0003C71.1003 0 70.5003 0.6 70.5003 1.5V88.5C70.5003 89.4 71.1003 90 72.0003 90H88.5003C89.4003 90 90.0003 89.4 90.0003 88.5V1.5C90.0003 0.6 89.4003 0 88.5003 0ZM87.0003 87H73.5003V76.5H81.0003V73.5H73.5003V61.5H81.0003V58.5H73.5003V46.5H81.0003V43.5H73.5003V31.5H81.0003V28.5H73.5003V16.5H81.0003V13.5H73.5003V3H87.0003V87Z" fill="#CDA274"/>
<path d="M20.9997 14.9998C9.44973 14.9998 -0.000274658 24.4498 -0.000274658 35.9998C-0.000274658 44.0998 4.64972 51.4498 11.9997 54.8998V65.9998V73.4998C11.9997 74.3998 12.5997 74.9998 13.4997 74.9998H19.4997V79.4998H22.4997V74.9998H28.4997C29.3997 74.9998 29.9997 74.3998 29.9997 73.4998V65.9998V54.8998C37.3497 51.4498 41.9997 44.0998 41.9997 35.9998C41.9997 24.4498 32.5497 14.9998 20.9997 14.9998ZM26.9997 71.9998H14.9997V67.4998H26.9997V71.9998ZM27.8997 52.6498C27.2997 52.7998 26.9997 53.3998 26.9997 53.9998V64.4998H14.9997V61.4998H22.4997V58.4998H14.9997V53.9998C14.9997 53.3998 14.6997 52.7998 14.0997 52.6498C7.34972 49.7998 2.99973 43.1998 2.99973 35.9998C2.99973 26.0998 11.0997 17.9998 20.9997 17.9998C30.8997 17.9998 38.9997 26.0998 38.9997 35.9998C38.9997 43.1998 34.6497 49.7998 27.8997 52.6498Z" fill="#CDA274"/>
<path d="M24.4501 27.4504L21.0001 30.9004L17.5501 27.4504L15.4501 29.5504L19.5001 33.6004V49.5004H22.5001V33.6004L26.5501 29.5504L24.4501 27.4504Z" fill="#CDA274"/>
</svg>
