<svg width="92" height="92" viewBox="0 0 92 92" fill="none" xmlns="http://www.w3.org/2000/svg">
<path d="M71.2258 14.8387V2.96774H47.4839V0H44.5161V2.96774H20.7742V35.0305L11.871 29.8907V29.6774H11.5037L11.1828 29.4919L11.0752 29.6774H0V50.4516C0 53.7254 2.66169 56.3871 5.93548 56.3871H20.7742V62.3226H33.8026L28.4606 89.0323H0V92H44.5161H47.4839H86.0645V89.0323H63.5394L58.1974 62.3226H71.2258V38.5806H83.0968V35.6129H80.5445L83.2303 24.8734L77.7289 17.9975C83.299 18.9731 87.5484 23.8328 87.5484 29.6774H90.5161C90.5161 24.8215 88.1605 20.5145 84.5417 17.8065H92V14.8387H71.2258ZM8.90323 50.4516C8.90323 52.0876 7.57145 53.4194 5.93548 53.4194C4.29952 53.4194 2.96774 52.0876 2.96774 50.4516V32.6452H8.90323V50.4516ZM19.8709 38.9794L22.8386 44.1173L13.2491 49.6559L19.1827 39.3764L19.8709 38.9794ZM11.871 34.2366L12.2698 33.5448L17.4077 36.5125L11.871 46.1057V34.2366ZM12.663 53.4194L22.9444 47.4839H23.7419V53.4194H12.663ZM44.5161 89.0323H31.4877L36.8297 62.3226H44.5161V89.0323ZM60.5123 89.0323H47.4839V62.3226H55.1703L60.5123 89.0323ZM68.1245 24.8734L70.8103 35.6129H68.2581V37.0968V38.5806V59.3548H23.7419V56.3871H26.7097V45.31L26.8933 45.2024L26.7097 44.8852V44.5161H26.4964L23.7419 39.7455V5.93548H68.2581V14.8387H59.3548V17.8065H66.8131C63.1944 20.5145 60.8387 24.8215 60.8387 29.6774H63.8065C63.8065 23.8328 68.0559 18.9731 73.626 17.9956L68.1245 24.8734ZM79.9955 25.5801L77.4877 35.6129H73.8671L71.3594 25.5782L74.1936 22.0355V28.1935H77.1613V22.0373L79.9955 25.5801Z" fill="#CDA274"/>
</svg>
