<svg width="21" height="29" viewBox="0 0 21 29" fill="none" xmlns="http://www.w3.org/2000/svg">
<path d="M3.625 3.5V25.5H17.375V3.5H3.625ZM2.25 0.75H18.75C19.5094 0.75 20.125 1.36562 20.125 2.125V26.875C20.125 27.6344 19.5094 28.25 18.75 28.25H2.25C1.49062 28.25 0.875 27.6344 0.875 26.875V2.125C0.875 1.36562 1.49062 0.75 2.25 0.75ZM10.5 21.375C11.2594 21.375 11.875 21.9906 11.875 22.75C11.875 23.5094 11.2594 24.125 10.5 24.125C9.74059 24.125 9.125 23.5094 9.125 22.75C9.125 21.9906 9.74059 21.375 10.5 21.375Z" fill="white"/>
</svg>
