<?xml version="1.0" encoding="UTF-8"?>
<svg xmlns="http://www.w3.org/2000/svg" id="Layer_1" data-name="Layer 1" viewBox="0 0 24 24" width="512" height="512"><path d="M9,5c0-.55,.45-1,1-1s1,.45,1,1-.45,1-1,1-1-.45-1-1Zm15-.5v7c0,2.48-2.02,4.5-4.5,4.5H9.5c-2.48,0-4.5-2.02-4.5-4.5V4.5C5,2.02,7.02,0,9.5,0h10c2.48,0,4.5,2.02,4.5,4.5ZM6.88,13.82l6.17-6.17c.82-.82,2.15-.82,2.97,0l1.04,1.04c.42,.41,1.14,.42,1.55,0l4.39-4.39c-.1-1.84-1.63-3.3-3.49-3.3H9.5c-1.93,0-3.5,1.57-3.5,3.5v7c0,.89,.33,1.7,.88,2.32Zm16.12-2.32V5.71l-3.69,3.69c-.79,.79-2.18,.79-2.97,0l-1.04-1.04c-.43-.43-1.13-.43-1.55,0l-6.11,6.11c.54,.34,1.18,.54,1.86,.54h10c1.93,0,3.5-1.57,3.5-3.5Zm-4.36,6.53c-.27-.07-.54,.09-.61,.36l-.52,2.04c-.51,1.86-2.44,2.96-4.3,2.45l-9.63-2.61c-1.86-.51-2.96-2.44-2.45-4.3l1.84-6.83c.07-.27-.09-.54-.35-.61-.26-.07-.54,.08-.61,.35L.16,15.7c-.32,1.16-.17,2.37,.43,3.42s1.56,1.79,2.72,2.11l9.63,2.61c.4,.11,.8,.16,1.19,.16,1.98,0,3.79-1.31,4.34-3.32l.53-2.04c.07-.27-.09-.54-.36-.61Z"/></svg>
