<?xml version="1.0" encoding="UTF-8"?>
<svg xmlns="http://www.w3.org/2000/svg" id="Layer_1" data-name="Layer 1" viewBox="0 0 24 24" width="512" height="512"><path d="M8,5c0-.55,.45-1,1-1s1,.45,1,1-.45,1-1,1-1-.45-1-1ZM24,2.5v13.5H4V2.5c0-1.38,1.12-2.5,2.5-2.5h15c1.38,0,2.5,1.12,2.5,2.5ZM5,2.5V14.82L13.03,6.79l3.3,3.3,6.67-6.67v-.92c0-.83-.67-1.5-1.5-1.5H6.5c-.83,0-1.5,.67-1.5,1.5ZM23,15V4.83l-6.67,6.67-3.3-3.3-6.79,6.79H23Zm-4.38,7.78L1.22,18.13l.78-2.9v-3.87L0,18.84l19.32,5.16,1.6-6h-1.03l-1.28,4.78Z"/></svg>
