<svg width="23" height="29" viewBox="0 0 23 29" fill="none" xmlns="http://www.w3.org/2000/svg">
<path d="M3.01025 3.52319V25.5232H19.5103V3.52319H3.01025ZM1.63525 0.773193H20.8853C21.6447 0.773193 22.2603 1.38881 22.2603 2.14819V26.8982C22.2603 27.6576 21.6447 28.2732 20.8853 28.2732H1.63525C0.875869 28.2732 0.260254 27.6576 0.260254 26.8982V2.14819C0.260254 1.38881 0.875869 0.773193 1.63525 0.773193ZM11.2603 21.3982C12.0197 21.3982 12.6353 22.0138 12.6353 22.7732C12.6353 23.5326 12.0197 24.1482 11.2603 24.1482C10.5008 24.1482 9.88525 23.5326 9.88525 22.7732C9.88525 22.0138 10.5008 21.3982 11.2603 21.3982Z" fill="white"/>
</svg>
