<svg xmlns="http://www.w3.org/2000/svg" xmlns:xlink="http://www.w3.org/1999/xlink" viewBox="0 0 155.119 149.943"><defs><style>.cls-1{fill:url(#linear-gradient);}.cls-2{fill:url(#linear-gradient-2);}.cls-3{fill:url(#linear-gradient-3);}.cls-4{fill:url(#linear-gradient-4);}</style><linearGradient id="linear-gradient" y1="74.972" x2="155.119" y2="74.972" gradientUnits="userSpaceOnUse"><stop offset="0.02" stop-color="#3e1785"/><stop offset="0.293" stop-color="#370e5d"/><stop offset="1" stop-color="#200d53"/></linearGradient><linearGradient id="linear-gradient-2" x1="33.612" y1="54.266" x2="124.295" y2="54.266" xlink:href="#linear-gradient"/><linearGradient id="linear-gradient-3" x1="67.261" y1="106.009" x2="87.864" y2="106.009" xlink:href="#linear-gradient"/><linearGradient id="linear-gradient-4" x1="43.932" y1="56.891" x2="69.801" y2="56.891" xlink:href="#linear-gradient"/></defs><g id="Character_2" data-name="Character 2"><path class="cls-1" d="M155.119,8.922v101.19c-1.878,7.081-6.848,8.926-12.741,8.858-15.748-.182-31.5-.062-47.25-.062h-2c.237,1.692.36,3.195.668,4.657,1.459,6.906,5.194,10.969,12.692,10.83a38.576,38.576,0,0,1,5.891.213,7.629,7.629,0,0,1,5.614,11.177c-1.642,3.038-4.324,4.161-7.665,4.158q-32.787-.027-65.575-.012c-.453,0-.908-.034-1.36-.073a7.628,7.628,0,0,1-7.148-7.449,7.534,7.534,0,0,1,6.708-7.825c2.3-.258,4.633-.169,6.952-.237a10.649,10.649,0,0,0,7.672-3.059c3.319-3.406,3.99-7.736,4.342-12.38h-1.97q-24.383,0-48.765,0c-6.837,0-11.172-4.33-11.174-11.158q-.01-48.31,0-96.621C.007,4.379,4.284.02,11.062.016Q77.545-.022,144.029.052a14.091,14.091,0,0,1,5.389,1.162C152.726,2.634,154.288,5.558,155.119,8.922ZM139.53,92.836v-77.2H15.569V92.836ZM5.163,98.348c0,3.077,0,6,0,8.918,0,4.654,1.839,6.481,6.521,6.481q65.87,0,131.74,0c.5,0,1.011.013,1.514-.015,2.467-.14,4.681-1.775,4.844-4.193.249-3.7.065-7.421.065-11.191Zm5.161-5.44V14.377c0-3.315.692-4.019,3.964-4.019q63.243,0,126.486,0c3.357,0,4.023.682,4.023,4.111q0,38.249,0,76.5v1.9h5.162V91.228q0-39.913,0-79.829c0-4.284-1.906-6.212-6.171-6.212q-66.2-.006-132.394,0c-4.354,0-6.23,1.908-6.23,6.305q0,39.84,0,79.679v1.738ZM87.95,118.984H67.164c-.425,5.509-1.587,10.758-5.232,15.235H93.215C89.507,129.691,88.4,124.461,87.95,118.984ZM77.617,144.752q16.056,0,32.111,0a10.325,10.325,0,0,0,1.961-.108,2.507,2.507,0,0,0,.244-4.841,6.218,6.218,0,0,0-1.792-.209c-2.17.01-4.339.1-6.508.094q-29.23-.04-58.462-.1c-2.486,0-3.7.834-3.74,2.543-.039,1.786,1.161,2.627,3.771,2.627Q61.409,144.755,77.617,144.752Z"/><path class="cls-2" d="M117.114,69.859c2.144,2.107,4.028,3.93,5.879,5.787,1.725,1.731,1.733,2.947.04,4.664q-3.189,3.234-6.425,6.424c-1.555,1.526-2.888,1.519-4.447-.026-1.9-1.882-3.755-3.806-6.052-6.141-.938,1.133-1.733,2.232-2.669,3.193-2.413,2.479-4.36,1.993-5.35-1.279-.613-2.025-1.276-4.038-1.8-6.086-.287-1.119-.8-1.459-1.976-1.457q-28.164.064-56.328.03c-.4,0-.808.007-1.212,0-2.186-.044-3.141-.971-3.146-3.157-.015-7.067-.005-14.133-.006-21.2q0-13.249-.009-26.5c0-2.625.789-3.446,3.406-3.447q35.357-.014,70.713,0c2.672,0,3.458.838,3.458,3.564,0,11.306.008,22.612-.032,33.918,0,1.073.246,1.613,1.361,1.891,2.246.561,4.458,1.267,6.67,1.958,2.573.8,3.1,2.911,1.191,4.835C119.389,67.831,118.316,68.75,117.114,69.859ZM38.9,38.839V69.752H94.182c-1.135-3.831-2.235-7.584-3.365-11.329-.365-1.208-.578-2.37.433-3.379s2.163-.817,3.378-.449c3.743,1.132,7.5,2.229,11.264,3.345v-19.1Zm-.07-5.347h67.08V26H38.829ZM97.048,60.841c1.737,5.86,3.357,11.324,5.018,16.926.43-.392.695-.619.944-.863,2.583-2.536,4.1-2.55,6.619-.013,1.559,1.572,3.083,3.177,4.516,4.657l3.843-3.7c-1.85-1.824-3.734-3.629-5.557-5.494-1.644-1.681-1.635-3.195.019-4.86a10.5,10.5,0,0,1,1.715-1.164l-.383-.551Z"/><path class="cls-3" d="M77.529,103.427c2.469,0,4.938-.022,7.407.007,1.8.022,2.93,1.048,2.928,2.564,0,1.5-1.149,2.565-2.941,2.577q-7.331.048-14.662,0c-1.877-.011-3.05-1.107-3-2.667.05-1.516,1.166-2.46,3.012-2.478C72.692,103.408,75.111,103.426,77.529,103.427Z"/><path class="cls-4" d="M56.8,64.646c-3.176,0-6.352.015-9.528,0-2.364-.015-3.31-.96-3.325-3.31q-.028-4.461,0-8.923c.014-2.313.908-3.255,3.177-3.263q9.756-.033,19.511,0c2.23.007,3.119.893,3.144,3.117.034,3.025.028,6.05,0,9.075-.02,2.378-.936,3.289-3.3,3.3C63.252,64.661,60.026,64.646,56.8,64.646Zm7.714-5.241v-5H49.226v5Z"/></g></svg>