<svg xmlns="http://www.w3.org/2000/svg" xmlns:xlink="http://www.w3.org/1999/xlink" viewBox="0 0 177.228 158.588"><defs><style>.cls-1{fill:url(#linear-gradient);}.cls-2{fill:url(#linear-gradient-2);}.cls-3{fill:url(#linear-gradient-3);}.cls-4{fill:url(#linear-gradient-4);}.cls-5{fill:url(#linear-gradient-5);}.cls-6{fill:url(#linear-gradient-6);}.cls-7{fill:url(#linear-gradient-7);}.cls-8{fill:url(#linear-gradient-8);}.cls-9{fill:url(#linear-gradient-9);}.cls-10{fill:url(#linear-gradient-10);}.cls-11{fill:url(#linear-gradient-11);}.cls-12{fill:url(#linear-gradient-12);}.cls-13{fill:url(#linear-gradient-13);}.cls-14{fill:url(#linear-gradient-14);}.cls-15{fill:url(#linear-gradient-15);}</style><linearGradient id="linear-gradient" x1="56.243" y1="76.957" x2="128.7" y2="79.088" gradientUnits="userSpaceOnUse"><stop offset="0.02" stop-color="#3e1785"/><stop offset="0.293" stop-color="#370e5d"/><stop offset="1" stop-color="#200d53"/></linearGradient><linearGradient id="linear-gradient-2" x1="56.547" y1="66.626" x2="129.004" y2="68.757" xlink:href="#linear-gradient"/><linearGradient id="linear-gradient-3" x1="55.438" y1="104.331" x2="127.895" y2="106.462" xlink:href="#linear-gradient"/><linearGradient id="linear-gradient-4" x1="57.257" y1="42.469" x2="129.715" y2="44.6" xlink:href="#linear-gradient"/><linearGradient id="linear-gradient-5" x1="56.286" y1="75.492" x2="128.743" y2="77.623" xlink:href="#linear-gradient"/><linearGradient id="linear-gradient-6" x1="56.006" y1="85.022" x2="128.463" y2="87.153" xlink:href="#linear-gradient"/><linearGradient id="linear-gradient-7" x1="55.982" y1="85.831" x2="128.439" y2="87.962" xlink:href="#linear-gradient"/><linearGradient id="linear-gradient-8" x1="56.837" y1="56.748" x2="129.295" y2="58.88" xlink:href="#linear-gradient"/><linearGradient id="linear-gradient-9" x1="55.469" y1="103.276" x2="127.926" y2="105.407" xlink:href="#linear-gradient"/><linearGradient id="linear-gradient-10" x1="58.077" y1="14.58" x2="130.535" y2="16.711" xlink:href="#linear-gradient"/><linearGradient id="linear-gradient-11" x1="58.004" y1="17.09" x2="130.461" y2="19.221" xlink:href="#linear-gradient"/><linearGradient id="linear-gradient-12" x1="58.015" y1="16.688" x2="130.473" y2="18.819" xlink:href="#linear-gradient"/><linearGradient id="linear-gradient-13" x1="58.026" y1="16.318" x2="130.484" y2="18.45" xlink:href="#linear-gradient"/><linearGradient id="linear-gradient-14" x1="54.826" y1="125.115" x2="127.284" y2="127.246" xlink:href="#linear-gradient"/><linearGradient id="linear-gradient-15" x1="56.866" y1="55.772" x2="129.323" y2="57.903" xlink:href="#linear-gradient"/></defs><g id="Character_2" data-name="Character 2"><path class="cls-1" d="M0,10.779c.241-.21.605-.372.7-.635C3.494,2.767,9.1-.028,16.666,0,36.281.072,55.9.024,75.512.024q35.309,0,70.616,0c11.806.005,17.294,5.535,17.3,17.387q0,45.522-.052,91.044a6.063,6.063,0,0,0,2.4,5.274A68.931,68.931,0,0,1,176,124.5c1.428,1.786,1.733,3.47.233,5.283-11.259,13.617-24.3,24.661-42.26,28.078-13.376,2.546-25.23-1.805-36.221-9.086-3.941-2.611-7.92-5.3-11.067-8.82-2.573-2.881-5.406-3.575-9.1-3.543-19.037.164-38.082-.21-57.112.2-9.2.2-16.555-1.766-20.476-10.878Zm156.482,95.478c0-24.211-.052-47.632.069-71.053.015-2.757-.763-3.342-3.4-3.338q-71.478.121-142.956-.01c-2.786-.005-3.328.807-3.32,3.418.094,28.038.056,56.077.06,84.116,0,7.6,2.536,10.113,10.228,10.118q27.864.016,55.728,0c.693,0,1.385.008,2.077-.009.817-.02,1.718.028,1.346-1.267-.572-1.994.753-3.25,1.811-4.594a82.39,82.39,0,0,1,23.71-20.419c12.666-7.328,26.014-9.7,40.126-4.471A74.873,74.873,0,0,1,156.482,106.257ZM81.744,25.021h67.843c6.907,0,6.907,0,6.907-6.746,0-9.215-2.158-11.351-11.481-11.351q-63.344,0-126.685.007a33.232,33.232,0,0,0-4.141.176c-4.525.572-6.985,3.2-7.239,7.782-.121,2.186.163,4.4-.073,6.571-.311,2.861.648,3.648,3.566,3.632C34.208,24.965,57.976,25.021,81.744,25.021Zm44.665,126.571c1.642-.089,3.14-.145,4.632-.261a15.932,15.932,0,0,0,2.039-.346c14.519-3.085,25.459-11.778,35.21-22.381,1.167-1.268.509-1.916-.308-2.829a77.786,77.786,0,0,0-19.542-16.311c-8.253-4.652-16.973-7.781-26.69-6.113-15.212,2.61-26.481,11.638-36.57,22.592-1.167,1.267-.532,1.895.288,2.829a79.8,79.8,0,0,0,13.741,12.574C107.4,147.151,116.222,151.425,126.409,151.592Z"/><path class="cls-2" d="M55.394,92.239c-10.386,0-20.772.017-31.158-.008-4.571-.011-5.538-.97-5.543-5.429q-.023-20.253,0-40.508c0-4.419.868-5.324,5.239-5.329q31.5-.033,63.009,0c4.361,0,5.177.887,5.182,5.37q.019,20.253,0,40.507c0,4.434-.968,5.378-5.569,5.388C76.167,92.255,65.78,92.239,55.394,92.239ZM25.678,80.308c5.213-5.245,9.753-9.841,14.326-14.4,3.156-3.148,4.24-3.235,7.448-.138,1.314,1.27,2.034,1.3,3.286-.016,3.424-3.588,6.987-7.043,10.5-10.55,4.634-4.634,5.237-4.632,9.939.078,4.5,4.5,8.985,9.014,13.968,14.015,0-6.956-.049-13.053.033-19.149.022-1.614-.394-2.179-2.1-2.174q-27.69.086-55.379.014c-1.38,0-2.061.231-2.05,1.856C25.712,59.719,25.678,69.6,25.678,80.308Zm49.09,4.785c3.537,0,5.958.023,8.378-.013.748-.011,1.852.217,1.819-1-.06-2.2.667-4.464-1.446-6.413C79.456,73.924,75.65,69.9,71.738,65.983c-5.567-5.566-5.582-5.582-11.063-.053-2.018,2.036-5.385,4.071-5.53,6.277-.17,2.6,3.747,4.245,5.586,6.567C64.634,83.7,69.22,86.852,74.768,85.093ZM56.6,84.866C52.409,80.728,48.577,77,44.822,73.2c-.964-.976-1.493-.509-2.213.206-3.724,3.7-7.474,7.368-11.631,11.458Z"/><path class="cls-3" d="M41.546,100.428q8.816,0,17.629,0c2.36,0,4.632.437,4.72,3.332.095,3.115-2.233,3.64-4.749,3.64q-17.8,0-35.605,0c-2.364,0-4.646-.468-4.736-3.332-.1-3.1,2.25-3.638,4.766-3.641Q32.559,100.421,41.546,100.428Z"/><path class="cls-4" d="M124.292,40.957q7.071,0,14.142,0c2.458,0,4.5.727,4.428,3.582-.064,2.637-2.065,3.365-4.346,3.37q-14.485.033-28.972,0c-2.417-.007-4.49-.748-4.422-3.628.064-2.684,2.051-3.318,4.339-3.321Q116.877,40.95,124.292,40.957Z"/><path class="cls-5" d="M123.259,77.3c0-2.191-.047-4.384.009-6.573.059-2.315,1.3-3.81,3.613-3.723,2.128.079,3.265,1.579,3.282,3.72.036,4.612.054,9.226-.014,13.838a3.439,3.439,0,1,1-6.873,0C123.211,82.148,123.262,79.725,123.259,77.3Z"/><path class="cls-6" d="M147.735,81.149a3.288,3.288,0,0,1,3.011,1.546,3.123,3.123,0,0,1-.187,3.872c-2.188,2.357-4.458,4.653-6.856,6.794a3.051,3.051,0,0,1-4.124-.1,2.826,2.826,0,0,1-.959-3.713,27.9,27.9,0,0,1,8.2-8.2A2.45,2.45,0,0,1,147.735,81.149Z"/><path class="cls-7" d="M114.786,90.136c.01,2.562-2.77,4.447-4.847,3.156a28.413,28.413,0,0,1-7.31-7.14,2.976,2.976,0,0,1,.331-3.815,2.839,2.839,0,0,1,3.687-.942,25.1,25.1,0,0,1,7.895,7.894A2.7,2.7,0,0,1,114.786,90.136Z"/><path class="cls-8" d="M112.7,54.949c1.383,0,2.771-.075,4.149.014a3.083,3.083,0,0,1,3.141,3.065,3.016,3.016,0,0,1-2.606,3.52,30.367,30.367,0,0,1-9.628.011,3.019,3.019,0,0,1-2.648-3.49,3.054,3.054,0,0,1,3.1-3.1C109.7,54.872,111.2,54.952,112.7,54.949Z"/><path class="cls-9" d="M80.583,104.01c-.213,1.995-1.323,3.227-3.306,3.243a3.106,3.106,0,0,1-3.406-3.434,3.062,3.062,0,0,1,3.265-3.241C79.294,100.559,80.434,101.862,80.583,104.01Z"/><path class="cls-10" d="M105.213,19.46q-16.066,0-32.133,0a7.067,7.067,0,0,1-4.019-.713,3.116,3.116,0,0,1-1.406-3.29,2.878,2.878,0,0,1,2.352-2.654,20.824,20.824,0,0,1,3.768-.311q31.786-.027,63.575-.013c.576,0,1.152-.011,1.727.008,2.414.081,4.506.744,4.4,3.655-.1,2.7-2.159,3.3-4.4,3.3Q122.144,19.483,105.213,19.46Z"/><path class="cls-11" d="M20.512,19.286a3.08,3.08,0,0,1-3.184-3.212c-.03-2.215,1.267-3.42,3.479-3.377A3.041,3.041,0,0,1,24,16.041C23.964,17.964,22.761,19.21,20.512,19.286Z"/><path class="cls-12" d="M33.293,12.657a3.106,3.106,0,0,1,3.375,3.068,3.02,3.02,0,0,1-2.983,3.515A3.09,3.09,0,0,1,30,16.047C29.934,14.112,31.114,12.846,33.293,12.657Z"/><path class="cls-13" d="M49.414,15.914c-.148,1.923-1.086,3.245-3.146,3.335a2.985,2.985,0,0,1-3.448-3,3.027,3.027,0,0,1,3.238-3.564C48.079,12.636,49.176,13.872,49.414,15.914Z"/><path class="cls-14" d="M126.838,146a18.741,18.741,0,0,1-18.87-18.522,18.748,18.748,0,1,1,37.495-.245A18.733,18.733,0,0,1,126.838,146Zm-3.679-29.488c-5.251,1.045-8.8,6.227-8.239,12.029A11.753,11.753,0,0,0,126.9,139.1c5.409-.053,10.068-3.823,10.5-8.5C129.445,133.588,120.076,128.7,123.159,116.512Zm12.815,4.788c-.134-1.836-1.021-3.159-3.1-3.253a2.973,2.973,0,0,0-3.446,2.968,3.029,3.029,0,0,0,3.208,3.572C134.6,124.644,135.776,123.443,135.974,121.3Z"/><path class="cls-15" d="M38.713,58.717c-1.727,0-3.455.043-5.181-.006A3.334,3.334,0,0,1,29.947,55.3a3.216,3.216,0,0,1,3.165-3.479,106.739,106.739,0,0,1,11.384,0,3.444,3.444,0,0,1-.257,6.882C42.4,58.765,40.555,58.713,38.713,58.717Z"/></g></svg>